<?xml version="1.0" encoding="UTF-8"?><svg id="_圖層_2" xmlns="http://www.w3.org/2000/svg" viewBox="0 0 601.46 933.27"><defs><style>.cls-1{stroke-width:1.4px;}.cls-1,.cls-2{fill:none;stroke:#003d7e;stroke-miterlimit:10;}.cls-2{stroke-width:1.37px;}.cls-3{fill:#003d7e;}.cls-4{fill:#1c4180;}</style></defs><g id="_圖層_1-2"><path class="cls-3" d="M229.68,463.24h-57.12v9.6c.14-.1.23-.16.32-.23.79-.62,1.7-.94,2.7-1,2.6-.17,4.81,1.9,4.81,4.51,0,2.68,0,5.36,0,8.04,0,.16-.01.32-.02.5h-2.77v-.57c0-2.22,0-4.43,0-6.65,0-.25,0-.5-.05-.74-.33-1.83-2.51-2.67-3.98-1.54-.68.53-1.03,1.24-1.04,2.1,0,2.28,0,4.57,0,6.85v.54h-2.91v-21.39c-.59-.1-88.8-.08-89.16.01-.08,3.6-.03,9.21.1,9.54.12-.09.24-.18.35-.27,1.1-.8,2.34-1.08,3.67-.86,2.18.37,3.76,2.29,3.77,4.52,0,2.66,0,5.33,0,7.99,0,.15,0,.29,0,.47h-2.84c0-.21,0-.39,0-.57,0-2.23,0-4.47,0-6.7,0-.17,0-.33-.01-.5-.17-1.77-2.19-2.81-3.72-1.9-.9.53-1.32,1.36-1.32,2.4,0,2.23,0,4.47,0,6.7,0,.19-.01.38-.02.57h-2.9v-10.76c0-1.79,0-3.57,0-5.36,0-1.78,0-3.56,0-5.32h-36.74v29.22h188.91c.1-.81.06-28.86-.03-29.22ZM103.65,484.59h-2.8v-1.17c-.17.12-.28.18-.37.26-1.58,1.37-3.38,1.49-5.26.84-2.68-.93-4.44-3.58-4.36-6.46.08-2.83,1.98-5.33,4.67-6.14,1.38-.41,2.74-.43,4.03.34.42.25.81.57,1.29.92v-1.18c.37-.12,2.12-.15,2.78-.06.11.35.13,12.06.02,12.65ZM117.74,484.53c-.38.12-2.33.13-2.86,0,0-.18,0-.37,0-.57,0-2.23,0-4.47.01-6.7.01-1.36-.94-2.22-1.9-2.48-1.43-.39-2.97.44-3.25,1.83-.11.54-.07,1.12-.08,1.68,0,1.9,0,3.81,0,5.71v.57h-2.92v-12.68c.89-.02,1.76-.01,2.68,0,.02.36.04.7.06,1.1.19-.15.32-.24.44-.34,2.57-2.01,6.41-.98,7.53,2.04.16.43.27.9.27,1.35.03,2.75.02,5.49.03,8.24,0,.08-.01.16-.02.24ZM127.36,484.52c-2.19.94-4.96.29-6.54-1.49-.58-.66-.96-1.42-1.03-2.31,0-.08.01-.16.02-.26h2.94s.05.09.06.13c.14.73.6,1.2,1.27,1.48.73.3,1.48.3,2.22.02.3-.11.55-.3.72-.58.35-.57.21-1.23-.4-1.51-.4-.19-.84-.29-1.27-.4-.85-.21-1.72-.36-2.55-.61-.51-.16-1.01-.42-1.46-.72-1.26-.84-1.65-1.94-1.28-3.4.29-1.16.99-2.01,2.03-2.56,1.99-1.06,4.89-.84,6.64,1.03.61.65,1.01,1.47,1.09,2.26h-3.1c-.37-1.2-1.96-1.78-3.24-1.14-.1.05-.2.12-.29.19-.53.43-.52,1.07.04,1.46.27.18.59.31.91.38.85.2,1.71.36,2.57.54.63.13,1.25.32,1.81.66,1.15.69,1.66,1.72,1.58,3.04-.11,1.83-1.07,3.09-2.73,3.8ZM143.47,486.74c-1.08,1.35-2.44,2.28-4.14,2.64-2.49.53-5.67-.64-6.96-3.32-.07-.15-.12-.3-.2-.5.17-.02.3-.05.42-.05.73,0,1.46,0,2.18-.02.29,0,.49.09.7.29,1.13,1.09,2.8,1.37,4.23.72,1.43-.65,2.37-2.15,2.3-3.69,0-.01-.02-.02-.06-.05-.14.12-.29.25-.43.38-2.34,2.24-5.25,1.65-7.12.1-3.91-3.24-2.86-9.29,1.71-11.21,1.68-.7,4.12-.59,5.8,1.05.19-.36-.02-.75.14-1.15h2.59v.6c0,3.57-.02,7.15,0,10.72.01,1.32-.37,2.47-1.18,3.49ZM153.74,474.38c-.27.05-.54.07-.78.15-.39.14-.79.27-1.13.49-.68.44-1.04,1.07-1.03,1.91.01,2.36,0,4.73,0,7.09,0,.18,0,.36,0,.57h-2.96v-12.7c.89,0,1.77,0,2.69,0,.02.33.05.62.07.99.57-.59,1.19-.96,1.91-1.12.4-.09.8-.12,1.24-.19v2.8ZM164.1,483.87c-2.7,1.75-6.09,1.17-8.17-1.32-2.35-2.83-1.91-7.24.93-9.52,2.98-2.4,7.42-1.64,9.41,1.91.58,1.03.86,2.14.85,3.33-.06,2.37-1.01,4.3-3.02,5.6ZM195.36,479.23s-.04.09-.08.18h-9.55c.04.16.05.29.09.4.49,1.35,1.82,2.23,3.33,2.2.95-.02,1.78-.36,2.43-1.05.2-.21.4-.3.69-.29.86.02,1.72,0,2.62,0-.04.16-.06.27-.1.37-1.01,2.5-3.64,4.1-6.3,3.82-1.82-.2-3.28-1.07-4.37-2.54-2.36-3.19-1.46-7.81,1.9-9.83,2.46-1.48,5.74-.95,7.63,1.22,1.16,1.33,1.72,2.88,1.72,4.63,0,.3,0,.59-.02.89Z"/><path class="cls-3" d="M138.09,474.6c-1.85.17-3.19,1.71-3.22,3.61.05.32.07.66.16.97.68,2.53,3.71,3.47,5.63,1.75,1.51-1.36,1.63-3.76.23-5.25-.76-.81-1.7-1.19-2.8-1.09Z"/><path class="cls-3" d="M95.21,475.34c-.94.75-1.38,1.74-1.41,3.06.03.18.04.5.13.8.38,1.34,1.21,2.27,2.58,2.61,1.31.33,2.46-.05,3.37-1.04,1.31-1.42,1.29-3.63-.01-5.06-1.22-1.34-3.24-1.51-4.66-.38Z"/><path class="cls-3" d="M188.81,474.49c-1.44.17-2.76,1.22-2.81,2.22h6.37c-.37-1.41-1.99-2.41-3.56-2.22Z"/><path class="cls-3" d="M161.54,474.68c-1.3-.32-2.43.07-3.32,1.05-1.33,1.45-1.26,3.78.12,5.18,1.32,1.33,3.38,1.37,4.73.08.77-.73,1.15-1.64,1.19-2.71-.06-.36-.07-.73-.17-1.07-.38-1.3-1.22-2.2-2.55-2.53Z"/><path class="cls-3" d="M526.4,690.15c.72-2.13,1.38-4.11,2.06-6.08,1.31-3.78,2.64-7.55,3.95-11.33.75-2.15.58-3.56-.48-4.33-1.21-.87-3.45-.68-4.86.7-.87.85-1.59,1.99-2.02,3.14-2.06,5.53-4.02,11.1-5.96,16.68-.36,1.04-.87,1.44-2,1.42-3.77-.07-7.54-.02-11.31-.03-.43,0-.87-.05-1.55-.09.2-.66.34-1.19.52-1.72,1.95-5.52,3.9-11.04,5.85-16.56.07-.18.12-.37.18-.56.4-1.11.53-2.23-.37-3.15-.98-1-2.22-.95-3.42-.53-1.76.62-2.92,1.86-3.56,3.64-2.1,5.88-4.25,11.74-6.33,17.64-.35.99-.82,1.37-1.89,1.35-3.62-.06-7.25-.02-10.87-.03-.43,0-.85-.06-1.45-.11.2-.68.34-1.24.53-1.77,3.34-9.58,6.71-19.16,10.01-28.75.39-1.12.93-1.47,2.1-1.44,3.71.08,7.42.03,11.3.03-.14.89-.26,1.63-.41,2.52,1.38-.75,2.59-1.48,3.85-2.08,2.59-1.23,5.3-2.03,8.21-1.74,3.29.32,5.85,1.8,7.31,4.68,2.59-1.21,5.03-2.55,7.61-3.52,2.98-1.12,6.09-1.36,9.18-.18,4.58,1.74,6.81,6.33,5.21,10.92-2.34,6.73-4.75,13.43-7.12,20.15-.25.72-.48,1.32-1.47,1.31-4.01-.05-8.03-.02-12.04-.03-.19,0-.38-.07-.82-.17Z"/><path class="cls-3" d="M402.12,687.35c-.14.15-.24.21-.25.28-.48,2.5-2.12,2.91-4.4,2.74-2.68-.2-5.38-.04-8.07-.05-.52,0-1.04-.05-1.71-.09.18-.62.29-1.08.44-1.53,4.95-14.08,9.9-28.17,14.86-42.25.25-.7.44-1.34,1.45-1.33,4.06.05,8.13.02,12.19.04.18,0,.36.09.76.19-1.62,4.72-3.23,9.39-4.79,13.92,2.55-.86,5.02-1.93,7.61-2.52,7.05-1.6,12.63,2.87,12.82,10.06.28,10.61-8.63,22.28-18.77,24.22-2.28.44-4.77.12-7.1-.23-2.09-.32-3.88-1.51-5.04-3.46ZM406.22,676.32c-.07,3.38,2.37,5.14,5.7,4.1,3.89-1.22,6.9-5.1,7.12-9.18.19-3.49-2.62-5.58-5.93-4.41-3.43,1.22-6.81,5.87-6.89,9.49Z"/><path class="cls-3" d="M491.29,658.28c-.22.69-.37,1.19-.55,1.68-3.4,9.61-6.83,19.21-10.19,28.84-.4,1.15-.95,1.6-2.2,1.56-3.03-.09-6.07-.03-9.1-.03-.52,0-1.03-.06-1.66-.1.18-.91.33-1.66.52-2.59-.57.32-1.01.55-1.45.81-3.2,1.9-6.57,3.21-10.37,3.16-6.03-.07-9.69-4.39-8.16-10.22,1.17-4.47,2.92-8.78,4.44-13.16,1.01-2.9,2.08-5.78,3.07-8.69.31-.9.71-1.33,1.76-1.31,3.86.07,7.71.03,11.77.03-.28.84-.47,1.48-.69,2.11-1.85,5.14-3.69,10.29-5.55,15.42-.56,1.53-1.01,3.16.42,4.34,1.36,1.12,2.97.62,4.43-.07,1.75-.83,2.99-2.11,3.67-3.98,1.99-5.5,4.07-10.98,6.05-16.49.35-.98.81-1.35,1.88-1.33,3.91.07,7.81.03,11.93.03Z"/><path class="cls-3" d="M428.11,690.27c.19-.69.3-1.15.45-1.6,4.96-13.98,9.94-27.95,14.85-41.95.39-1.12.9-1.51,2.07-1.49,3.57.07,7.15.02,10.72.03.48,0,.96.05,1.62.08-.16.58-.26,1.04-.42,1.47-4.99,14.02-9.99,28.04-14.94,42.07-.39,1.12-.91,1.51-2.09,1.49-3.52-.08-7.05-.02-10.57-.03-.48,0-.96-.04-1.7-.07Z"/><path class="cls-3" d="M374.71,690.12c1.66-4.73,3.28-9.37,4.9-14.01.48-1.38.99-2.75,1.43-4.15.39-1.27.03-1.73-1.28-1.74-.88,0-1.76.1-2.64.06-1.63-.07-2.22-1.21-1.38-2.62.2-.33.48-.62.75-.9,2.99-3.02,5.96-6.07,9.03-9.02.58-.56,1.6-.98,2.39-.94,1.16.06,1.41,1.21,1.53,2.2.54,4.46,1.09,8.91,1.52,13.38.07.69-.34,1.79-.86,2.06-.53.27-1.47-.24-2.22-.42-.04,0-.08-.06-.11-.09-3.21-2.74-2.84-2.31-4.08,1.15-1.67,4.69-3.31,9.38-4.94,14.08-.26.76-.52,1.38-1.66.99.11-.44.19-.85.33-1.24,1.87-5.39,3.74-10.78,5.61-16.17.14-.41.31-.83.53-1.2.77-1.28,1.72-1.45,2.91-.53.87.67,1.71,1.4,2.81,1.99-.23-5.02-.63-9.95-1.57-14.76-3.69,3.57-7.18,6.95-10.96,10.61,1.3,0,2.33,0,3.36,0,2.14.01,2.96,1,2.33,3.1-.75,2.47-1.68,4.89-2.53,7.33-1.15,3.32-2.31,6.63-3.45,9.95-.26.77-.56,1.38-1.75.89Z"/><path class="cls-3" d="M549.44,288.96c-2.84,6.66-6.97,11.93-14.39,13.9-9.67,2.57-20.35-3.28-23.33-12.86-3.16-10.15,2.27-20.98,12.18-24.32,9.96-3.36,20.33,1.38,24.08,11.24-3.52.79-6.33.75-9.21-2.27-4.93-5.17-13.62-4.46-18.27.92-4.74,5.49-4.08,13.54,1.52,18.33,5.44,4.66,14.27,4.13,18.09-1.97,2.55-4.08,5.41-4.54,9.33-3.81v.84Z"/><path class="cls-3" d="M392.86,303.97h-31.78c.7-1.21,1.16-2.13,1.74-2.98,7.6-11.04,15.19-22.09,22.86-33.08.73-1.04,1.97-2.41,3.01-2.43,7.79-.2,15.58-.11,23.57-.11v38.38h-15.49c-.47-3.68-1.49-7.05,3.86-8.98,5.03-1.82,7.12-7.75,5.86-13.05-1.15-4.85-5.87-8.59-11.03-8.72-5.45-.14-10.06,3.22-11.59,8.45-1.48,5.04.25,11.02,5,12.92,5.04,2.02,4.73,5.27,4,9.6Z"/><path class="cls-3" d="M438.45,295.96v-20.54c-2.37,4.31-4.27,7.74-6.14,11.18-2.33,4.29-5,8.43-6.84,12.92-1.8,4.37-4.54,5.47-9.15,4.11,2.91-5.74,5.8-11.42,8.66-17.1,2.38-4.72,4.71-9.47,7.1-14.18,3.47-6.85,5.01-7.64,13.19-6.61v38.1h-19.16c1.62-6.84,1.65-6.86,12.34-7.88Z"/><path class="cls-3" d="M464.12,265.85c5.02-1.55,7.38.25,9.33,4.28,3.75,7.77,8.09,15.26,12.87,22.8v-27.38h6.62v37.94c-5.72,1.46-8.98.83-11.16-3.27-6.02-11.29-11.72-22.75-17.65-34.37Z"/><path class="cls-3" d="M474.4,303.93h-23.49v-38.33h6.65v30.5h16.84v7.83Z"/><path class="cls-3" d="M505.44,303.89h-6.16v-38.33h6.16v38.33Z"/><path class="cls-3" d="M174.97,289.63c-1.55,5.88-3.06,11.54-4.58,17.39-2.59,1.9-7.58.15-10.95.75-5.86-11.32-9.03-25.61-13.79-37.95,19.42-1.16,13,.53,19.75,16.39,1.42-5.33,2.79-10.45,4.17-15.76,2.3-1.77,6.82-.15,9.85-.71,3.18,4.01,3.07,11.36,5.15,16.46,6.74-16.01.37-17.46,19.75-16.4-4.86,12.29-7.84,26.85-13.9,37.97-3.33-.63-8.42,1.24-10.89-.83-1.52-5.78-2.96-11.55-4.58-17.3Z"/><path class="cls-3" d="M142.09,288.22c10.47,3.71,7.3,20.16-3.94,19.52-7.04.01-14.09,0-21.13,0-.95,0-.95,0-.95-.93,0-12.04,0-24.08,0-36.13q0-.94.94-.95c6.44,0,12.89,0,19.33,0,9.87-.45,14.08,13.23,5.75,18.47ZM127.74,293.95c-.25,5.76-.4,5.67,5.34,5.36,2.72.02,2.89-4.63.68-5.28-1.95-.21-3.93-.02-6.02-.08ZM127.7,281.75c.21.77-.55,2.52.63,2.52,1.77-.14,4.31.59,4.75-1.79.83-3.21-2.56-3.38-4.84-3.21-1.06.09-.34,1.74-.54,2.47Z"/><path class="cls-3" d="M229.26,282.09c-2.3.6-7.81-1.72-7.12,1.98,0,7.58,0,15.16,0,22.74,0,.94,0,.95-.96.95-2.4-.56-12.93,1.29-12.91-1.01,0-7.91,0-15.83,0-23.74.07-1.96-5.07-.48-6.63-.92,1.8-3.79,2.06-9.77,5.04-12.35,7.25.02,14.49.02,21.74,0,2.13,1.24.23,9.45.85,12.35Z"/><path class="cls-3" d="M107.29,287.06c-3.97-15.46-23.64-18.58-35.27-27.11v4.7c-2.5-1.33-4.89-2.6-7.43-3.95,1.15,12.89-2.74,27.13,2.41,39.22,9.82,16.74,44.8,8.51,40.29-12.87ZM85.02,305.57c-22.99,2.71-17.1-25.68-17.63-40.23,2.56,1.89,6.51,2.66,8.15,5.18,1.58,8.1-4.4,23.09,5.03,26.9,7.86,2.15,11.65-9.84,4.11-12.71-1.33-2.09-.23-5.89-.46-8.51,16.09,1.69,17.05,26.56.81,29.37Z"/><line class="cls-1" x1="308.24" x2="308.24" y2="163.05"/><line class="cls-1" x1="306.63" y1="197.06" x2="306.63" y2="360.11"/><line class="cls-1" x1="306.63" y1="396.36" x2="306.63" y2="559.41"/><line class="cls-1" x1="306.63" y1="586.2" x2="306.63" y2="749.25"/><line class="cls-1" x1="306.63" y1="770.22" x2="306.63" y2="933.27"/><line class="cls-1" x1="293.05" y1="180.64" y2="180.64"/><line class="cls-1" x1="293.05" y1="376.68" y2="376.68"/><line class="cls-2" x1="601.46" y1="180.64" x2="321.15" y2="180.64"/><line class="cls-2" x1="601.46" y1="376.68" x2="321.15" y2="376.68"/><line class="cls-1" x1="293.05" y1="571.15" y2="571.15"/><line class="cls-2" x1="601.46" y1="571.15" x2="321.15" y2="571.15"/><line class="cls-1" x1="293.05" y1="756.56" y2="756.56"/><line class="cls-2" x1="601.46" y1="756.56" x2="321.15" y2="756.56"/><path class="cls-3" d="M518.69,110.74c-20.68,3.18-27.32-28.55-7.46-33.59,27.46-8.68,36.16,32.4,7.46,33.59ZM527.63,93.63c-.11-.02-.21-.04-.32-.06,2.06-10.85-11.96-19.03-17.58-7.99-8.3,19.1,15.43,32.43,17.9,8.04Z"/><path class="cls-3" d="M439.67,110.91c-21.06,1.25-24.58-32.18-3.32-34.26,27.64-5.51,31.54,34.98,3.32,34.26ZM430.67,93.56c-.66,15.1,17.74,18.58,19.13,2.58,3.51-18.37-19.16-22.27-19.13-2.58Z"/><path class="cls-3" d="M412.51,109.41h-21.08v-3.81c2.25-.34,6.75,1.26,6.49-2.29,0-6.84,0-13.67.02-20.51,0-.78-.19-1.13-1.02-1.05-5.1-.65-8.27,3.2-8.09,8.17-1.3-.3-3.71.77-4.2-.77-.03-3.51,0-7.03-.03-10.54,9.73-2.27,22.55-.01,33.28-.82,3,.36.61,8.38,1.38,10.95.26,1.87-3.01,1.27-3.95,1.04-.88-5.64-3.34-8.82-8.73-7.99-1.73,6.49-.1,14.48-.64,21.45.29,5.62,8.13-1.53,6.58,6.15Z"/><path class="cls-3" d="M489.89,109.41h-21.07v-3.8c2.29-.33,6.78,1.27,6.51-2.38,0-6.8,0-13.59.01-20.39,0-.76-.18-1.15-1.02-1.08-4.01-.36-7.73,1.78-7.85,6.3q-.11,1.89-1.96,1.89-2.5,0-2.5-2.45c.64-2.49-1.43-8.87,1.12-9.69,10.78.03,21.57.03,32.35,0,.83,0,1.15.23,1.14,1.1-.69,2.74,1.4,9.97-1.04,11.04-2.52.15-3.87.33-3.45-2.64-1-4.22-3.62-6.05-8.09-5.57-1.83,1.77-.21,6.48-.73,9.15,0,4.05,0,8.09,0,12.14,0,5.98,8.15-1.39,6.58,6.36Z"/><path class="cls-3" d="M131.79,112.13c.08-1.41-.51-2.88.96-3.58,16.63-6,6.96-16.86,12.23-22.06,3.03.09,2.57-.27,2.61,2.63-2.51,13.03,15.73-8.99,8.58-8.91-4.09-.93-24.6,2.05-24.55-1.55-.51-2.53,1.53-2.17,3.37-2.13,4.81,1.04,27.41-2.46,27.66,2.07-.42,8.61-6.44,16.25-14.44,19.25-3.61,7.73-6.97,12.98-16.42,14.29Z"/><path class="cls-3" d="M177.27,93.9c.84-3.4-1.92-17.13,1.57-17.34,3.23.09,2.65-.27,2.66,2.66.91,3.27-2.12,31.38,1.87,28.02,10.62-3.67,7.28-16.69,10.68-17.93,3.04.07,2.66-.22,2.49,2.55-.07,9.86-6.6,21.19-17.74,20.23-3.51-1.65-.66-14.06-1.54-18.19Z"/><path class="cls-3" d="M127.36,84.34c.68,6.93-.79,6.89-7.15,6.57-1.72.12-1.55-3.97.4-3.46,3.81.06,3.31.1,3.33-3.43.02-2.72,0-2.73-2.81-2.73-1.4.16-3.58-.53-4.27,1.09-1.25,4.43-4.08,7.16-8.61,8.12-2.42.68-3.19.7-2.75-2.04.03-.35.78-.78,1.28-.92,3.14-.6,5.29-2.75,6.04-5.83-2.26-1.33-8.21,1.16-8.53-1.82.04-1.02-.26-2.26,1.23-2.12,2.33-.6,7.6,1.56,8.17-1.42,0-.53.22-1.48.43-1.5,1.45.04,3.84-.79,3.44,1.57-.06,1.03.33,1.41,1.37,1.39,6.32-.09,9.44-1.35,8.42,6.55Z"/><path class="cls-3" d="M96.86,99.46c-.79-2.91,1.87-12.93-1.66-13.09-.97-.18-.99-1.51-.91-2.34-.05-.76.31-1.09,1.05-1.02,3.9-.18-.65-7.56,2.61-8.35,4.42-1.03,2.31,4.2,2.72,6.82-.45,2.09,2.34,1.22,3.12,1.85,1.38,5.5-3.61,1.01-3.09,5.34-.8,3.33,2.01,25.45-1.77,23.57-3.99,1.16-1.35-10.14-2.07-12.8Z"/><path class="cls-3" d="M161.29,112.37c.19-1.66-.61-3.5.74-4.59,8.88-6.93,4.62-20.04,5.55-29.79-.01-1.12.39-1.45,1.46-1.44,3.43.06,2.96-.25,2.97,2.95-.43,11.45,3.18,28.1-10.71,32.86Z"/><path class="cls-3" d="M116.06,112.11c-.9-3.83,3.34-5.55,2.94-9.7-.13-1.5,1.18-4.95-1.2-4.94-.58.02-1.63-.12-1.68-.33-.83-5.15,1.27-1.88,3.15-4.19,1.13-1.3,3.34.36,4.52.84,1.8.13,4.68-.36,4.61,2.27-1.12,4.66,3.43,17.02-4.18,16.2-2.8-.04-2.38.35-2.45-2.5.11-2.46,3.61.37,2.98-3.04-.58-2.46,1.34-8.17-1.06-9.23-3.63,1.76.41,12.38-7.62,14.62Z"/><path class="cls-3" d="M102.35,112.18c-.68-4.02,3.63-6.15,2.98-10.44-.02-3.67.96-4.04-2.94-4.58-.11-1.24-.74-3.27,1.17-3.32,1.71.06,2.89-2.12,4.97-.77,1.7,1.72,5.91-.57,6.02,2.81-1.16,5.4,3.85,18.09-5.34,16.21-1.35.12-.92-1.17-1.02-2.04-.53-2.65,3.45-.13,2.95-2.94-.72-2.51,1.52-8.9-1.32-9.65-3.83,2.2.78,12.28-7.47,14.72Z"/><path class="cls-3" d="M226.92,112.16c-8.78-2.82-17.48-3.56-26.6-3.13-.99.02-1.3-.31-1.3-1.29,0-2.85-.03-2.84,2.84-2.85,5.7.34,26.75-1.25,25.07,7.27Z"/><path class="cls-3" d="M76.67,107.94c3.17.81,16.2-1.86,16.26,1.5,1.73,4.23-27.15.94-31.43,1.92-1.45,0-1.42-.04-1.47-1.9.13-3.4,13.4-.7,16.64-1.52Z"/><path class="cls-3" d="M225.37,84.07c-7.82-3.02-15.81-3.54-24.07-3.19-.88.02-1.27-.19-1.27-1.18-.01-2.97-.05-3.01,2.98-2.96,5.79.65,23.53-1.32,22.37,7.32Z"/><path class="cls-3" d="M76.4,80.89c-3.17-.87-15.72,2.31-14.26-2.46-.14-1.2,1.07-.91,1.86-.95,8.82.42,18.32-.85,26.86.51.12.88.03,1.81-.11,2.7-4.6.54-9.64.04-14.35.2Z"/><path class="cls-3" d="M76.53,96.17c-2.92-.76-13.13,1.75-13.46-1.45.07-2.24,0-2.24,2.27-2.24,8.02.41,16.74-.84,24.49.51.14.97.05,1.97-.08,2.95-4.2.6-8.9.05-13.22.23Z"/><path class="cls-3" d="M224.5,96.46c-7.29-2.54-14.49-3.68-22.16-3.27-.77.01-1.16-.23-1.16-1.07.02-3.42-.22-2.87,2.65-2.8,5.49.61,21.88-.98,20.66,7.15Z"/><path class="cls-3" d="M415.54,828.9c-.12,15.22-.12,30.47,0,45.69h-46.09v-45.69h46.09ZM398.94,870.94c18.14-4.5,18.39-34.07,0-38.33v38.33ZM372,852.93c.01,11.64,14.55,23.3,24.77,17.89-.99-11.16-11.38-19.45-24.77-17.89ZM372.02,850.69c11.39,1.25,23.92-5.77,24.75-18,.03-.63-.08-1-.83-1.04-11.67-2.15-23.43,7.05-23.92,19.04Z"/><path class="cls-3" d="M430.82,843.82c.04,1.99-.1,3.54.08,5.36h9.4v3.67h-9.54c-1.22,7.69,4.93,6.32,10.39,6.31v3.72c-19.02,2.09-13.44-9.11-14.15-22.62h13.9v3.56h-10.08Z"/><path class="cls-3" d="M467.15,855.56h-12.66c.12,4.86,6.6,5.55,9.45,2.43.75.77,1.49,1.53,2.26,2.31-8.01,8.81-21.74-3.49-13.09-12.05,5.45-5.96,16.28.32,14.03,7.31ZM463.3,852.75c-.1-4.79-8.49-4.32-8.65,0h8.65Z"/><path class="cls-3" d="M526.72,854.61c.2,11.21-18.08,11.32-17.98.07-.32-11.26,18.18-11.38,17.98-.07ZM522.81,854.7c.27-6.71-10.27-6.79-10.15-.16-.27,6.69,10.2,6.84,10.15.16Z"/><path class="cls-3" d="M536.07,846.54h3.9c.79,4.03-2.47,12.55,3.46,13.09,6.3-.23,2.97-8.95,3.75-13.06h3.94c-.36,5.93,2.15,15.97-6.44,16.57-10.25,1.39-8.77-9.68-8.62-16.6Z"/><path class="cls-3" d="M561.3,851.33c2.11-3.16,3.54-5.72,7.77-4.84-7.44,9.34-5.64,7.11.55,16.27-4.61,1.06-5.93-2.5-8.31-5.73-2.39,3.26-3.69,6.77-8.36,5.74,6.29-9.03,8.04-7.05.59-16.24,4.44-.82,5.47,1.48,7.77,4.8Z"/><path class="cls-3" d="M482.64,851.14c-12.19-8.06-12.02,14.92-.06,6.85.75.77,1.51,1.55,2.27,2.33-3.63,5.54-15.19,2.53-15.38-4.6-1.42-8.59,10.31-13.19,15.47-7-.76.8-1.53,1.61-2.3,2.41Z"/><path class="cls-3" d="M494.83,846.48v3.42h-3.29c.38,3.47-1.76,9.15,3.34,9.35v3.36c-11.39,1.09-6.55-15.43-7.26-22.37h3.71c.47,2.03-1.4,6.99,1.76,6.24.56,0,1.12,0,1.73,0Z"/><path class="cls-3" d="M447.91,862.71h-3.8c-.13-7.15.01-14.28-.07-21.43-.06-2,2.58-.74,3.87-1.09v22.52Z"/><path class="cls-3" d="M532.92,862.71h-3.71v-22.47h3.71v22.47Z"/><path class="cls-3" d="M502.04,862.73h-3.7v-16.16h3.68c.03.61.07,1.22.11,2.03,1.53-2.13,3.51-2.65,5.89-2.41v3.67c-7.99-1.26-5.62,7.89-5.98,12.86Z"/><path class="cls-3" d="M252.43,669.37c-3.77,26.39-30.12,15.32-28.94,29.53-11.73-4.91-20.67-17.86-16.14-30.65,1.77-8.15,9.79-14.06,8.18-22.89,5.7,2.05,9.46,5.82,11.33,11.66,4.13-5.02,10.29-9.86,10.23-16.87.12-.02.25-.03.37-.05,7.17,19.24-27.76,25.29-18.45,48.62,2.34-9.98,11.87-15.85,15.07-25.47,7.42,12.23-9.31,17.22-11.8,27.09,2.8-3.29,6.1-5.67,10.27-6.89,22.95-6.68,15.17-30.57,8.68-46.86h.18c6.47,9.68,11.72,20.89,11.01,32.79ZM215.55,687.99c-4.76-11.22,1.51-21.62,9.57-29.28-1.43-1.88-3.33-3.29-5.65-4.62-7.39,9.45-14.66,24.06-3.93,33.9Z"/><path class="cls-3" d="M157.73,658.3v15.15h-2.09c.14-11.56-2.08-30.89,7.93-7.91,10.03-23.17,7.85-3.65,7.92,7.9h-2.25v-15.16c-.06-.02-.13-.03-.19-.05-6.29,13.25-4.83,13.11-11.12.03-.07.01-.14.02-.21.04Z"/><path class="cls-3" d="M84.64,664.24c-1.09-11.76,15.72-13.02,16.35-1.87,2.8,13.71-17.06,15.91-16.35,1.87ZM98.76,664.22c.79-6.41-7.65-11.21-10.93-4.19-5.06,11.01,10.36,17.95,10.93,4.19Z"/><path class="cls-3" d="M147.61,664.27c.93,11.29-15.21,13.14-16.33,2.36-3.25-13.71,16.42-17.01,16.33-2.36ZM145.22,663.75c-1.62-14.18-16.8-4.82-10.53,5.61,3.95,5.9,11.41.83,10.53-5.61Z"/><path class="cls-3" d="M64.33,654.8c4.03.64,10.76-1.17,11.67,4.25.56,2.78-.85,5.16-3.43,6.44,2.13,2.63,4.24,5.24,6.49,8.02-6.17,1.26-6.06-9.07-12.5-7.39v7.34h-2.22v-18.66ZM66.54,664.13c2.56-.05,5.83.61,6.88-2.4.74-2.28-.15-4.19-2.32-4.54-6.47-1.45-4.19,2.36-4.56,6.94Z"/><path class="cls-3" d="M21.78,654.97h11.59v2.1h-9.26v5.23h9.13c.75,4.14-6.57,1.48-9.14,2.19v6.95h9.28v2.03h-11.6v-18.49Z"/><path class="cls-3" d="M120.67,664.38h-9.17v9.06h-2.19v-18.41h2.11v7.23h9.25c.58-1.97-1.52-7.72,1.54-7.29,2.09,4.71.07,12.7.76,18.48h-2.3v-9.07Z"/><path class="cls-3" d="M180.82,654.98c2.35.59,11.89-1.4,11.65,1.16-.61,2.1-6.48.39-8.59.88-1.89.37-.43,3.72-.87,5.3h9.14v2.02c-7.99.71-9.9-2.93-9.12,7.17,1.94.52,9.52-1.2,9.43,1-.01.43.24,1.02-.58,1.02-3.67,0-7.33,0-11.07,0v-18.54Z"/><path class="cls-3" d="M52.94,655h2.31c-.62,6.04,2.88,18.01-5.86,18.84-10.82,1.29-7.6-12.04-7.96-18.82h2.3c.88,5.24-3.19,17.72,5.49,16.79,6.66-1.64,2.73-11.71,3.72-16.82Z"/><path class="cls-3" d="M185.11,698.01c2.34.26,6.29,1.29,5.71-2.56-8.69,4.45-10.3-10.51,1.68-7.59-.05,5.02,1.53,13.48-6.23,11.71-1.34-.16-1.33-.23-1.17-1.56ZM190.87,691.78c.11-1.59.15-2.94-1.82-2.89-2.78-.41-3.7,2.17-3.18,4.37.66,3.02,6.07,1.85,5-1.48Z"/><path class="cls-3" d="M30.35,692.28h-6.84c-.81,3.41,4.48,3.73,6.57,2.12.98,3.07-5.29,2.58-6.85,1.29-6.64-6.25,7.49-12.89,7.12-3.41ZM23.39,691.08h5.35c.02-3.34-5.3-2.79-5.35,0Z"/><path class="cls-3" d="M71.36,692.1c-.32-6.13,9.57-5.79,8.99.05.4,6.06-9.42,6.04-8.99-.05ZM73,692.13c-.21,4.6,6.21,4.26,5.66-.22.24-4.1-5.96-4.12-5.66.22Z"/><path class="cls-3" d="M48.05,696.4h-1.61c-.42-2.65,1.6-8.52-3.16-7.23-3.12.69-1.21,4.87-1.71,7.23h-1.61v-8.49h1.55c.04.22.08.47.12.67,6.75-3.61,6.76,2.9,6.43,7.83Z"/><path class="cls-3" d="M168.3,696.4h-1.57v-8.53c.65.14,1.52-.48,1.65.63,6.72-3.51,6.53,3.07,6.25,7.9h-1.62c-.31-2.56,1.37-8.52-2.93-7.31-3.22.65-1.29,4.85-1.79,7.3Z"/><path class="cls-3" d="M90.93,699.67c3.36-4.1-.44-7.62-1.93-11.65,3.11-.83,3.04,4.19,4.64,6.18,1.65-2.06,1.48-6.69,4.62-6.26-2.09,2.85-3.76,11.98-7.34,11.73Z"/><path class="cls-3" d="M136.57,687.95c3.09-.5,3.01,4.32,4.64,6.41,1.63-2.1,1.44-6.89,4.59-6.4-4.7,10.78-4.7,10.85-9.23,0Z"/><path class="cls-3" d="M59.8,689.01h-1.93v-1.08h3.56c-.5,4.39,2.31,13.13-5,11.69v-1.46c5.54,1.58,2.75-5.91,3.37-9.15Z"/><path class="cls-3" d="M114.15,684.52h1.42v11.87h-1.42v-11.87Z"/><path class="cls-3" d="M127.45,687.94v8.45h-1.54v-8.45h1.54Z"/><path class="cls-3" d="M154.92,696.4v-8.47h1.46v8.47h-1.46Z"/><path class="cls-3" d="M228.39,649.01c2.48,0,2.61,3.52.1,3.59-2.46,0-2.72-3.64-.1-3.59Z"/><path class="cls-3" d="M228.48,697.47c-2.46.12-2.51-3.62-.09-3.58,2.44.03,2.74,3.67.09,3.58Z"/><path class="cls-3" d="M156.5,686.23h-1.68v-1.48h1.68v1.48Z"/><path class="cls-3" d="M127.48,684.59v1.76c-2.42.09-2.42-1.74,0-1.76Z"/><path class="cls-3" d="M61.4,686.25h-1.59v-1.42c1.6-.43,1.8-.27,1.59,1.42Z"/><path class="cls-3" d="M25.04,833.52h.64c3.11,0,6.22-.01,9.34,0,2.3.01,4.61,0,6.9.12,2.02.1,4.03.43,5.87,1.37,2.87,1.47,4.74,3.79,5.45,6.94.76,3.34.51,6.6-1.22,9.63-1.53,2.68-3.8,4.4-6.89,4.86-1.74.26-3.5.37-5.26.44-1.66.07-3.33.02-5.05.02v10.08h-9.78v-33.46ZM35.04,849.22c1.47,0,2.88.04,4.28-.01.79-.03,1.59-.15,2.36-.34,2.16-.54,3.21-2.51,2.48-4.53-.55-1.52-1.98-2.25-3.45-2.34-1.73-.11-3.46-.09-5.2-.13-.16,0-.31.02-.47.03v7.33Z"/><path class="cls-3" d="M89.07,867.1h-8.96v-24.44h8.59v2.58c.06.02.11.04.17.06.13-.1.3-.18.4-.31,1.28-1.68,3.04-2.44,5.07-2.7,1.74-.22,3.46-.24,5.16.23,2.16.6,3.63,1.95,4.42,4.04.47,1.25.64,2.55.65,3.88.03,5.34.06,10.67.12,16.01,0,.53-.14.68-.67.68-2.58-.03-5.16-.01-7.74-.01h-.6v-.63c0-3.15,0-6.29,0-9.44,0-1,.11-2,.09-3-.02-.87-.12-1.74-.22-2.6-.13-1.07-.74-1.64-1.8-1.94-1.39-.39-3.26.02-3.82,1.07-.4.76-.69,1.67-.71,2.51-.1,4.46-.1,8.92-.14,13.38,0,.2,0,.39,0,.64Z"/><path class="cls-3" d="M191.52,842.55c.05.93.1,1.8.16,2.78.18-.1.33-.13.4-.23,1.15-1.51,2.66-2.41,4.52-2.75,2.1-.39,4.19-.44,6.22.31,1.97.72,3.25,2.16,4.02,4.08.5,1.25.64,2.56.65,3.88.02,5.25,0,10.5,0,15.75v.7h-8.9v-11.39c0-1.07.03-2.14-.01-3.21-.03-.59-.19-1.17-.3-1.76-.15-.84-.87-1.04-1.51-1.22-1.24-.34-2.5-.35-3.47.61-.48.48-.8,1.19-1.02,1.85-.21.6-.25,1.28-.26,1.93-.06,4.29-.08,8.59-.12,12.88,0,.09,0,.18-.02.32-.16.01-.32.03-.48.03-2.6,0-5.2-.01-7.8.01-.49,0-.61-.14-.61-.62.01-7.79.01-15.59,0-23.38,0-.32-.04-.61.45-.61,2.62.02,5.24,0,7.85.01.07,0,.14.02.22.03Z"/><path class="cls-3" d="M131.51,867.22h-9.02c-.13-.72-.26-1.44-.4-2.23-.17.06-.34.08-.45.17-1.57,1.26-3.31,2.15-5.31,2.44-2.64.38-5.23.29-7.55-1.24-1.36-.9-2.11-2.27-2.5-3.83-.39-1.55-.53-3.1.11-4.63.65-1.58,1.76-2.75,3.21-3.58,1.51-.86,3.17-1.25,4.89-1.5,1.93-.28,3.85-.61,5.75-1,.76-.16,1.49-.5,1.55-1.48.09-1.4-.16-1.91-1.34-2.43-1.25-.56-3.52-.57-4.43.68-.34.47-.53,1.07-.82,1.69h-8.18c.29-2.14.98-4.1,2.64-5.59,1.47-1.32,3.24-2.01,5.15-2.39,2.4-.48,4.83-.4,7.25-.3,2.11.09,4.16.62,5.86,1.99,1.43,1.16,2.1,2.79,2.31,4.54.23,2.02.29,4.06.35,6.09.05,1.99.04,3.99,0,5.98-.03,2.22.08,4.42.92,6.6ZM121.78,856.33c-.17.04-.31.07-.45.11-1.53.47-3.06.94-4.59,1.42-.59.19-1.14.42-1.43,1.05-.86,1.91.77,3.63,2.21,3.49.38-.04.77,0,1.15,0,1.51,0,3.19-1.56,3.23-3.08.02-.98-.07-1.96-.12-2.99Z"/><path class="cls-3" d="M62.66,850.18h-8.38c.29-1.89.9-3.64,2.18-5.06,1.14-1.27,2.61-2.05,4.25-2.49,2.78-.75,5.62-.76,8.45-.63,2.09.09,4.09.66,5.79,2.01,1.42,1.13,2.27,2.58,2.56,4.33.15.89.22,1.8.22,2.71.02,3.51.04,7.03,0,10.54-.02,1.78.24,3.5.84,5.17.03.08.04.17.08.31h-8.67c-.13-.69-.26-1.41-.41-2.25-.35.24-.67.42-.96.64-1.59,1.2-3.35,1.96-5.34,2.22-2.11.27-4.13.03-6.05-.84-2.15-.98-3.3-2.8-3.85-5.03-.73-2.94.57-5.13,2.68-6.93,1.55-1.32,3.5-1.82,5.49-2.14,2.05-.33,4.1-.66,6.15-.99.97-.16,1.33-.86,1.47-1.72.1-.62.15-1.28-.49-1.67-.41-.25-.86-.49-1.33-.57-1.08-.19-2.17-.22-3.23.15-.89.32-1.32,1.01-1.45,2.26ZM67.32,856.9c-1.26.39-2.44.73-3.61,1.12-.94.31-1.39,1.07-1.35,2.13.04,1.11.58,1.93,1.54,2.14,1.39.3,2.75.09,3.91-.72.53-.37,1.09-1.04,1.18-1.64.19-1.15.05-2.35.05-3.54-1.21.38-1.52.47-1.73.52Z"/><path class="cls-3" d="M181.46,854.73c.05,2.6-.42,4.89-1.51,7.06-1.16,2.32-3.03,3.86-5.37,4.85-2.28.97-4.7,1.29-7.14,1.1-4.96-.39-8.72-3.07-10.34-8.09-.38-1.19-.49-2.47-.69-3.71-.29-1.81-.04-3.58.44-5.32.83-2.96,2.48-5.33,5.19-6.88,1.79-1.02,3.72-1.51,5.77-1.7,2.5-.22,4.89.12,7.14,1.18,2.97,1.39,4.85,3.77,5.84,6.88.5,1.57.73,3.17.66,4.63ZM173.12,855.31c0-1.94-.19-3.53-.96-5-.9-1.72-2.63-2.03-4.06-1.67-1.33.33-2.22,1.34-2.68,2.65-.47,1.31-.53,2.67-.46,4.06.06,1.25.21,2.45.7,3.6.53,1.23,1.41,2.09,2.79,2.22,1.41.13,2.66-.19,3.5-1.5.91-1.44,1.21-3.01,1.18-4.36Z"/><path class="cls-3" d="M131.59,859.23h8.54c.08.34.14.69.26,1.02.32.95,1.39,1.69,2.38,1.83.98.13,1.92.12,2.83-.25.59-.24,1.19-.54,1.26-1.29.1-1.18-.1-1.56-1.06-2.01-.47-.22-.97-.4-1.48-.53-1.91-.46-3.84-.83-5.73-1.35-1.77-.49-3.48-1.17-4.78-2.54-.94-.99-1.42-2.18-1.57-3.55-.4-3.77,2.07-6.44,5.04-7.56,1.68-.63,3.41-.91,5.2-.96,2.33-.07,4.62.1,6.83.9,1.79.65,3.38,1.59,4.46,3.22.66,1,1,2.11,1.11,3.35-.17.01-.33.03-.49.03-2.38,0-4.76,0-7.14,0-.38,0-.55-.08-.66-.5-.33-1.14-1.49-1.97-2.69-1.93-.79.03-1.58.14-2.35.32-.66.15-.75.76-.84,1.32-.1.62.09,1.15.68,1.41.52.23,1.09.36,1.64.5,1.87.47,3.75.9,5.61,1.4,1.37.37,2.75.78,3.93,1.62,1.75,1.24,2.85,2.86,2.82,5.05-.02,1.66-.22,3.31-1.15,4.79-.95,1.51-2.31,2.47-3.93,3.12-1.64.66-3.37.88-5.13,1.02-2.61.2-5.14-.06-7.6-.91-1.88-.65-3.6-1.56-4.69-3.34-.79-1.28-1.15-2.7-1.32-4.21Z"/><path class="cls-3" d="M244.19,851.85c-2.72,0-5.37,0-8.02-.02-.14,0-.34-.2-.42-.36-.21-.43-.35-.9-.56-1.33-.47-.98-1.33-1.32-2.36-1.36-.18,0-.37.02-.55,0-2.1-.25-3.44,1.3-3.75,2.96-.42,2.24-.48,4.51.29,6.72.33.95.77,1.86,1.74,2.32.4.19.85.36,1.28.37,2.3.06,3.83-.88,4.04-3.61h8.54c-.03.27-.05.6-.12.92-.56,2.27-1.51,4.33-3.25,5.96-1.63,1.53-3.57,2.47-5.74,2.88-1.2.23-2.45.36-3.68.33-3.41-.1-6.47-1.16-8.89-3.69-1.59-1.67-2.59-3.65-2.92-5.93-.14-.97-.32-1.94-.31-2.91.03-1.98.32-3.92,1.11-5.77.62-1.45,1.44-2.76,2.57-3.87,1.53-1.5,3.43-2.32,5.47-2.83,1.62-.4,3.27-.55,4.92-.43,2.66.21,5.15.94,7.28,2.64.96.77,1.61,1.8,2.09,2.89.52,1.18.85,2.45,1.25,3.68.04.11,0,.25,0,.44Z"/><path class="cls-3" d="M209.5,867.08v-24.53h8.83v24.53h-8.83Z"/><path class="cls-3" d="M218.34,839.64h-8.83v-6.3h8.83v6.3Z"/><path class="cls-4" d="M505.05,478.66h6.94l-3.31-8.4-3.63,8.4M484.3,473.01h4.53c2.82,0,3.38-2.27,3.38-4.29,0-2.16-.87-3.84-3.35-3.84h-4.57v8.13ZM508.89,456.37l13.08,33.37h-5.65l-2.2-5.61h-11.4l-2.41,5.61h-8.65l-7.32-11.09v11.09h-5.51v-30.41h10.15c3.42,0,8.86,2.58,8.79,9.35-.03,7.36-5.61,9.21-7.5,9.59,1.81,2.62,3.73,5.37,5.61,8.02l12.83-29.92h.17ZM388.4,489.05l2.62-3.38-5.02-5.58,2.41,8.96M394.46,489.57l-7.85,8.3-6.63-24.48-15.07-16.7,21.76,2.27,16.25,11.06,6.87,10.71-24.97-16.98-8.06-1.05,23.05,25.07,2.02-6.17c2.72,2.72,6.84,4.01,10.64,2.72,3.31-1.05,6.24-4.43,6.87-7.78.77-3.98-.59-7.67-3.63-10.25-2.27-2.02-5.34-3-8.44-2.2-2.13.59-4.15,1.64-5.79,3.38l-4.81-3.17c4.22-5.2,10.85-7.32,17.26-5.51,5.65,1.74,10.71,7.53,11.23,13.46.66,7.39-2.58,13.78-9.42,16.81-3.17,1.5-7.53,2.2-11.06.84l-2.72,8.06-7.53-8.37ZM382.64,466.62c0-.84.7-1.53,1.53-1.53s1.53.7,1.53,1.53-.7,1.53-1.53,1.53-1.53-.66-1.53-1.53M528.55,493.51l-18.2-45.09h5.75l12.45,30.86,8.16-19.95h5.86M545.29,459.37h5.44v30.41h-5.44v-30.41ZM574.14,464.88h-7.6v24.87h-5.41v-24.87h-7.5v-5.51h20.51M459.12,473.84c0,4.78-.66,10.32,5.27,10.32s5.23-5.44,5.23-10.32v-14.47h5.44v19.32c0,4.05-2.86,11.09-10.67,11.09s-10.74-7.04-10.74-11.09v-19.32h5.44s.03,13.71.03,14.47M433.91,459.37h-5.44v30.41h5.02c8.72,0,17.16-4.64,17.16-15.21.03-9.07-5.55-15.21-16.74-15.21M437.46,484.24c-1.12.21-2.34.21-3.31.21v-19.67c.98,0,2.2,0,3.31.21,6.35,1.15,7.95,6.66,7.95,9.87s-1.64,8.2-7.95,9.38"/></g></svg>