<?xml version="1.0" encoding="UTF-8"?><svg xmlns="http://www.w3.org/2000/svg" viewBox="0 0 717.85 124.58"><defs><style>.cls-1{fill:#003d7e;}.cls-2{fill:#a38046;}.cls-3{isolation:isolate;}.cls-4{mix-blend-mode:multiply;}</style></defs><g class="cls-3"><g id="_圖層_2"><g id="_圖層_2-2"><g class="cls-4"><path class="cls-1" d="M10.27,77.72c-.36,4.11-2.22,9.29-9.73,12.46l-.54-.88c4.75-4.17,5.23-9.3,5.23-13.66v-7.34l6.01,1.96c4.15-1.46,8.53-3.29,11.05-4.62l4.93,5.12c-.66.57-1.8.51-3.24-.13-3.48.63-8.77,1.26-13.58,1.52v3.73h10.69l2.82-3.67s3.24,2.59,5.17,4.49c-.12.7-.72,1.01-1.56,1.01h-6.49v8.16c-.06.32-1.68,1.33-4.33,1.33h-.9v-9.48h-5.53ZM1.14,123.38c7.45-2.09,15.8-6.45,19.82-9.8l6.31,4.87c-.54.63-1.62.76-3.24.25-5.41,2.53-14.36,4.87-22.59,5.63l-.3-.95ZM49.38,71.97s3.42,2.72,5.47,4.74c-.12.7-.72,1.01-1.56,1.01h-7.87v8.03c-.06.19-1.02.88-2.7,1.2l4.87,3.86c-.36.44-1.2.95-2.22,1.14v21.18c-.06.44-2.88,1.58-4.75,1.58h-.96v-2.59h-23.49v1.9c0,.51-2.46,1.9-4.81,1.9h-.9v-29.21l6.07,2.59h22.53l1.98-2.21h-.96v-9.36h-5.47c-.6,3.6-2.82,7.9-10.09,10.5l-.54-.82c5.11-3.86,5.71-8.47,5.71-12.46v-6.77l5.59,1.77c4.33-1.33,8.89-3.04,11.59-4.3l4.93,5.25c-.66.57-1.8.51-3.24-.19-3.48.51-8.77,1.08-13.7,1.33v3.86h11.53l3-3.92ZM16.16,91.12v5.12h23.49v-5.12h-23.49ZM16.16,98.02v5.19h23.49v-5.19h-23.49ZM39.65,110.29v-5.25h-23.49v5.25h23.49ZM30.76,115.09c31.12.95,20.97,12.52,15.26,8.28-2.94-2.4-8.23-5.38-15.5-7.4l.24-.88Z"/><path class="cls-1" d="M89.93,75c-1.08,1.14-2.22,2.28-3.54,3.41l7.45.63c-.06.82-.48,1.39-1.86,1.64v4.05h2.64l2.94-3.79s2.58,2.09,4.57,3.92c.9-1.01,1.74-1.96,2.46-2.91l6.01,5.06c-.54.51-1.2.7-2.52.19-2.28,2.28-4.99,4.55-8.11,6.83h10.93l3.24-4.17s3.66,2.85,5.89,5c-.18.7-.78,1.01-1.56,1.01h-21.09c-2.82,1.9-5.95,3.79-9.25,5.5h17.48l2.76-3.29,5.95,4.8c-.36.51-1.26,1.08-2.52,1.33v18.21c-.06.38-2.82,1.52-4.69,1.52h-.9v-3.41h-20.85v2.15c0,.51-2.34,1.83-4.69,1.83h-.84v-19.16c-4.39,1.83-8.95,3.41-13.64,4.68l-.42-.95c4.75-1.9,9.55-4.3,14.06-6.89v-3.48l3.24,1.46c2.22-1.39,4.39-2.85,6.43-4.3h-22.17l-.48-1.83h19.46v-7.46h-9.07l-.48-1.83c-3.18,1.64-6.85,3.1-10.87,4.3l-.42-.76c7.57-3.54,13.22-8.29,17.3-13.28h-15.92l-.54-1.83h17.9c1.92-2.59,3.42-5.19,4.57-7.71l7.81,2.97c-.36.82-1.2,1.14-2.46,1.01-.72,1.26-1.62,2.46-2.58,3.73h18.8l3.66-4.68s4.21,3.22,6.73,5.5c-.18.7-.78,1.01-1.62,1.01h-18.56c5.17,4.05,14.18,6.39,21.15,7.08l-.12.82c-2.46,1.14-4.09,2.78-4.45,5.06-7.45-2.21-14.42-7.08-18.86-12.96h-8.35ZM86.32,78.48c-2.64,2.28-5.83,4.36-9.49,6.26h9.49v-6.26ZM85.36,103.2v6.51h20.85v-6.51h-20.85ZM106.21,118.7v-7.14h-20.85v7.14h20.85ZM91.97,86.57v7.46c3.18-2.47,6.07-5,8.53-7.46h-8.53Z"/><path class="cls-1" d="M148.85,99.92v22.89c0,.38-1.74,1.52-4.51,1.52h-.96v-18.34c-.3.06-.72.06-1.26,0-1.98,4.43-5.29,10.12-9.79,13.91l-.66-.63c2.94-4.93,5.05-12.33,5.83-17.26l5.89,2.66v-4.74h-10.33l-.48-1.83h10.81v-7.59h-11.29l-.48-1.83h16.16c1.14-3.67,2.34-8.41,3-11.95h-13.22c11.35,6.01,6.25,14.8,2.22,10.56-.06-3.35-1.62-7.53-3-10.31l.54-.25h-4.33l-.48-1.83h13.82c-.54-.13-1.2-.38-1.86-.95-.36-2.78-2.04-6.13-3.66-8.16l.6-.38c10.45,2.21,9.25,8.92,5.83,9.48h4.81l2.94-4.05s3.3,2.78,5.35,4.87c-.18.7-.78,1.01-1.62,1.01h-7.33l6.61,2.21c-.24.76-.96,1.27-2.22,1.14-1.5,2.53-3.96,5.82-6.43,8.6h4.45l2.94-4.24s3.48,2.97,5.53,5.06c-.12.7-.72,1.01-1.56,1.01h-11.83v7.59h4.09l2.82-3.98s3.24,2.78,5.17,4.81c-.18.7-.72,1.01-1.56,1.01h-10.51ZM150.3,102.76c12.38,6.26,7.39,16.12,3.06,11.83,0-3.86-1.86-8.41-3.72-11.45l.66-.38ZM181.96,83.03s3.84,3.35,6.19,5.63c-.12.7-.78,1.01-1.62,1.01h-5.89v32.94c0,.38-1.8,1.77-4.63,1.77h-.96v-34.71h-7.15v2.21c0,11-1.02,24.03-12.92,32.44l-.78-.76c7.27-8.98,8.17-20.42,8.17-31.81v-21.06l6.01,2.15c4.57-2.15,9.43-5.12,12.07-7.21l6.25,5.25c-.6.63-1.68.76-3.3.19-3.9,1.33-9.85,2.78-15.5,3.6v13.15h10.63l3.42-4.81Z"/><path class="cls-1" d="M246.77,114.59s4.33,3.41,6.97,5.88c-.18.7-.78,1.01-1.68,1.01h-53.71l-.54-1.83h24.63v-18.78h-17.18l-.48-1.83h17.66v-16.06h-11.89c-3.54,6.26-7.75,11.32-12.44,15.11l-.78-.57c4.87-7.08,9.73-18.27,12.13-29.66l8.47,2.72c-.24.76-.96,1.33-2.34,1.26-1.2,3.29-2.58,6.39-4.08,9.3h10.93v-15.24l8.35.88c-.12.95-.6,1.58-2.16,1.83v12.52h11.23l3.66-4.74s4.09,3.1,6.79,5.56c-.18.7-.78,1.01-1.68,1.01h-20v16.06h9.19l3.72-4.8s4.21,3.29,6.79,5.63c-.12.7-.78,1.01-1.62,1.01h-18.08v18.78h14.3l3.84-5.06Z"/><path class="cls-1" d="M264.07,80.57c14.78,1.07,11.17,12.39,5.71,8.98-.9-3.04-3.72-6.51-6.19-8.47l.48-.51ZM282.45,78.54c-2.58,7.52-7.33,21.5-8.11,24.6-.54,2.02-1.02,4.05-1.02,5.69.12,3.1,2.16,5.56,1.98,10.88-.12,3.04-1.74,4.87-4.39,4.87-1.26,0-2.4-1.08-2.7-3.16.96-6.58.66-11.95-.72-12.9-.84-.63-1.74-.89-3-1.01v-1.27h2.7c.84,0,1.08,0,1.74-1.2q1.32-2.34,12.5-26.68l1.02.19ZM268.51,66.72c15.26,1.33,11.83,12.9,6.19,9.61-1.02-3.22-4.14-6.96-6.67-9.11l.48-.51ZM313.93,81.2s3.9,3.35,6.19,5.63c-.12.7-.78.95-1.62.95h-16.04v12.39h6.43l2.88-3.29,5.95,4.8c-.36.51-1.2,1.07-2.46,1.33v19.16c-.06.44-2.82,1.77-4.75,1.77h-.96v-5h-19.94v3.42c0,.57-2.4,1.83-4.81,1.83h-.84v-26.69l6.01,2.66h6.67v-12.39h-15.74l-.48-1.77h16.22v-11.07c-4.99.63-10.15,1.08-15.02,1.27l-.18-1.07c10.33-1.9,23.37-5.76,29.98-8.85l6.01,5.94c-.6.57-1.86.63-3.6-.06-3.18.7-7.09,1.39-11.35,2.02v11.82h8.05l3.42-4.8ZM289.6,102v15.11h19.94v-15.11h-19.94Z"/><path class="cls-1" d="M354.69,95.93c0-2.72,2.21-4.87,4.93-4.87s4.87,2.15,4.87,4.87-2.15,4.87-4.87,4.87-4.93-2.21-4.93-4.87Z"/><path class="cls-1" d="M447.24,114.27s4.33,3.35,6.97,5.82c-.18.7-.78,1.01-1.68,1.01h-53.41l-.54-1.83h24.57v-14.29h-18.38l-.48-1.83h18.86v-10.56l8.11.76c-.12.88-.6,1.52-2.16,1.83v7.97h9.61l3.72-4.87s4.21,3.29,6.79,5.69c-.12.7-.78,1.01-1.68,1.01h-18.44v14.29h14.3l3.84-4.99ZM400.5,72.91l-.48-1.83h42.11l3.72-4.81s4.27,3.22,6.85,5.63c-.18.7-.84,1.01-1.68,1.01h-27.93l6.37,3.54c-.3.57-1.14,1.01-2.4.76-3.96,3.41-11.11,7.59-17.48,10.56,7.51-.32,18.86-1.01,30.94-1.9-2.76-3.04-5.89-5.94-8.59-8.09l.6-.57c22.65,6.26,20.06,20.61,13.58,16.88-.96-2.15-2.52-4.49-4.33-6.7-8.41,1.71-20.25,3.8-34.48,6.01-.48.76-1.02,1.26-1.56,1.52l-2.82-7.21s1.44-.25,2.1-.51c5.71-2.59,13.58-9.99,16.82-14.29h-21.33Z"/><path class="cls-1" d="M463.99,85.31s1.14-.25,1.62-.57c2.22-2.09,4.81-7.59,6.13-11.32h-6.85l-.48-1.83h15.62l2.76-3.92s3.18,2.72,5.11,4.74c-.18.7-.78,1.01-1.56,1.01h-7.75c-2.58,3.86-6.55,8.47-10.03,11.7,3.3-.25,7.93-.7,12.92-1.2-.84-2.15-2.04-4.3-3.18-5.88l.66-.38c12.92,5.06,8.23,14.73,3.72,10.81-.06-.89-.24-1.83-.54-2.72-3.72,1.26-8.65,2.91-14,4.49-.42.82-.9,1.33-1.44,1.58l-2.7-6.51ZM485.98,109.72c-3.78,2.15-9.31,5.38-17.12,9.29-.18.76-.72,1.33-1.32,1.52l-3.54-6.64c1.98-.31,5.17-1.01,9.13-1.96v-11h-7.45l-.48-1.83h7.93v-9.29l6.67.63c-.12.76-.54,1.27-1.74,1.46v7.21h.54l2.52-3.48s2.94,2.47,4.69,4.3c-.12.7-.72,1.01-1.56,1.01h-6.19v9.8c2.46-.51,5.11-1.2,7.75-1.83l.18.82ZM507,90.94c2.22,2.85,6.79,6.51,13.82,9.17l-.12.76c-2.4.51-3.66,1.39-3.96,4.36-6.31-3.6-9.73-10.43-11.29-14.29h-8.71c-1.38,2.66-3.06,5.19-4.93,7.53,4.45-1.2,9.85-3.41,12.74-4.93l4.45,4.8c-.54.51-1.08.57-2.22-.13-1.14.25-2.52.51-4.02.7v6.32h4.33l2.64-3.41s3,2.4,4.93,4.24c-.18.7-.72,1.01-1.56,1.01h-10.33v15.62c0,.31-1.68,1.58-4.21,1.58h-.9v-12.27c-.42.38-1.14.63-2.16.44-3.18,4.43-7.39,7.97-11.41,10.12l-.72-.76c2.88-3.04,6.07-8.16,8.29-13.4l6.01,3.1v-4.43h-10.57l-.48-1.83h11.05v-5.88c-2.1.13-4.21.25-6.19.25l-.3-.38c-1.98,2.34-4.39,4.36-7.09,6.2l-.66-.76c3.9-3.79,6.85-8.6,9.07-13.72h-5.65l-.48-1.83h6.79c.84-2.21,1.5-4.36,2.1-6.64h-5.53l-.48-1.83h6.49c.48-1.96.84-3.92,1.14-5.88h-8.29l-.48-1.83h9.07c.3-2.46.54-4.87.72-7.21l8.11,1.52c-.18.82-.72,1.33-2.34,1.45-.24,1.33-.48,2.78-.78,4.24h6.61l2.88-3.86s3.18,2.72,5.23,4.68c-.18.7-.72,1.01-1.56,1.01h-13.58c-.42,1.96-.96,3.92-1.56,5.88h6.25l2.76-3.73s3.18,2.66,5.05,4.55c-.18.7-.72,1.01-1.56,1.01h-13.1c-.72,2.28-1.56,4.43-2.64,6.64h13.64l2.82-3.98s3.24,2.78,5.23,4.8c-.18.7-.78,1.01-1.56,1.01h-10.75ZM505.14,109.53c15.62,4.43,12.38,14.86,7.33,11.57-1.32-3.54-5.11-8.28-7.93-11.06l.6-.51Z"/><path class="cls-1" d="M538.6,84.74c3.66,11.32,1.5,19.22-1.08,23.14-1.68,2.78-4.63,3.48-6.25,1.83-1.26-1.39-.84-3.48.48-5.06,3.06-3.16,6.01-11.26,5.89-19.86l.96-.06ZM553.5,77.85c-.06.82-.66,1.52-2.1,1.71v33.77c0,1.64.66,2.15,3.66,2.15h7.81c3.18,0,5.71-.06,6.85-.13.96-.13,1.44-.38,1.8-1.14.72-1.33,1.74-5.25,2.88-10.24h.72l.18,10.69c1.92.76,2.46,1.46,2.46,2.66,0,2.97-2.88,4.17-15.32,4.17h-8.11c-6.61,0-8.65-1.26-8.65-6.45v-38l7.81.82ZM562.87,83.85c-1.14-5.69-5.35-12.52-8.95-17.13l.66-.44c19.04,8.35,14.54,22.51,8.29,17.58ZM580.89,108.58c-.66-5.94-2.58-15.55-7.63-22.13l.6-.51c19.34,13.28,12.01,29.09,7.03,22.64Z"/><path class="cls-1" d="M650.75,116.48c1.68.63,2.1,1.33,2.1,2.53,0,2.46-2.28,3.67-12.19,3.67h-6.37c-5.59,0-6.79-1.2-6.79-5.44v-18.53h-7.33c-1.08,11.51-3.78,20.55-23.19,25.74l-.54-.88c14.78-6.64,16.82-15.18,17.48-24.85h-14.36l-.48-1.83h42.23l3.36-4.3s3.84,2.97,6.25,5.12c-.18.7-.78,1.01-1.62,1.01h-16.1v17.14c0,.95.24,1.27,2.28,1.27h5.65c2.22,0,4.15-.06,4.99-.06.72-.06,1.02-.25,1.32-.95.6-1.08,1.44-4.36,2.4-8.29h.72l.18,8.66ZM605.82,77.85c.3,4.43-1.26,7.46-3.3,8.85-1.8,1.33-4.69.88-5.53-1.39-.66-2.09.54-3.79,2.34-4.74,2.16-1.27,4.63-4.49,4.45-8.09h.9c.42,1.2.72,2.4.9,3.54h37.85l3.24-3.54,5.83,5.88c-.48.51-1.14.63-2.34.7-2.04,2.21-5.47,5.19-8.23,6.89l-.6-.44c.78-2.09,1.74-5.19,2.34-7.65h-37.85ZM635.43,82.27s3.66,2.85,5.95,5c-.12.7-.78,1.01-1.62,1.01h-31.72l-.48-1.83h24.63l3.24-4.17ZM619.81,65.58c15.08,1.39,9.61,13.66,3.78,9.11-.24-3.1-2.1-6.64-4.33-8.66l.54-.44Z"/><path class="cls-1" d="M711.3,99.66s3.9,3.16,6.37,5.38c-.12.7-.78,1.01-1.62,1.01h-24.09c-1.92,8.54-7.45,14.48-28.47,18.4l-.36-1.14c15.5-4.62,20.55-9.93,22.41-17.26h-19.94l-.54-1.83h20.85c.42-2.21.54-4.62.66-7.21l8.47.7c-.12.89-.78,1.58-2.1,1.71-.18,1.71-.36,3.29-.6,4.8h15.44l3.54-4.55ZM687.27,94.41v-7.53h-17.24l-.48-1.83h17.72v-7.14h-20.61l-.54-1.83h28.66c1.5-3.16,2.94-7.33,3.84-10.5l7.99,2.15c-.24.76-.9,1.26-2.22,1.2-1.86,2.21-4.93,4.93-7.75,7.14h10.03l3.42-4.43s3.84,3.04,6.19,5.25c-.18.7-.78,1.01-1.62,1.01h-21.27v7.14h9.85l3.24-4.17s3.66,2.85,5.95,4.99c-.18.7-.78,1.01-1.62,1.01h-17.42v7.53h14.78l3.42-4.55s3.9,3.16,6.25,5.38c-.12.7-.78,1.01-1.62,1.01h-52.26l-.54-1.83h23.85ZM676.16,65.9c14.3,2.15,9.25,13.15,3.96,9.04-.42-3.04-2.52-6.51-4.45-8.6l.48-.44ZM694.78,108.32c25.53,3.67,24.87,18.02,17.84,15.62-3.72-5.25-12.13-11.57-18.32-14.92l.48-.7Z"/></g><g class="cls-4"><path class="cls-2" d="M238.87.44c.57,0,1.2.04,1.9.12.69.08,1.34.26,1.93.53.59.27,1.09.66,1.49,1.16.4.51.6,1.18.6,2.03,0,.66-.23,1.27-.68,1.83-.45.56-1.18,1.01-2.17,1.35.72.12,1.31.28,1.77.49.46.21.83.47,1.11.77.28.3.47.64.58,1.02.11.38.16.79.16,1.23,0,.82-.19,1.49-.56,2.01-.37.52-.85.92-1.43,1.21-.58.29-1.23.48-1.94.58-.72.1-1.42.15-2.11.15h-4.39V3.07c0-.66-.09-1.19-.27-1.59-.18-.4-.6-.6-1.26-.6h-.44v-.44h5.71ZM239.2,7.13c.44,0,.87-.06,1.28-.19.42-.12.79-.31,1.12-.56.33-.25.6-.56.8-.92.2-.37.31-.8.31-1.29,0-.53-.12-.98-.37-1.35-.25-.38-.56-.68-.94-.92-.38-.24-.81-.42-1.27-.53-.47-.11-.92-.17-1.36-.17-.28,0-.57.02-.87.07-.3.05-.56.1-.78.15v5.71h2.09ZM237.12,8.01v5.84c.34.1.68.18,1.04.23.36.05.71.08,1.04.08,1.33,0,2.36-.26,3.08-.79.72-.53,1.09-1.29,1.09-2.28s-.35-1.76-1.05-2.28c-.7-.53-1.74-.79-3.12-.79h-2.09Z"/><path class="cls-2" d="M257.82.44c.38,0,.69.05.93.15.24.1.43.23.57.39.14.16.23.35.29.56.05.21.08.43.08.65v1.65h-.44c0-.88-.24-1.52-.71-1.92-.48-.4-1.15-.6-2.03-.6h-4.08v5.71h5.93v.88h-5.93v6.15h3.84c1,0,1.78-.18,2.36-.55.58-.37,1.04-.99,1.37-1.87l.44.11-.77,2.09c-.12.34-.31.6-.58.8-.27.2-.63.29-1.06.29h-7.57V3.07c0-.66-.09-1.19-.27-1.59-.18-.4-.6-.6-1.26-.6h-.44v-.44h9.35Z"/><path class="cls-2" d="M270.62,7.79l4.59-7.35h.99l-5.14,8.34v6.15h-1.98v-5.99l-3.73-5.64c-.22-.32-.44-.62-.65-.91-.21-.29-.44-.54-.69-.75-.25-.21-.52-.38-.82-.52-.3-.13-.64-.21-1.02-.24v-.44h1.98c.41,0,.78.07,1.1.21.32.14.61.32.88.55.26.23.5.48.71.77.21.29.41.58.6.89l3.18,4.94Z"/><path class="cls-2" d="M278.25,7.68c0-1.07.16-2.07.47-3.01.31-.94.77-1.75,1.36-2.45.59-.7,1.31-1.24,2.15-1.63.84-.4,1.78-.59,2.82-.59s1.98.2,2.82.59c.84.39,1.56.94,2.15,1.63.59.7,1.05,1.51,1.36,2.45.31.94.47,1.94.47,3.01s-.16,2.09-.47,3.02c-.31.93-.77,1.74-1.36,2.44-.59.7-1.31,1.24-2.15,1.64-.84.39-1.78.59-2.82.59s-1.98-.2-2.82-.59c-.84-.4-1.56-.94-2.15-1.64-.59-.7-1.05-1.51-1.36-2.44-.31-.93-.47-1.94-.47-3.02ZM289.67,7.68c0-1.04-.11-1.98-.32-2.82-.21-.84-.52-1.56-.91-2.15-.4-.59-.88-1.04-1.45-1.36-.57-.31-1.21-.47-1.93-.47s-1.36.16-1.93.47c-.57.32-1.05.77-1.45,1.36-.4.59-.7,1.31-.91,2.15-.21.84-.32,1.78-.32,2.82s.11,1.98.32,2.82c.21.84.52,1.56.91,2.15.39.59.88,1.05,1.45,1.36.57.31,1.21.47,1.93.47s1.36-.16,1.93-.47c.57-.31,1.05-.77,1.45-1.36.39-.59.7-1.31.91-2.15.21-.84.32-1.78.32-2.82Z"/><path class="cls-2" d="M296.78,3.07c0-.66-.14-1.19-.42-1.59-.28-.4-.8-.6-1.56-.6h-.22v-.44h1.43c.72,0,1.31.12,1.77.35.46.23.86.56,1.2.96l7.68,9.55V.44h.88v14.71h-.44l-9.44-11.75v11.53h-.88V3.07Z"/><path class="cls-2" d="M317.16.44c1.45,0,2.71.17,3.8.51,1.08.34,1.98.81,2.69,1.43.71.62,1.24,1.37,1.6,2.25.36.89.54,1.88.54,2.97s-.17,2.05-.52,2.95c-.34.9-.85,1.67-1.53,2.32-.67.64-1.51,1.15-2.51,1.51-1,.37-2.17.55-3.5.55h-4.35V3.07c0-.66-.09-1.19-.27-1.59-.18-.4-.6-.6-1.26-.6h-.44v-.44h5.75ZM315.46,13.88c.86.19,1.6.29,2.23.29.8,0,1.55-.15,2.25-.45.7-.3,1.3-.73,1.81-1.29.51-.56.91-1.24,1.2-2.04.29-.8.44-1.69.44-2.69s-.14-1.85-.43-2.64c-.28-.8-.68-1.48-1.19-2.05-.51-.57-1.12-1.01-1.82-1.32-.71-.31-1.47-.46-2.3-.46-.32,0-.67.03-1.04.09-.37.06-.75.15-1.15.26v12.32Z"/><path class="cls-2" d="M337.48.44h1.98v11.85c0,.66.09,1.19.27,1.59.18.4.6.6,1.26.6h.44v.44h-1.98c-.38,0-.7-.03-.96-.1-.26-.07-.46-.2-.61-.4-.15-.2-.26-.46-.32-.8-.06-.34-.09-.78-.09-1.34V.44Z"/><path class="cls-2" d="M361.89,15.92c-.79,0-1.45-.09-1.98-.27-.53-.18-.94-.46-1.25-.85-.31-.38-.52-.87-.65-1.47s-.19-1.31-.19-2.13V2.74l-5.49,12.18h-.44l-5.71-12.4v12.4h-.88V.44h2.09l5.27,11.42,5.16-11.42h1.98v10.76c0,1.33.17,2.38.5,3.14.34.76.86,1.14,1.58,1.14v.44Z"/><path class="cls-2" d="M378.38,14.93c-.25.07-.54.11-.88.11-.25,0-.54-.03-.87-.09-.33-.06-.67-.19-1.01-.38-.34-.2-.68-.49-1.01-.87-.33-.38-.61-.88-.85-1.52l-.55-1.43h-6.15l-1.76,4.17h-.99l6.15-14.49h.66l4.83,11.74c.18.41.34.76.49,1.04.15.29.33.52.52.69.19.18.4.31.61.4.22.09.48.15.79.17v.44ZM367.4,9.88h5.38l-2.63-6.37-2.74,6.37Z"/><path class="cls-2" d="M387.56.88c-.94,0-1.74.19-2.4.57-.67.38-1.21.88-1.64,1.49-.42.62-.74,1.32-.93,2.11-.2.79-.3,1.6-.3,2.42,0,1.32.14,2.43.42,3.33.28.9.66,1.62,1.14,2.17s1.04.94,1.68,1.18c.64.23,1.31.35,2.03.35.79,0,1.45-.07,1.98-.21.53-.14,1-.33,1.43-.56v-3.82c0-.31.03-.61.1-.91.07-.3.22-.57.47-.82.25-.25.61-.45,1.1-.6.48-.15,1.13-.23,1.95-.23v.44c-.35,0-.64.05-.86.14-.22.1-.39.23-.5.42-.12.18-.19.4-.23.66-.04.26-.06.55-.06.87v4.13c-.79.48-1.62.83-2.48,1.05-.86.22-1.83.33-2.9.33s-2.1-.21-3.02-.62c-.91-.41-1.7-.97-2.36-1.69-.66-.72-1.17-1.55-1.54-2.51-.37-.96-.55-1.99-.55-3.08,0-1.04.16-2.01.47-2.92.31-.91.77-1.7,1.36-2.37.59-.67,1.31-1.2,2.15-1.59.84-.39,1.78-.58,2.82-.58,1.33,0,2.44.17,3.34.52.89.35,1.54.76,1.93,1.24.13.16.24.36.32.61.08.24.13.49.16.76.03.26.05.54.05.81,0,.28.01.54.01.79h-.44c-.28-1.27-.8-2.23-1.57-2.88-.77-.64-1.82-.96-3.15-.96Z"/><path class="cls-2" d="M398.53.44h1.98v11.85c0,.66.09,1.19.27,1.59.18.4.6.6,1.26.6h.44v.44h-1.98c-.38,0-.7-.03-.96-.1-.26-.07-.46-.2-.61-.4-.15-.2-.26-.46-.32-.8-.06-.34-.09-.78-.09-1.34V.44Z"/><path class="cls-2" d="M406.9,3.07c0-.66-.14-1.19-.42-1.59-.28-.4-.8-.6-1.56-.6h-.22v-.44h1.43c.72,0,1.31.12,1.77.35.46.23.86.56,1.2.96l7.68,9.55V.44h.88v14.71h-.44l-9.44-11.75v11.53h-.88V3.07Z"/><path class="cls-2" d="M435.57,14.93c-.25.07-.54.11-.88.11-.25,0-.54-.03-.87-.09-.33-.06-.67-.19-1.01-.38-.34-.2-.68-.49-1.01-.87-.33-.38-.61-.88-.85-1.52l-.55-1.43h-6.15l-1.76,4.17h-.99l6.15-14.49h.66l4.83,11.74c.18.41.34.76.49,1.04.15.29.33.52.52.69.19.18.4.31.61.4.22.09.48.15.79.17v.44ZM424.59,9.88h5.38l-2.63-6.37-2.74,6.37Z"/><path class="cls-2" d="M447.82.44v.88h-4.94v13.61h-1.98V1.32h-1.98c-.88,0-1.56.2-2.03.6-.48.4-.71,1.04-.71,1.92h-.44v-1.65c0-.22.03-.44.08-.65.05-.21.15-.4.29-.56.14-.16.33-.29.57-.39.24-.1.55-.15.93-.15h10.21Z"/><path class="cls-2" d="M451.68.44h1.98v11.85c0,.66.09,1.19.27,1.59.18.4.6.6,1.26.6h.44v.44h-1.98c-.38,0-.7-.03-.96-.1-.26-.07-.46-.2-.61-.4-.15-.2-.26-.46-.32-.8-.06-.34-.09-.78-.09-1.34V.44Z"/><path class="cls-2" d="M458.49,7.68c0-1.07.16-2.07.47-3.01.31-.94.77-1.75,1.36-2.45s1.31-1.24,2.15-1.63c.84-.4,1.78-.59,2.82-.59s1.98.2,2.82.59c.84.39,1.56.94,2.15,1.63.59.7,1.05,1.51,1.36,2.45.31.94.47,1.94.47,3.01s-.16,2.09-.47,3.02c-.31.93-.77,1.74-1.36,2.44-.59.7-1.31,1.24-2.15,1.64-.84.39-1.78.59-2.82.59s-1.98-.2-2.82-.59c-.84-.4-1.56-.94-2.15-1.64s-1.05-1.51-1.36-2.44c-.31-.93-.47-1.94-.47-3.02ZM469.9,7.68c0-1.04-.11-1.98-.32-2.82-.21-.84-.52-1.56-.91-2.15-.39-.59-.88-1.04-1.45-1.36-.57-.31-1.21-.47-1.93-.47s-1.36.16-1.93.47c-.57.32-1.05.77-1.45,1.36-.4.59-.7,1.31-.91,2.15-.21.84-.32,1.78-.32,2.82s.11,1.98.32,2.82c.21.84.52,1.56.91,2.15.4.59.88,1.05,1.45,1.36.57.31,1.21.47,1.93.47s1.36-.16,1.93-.47c.57-.31,1.05-.77,1.45-1.36.4-.59.7-1.31.91-2.15.21-.84.32-1.78.32-2.82Z"/><path class="cls-2" d="M477.01,3.07c0-.66-.14-1.19-.42-1.59-.28-.4-.8-.6-1.56-.6h-.22v-.44h1.43c.72,0,1.31.12,1.77.35.46.23.86.56,1.2.96l7.68,9.55V.44h.88v14.71h-.44l-9.44-11.75v11.53h-.88V3.07Z"/></g></g></g></g></svg>