<?xml version="1.0" encoding="UTF-8"?><svg id="_圖層_2" xmlns="http://www.w3.org/2000/svg" viewBox="0 0 250.3 258.76"><defs><style>.cls-1{fill:#a38046;}</style></defs><g id="_圖層_2-2"><path class="cls-1" d="M182.36,121.89c.89,1.02,2.3,1.83,2.63,3.05.8,2.97,1.49,5.81,5.04,6.44-.1.39-.2.77-.3,1.16-1.89.22-3.79.37-5.67.7-.8.14-2.18.67-2.21,1.05-.09,1.03.15,2.27.71,3.07,1.65,2.39,4.41,3.01,6.97,3.15,4.2.23,8.47-.18,12.72-.38,4.18-.2,8.28-.21,12.24,1.26,1.74.64,3.74.8,5.65.74,3.38-.1,4.66-3.1,5.96-5.79.74-1.55,1.68-3.35,1.57-4.9-.2-2.86-3.81-4.01-6.59-2.02-2.66,1.9-5.43,1.49-8.17,1.77-.57.06-1.4-.76-1.67-1.4-.15-.36.55-1.26.98-1.81.48-.62,1.13-1.09,1.64-1.69,1.77-2.11,3.44-4.32,5.28-6.37,1.56-1.73,1.7-3.56.09-5.19-1.15-1.17-2.28-2.38-3.57-3.35-1.53-1.14-3.05-1.85-5.02.1-2.09,2.08-1.9,4.54-2.31,6.97-.26,1.55-.22,3.21-.79,4.63-.99,2.44-1.89,5.47-3.71,6.88-1.81,1.4-4.72,1.21-7.16,1.54-1.21.17-2.57.18-2.47-1.82.09-1.92.09-3.83.15-5.75.21-6.67-5.47-12.46-13.48-7.67-.57.34-1.07,2.02-.81,2.67.45,1.15,1.5,2.01,2.33,2.96Z"/><path class="cls-1" d="M250.13,198.71c-.24-1.14-.97-2.06-1.62-2.88-.26-.33-.51-.65-.71-.95l-.71-1.09-1.08.73c-.3.2-.61.4-.92.59-.75.48-1.53.97-2.25,1.59-.47.41-.85.93-1.18,1.38-.22.3-.57.79-.75.9-1.29.23-2.5.64-3.67,1.05-1.16.4-2.25.77-3.3.92-.87.13-1.73.26-2.6.4-4.15.65-8.44,1.32-12.66.95,1.3-.77,2.69-1.47,4.04-2.14l.58-.29c1.49-.75,2.37-1.72,2.62-2.88.24-1.1-.11-2.24-1.03-3.4-1.16-1.45-2.59-2.85-4.38-4.29-1-.8-3.05-.45-3.85.4-.91.97-1.34,2.31-1.59,3.24-.59,2.19-1.66,3.75-3.39,4.9-1.09.73-2.21,2.31-2.18,3.68.02.83-.15,1.11-1.33,1.31-3.09.54-6.76,1.15-10.55,1.56-3.12.34-6.23.46-8.86.54-1.3.03-2.65.01-3.95,0-1.94-.03-3.94-.07-5.93.09-2.3.18-4.59.58-6.8.96-.97.17-1.94.34-2.91.49l-10.71,1.67,1.08,1.67c.21.33.38.62.54.88.36.61.66,1.13,1.15,1.58.45.42.94.74,1.41,1.05.44.29.86.57,1.17.88,2.27,2.28,4.71,3.05,7.08,3.05,2.19,0,4.31-.66,6.18-1.4.97-.38,2.16-.6,3.36-.6,1.28-.01,2.55.09,3.89.18.9.07,1.83.13,2.75.17l.88.03c2.04.08,4.15.16,6.24.05,2.96-.15,5.92-.48,8.94-.83,1.4-.16,2.82-.36,4.19-.56,1.88-.27,3.82-.54,5.72-.71.99-.09,2.02-.06,3.12-.03,1.94.05,3.96.11,5.82-.55,3.89-1.36,7.98-1.32,11.93-1.29h1.08c3.09.03,5.89-.07,8.85-1.47,3.82-1.81,7.25-6.87,6.27-11.52Z"/><path class="cls-1" d="M190.35,192.88c-.28-.05-.55-.09-.79-.14-.59-.13-1.13.02-1.52.12-.15.04-.32.09-.41.09-1.94.08-2.57-.25-2.99-2.58l-.22-1.21-1.22.16c-.43.06-.86.1-1.28.13-1.01.09-2.05.19-3.04.53-1.3.45-2.64,1.21-3.98,2.25-.93.73-1.25,2.37-.91,3.36.79,2.26,2.41,6.97,8.33,6.64.81-.04,1.65.04,2.54.13.75.07,1.52.15,2.31.15,1.79,0,3.66-.4,5.42-2.13,1.75-1.71,2.18-3.86,1.2-5.87-.57-1.17-2.1-1.43-3.44-1.65Z"/><path class="cls-1" d="M211.53,224.15c-1.26.33-2.26,2.07-3.5,2.84-2.25,1.41-5.07,2.81-7.73,1.7-1.35-.56-2.47-1.61-3.34-2.77-.78-1.04-1.4-3.32-2.69-3.74-.45-.15-.98-.07-1.63.36-1.01.68-1.89,1.53-2.86,2.26-1.55,1.16-3.05,2.41-4.3,3.9-2.57,3.05-4.68,6.99-6.36,11-.66,1.57-.19,5.11.78,6.52,5.98,8.65,12.26,14.9,22.15,8.49,7.32-4.75,16.56-4.21,20.53-16.9,2.01-6.41.73-11.37-2.18-14.68-1.58-1.8-5.87.24-8.87,1.02Z"/><path class="cls-1" d="M177.04,179.67c4.28,2.36,6.3,1.24,10.51,1.36,5.07.15,8.05-.93,15.78-.96.22,0,1.12-.11,2.09-.24,4.34-.29,11.14-1.38,11.03-1.4,1.57-.83,2.44-1.04,2.61-1.55l1.45-1c1.16-1.09.98-2.34,1.01-3.11v-.16s-.14-.48-.14-.48c-.03-.48-.23-.96-.61-1.42-.39-.46-1.3-1.23-3.03-1.27l-1.97.04-3.2.44-.09.02c-3.8.82-5.91,1.18-7.08,1.33.12-.34.25-.76.4-1.28l.02-.08c.69-4.01,1.27-5.56,1.61-6.13.51-.78,1.34-1.58,2.42-2.37,3.38-2.24,5.18-4.3,5.52-6.3.2-1.19-.14-2.3-1-3.32l-.07-.08c-.97-1.01-2.07-1.69-3.27-2.01-1.16-.31-2.37-.23-3.6.25-.08.02-.15.04-.21.06-.01-.04-.03-.08-.04-.12-.47-1.52-1.65-2.95-3.52-4.23l-.13-.09-.14-.07c-1.19-.58-1.62-.75-1.93-.83-1.15-.31-2.2-.19-3.14.36-1.15.66-1.74,2.19-1.86,4.8-.06,1.22.05,2.46.31,3.68-.17.19-1.03.8-5.03,1.5-3.72.61-4.37.86-4.69,1.04l-.13.09c-.5.42-.77,1.07-.81,1.93l-.03.68c-.07,1.49.82,2.92,2.57,4.13.92.75,1.62,1.35,2.07,1.8l.05.05c.95.87,1.92,1.45,2.87,1.7.81.22,1.64.3,2.45.26,0,.47,0,1.15-.05,2.14-.05,1.01,0,1.96.13,2.87-7.45-.4-14.56.41-21.38,1.37-.8.11-1.62.23-2.21.62-.58.38-.83,1.07-.52,1.9.78,2.1,3.95,3.5,4.96,4.06Z"/><path class="cls-1" d="M152.23,180.83c-.08-.23-.14-.47-.2-.71-.15-.58-.31-1.24-.7-1.78-.97-1.35-2-2.44-3.05-3.24-.17-.13-.47-.26-.92-.1-.58.2-2.08,1.17-2.33,2.13-.46,1.78-1.52,1.87-3.49,1.87-.82,0-1.6.19-2.19.36-.4.11-.77.26-1.13.4-.45.18-.88.35-1.3.43-1.12.21-2.08-.28-3.2-.83-.19-.09-.37-.19-.56-.28-1.32-.63-1.68-1.18-1.58-2.36.08-.85.08-1.75.03-2.77-.03-.47-.17-.91-.3-1.3-.03-.09-.06-.19-.09-.28-.1-.33-.23-.64-.35-.95-.22-.54-.43-1.05-.44-1.51-.01-.87-.03-1.75-.06-2.63-.1-4.35-.21-8.84.46-13.18.07-.43.14-.85.21-1.28.39-2.31.8-4.71.17-7.06-.31-1.14-.83-2.2-1.34-3.23-.75-1.52-1.47-2.96-1.44-4.56.04-1.8.94-3.37,1.89-5.03.42-.73.85-1.49,1.21-2.27.22-.48.89-2.14.48-3.56-.39-1.35-1.19-2.73-2.2-3.8-1.68-1.78-4.35-4.11-8.28-3.9-.8.05-1.63.05-2.43.06-.51,0-1.03,0-1.54.02-.26,0-.53,0-.8,0-1.36-.01-2.9-.02-4.29,1.18-.2.07-.82,0-1.19-.19-.09-.2-.13-.69-.08-.83.9-1.41,1.23-2.86,1.03-4.55-.07-.61,0-1.26.08-1.95.06-.51.12-1.05.12-1.59,0-.6-.25-1.13-.46-1.6l-.09-.2c-.23-.52-.52-1.13-.91-1.66-.17-.23-.34-.48-.51-.72-1.05-1.49-2.24-3.17-4.48-3.56-1.52-.26-3.1-.24-4.58-.21-1.1.03-2.11.65-2.63,1.63-.5.95-.47,2.05.1,2.94.86,1.34,1.82,2.62,2.84,3.79,1.22,1.65.66,3.92.07,6.32-.23.92-.46,1.87-.58,2.78-.08.62-.19.72-.22.74-.06.03-.24.03-.41.04-2.38.04-4.66.66-6.86,1.26l-11.5,3.15c-.29.08-.74.2-1.08.57-.5.54-.46,1.29-.44,1.57.16,2.92,1.83,5.66,4.34,7.16,2.51,1.5,5.72,1.65,8.36.4.47-.22.91-.48,1.33-.73.52-.3,1-.59,1.52-.8.94-.39,1.85-.4,2.44-.02.75.48.94,1.5.87,2.22-.13,1.45-.82,2.96-1.49,4.43-.49,1.08-1,2.19-1.31,3.31-.4,1.45-1.18,2.86-2.01,4.34-.68,1.22-1.38,2.47-1.86,3.78-.99,2.65-1.78,5.58-2.5,9.22-.41,2.09-.76,4.22-1.1,6.27-.63,3.8-1.27,7.74-2.32,11.49-1.13,4.05-2.73,7.97-4.77,11.65-1.04,1.87-1.28,3.35-1.58,5.23l-.12.73c-.11.68-.36,1.45-.64,2.26-.73,1.39-1.12,2.97-1.12,4.54h0s.16,0,.16,0c-1.35,2.74-3.48,5.43-5.34,7.77-.59.74-1.16,1.46-1.66,2.13-.35.46-.71.94-1.17,1.17-.58.29-1.35.24-2.17.19-.64-.04-1.3-.08-1.94.04-1.42.25-2.81.89-3.94,1.8-.74.6-1.07,1.25-.97,1.93.08.56.42.95.75,1.27,2.54,2.43,6.53,4.01,10.18,4.04.03,0,.07,0,.1,0,2.3,0,4.35-.62,5.95-1.79,1.55-1.14,2.74-2.6,3.9-4.03l4.16-5.1c.71-.87,1.44-1.76,2.09-2.72,1.74-2.53,2.91-5.43,3.44-8.45.33-.99.46-2.05.58-3.09.04-.35.08-.7.13-1.04.49-3.39,1.97-6.63,3.39-9.77.29-.65.59-1.29.87-1.94,1.71-3.88,2.54-7.39,2.77-11.73.14-2.65,1.12-5.24,2.06-7.74.29-.76.58-1.52.84-2.28l.25-.7c.87-2.47,2.06-5.84,2-8.33-.06-2.49.82-4.5,2.78-6.34.06-.06,1.52-1.45,1.04-2.47-.63-1.34-.12-2.29.76-3.73.09-.15.18-.3.27-.45.27-.45.28-.94.29-1.37,0-.18,0-.34.03-.48.35-2.17.65-3.99.94-5.7.02-.04.08-.12.15-.2,1.73-2.21,3.66-2.66,6.26-1.45l.07.03c.23.11.49.23.79.29.73.15.97.4.94,1.61-.03.96.06,2.36.61,3.6.7,1.59.79,3.24.29,5.36-1.7,7.3-2.31,14.77-1.9,23.53.04.94.07,1.92.09,2.91.11,4.4.22,9.38,2.27,13.36.59,1.15,1.34,2.19,2.07,3.2l.27.37c2.33,3.25,5.18,4.06,8.95,4.85,2.5.52,4.95.47,7.71-.17.13-.03.27-.05.41-.07.31-.04.67-.08,1.01-.24l1.14-.51c1.82-.81,3.7-1.65,5.5-2.6,1.06-.56,2.38-1.35,3.12-2.51.64-1,.95-2.16,1.25-3.28.09-.33.18-.66.28-.99.14-.45-.08-.84-.22-1.09-.03-.06-.07-.12-.09-.18Z"/><path class="cls-1" d="M70.75,166.06c3.15-.76,6.18-1.8,9.26-2.73.13-.04.26-.13.36-.21,1.16-.9,2.37-1.77,3.46-2.71,2.48-2.11,5.31-4.17,4.36-7.01.18-.06.36-.13.54-.19-.93-1.44-2.12-2.82-2.73-4.34-.55-1.39-1.53-2.17-3.7-2.34-.69-.06-1.33-.35-1.9-.61-4.08-1.93-4.72-1.83-7.85,1.31-.26.26-.72.48-.82.75-.42,1.05-1.42,2.34-.92,3.09.67.99.63,1.73.09,2.73-.33.61-.21,1.29-.42,1.93-.74,2.25-.34,4.57-2.98,6.69-.82.65-.46,2.21.05,3.15.24.44,2.24.74,3.21.51Z"/><path class="cls-1" d="M11.18,117.71c.92,1.07,1.92,1.9,2.96,2.46.68.36,1.24.56,1.71.61.73.13,1.5.41,2.29.83,1.14.61,2.31.84,3.49.68,1.42-.14,2.47-.2,3.13-.17,1.8.09,3.12-.03,4.04-.34l3.37-.39c.08,0,.15,0,.21,0-.07.37-.16.86-.3,1.48-.25.85-.46,1.8-.61,2.83l-.13.89.06.27c.05.21.14,1.37-2.34,3.18-1.47,1.03-1.76,1.45-1.83,1.94,0,0-.23.82-3.94.51h-.15c-2.13.06-2.8.21-3.14.35l-.26.1-.05.09c-.21.07-.85.21-2.72.32-.78-.19-1.75-.2-3.03-.03-.77.08-1.44.22-2,.41-1.61.11-2.52.78-2.7,1.98-.25,1.67.64,3.81,2.66,6.36,2.01,2.7,4.81,4.59,8.12,5.26l.16.03h.15s0,0,.01,0c.05.18.1.39.16.62,4.2-.02,8.23-2.51,12.53-3.08.89-.32,2.14-.74,3.89-1.29,2.58-.46,5.01-1.38,7.23-2.75l4.34-2.1c1.2-.11,1.93-.82,2.12-2.09v-.21c-.02-1.64-1.05-2.83-2.06-3.42-1.28-.87-3.78-1.76-11.68-1.99-.05,0-.1,0-.15-.01l2.9-3.7c.66-.92,1.1-1.64,1.32-2.19l1.67-3.97c.14-.15.49-.42,1.41-.68.37-.04.96-.09,1.75-.15.93-.08,2.09-.28,3.56-.62,2.83-.69,4.06-1.43,4.23-2.55l.03-.2-.04-.23c-.1-.61-.31-1.21-.63-1.78l-.15-.27-.22-.24c-.39-.42-.87-.82-3.92-2.46-1.79-.96-2.65-1.53-3.04-1.82-.02-.34,0-1,.17-2.19v-.07c.21-2.27-.19-4.18-1.19-5.83-1.13-2.19-2.58-3.3-3.6-3.85-.84-.45-1.69-.67-2.55-.65-1.18-.1-1.58,1.06-1.94,3.46l-.32,2.15-.31,3.26c-.13.88-.26,1.22-.31,1.34l-.05.04c-.05.03-.6.29-3.53.02-8.84-.77-10.93-.84-11.6-.79l-4.14-.11c-2.51-.06-4.61.4-6.23,1.36l-.08.05c-1,.76-1.6,1.71-1.77,2.84-.16,1.05-.09,1.89.21,2.65.48,1.22,1.43,2.52,2.84,3.87Z"/><path class="cls-1" d="M15.18,151.59c-1.22-.05-2.56.18-3.84.53-.5.14-1.24.92-1.38,1.42-.86,3.09-1.11,5.81,2.34,7.01,2.55.89,4.23,3.24,7.99,1.81,1.9-.72,2.82-1.97,3.03-3.3.11-.73-1.21-1.39-1.98-1.97-.32-.24-.93-.16-1.35-.31-2.09-.76-2.51-1.82-1.38-4.37-1.21-.31-2.27-.76-3.43-.81Z"/><path class="cls-1" d="M65.85,183.22c-.2-1.07-.76-.72-1.24-1.7-.77-.27-1.38-.14-1.91.55-.52.69-.85,2.09-1.41,2.23-1.46.37-2.78,1.42-4.14,1.71-.45.1-.91.2-1.36.3-5.14-.2-10.9-.37-11.26-.43-.02-.8.02-2.07.2-4.09v-.09c.03-1.28-.47-2.74-1.49-4.36l-.08-.12c-.11-.16-.21-.3-.29-.42.29-.04.67-.1,1.17-.16,1.97.02,14.24-1.47,14.4-2.51l.02-.16-.26-2.27-.83-2.99s-1.66-3.15-6.81-3.7c0,0-10.18-.76-10.18-.76-.46-.06-.93-.09-1.42-.1.23-.48.46-.95.8-1.18,1.61-1.09,3.3-1.99,4.97-2.92,2.11-1.17,2.68-2.94,1.37-5.28-1.1-1.96-2.45-3.74-3.86-5.35-.38-.43-1.66-.3-2.07.2-.67.82-1.1,2.08-1.4,3.25-.75,2.89-2.01,5.12-4.12,6.71-.8.6-1.68,2.01-1.71,3.08-.03,1.2-.35,1.92-.83,2.37-4.69,1.01-9.62,2.39-13.48,1.39-2.59.26-5.09.4-7.44.37l-4.25-.03-.18.07c-.82.31-1.32,1.03-1.49,2.14-.08.56-.09,1.09,0,1.62.24,2.38,1.43,4.06,2.44,5.08.74.87,1.7,1.62,2.85,2.24l3.45.16c1.87.87,3.78-1.21,5.4-1.44l5.07.16c2.77.55,3.74.56,4.27.39.77-.2,2.07-.26,3.85-.17.31.03.59.06.83.1-.04.64-.06,1.57-.05,2.97v.06c.06,1.14-.03,2.5-.27,4.06-.29,1.94-.79,2.42-1,2.53-4.79.9-9.71,1.44-14.62,1.59-4.88-.05-15.48.96-16.72,2.27-.55.49-1.16,1.17-.49,2.57.82,1.71,2.31,2.88,4.94,3.54.4.1,8.83.12,11.1,1l.1.04c1.41.47,4.08.77,12.28-1.06.6-.12,1.05-.19,1.4-.23.07,0,.13,0,.2.01.09,1.05.68,7.38.45,10.8-.16,1.11-.12,2.92.13,5.48.17,2.45.63,4.41,1.41,5.98.6,1.33,1.73,2.57,3.38,3.71,1.49,1.28,4.43,1.26,5.55-2.95-.03-.01.23-2.33.2-2.34-.01-1.21.14-3.89.92-9.78l.79-12.36c.57-.11,1.14-.2,1.71-.28,1.71-.22,3.61.36,5.14-.43,2.61-1.35,5.33-1.19,7.99-1.15,1.77.02,3.34-.06,4.9-1.16,2.07-1.46,3.59-5.41,2.97-8.77Z"/><path class="cls-1" d="M171.38,75.82h.5v-12.74h1.46v-1.41h0s-.09-.01-.09-.01h-1.37v-10.55h1.46v-1.42h-1.46v-11.03h1.46v-1.42h-1.46v-16.94h1.46v-1.41h0s-.09-.01-.09-.01h-1.37v-2.51h-4.02V3.97h-7.48l.24-2.96-.63-.13c-.17-.04-4.2-.87-7.6-.87s-7.43.84-7.6.87l-.63.13.24,2.96h-7.48v12.39h-4.02v2.51h-1.26l.21.14v1.28h1.05v16.94h-1.26l.21.14v1.28h1.05v11.03h-1.26l.21.14v1.28h1.05v10.55h-1.26l.21.14v1.28h1.05v12.74h.91v8.16h-4.19v1.9h45.97v-1.9h-4.19v-8.16ZM170.28,83.98h-1.22v-8.16h1.22v8.16ZM160.46,83.98v-8.16h3.01v8.16h-3.01ZM141.49,83.98v-8.16h3.01v8.16h-3.01ZM137.58,37.23v-16.94h3.98v16.94h-7.2v-16.94h2.51v16.94h.72ZM168.08,37.23v-16.94h2.34v16.94h-7.09v-16.94h4.38v16.94h.37ZM151.55,5.49v2.12h-1.24v-2.12h1.24ZM163.32,63.09h-1.62v8.28h-.74v-8.3h7.09v8.3h-4.72v-8.28h-.01ZM143.18,63.09h-1.62v8.28h-4.64v-8.3h7.34v8.3h-1.08v-8.28h-.01ZM136.22,51.1h.74v10.55h-2.6v-10.55h1.86ZM170.42,61.65h-2.17v-10.55h2.17v10.55ZM167.53,61.65h-4.21v-10.55h4.21v10.55ZM146.38,8.75h5.33v10h-4.02v.65h-3.06v-10.65h1.76ZM157.58,8.75h3.02v10.65h-3.51v-.65h-3.76v-10h4.25ZM161.7,37.23h-.74v-16.94h.74v16.94ZM160.96,38.65h.74v11.03h-.74v-11.03ZM161.7,18.87h-.74v-10.12h.74v10.12ZM160.6,50.3h-3.51v-.73h-3.65v-10.76h3.65v-.6h3.51v12.08ZM144.62,19.76h3.06v.8h3.99v6.34h-3.99v.97h-3.06v-8.11ZM152.38,37h-.22v-8.29h.8v8.29h-.58ZM152.53,20.56h.43v6.34h-.8v-6.34h.36ZM152.38,49.58h-.22v-10.76h.8v10.76h-.58ZM152.38,61.45h-.22v-10.06h.8v10.06h-.58ZM144.62,28.24h3.06v.48h3.99v8.29h-3.99v.85h-3.06v-9.62ZM144.62,38.22h3.06v.6h3.99v10.76h-3.99v.73h-3.06v-12.08ZM160.6,37.85h-3.51v-.85h-3.65v-8.29h3.65v-.48h3.51v9.62ZM160.6,27.87h-3.51v-.97h-3.65v-6.34h3.65v-.8h3.51v8.11ZM144.27,37.23h-1.08v-16.94h1.08v16.94ZM143.19,38.65h1.08v11.03h-1.08v-11.03ZM144.27,18.87h-1.08v-10.12h1.08v10.12ZM143.19,51.1h1.08v10.55h-1.08v-10.55ZM144.62,50.67h3.06v.72h3.99v10.06h-3.99v.73h-3.06v-11.51ZM157.1,61.78v-.33h-3.65v-10.06h3.65v-.72h3.51v11.51h-3.51v-.4ZM160.96,51.1h.74v10.55h-.74v-10.55ZM141.56,61.65h-3.89v-10.55h3.89v10.55ZM134.43,63.07h1.78v8.3h-1.85v-8.3h.07ZM144.62,62.54h3.06v.72h3.99v8.1h-7.05v-8.83ZM152.16,63.27h.8v8.1h-.8v-8.1ZM153.44,63.27h3.65v-.72h3.51v8.83h-7.16v-8.1ZM168.76,63.07h1.66v8.3h-1.66v-8.3ZM170.42,49.68h-1.66v-11.03h1.66v11.03ZM168.05,49.68h-4.72v-11.03h4.72v11.03ZM160.22,7.61h-1.24v-2.12h1.24v2.12ZM154.44,7.61h-1.24v-2.12h1.24v2.12ZM141.56,49.68h-4.68v-11.03h4.68v11.03ZM136.16,49.68h-1.8v-11.03h1.8v11.03ZM134.36,72.09h7.2v2.26h-7.2v-2.26ZM143.19,74.35v-2.26h18.51v2.26h-18.51ZM163.33,74.35v-2.26h7.09v2.26h-7.09ZM157.33,7.61h-1.24v-2.12h1.24v2.12ZM154.96,5.21l.13-3.58c.69.07,1.33.15,1.93.23l-.25,3.35h-1.81ZM154.48,5.21h-1.81V1.48c.63,0,1.28.04,1.94.1l-.13,3.63ZM150.39,5.21l-.17-3.63c.66-.06,1.31-.09,1.95-.1v3.73s-1.78,0-1.78,0ZM149.91,5.21h-1.79l-.3-3.36c.6-.09,1.24-.16,1.93-.23l.17,3.58ZM148.66,5.49v2.12h-1.24v-2.12h1.24ZM145.77,5.49v2.12h-1.24v-2.12h1.24ZM140.39,75.82v8.16h-3.17v-8.16h3.17ZM145.6,75.82h13.76v8.16h-13.76v-8.16ZM164.57,75.82h3.39v8.16h-3.39v-8.16ZM166.39,5.44v12.39h4.02v1.04h-7.09v-10.12h0v-1.89l.81-1.41h2.25ZM158.81,5.21h-1.55l.25-3.28c.62.1,1.17.19,1.55.26l-.25,3.02ZM152.42,1.47h-.07s.03,0,.04,0c.01,0,.02,0,.03,0ZM147.33,1.92l.3,3.29h-1.66l-.25-3.02c.39-.07.97-.17,1.61-.27ZM138.38,17.83V5.44h2.37l.81,1.41v1.35h0v10.66h-7.2v-1.04h4.02ZM134.9,75.82h1.22v8.16h-1.22v-8.16Z"/><path class="cls-1" d="M20.44,255.48l1.54,2.99.03.06h1.33l-4.75-9.43-.03-.06h-.38l-4.85,9.49h1.37l1.56-3.05h4.18ZM19.89,254.36h-3.05l1.53-2.99,1.52,2.99Z"/><path class="cls-1" d="M31.82,254.22c.74-.02,1.34-.12,1.78-.31.49-.2.88-.51,1.15-.91.27-.4.41-.87.41-1.39,0-.63-.2-1.17-.59-1.61-.39-.43-.9-.71-1.51-.84-.4-.09-1.15-.13-2.28-.13h-2.11v9.49h1.23v-4.3h.4l3.57,4.26.03.04h1.53l-3.61-4.31ZM31.51,253.1h-1.61v-2.94h1.65c.67,0,1.15.05,1.43.16.27.1.49.27.66.5.17.24.25.49.25.78s-.08.56-.25.8c-.16.24-.4.41-.7.52-.31.11-.79.17-1.44.17Z"/><polygon class="cls-1" points="48.61 249.03 42.9 249.03 42.9 250.17 45.13 250.17 45.13 258.53 46.37 258.53 46.37 250.17 48.61 250.17 48.61 249.03"/><path class="cls-1" d="M61.66,257.99c.57-.52.86-1.13.86-1.84,0-.49-.17-.98-.5-1.46-.33-.47-.94-1.01-1.81-1.61-.74-.51-1.16-.81-1.28-.92-.23-.21-.39-.41-.47-.59-.08-.17-.12-.35-.12-.54,0-.3.11-.55.35-.75.23-.21.54-.31.92-.31.29,0,.57.07.81.21.25.14.57.44.93.89l.06.08,1-.7-.07-.09c-.47-.6-.91-1-1.34-1.22-.42-.22-.89-.34-1.38-.34s-.9.1-1.29.3c-.4.2-.71.48-.92.82-.22.35-.33.74-.33,1.16,0,.53.19,1.03.56,1.49.22.27.73.7,1.58,1.29.82.57,1.39,1.06,1.69,1.46.21.28.32.56.32.85,0,.25-.07.49-.21.71-.14.23-.36.41-.63.54-.28.14-.58.21-.9.21-.74,0-1.4-.5-1.98-1.48l-.06-.09-1.05.58.06.1c.43.72.9,1.24,1.41,1.55.51.31,1.09.47,1.71.47.81,0,1.51-.26,2.09-.77Z"/><polygon class="cls-1" points="72.59 258.53 73.8 258.53 73.8 254.02 77.07 249.03 75.64 249.03 73.18 252.77 70.71 249.08 70.68 249.03 69.25 249.03 72.59 254.02 72.59 258.53"/><polygon class="cls-1" points="95.88 248.36 94.65 248.36 94.65 257.85 99.73 257.85 99.73 256.73 95.88 256.73 95.88 248.36"/><rect class="cls-1" x="110.28" y="248.36" width="1.23" height="9.49"/><polygon class="cls-1" points="121.98 257.85 123.2 257.85 123.2 253.3 127.22 253.3 127.22 252.17 123.2 252.17 123.2 249.49 127.22 249.49 127.22 248.36 121.98 248.36 121.98 257.85"/><polygon class="cls-1" points="141.24 256.72 136.55 256.72 136.55 253.3 141.24 253.3 141.24 252.17 136.55 252.17 136.55 249.49 141.28 249.49 141.28 248.36 135.32 248.36 135.32 257.85 141.24 257.85 141.24 256.72"/></g></svg>