<?xml version="1.0" encoding="UTF-8"?><svg id="_圖層_2" xmlns="http://www.w3.org/2000/svg" viewBox="0 0 53.7 53.7"><defs><style>.cls-1{fill:#a38046;}.cls-2{fill:#fff;}</style></defs><g id="_圖層_2-2"><circle class="cls-1" cx="26.85" cy="26.85" r="26.85"/><path class="cls-2" d="M32.17,52.63c0-5.55.02-11.09-.02-16.64,0-.91.27-1.14,1.13-1.11,1.71.06,3.43.02,5.21.02.35-2.65.68-5.19,1.02-7.82-.49-.04-.84-.08-1.18-.08-1.75,0-3.51-.03-5.26,0-.71.02-.94-.23-.92-.94.05-1.4,0-2.81.02-4.21.02-1.64,1.05-2.67,2.69-2.7,1.27-.02,2.55-.03,3.83,0,.17,0,.32,0,.44-.03.04,0,.07-.03.1-.05.07-.03.15-.05.2-.1.03-.03.05-.08.07-.11.04-.06.08-.11.1-.19.01-.06.01-.13.02-.2.01-.11.03-.2.02-.34-.11-1.75-.07-3.5,0-5.25,0-.11,0-.18-.02-.27,0-.06,0-.13-.02-.18-.02-.07-.05-.11-.08-.17-.02-.03-.03-.08-.06-.11-.04-.05-.11-.07-.17-.1-.03-.01-.05-.04-.09-.05-.11-.03-.24-.04-.4-.04-2.04.03-4.08-.03-6.12.03-3.82.11-7.13,2.51-8.01,6.2-.5,2.1-.39,4.35-.45,6.54-.07,2.25-.01,2.25-2.28,2.25h-3.98v7.96h6.15v18.66s4.86.32,8.03-.45v-.54Z"/></g></svg>