<?xml version="1.0" encoding="UTF-8"?><svg id="_圖層_2" xmlns="http://www.w3.org/2000/svg" viewBox="0 0 298.66 70.4"><defs><style>.cls-1{fill:none;stroke:#a38046;stroke-miterlimit:10;}.cls-2{fill:#a38046;}.cls-3{fill:#604c3f;}</style></defs><g id="_圖層_2-2"><path class="cls-3" d="M4.21,8.12h-1.82c-.48,0-.7-.3-1.12-1.55h3.79V.27l1.73.36c.36.09.48.21.48.39v5.54h.88c.45,0,.73-.24,1.27-.88.67.64,1.15,1,1.15,1.42,0,.61-.58,1-1.64,1h-1.67v1.85c1.18,1.21,2.06,1.97,2.57,3.03.76,1.58-.97,3.15-1.7,1.06-.33-.91-.61-1.79-.88-2.54v14.45c0,1.27-1.18,1.85-2.21,1.48v-15.78c-.61,2.82-1.64,6.33-3.24,8.63-.33.45-.67.09-.55-.27,1.3-3.79,2.27-8.06,2.94-11.9ZM8.39,25.05h17.48c.64,0,.91-.3,1.45-.94.73.7,1.24,1.03,1.24,1.51,0,.73-.64,1.06-1.73,1.06H9.66c-.55,0-.67-.3-1.27-1.64ZM24.56,2c.55,0,.79-.3,1.33-.88.64.64,1.12.97,1.12,1.45,0,.67-.61.97-1.61.97h-8.54l-.97,3.15h.91c.45,0,.73-.18,1.03-.54l1.88.58c1.27.39.45,1.06.45,1.45.06,3.06-.45,9.3-.76,10.75-.61,2.88-1.45,4.54-2.6,5.3-.76.49-1.21.36-1.73-.03-.67-.51-1.33-.94-2.09-1.3-.24-.12-.21-.46.12-.46,2.33.09,2.6.06,2.91-.36.51-.73.79-1.54,1.15-3.21.27-1.21.79-6.18.73-10.69h-2.45c-.36.94-1.39,1.15-2.48.64l1.54-5.27h-4.18c-.48,0-.64-.3-1.15-1.54h15.39ZM10.27,10.09l1.64.36c.39.09.48.21.48.36h.54c.45,0,.76-.18,1.12-.61l1.7.61c1.15.42.42,1,.42,1.45v6.54c0,1.09-1.06,1.48-2.12,1.3v-1.39h-1.67v.73c0,1.06-.97,1.67-2.12,1.36v-10.72ZM14.05,17.23v-4.97h-1.67v4.97h1.67ZM22.9,17.14c-.64-1.33-1.33-2.7-2.03-4-.21-.36.09-.79.51-.36.79.85,1.55,1.73,2.18,2.61.42-1.21.88-2.79,1.09-4.24h-3.27c-.45,0-.58-.42-1-1.45h3.85c.58,0,.76-.09,1.15-.45l.85.67c.73.58.73.76.64,1.18-.45,2.03-.91,3.72-2,6.06.79,1.15,1.42,2.18,1.85,2.88,1.36,2.21-.3,4.12-1.61,1.61l-1.24-2.51c-1.24,2.09-2.97,4-4.45,4.85-.3.18-.67-.15-.33-.51,1.15-1.24,2.73-3.82,3.82-6.3Z"/><path class="cls-3" d="M33.74.73l1.82.42c.33.09.52.27.52.39v.03h2.33c.52,0,.85-.15,1.3-.73l1.58.85c1,.54.82,1,.55,1.48-1.18,2.36-2.54,4.91-3.73,6.63,6.3,4.39,3.82,10.72.91,11.12-1.09.15-1.09-.82-2.45-1.79-.3-.21-.06-.42.27-.36,2.45.39,3.03-1.09,2.91-3.36-.09-1.97-1-3.57-2.48-5.12-.21-.21-.21-.42,0-.88.91-1.94,1.48-3.94,2-6.3h-3.18v22.84c0,1.45-1.18,1.88-2.33,1.67V.73ZM41.68,27.05l-1.48-1.36,3.39-1.06V1l1.94.39c.27.06.42.21.42.36h5.66c.54,0,.91-.3,1.33-.79l1.91.64c1.3.42.42,1.3.42,1.91v9.45c0,1.27-1.18,1.58-2.33,1.39v-1.06h-3.82c.55,1.91,1.24,3.63,2.12,5.15,1.73-1.3,3.54-2.91,4.63-4.42l1.18,1.21c.7.7.64.91.06,1.27-1.06.67-3.18,1.88-5.3,2.82.12.18.24.36.36.51,1.7,2.24,4,4.15,6.78,5.54.3.15.39.3.09.45-2.21,1.18-2.36,1.58-3.76.48-1.57-1.24-2.94-2.67-4.24-4.51-1.76-2.51-2.73-5.45-3.39-8.51h-1.73v10.54c1.27-.45,2.51-.94,4.21-1.64.36-.15.64.27.27.55-1.88,1.39-5.09,3.39-7.33,4.6-.45.24-.76.33-1.42-.3ZM52.95,6.78v-3.42h-7v3.42h7ZM52.95,11.69v-3.3h-7v3.3h7Z"/><path class="cls-3" d="M67.24,11.93l1.94.39c.3.06.49.27.49.39h11.36c.58,0,.94-.24,1.3-.7l2.03.67c1.18.39.39,1.06.39,1.58v5.75c0,1.12-1.21,1.51-2.42,1.33v-1h-5.09v1.76h7.06c.51,0,.82-.24,1.33-.85.73.64,1.18.94,1.18,1.39,0,.64-.64.97-1.6.97h-7.97v1.58h9.72c.58,0,.88-.27,1.42-.91.7.67,1.18,1.03,1.18,1.45,0,.7-.61,1.03-1.64,1.03h-24.44c-.42,0-.54-.3-1.03-1.58h12.33v-1.58h-8.54c-.42,0-.58-.3-1.06-1.51h9.6v-1.76h-5.18c-.24.91-1.3,1.15-2.36,1.06v-9.48ZM86.27,9.87c.54,0,.85-.3,1.36-.91.64.64,1.12.97,1.12,1.42,0,.64-.58,1-1.54,1h-23.08c-.51,0-.7-.3-1.18-1.51h23.32ZM68.06.61l1.97.42c.3.06.45.21.48.42h9.78c.61,0,1-.24,1.42-.76l1.94.61c1.33.42.51,1.15.51,1.64v4.97c0,1.09-1.12,1.45-2.45,1.33v-1.15h-11.24c-.18,1.12-1.36,1.36-2.42,1.27V.61ZM74.79,15.81v-1.67h-5.12v1.67h5.12ZM74.79,18.93v-1.7h-5.12v1.7h5.12ZM81.72,4.09v-1.27h-11.21v1.27h11.21ZM81.72,6.72v-1.27h-11.21v1.27h11.21ZM82.33,15.81v-1.67h-5.09v1.67h5.09ZM82.33,18.93v-1.7h-5.09v1.7h5.09Z"/><path class="cls-3" d="M99.78,13.72c0-1.27,1.06-2.3,2.33-2.3s2.3,1.03,2.3,2.3-1.06,2.27-2.3,2.27-2.33-1-2.33-2.27Z"/><path class="cls-3" d="M119.01,13.9c.06-2.94.06-7.33-.03-11.57l2,.42c.21.06.36.12.42.21,2.67-.85,4.42-1.64,6.42-2.82l1.3,1.27c.45.45.48.82-.12,1-2.18.61-4.54,1.12-7.54,1.58v3.3h3.18c.64,0,.97-.24,1.39-.73l2.06.58c1.15.33.33,1.24.33,1.88v6.03c0,1.36-1.06,1.82-2.39,1.66v-1.24h-4.7c-.21,4.03-.88,9.51-4.51,11.93-.36.24-.76.03-.45-.45,2.03-3.33,2.51-6.97,2.63-13.05ZM126.04,13.84v-4.94h-4.57v2.39c0,.51-.03,1.7-.06,2.54h4.63ZM136.85,11.21h-3.94c0,.39-.03.64-.06,1.33-.15,4.21-1,12.3-8.66,14.93-.36.12-.76-.27-.3-.61,5.39-4.03,6.42-8.3,6.54-14.51.06-2.94.06-5.79-.03-10.03l1.88.45c.24.06.45.12.58.24,3.21-.97,5.48-1.67,7.91-2.91l1.12,1.3c.48.54.48.85-.12,1-2.36.58-5.36,1.15-8.84,1.58v5.57h7.63c.54,0,1.03-.36,1.61-1.03.73.73,1.27,1.09,1.27,1.61,0,.76-.67,1.06-1.76,1.06h-2.42v14.93c0,1.09-1.12,1.82-2.39,1.42V11.21Z"/><path class="cls-3" d="M150.15,9.45v-3.12h-2c-.51,0-.64-.36-1.12-1.58h7.03c-.3-.12-.61-.42-.85-.91-.27-.54-1.09-2.21-1.48-2.94-.21-.42.03-.61.36-.48,1.33.54,2.45,1.27,2.91,1.85.82,1,.45,2.18-.24,2.48h3c.45,0,.76-.24,1.3-.85.58.58,1.12.97,1.12,1.45,0,.61-.64.97-1.6.97h-6.06v3.57c0,1.67.15,1.85,1.88,1.94,1.03.06,1.97-.03,2.58-.15.51-.09.88-.24,1.09-.61l.33-.58c.12-.21.3-.24.45,0,.39.61.73.97,1,1.24.45.45.39,1.24-.24,1.48-1.09.42-2.54.58-4.85.51-4.42-.12-4.6-.45-4.6-4.3ZM159.36,25.11v-2.79h-7.18c-.64,0-.76-.33-1.27-1.61h8.45v-2.91c-3.7.21-7.3.24-9.03.06-.48-.06-.73-.61,0-.64,2.18-.12,5.69-.42,9.12-.91,4.36-.61,7.42-1.24,9.09-1.91l.85,1.09c.58.76.48.91,0,1.06-1.58.46-4.03.79-7.42,1.06v3.09h5.15c.58,0,.88-.27,1.42-.94.73.73,1.21,1.03,1.21,1.51,0,.76-.58,1.03-1.63,1.03h-6.15v2.79h9.24c.64,0,.94-.36,1.45-.97.79.73,1.21,1.09,1.21,1.54,0,.7-.55,1.06-1.61,1.06h-23.75c-.64,0-.76-.36-1.27-1.64h12.12ZM164.26.27l1.39.73c.73.36.82.39.55,1.03-.12.3-.27.61-.46.91h4.09c.55,0,.79-.12,1.15-.48l.97.76c.82.64.85.7.61,1.39-1.03,2.94-2.03,4.76-3.7,6.45-1.97,2.03-5.66,3.97-9.3,4.48-.45.06-.51-.45-.18-.58,3.12-1.12,6.39-3.15,7.97-5.15,1.15-1.42,2.15-3.21,2.7-5.33h-5.24c-.18.27-.36.54-.58.79.94.21,2.33.58,2.94,1.03,1.48,1.09.15,2.88-1.06,1.73-.82-.79-1.76-1.64-2.3-2.21-.54.67-1.12,1.27-1.73,1.85,1.09.42,2.39,1.03,2.82,1.42,1.58,1.45-.24,3.12-1.48,1.51l-1.91-2.42c-.64.54-1.3,1-2,1.36-.42.21-.7-.18-.36-.49,2.42-2.3,4.24-5.72,5.12-8.78Z"/><path class="cls-3" d="M177.74,19.66c5.36-4.09,10.33-9.84,12.81-15.69h-10.84c-.58,0-.7-.33-1.24-1.67h22.99c.61,0,1-.33,1.51-.94.64.64,1.15,1.09,1.15,1.51,0,.76-.64,1.09-1.73,1.09h-8.72c-.54,1.33-1.3,2.76-2.24,4.18l.7.15c.3.06.48.24.48.51v17.02c0,1.42-1.42,1.91-2.6,1.64V10.12c-3.24,4.21-7.75,8.15-11.84,10.06-.51.24-.82-.21-.42-.51ZM194.64,9.66c4.06,2.09,8.06,4.88,9.36,6.57,1.79,2.33-.03,4.18-1.91,2.24-2.45-2.54-5.12-5.63-7.94-8.36-.33-.3.06-.67.48-.45Z"/><path class="cls-3" d="M209.15,10.99c3.57-3.06,6.88-7,8.91-10.78l1.61.88c.58.3.7.46.3,1-.21.3-.45.61-.73.94h5.27c.61,0,1.03-.15,1.54-.58l1.24,1c.67.51.73.7.18,1.18-1.12.97-2.79,2.39-4,3.39h3.36c.52,0,.85-.18,1.24-.64l2.21.7c1.12.36.33,1,.33,1.54v11.78c0,1.09-1.15,1.58-2.54,1.39v-1.36h-11.96v.03c0,1.21-1.27,1.76-2.54,1.61v-14.33c-1.36,1.12-2.79,2.12-4.12,2.79-.36.18-.76-.18-.3-.55ZM218.88,21.93l1.12,1.06c.61.54.67.85.24,1.06-1.58.82-6.18,2.76-9.93,3.48-.58.12-.61-.42-.27-.58,3.36-1.54,7.21-3.66,8.84-5.03ZM215.64,7.66c.3.06.45.18.48.36h5.97c1.03-1.21,1.97-2.6,2.48-3.42h-6.69c-.85.97-1.85,1.97-2.91,2.94l.67.12ZM228.08,11.96v-2.39h-11.96v2.39h11.96ZM228.08,15.9v-2.39h-11.96v2.39h11.96ZM228.08,19.87v-2.42h-11.96v2.42h11.96ZM224.57,22.59c3.54.64,6.3,1.51,7.33,2.18,2.42,1.6,1.36,3.63-1.15,2.15-2.39-1.42-4.39-2.58-6.45-3.79-.36-.21-.3-.64.27-.55Z"/><path class="cls-3" d="M244.47,25.75l-.61-.39c-.27-.18-.12-.42.18-.42,2.79,0,2.88-.09,3.6-3.7.39-1.91.49-5.82.49-8.75h-2.79c-.03.67-.09,1.27-.12,1.73-.54,5.75-2.27,10.9-5.91,13.27-.3.18-.7-.09-.45-.42,1.91-2.76,3.36-5.72,3.97-12.51.12-1.45.27-5.24.3-7.39h-3.21c-.64,0-.64-.27-1.21-1.54h7.15c-.3-.21-.61-.61-.85-1.21-.58-1.36-1.24-2.85-1.64-3.63-.15-.3.06-.61.45-.42,1.24.61,2.48,1.42,3.18,2.57.67,1.09.45,2.24-.09,2.7h3.24c.54,0,.94-.24,1.39-.88.73.67,1.15,1.06,1.15,1.42,0,.73-.58,1-1.58,1h-5.57c-.03,1.03-.06,2.42-.12,3.76h1.58c.48,0,.79-.21,1.12-.73l1.88.7c1.33.49.64,1.27.64,1.64-.12,4.57-.18,6.24-.48,8.27-.55,3.79-1.21,5.54-2.85,6.27-1.58.64-1.58-.48-2.85-1.3ZM254.65,7.6c1-2.33,1.67-4.88,2.12-7.6l1.85.82c.61.27.64.48.54.91-.09.39-.24.88-.42,1.45.64,1.18,1.54,2.73,2.24,3.7,1.21,1.67,2.94,3.7,5.12,5.27.3.21.3.36.06.45-1.85.64-2.15,1.06-3.06.27-1.42-1.24-2.79-3.45-3.85-5.57-.45-.91-.79-1.79-1.06-2.61-1.33,3.21-3.7,7.42-6.72,9.21-.36.21-.7-.09-.45-.39,1.58-1.79,2.79-3.91,3.63-5.91ZM254.22,19.75c4.33,2.03,6.36,3.24,7.75,4.66,1.85,1.91.73,4.54-1.67,2.09-1.36-1.39-3.85-3.94-6.48-6.24-.36-.3-.15-.76.39-.51ZM255.65,12.08c2.15,1.03,3.57,1.88,4.6,3.09,1.36,1.57,0,4.33-1.73,1.82-.85-1.24-2.21-3.18-3.21-4.39-.36-.42-.06-.7.33-.51Z"/><path class="cls-3" d="M273.76,11.27c-1.12,1.63-2.39,3.15-3.79,4.27-.27.21-.73-.06-.45-.42,1.54-2.15,3.03-4.66,4.6-8.15.88-1.94,1.85-4.21,2.54-6.78l1.64.88c.61.33.67.42.42,1.03-.64,1.58-1.51,3.33-2.61,5.33v18.57c0,1.42-1.12,1.91-2.36,1.64V11.27ZM282.03,12.78l1.54.94c.54.33.61.45.33,1.09-1.3,2.97-4.15,7.12-6.15,8.88-.3.27-.7-.03-.42-.48,1.7-2.79,3.7-7.09,4.69-10.42ZM283.76.36l1.54.85c.76.42.82.52.48,1.15-.61,1.15-1.27,2.36-2.03,3.6h8.97c.67,0,1.03-.21,1.51-.67l1.15,1.06c.73.67.7.82.27,1.33-.94,1.15-2.42,2.82-3.48,3.88-.3.3-.67.03-.54-.27.67-1.54,1.12-2.64,1.48-3.7h-10.39c-1.24,1.94-2.7,3.88-4.36,5.69-.42.48-.76-.09-.61-.33,2.45-4.03,4.66-8.51,6-12.6ZM282.39,24.81c.73,0,3.27.12,3.45.03.15-.09.15-.15.15-.27v-15.69l1.91.42c.39.09.48.24.48.45v16.11c0,1.42-1.33,2.39-2.42,1.27-.76-.79-2.66-1.58-3.63-1.85-.33-.09-.3-.48.06-.48ZM290.85,13.75c2.36,2.15,4.33,4.57,5.06,6.18,1.24,2.73-.76,4.33-2.15,1.36-1.64-3.45-2.27-5.06-3.48-7.24-.21-.39.18-.67.58-.3Z"/><path class="cls-2" d="M110.43,61.55c0,.61.07.61.74.61h1.53c.92,0,1.64-.04,1.91-.13.25-.09.43-.2.56-.79l.2-.9c.11-.13.49-.13.58,0,0,.54-.09,1.44-.09,2.27s.09,1.66.09,2.18c-.09.14-.43.14-.58,0l-.22-.88c-.11-.4-.29-.72-.72-.85-.31-.09-.88-.11-1.73-.11h-1.53c-.67,0-.74.02-.74.61v3.12c0,2.36.04,2.7,1.37,2.81l.76.07c.14.09.09.49-.04.56-1.33-.05-2.09-.07-2.99-.07-.99,0-1.75.02-2.81.07-.13-.07-.18-.43-.04-.56l.56-.07c1.3-.16,1.35-.45,1.35-2.81v-8.09c0-2.36-.04-2.68-1.35-2.83l-.36-.04c-.13-.09-.09-.49.04-.56.94.05,1.71.07,2.61.07h4.14c1.44,0,2.74,0,3.03-.07,0,1.03.02,2.11.07,2.97-.07.13-.38.2-.54.07-.18-1.01-.45-1.84-1.57-2.14-.49-.13-1.24-.13-2.18-.13h-1.37c-.67,0-.67.05-.67.9v4.74Z"/><path class="cls-2" d="M127.35,65.53c0,2.81-1.93,4.83-4.74,4.83-2.58,0-4.61-1.82-4.61-4.63s2.14-4.86,4.79-4.86,4.56,1.89,4.56,4.65ZM122.52,61.55c-1.48,0-2.59,1.42-2.59,3.89,0,2.05.92,4.25,2.9,4.25s2.59-2.07,2.59-3.8c0-1.91-.76-4.34-2.9-4.34Z"/><path class="cls-2" d="M132,67.53c0,1.62.04,1.84.85,1.96l.54.07c.16.11.11.49-.05.56-.74-.05-1.39-.07-2.18-.07s-1.48.02-2.16.07c-.16-.07-.2-.45-.04-.56l.52-.07c.83-.11.85-.34.85-1.96v-10.16c0-1.33-.02-1.46-.7-1.87l-.22-.14c-.11-.07-.11-.38,0-.45.56-.18,1.62-.52,2.43-.94.09,0,.18.05.22.13-.02.67-.07,1.8-.07,2.79v10.63Z"/><path class="cls-2" d="M137.78,67.53c0,1.62.04,1.84.85,1.96l.54.07c.16.11.11.49-.04.56-.74-.05-1.39-.07-2.18-.07s-1.48.02-2.16.07c-.16-.07-.2-.45-.04-.56l.52-.07c.83-.11.85-.34.85-1.96v-10.16c0-1.33-.02-1.46-.7-1.87l-.22-.14c-.11-.07-.11-.38,0-.45.56-.18,1.62-.52,2.43-.94.09,0,.18.05.22.13-.02.67-.07,1.8-.07,2.79v10.63Z"/><path class="cls-2" d="M150.05,65.53c0,2.81-1.93,4.83-4.74,4.83-2.59,0-4.61-1.82-4.61-4.63s2.14-4.86,4.79-4.86,4.56,1.89,4.56,4.65ZM145.22,61.55c-1.48,0-2.59,1.42-2.59,3.89,0,2.05.92,4.25,2.9,4.25s2.59-2.07,2.59-3.8c0-1.91-.76-4.34-2.9-4.34Z"/><path class="cls-2" d="M152.48,63.37c-.52-1.26-.79-1.48-1.35-1.62l-.36-.09c-.11-.11-.13-.45.07-.54.7.05,1.33.07,2,.07s1.35-.02,1.96-.07c.18.09.2.43.05.54l-.52.09c-.31.05-.49.18-.49.31s.11.56.36,1.17l1.39,3.44c.2.52.4.92.4.97.07-.05.25-.43.52-1.08l1.1-2.72c.29-.72.31-1.01.2-1.3-.2-.49-.54-.67-1.03-.79l-.36-.09c-.16-.14-.11-.47.07-.54.56.05,1.28.07,1.87.07.7,0,1.37-.02,2.14-.07.2.07.2.43.07.54l-.47.09c-.9.18-.85.25-.58,1.03.25.74,1.46,3.6,1.71,4.2.13.34.22.58.29.63.04-.05.16-.27.31-.63.29-.65,1.19-3.03,1.53-3.98.18-.52.22-.81.22-.97,0-.13-.13-.25-.4-.29l-.56-.09c-.18-.11-.13-.47.02-.54.65.05,1.21.07,1.78.07.43,0,.97-.02,1.46-.07.18.09.2.43.07.54l-.45.09c-.54.11-.74.43-1.21,1.42-.61,1.26-1.69,3.96-2.11,5.1-.31.81-.58,1.46-.76,2.05-.09.07-.18.09-.29.09-.09,0-.18-.02-.25-.09-.13-.4-.54-1.57-.92-2.47l-1.08-2.59c-.16-.4-.49-1.15-.52-1.15s-.34.7-.49,1.1l-1.17,2.81c-.4.97-.72,1.78-.9,2.29-.07.07-.16.09-.27.09-.09,0-.2-.02-.27-.09-.13-.47-.49-1.39-.67-1.87l-2.07-5.08Z"/><path class="cls-2" d="M185.29,60.85c0-1.39-.04-3.98-.43-4.65-.16-.27-.56-.43-1.12-.47l-.56-.05c-.13-.16-.09-.45.04-.54.85.05,1.69.07,2.56.07.94,0,1.55-.02,2.36-.07.18.11.16.4.04.54l-.54.05c-.56.04-.99.25-1.12.54-.31.74-.31,3.33-.31,4.59v2.54c0,1.96-.31,4.02-1.57,5.37-.97,1.06-2.63,1.64-4.29,1.64-1.55,0-3.1-.29-4.2-1.24-1.19-.99-1.75-2.63-1.75-5.3v-5.31c0-2.34-.04-2.72-1.35-2.83l-.56-.05c-.13-.09-.09-.47.05-.54,1.12.05,1.89.07,2.79.07s1.66-.02,2.76-.07c.13.07.18.45.04.54l-.54.05c-1.3.11-1.35.49-1.35,2.83v4.86c0,3.62,1.12,6,4.56,6,3.26,0,4.5-2.56,4.5-5.98v-2.59Z"/><path class="cls-2" d="M194.17,61.28c.2.49.36,1.21.36,1.82-.09.16-.43.2-.54.07-.38-.99-1.06-1.64-1.98-1.64s-1.44.56-1.44,1.37c0,.92.94,1.42,1.73,1.87,1.19.67,2.29,1.44,2.29,3.03,0,1.71-1.57,2.56-3.24,2.56-1.06,0-1.84-.22-2.4-.67-.18-.43-.31-1.53-.27-2.27.11-.13.4-.16.52-.02.38,1.24,1.1,2.32,2.38,2.32.81,0,1.51-.47,1.51-1.44,0-1.03-.9-1.6-1.73-2.07-1.3-.74-2.23-1.53-2.23-2.76,0-1.64,1.35-2.56,3.06-2.56.94,0,1.78.22,1.98.4Z"/><line class="cls-1" x1="95.78" y1="62.94" y2="62.94"/><line class="cls-1" x1="298.66" y1="62.94" x2="204.91" y2="62.94"/></g></svg>