<?xml version="1.0" encoding="UTF-8"?><svg id="_圖層_2" xmlns="http://www.w3.org/2000/svg" viewBox="0 0 53.7 53.7"><defs><style>.cls-1{fill:#a38046;}.cls-2{fill:#fff;}</style></defs><g id="_圖層_2-2"><circle class="cls-1" cx="26.85" cy="26.85" r="26.85"/><path class="cls-2" d="M27.69,34.63c.33-.16.84-.32,1.23-.62,1.77-1.33,3.73-1.25,5.31.28.69.67,1.38,1.34,2.04,2.05,1.02,1.1,1.01,2.37-.02,3.46-.61.65-1.25,1.28-1.9,1.9-1.29,1.25-2.88,1.41-4.45.86-1.58-.56-3.17-1.23-4.55-2.16-4.93-3.31-9.04-7.48-12.33-12.43-1.14-1.72-2.06-3.56-2.14-5.7-.04-1.2.35-2.21,1.21-3.04.59-.58,1.16-1.19,1.76-1.76,1.11-1.06,2.44-1.07,3.53-.03.74.71,1.48,1.43,2.18,2.19,1.3,1.41,1.45,3.45.22,4.91-.78.93-.86,1.86-.44,2.86,1.38,3.31,3.71,5.68,7.08,6.98.33.13.71.15,1.27.26Z"/><path class="cls-2" d="M42.81,27.63c0,.17,0,.33,0,.5-.03.96-.57,1.57-1.41,1.6-.85.03-1.39-.52-1.52-1.51-.14-1.15-.19-2.32-.45-3.44-1.48-6.31-7.24-10.91-13.7-11-1.15-.02-1.85-.6-1.82-1.52.03-.85.77-1.43,1.82-1.43,9.01.04,16.94,7.84,17.07,16.79Z"/><path class="cls-2" d="M36.26,27.7c0,.17,0,.33,0,.5-.03.91-.55,1.49-1.35,1.54-.82.04-1.38-.48-1.5-1.38-.1-.72-.15-1.46-.34-2.15-.94-3.42-3.77-5.68-7.3-5.86-1.17-.06-1.87-.64-1.85-1.51.03-.93.79-1.48,2-1.44,5.45.18,10.2,4.93,10.34,10.32Z"/></g></svg>