<?xml version="1.0" encoding="UTF-8"?><svg id="_圖層_2" xmlns="http://www.w3.org/2000/svg" viewBox="0 0 53.7 53.7"><defs><style>.cls-1{fill:#a38046;}.cls-2{fill:#fff;}</style></defs><g id="_圖層_2-2"><circle class="cls-1" cx="26.85" cy="26.85" r="26.85"/><path class="cls-2" d="M26.86,11.1c3.07.03,5.98.67,8.73,2.06,2.07,1.05,3.86,2.44,5.28,4.29,1.45,1.87,2.32,3.98,2.48,6.36.16,2.24-.37,4.32-1.5,6.25-.93,1.59-2.13,2.96-3.47,4.21-3.03,2.82-6.42,5.16-9.97,7.27-.57.34-1.17.62-1.77.9-.19.09-.42.14-.63.16-.44.04-.72-.2-.7-.65.02-.45.12-.89.17-1.34.06-.51.1-1.01.14-1.52.04-.54-.23-.92-.73-1.07-.52-.16-1.05-.28-1.58-.37-2.34-.4-4.53-1.2-6.55-2.45-1.97-1.22-3.62-2.79-4.82-4.79-.92-1.53-1.48-3.19-1.61-4.97-.22-2.84.59-5.38,2.25-7.66,1.29-1.78,2.93-3.16,4.84-4.24,2.16-1.23,4.5-1.94,6.96-2.25.82-.1,1.65-.11,2.48-.17ZM26.72,24.17s.06-.02.08-.03c.06.07.12.13.17.2.92,1.24,1.85,2.49,2.76,3.74.15.21.32.35.6.31.22-.02.45,0,.68,0,.35,0,.42-.08.42-.43,0-.38,0-.75,0-1.13,0-1.74,0-3.48,0-5.23,0-.34-.08-.42-.41-.42-.25,0-.5,0-.75,0-.38,0-.42.04-.42.42,0,1.16,0,2.33,0,3.49,0,.11-.02.21-.04.32-.11-.05-.16-.1-.21-.16-.82-1.1-1.68-2.18-2.44-3.32-.41-.62-.87-.86-1.59-.77-.42.05-.46.05-.46.47,0,2.09,0,4.19,0,6.28,0,.05,0,.1,0,.15,0,.21.1.32.33.32.28,0,.55,0,.83,0,.35,0,.43-.07.43-.43,0-1.16,0-2.33,0-3.49v-.29ZM32.64,24.77c0,1.08,0,2.16,0,3.24,0,.28.07.37.32.37,1.39,0,2.78,0,4.17,0,.21,0,.31-.1.31-.31,0-.29,0-.59,0-.88,0-.35-.04-.38-.4-.38-.85,0-1.69,0-2.54,0-.21,0-.31-.07-.3-.29.01-.24,0-.49,0-.73,0-.17.08-.24.24-.25.08,0,.17,0,.25,0,.8,0,1.59,0,2.39,0,.3,0,.35-.06.35-.36,0-.23,0-.47,0-.7,0-.47-.01-.49-.47-.49-.82,0-1.64,0-2.46,0-.21,0-.31-.07-.29-.29.01-.18,0-.35,0-.53,0-.45,0-.45.44-.45.79,0,1.57,0,2.36,0,.38,0,.42-.04.43-.41,0-.24,0-.49,0-.73,0-.37-.04-.41-.4-.41-1.33,0-2.66,0-3.99,0-.36,0-.41.05-.41.41,0,1.06,0,2.13,0,3.19ZM16.51,24.75c0,1.09,0,2.18,0,3.27,0,.21.04.37.3.37,1.4,0,2.8,0,4.2,0,.21,0,.31-.1.31-.31,0-.28,0-.57,0-.85,0-.36-.05-.41-.41-.41-.85,0-1.69,0-2.54,0-.24,0-.34-.09-.32-.33,0-.15,0-.3,0-.45,0-1.5,0-3,0-4.5,0-.32-.05-.36-.37-.37-.26,0-.52,0-.78,0-.35,0-.39.04-.39.39,0,1.06,0,2.13,0,3.19ZM23.97,24.78c0-1.07,0-2.14,0-3.22,0-.34-.05-.39-.39-.39-.28,0-.55,0-.83,0-.29,0-.35.07-.35.36,0,.46,0,.92,0,1.38,0,1.68,0,3.37,0,5.05,0,.34.08.41.41.42.25,0,.5,0,.75,0,.35,0,.41-.06.41-.41,0-1.06,0-2.13,0-3.19Z"/></g></svg>