<?xml version="1.0" encoding="UTF-8"?><svg id="_圖層_2" xmlns="http://www.w3.org/2000/svg" viewBox="0 0 572.68 142.94"><defs><style>.cls-1,.cls-2{fill:#fff;}.cls-1,.cls-3{stroke:#fff;stroke-miterlimit:10;stroke-width:1.45px;}.cls-3{fill:none;}</style></defs><g id="_圖層_2-2"><path class="cls-2" d="M140.37,27.11c3.9-4.71,6.81-9.89,10.12-17.22l2.62,1.8c1.16.81,1.22,1.05.76,1.8-2.97,4.65-6.98,9.77-10.88,13.21,3.32-.52,6.11-.99,8.55-1.51-.41-1.4-.7-2.73-.93-3.49-.17-.7.47-1.16.99-.7,1.8,1.69,3.96,4.01,4.83,6.11,1.63,3.96-1.8,6.28-3.32,2.85-.41-.87-.76-1.98-1.11-3.08-.99.35-2.09.76-3.2,1.11v21.76c0,2.21-1.86,3.43-4.36,2.85v-23.16c-1.8.58-3.55,1.11-5.06,1.63-1.57.52-1.8.35-4.13-3.26l5.12-.7ZM138.92,33.11l2.62,1.11c1.34.58,1.51.64,1.05,1.98-1.11,3.14-3.61,9.72-5.7,12.97-.47.76-1.05,0-.93-.64.82-3.78,2.09-10.18,2.97-15.42ZM137.87,10.65c.93.58,1.86,1.22,2.73,1.86,1.63-3.26,3.2-7.27,4.65-11.75l2.33,1.45c1.57.99,1.69,1.11,1.11,2.04-1.98,3.14-4.42,6.57-6.87,9.25.81.7,1.63,1.51,2.39,2.44,2.27,2.79-.87,6.63-3.08,3.26-1.63-2.5-2.91-5.7-4.07-7.68-.41-.7.12-1.34.81-.87ZM151.78,33.34c1.86,2.56,3.61,5.29,4.25,7.45,1.45,4.95-2.79,7.16-3.9,2.09-.58-2.68-1.11-6.57-1.4-8.96-.12-.76.58-1.22,1.05-.58ZM158.41,16.81l3.61.93c.58.17.81.35.81.58v13.09h5.41V12.28h-10.88c-.99,0-1.28-.58-2.39-3.08h13.27V.7l3.67.81c.47.12.81.41.81.93v6.75h8.67c1.22,0,1.86-.58,2.85-1.75,1.22,1.28,2.27,1.92,2.27,2.91,0,1.28-1.05,1.92-3.14,1.92h-10.65v19.14h5.59v-14.6l3.55.81c.58.12.87.52.87.93v15.83c0,2.21-2.33,2.85-4.42,2.56v-2.44h-5.59v10.41c0,1.92.12,2.44,2.33,2.56,2.79.17,5.06.17,6.75-.17,1.51-.29,1.92-.87,2.15-2.33l.64-4.07c.06-.52.76-.58.87,0l.7,3.96c.23,1.22.64,1.8,1.34,2.56,1.11,1.22.23,2.56-.87,3.03-2.33.99-7.39,1.28-10.65,1.11-7.45-.41-7.74-1.11-7.74-8.2v-8.84h-5.41v.12c0,2.21-2.5,2.97-4.42,2.44v-20.25Z"/><path class="cls-2" d="M202.68,21.29c-2.39,3.55-4.71,6.34-7.56,8.61-.58.47-1.45-.06-.87-.81,2.79-3.78,5.41-8.32,8.32-14.89,1.8-4.07,3.61-8.61,4.83-13.73l3.37,1.8c1.05.52,1.16.87.7,1.98-.93,2.33-2.33,5.59-4.07,9.02v36.25c0,2.73-2.33,3.72-4.71,3.2v-31.42ZM223.98,46.6v-15.01h-9.31c-1.05,0-1.45-.64-2.5-3.14h11.81v-12.39h-11.87c-1.11,0-1.45-.7-2.56-3.2h28.74c1.11,0,1.69-.47,2.79-1.69,1.28,1.22,2.33,2.15,2.33,3.03,0,1.28-1.16,1.86-3.37,1.86h-11.11v12.39h6.63c1.05,0,1.63-.52,2.73-1.69,1.28,1.16,2.33,1.98,2.33,2.91,0,1.28-1.11,1.92-3.32,1.92h-8.38v15.01h11.87c1.05,0,1.8-.58,2.97-1.86,1.34,1.4,2.39,2.33,2.39,3.2,0,1.34-1.22,2.04-3.49,2.04h-31.77c-1.16,0-1.45-.7-2.68-3.37h15.77ZM220.6.52c3.96,1.8,6.92,3.78,7.97,6.28,1.69,4.01-2.04,7.1-4.31,2.79-1.28-2.44-3.08-6.11-4.48-8.26-.35-.52.17-1.11.81-.81Z"/><path class="cls-2" d="M273.14,34.85h-16.81c-.99,0-1.28-.58-2.44-3.32h19.26v-8.49c-5.47.81-11.29,1.28-15.07,1.28-.99,0-1.05-1.05-.23-1.22,4.71-.87,10.3-1.98,15.65-3.26,6.52-1.57,12.74-3.49,15.59-4.83l1.69,2.15c1.22,1.51.99,1.92-.17,2.33-1.8.64-7.68,1.86-12.51,2.73v9.31h17.92c1.4,0,2.09-.76,3.14-1.92,1.28,1.22,2.5,2.21,2.5,3.14,0,1.45-1.16,2.09-3.37,2.09h-20.19v9.66c0,1.69.23,2.56,3.72,2.79,7.68.52,12.33.23,14.78-.41,1.11-.29,1.51-.99,1.69-2.09l.58-3.49c.12-.52.81-.52.93,0l.7,3.43c.23,1.05.52,1.57,1.28,2.27,1.34,1.22.58,2.68-.64,3.2-3.2,1.34-8.96,1.75-16.99,1.4-10.82-.47-11-1.75-11-9.13v-7.62ZM261.04,6.52c.23-.7,1.16-.52,1.22.06.06.52.06,1.05.06,1.57h17.16c-.58-.35-1.28-.99-1.92-1.98-1.05-1.63-2.39-3.72-3.26-5-.47-.64-.12-1.16.64-.99,2.79.76,5.06,1.75,6.46,3.03,1.75,1.57,1.4,4.07.12,4.95h14.6c1.45,0,2.04-.17,2.91-1.05l2.33,2.15c1.34,1.22,1.11,1.63.47,2.21-2.27,2.15-4.95,4.83-6.34,5.88-.58.41-1.22,0-.87-.81.52-1.16,1.4-3.32,2.27-5.18h-34.73c-.23,1.51-.58,2.91-1.05,3.84-2.56,5.12-7.51,1.92-5.06-.87,1.86-2.15,3.78-4.19,5-7.8Z"/><path class="cls-2" d="M368.71,37.06v-18.73h-5.7c-1.05,0-1.34-.64-2.39-3.08h8.09V.87l3.67.87c.58.12.93.52.93.87v12.63h2.73c1.05,0,1.57-.52,2.62-1.69,1.4,1.22,2.27,1.92,2.27,2.79,0,1.4-1.11,1.98-3.03,1.98h-4.6v17.4c3.26-.93,6.17-1.86,8.38-2.62.64-.23,1.28.64.64,1.05-4.54,2.85-12.57,6.34-17.75,8.61-1.57.7-1.86.64-5.18-3.2,3.03-.76,6.23-1.63,9.31-2.5ZM379.41,23.56c2.97-6.17,6.87-16.47,8.32-23.33l3.32,1.69c1.11.58,1.22.87.93,1.63-.81,2.09-1.69,4.19-2.68,6.23h13.44c1.05,0,1.51-.41,2.39-1.34.06,0,.12.06.17.06l3.72,1.28c2.97,1.05,1.11,2.5,1.11,3.55,0,28.39-2.27,36.36-6.57,38.92-.99.58-2.39.47-3.32-.29-1.16-.93-3.14-2.04-5.41-3.32-.41-.23-.41-.87.35-.81,6.34.47,6.69.41,7.74-2.33.76-1.92,1.34-5.53,1.86-10.3.76-6.87.7-16.17.52-22.28h-17.51c-2.21,4.19-4.65,8.09-7.33,11.35-.58.7-1.45.12-1.05-.7ZM401.75,31.53c.93-.35,1.4.58.7.99-4.65,2.73-9.95,5.59-16.29,8.15-1.57.64-1.86.52-5.24-3.2,6.81-1.45,15.83-4.07,20.83-5.93ZM388.78,19.03c3.96,1.57,6.57,2.73,8.26,4.42,3.32,3.32.12,7.33-2.56,4.13l-6.28-7.51c-.58-.7,0-1.28.58-1.05Z"/><path class="cls-2" d="M424.91,14.2c.52-2.79.35-7.56.35-11.46l3.38.7c.76.17,1.05.52,1.16.93,4.01-.93,7.8-2.09,11.11-4.19l2.33,2.21c.99.93.81,1.34,0,1.63-3.43,1.28-8.15,1.98-13.38,2.27,0,1.11,0,2.15-.06,3.2h11.29c.87,0,1.51-.41,2.44-1.57,1.28,1.22,2.04,1.92,2.04,2.68,0,1.22-1.05,1.8-2.97,1.8h-3.26v5.53c0,2.21-2.27,2.85-4.54,2.44v-7.97h-5.18c-.17,1.34-.47,2.56-.87,3.55-1.57,3.72-4.42,6.92-8.67,8.38-.7.23-1.05-.7-.58-1.05,3.78-3.08,4.77-5.99,5.41-9.08ZM422.64,51.55c7.39-2.56,13.44-5.47,16.81-8.2l2.15,2.04c1.22,1.16.93,1.45.35,1.8-2.04,1.22-9.6,4.6-19.03,5.53-1.05.12-.93-.93-.29-1.16ZM429.97,20.77l3.84.76c.58.12.93.47.93.7h19.37c1.11,0,1.8-.41,2.5-1.28l3.96,1.16c2.21.64.81,2.09.81,2.97v16.7c0,2.62-2.21,3.26-4.77,2.85v-1.86h-21.88c-.06,2.39-2.5,3.2-4.77,2.85v-24.84ZM456.62,28.22v-3.26h-21.88v3.26h21.88ZM456.62,34.15v-3.2h-21.88v3.2h21.88ZM456.62,39.97v-3.08h-21.88v3.08h21.88ZM446.96,12.97c.29-1.86.35-6.05.35-9.95l3.32.7c.99.17,1.16.41,1.22.87,4.13-1.05,7.91-2.27,11.4-4.54l2.27,2.33c.99.99.81,1.57,0,1.75-3.55.81-8.26,1.75-13.67,2.33,0,1.11-.06,2.09-.12,3.03h13.27c.87,0,1.51-.41,2.44-1.57,1.28,1.22,2.09,1.86,2.09,2.68,0,1.28-.99,1.8-2.91,1.8h-5.12v5c0,2.21-2.33,2.91-4.54,2.5v-7.51h-5.47c-.06.47-.17.87-.23,1.22-1.05,3.72-4.36,6.46-8.26,7.62-.76.23-1.22-.58-.52-1.05,2.85-1.8,4.01-4.42,4.48-7.21ZM450.16,44.63c6.63.87,11.29,1.98,14.02,3.37,4.89,2.5,3.37,7.33-2.15,4.01-4.65-2.79-8.26-4.31-12.39-6.34-.7-.35-.47-1.16.52-1.05Z"/><path class="cls-2" d="M494.83,48.78c4.58-.68,4.58-.89,4.58-9.7v-1.16h-20.57c-.07-.41-.21-1.98.07-3.21,9.02-13.53,17.9-25.83,22.82-32.87,4.1,1.23,3.96,1.02,3.96,2.32v29.79h6.76c-.55,3.28-1.09,3.96-2.46,3.96h-4.3c0,10.45-.07,10.59,5.4,10.86-.55,1.71-.61,1.85-1.37,1.85h-16.06c.21-1.57.27-1.71,1.16-1.85ZM499.41,33.95V10.24c-4.51,7.31-11.34,16.33-16.13,23.71h16.13Z"/><path class="cls-2" d="M528.81,12.39c1.28-3.61,2.62-7.45,3.61-12.16l3.14,1.28c1.45.58,1.57.99,1.16,2.15-1.05,2.91-2.73,7.39-4.65,11.23v34.97c0,2.73-2.27,3.61-4.6,3.08v-29.96c-1.98,3.08-4.13,5.93-6.11,7.56-.47.35-1.28-.12-.81-.87,2.5-4.01,5.76-10.24,8.26-17.28ZM533.29,27.11h11.23c.23-4.01.12-7.68.06-11.23h-6.81c-1.05,0-1.28-.7-2.33-3.08h19.9c1.16-2.5,3.43-8.73,4.48-12.8l3.49,1.92c1.28.7,1.16,1.22.64,1.98-1.45,2.15-4.54,6.75-6.4,8.9h8.38c.93,0,1.51-.47,2.44-1.57,1.28,1.16,2.21,1.86,2.21,2.73,0,1.28-1.11,1.92-3.08,1.92h-6.28v11.23h6.57c1.05,0,1.69-.47,2.62-1.63,1.22,1.16,2.27,2.04,2.27,2.79,0,1.16-1.16,1.98-3.14,1.98h-8.32v19.49c0,2.79-2.33,3.55-4.65,3.14v-22.63h-7.56c-1.16,9.66-5.47,18.56-14.49,22.46-.64.29-1.51-.23-.64-.99,5.53-4.83,9.19-11.52,10.18-19.26.12-.76.17-1.51.23-2.21h-8.67c-1.1,0-1.28-.81-2.33-3.14ZM543.29.81c2.44,1.34,5.53,4.31,6.23,6.23,1.4,3.84-1.92,6.75-3.67,2.91-.99-2.15-2.68-6.69-3.55-8.49-.23-.52.17-1.11.99-.64ZM556.56,27.11v-11.23h-7.27v8.9c0,.76,0,1.57-.06,2.33h7.33Z"/><path class="cls-2" d="M.09,8.91L11.87,3.16h1.18v40.9c0,2.71.11,4.41.34,5.07.23.67.7,1.18,1.41,1.54.71.36,2.17.56,4.36.61v1.32H.94v-1.32c2.29-.05,3.76-.24,4.43-.59.67-.35,1.13-.81,1.39-1.39.26-.58.39-2.33.39-5.23v-26.14c0-3.52-.12-5.79-.36-6.79-.17-.76-.47-1.32-.91-1.68-.44-.36-.97-.54-1.59-.54-.88,0-2.11.37-3.68,1.11l-.54-1.11Z"/><path class="cls-2" d="M28.15,13.38c1.38-3.26,3.13-5.78,5.23-7.55,2.11-1.77,4.73-2.66,7.88-2.66,3.88,0,6.86,1.26,8.93,3.79,1.57,1.88,2.36,3.89,2.36,6.04,0,3.52-2.21,7.17-6.64,10.93,2.98,1.17,5.23,2.83,6.75,5,1.52,2.17,2.29,4.71,2.29,7.64,0,4.19-1.33,7.82-4,10.89-3.48,4-8.51,6-15.11,6-3.26,0-5.48-.4-6.66-1.21-1.18-.81-1.77-1.68-1.77-2.61,0-.69.28-1.3.84-1.82.56-.52,1.23-.79,2.02-.79.6,0,1.2.1,1.82.29.4.12,1.32.55,2.75,1.3s2.42,1.2,2.96,1.34c.88.26,1.82.39,2.82.39,2.43,0,4.54-.94,6.34-2.82,1.8-1.88,2.7-4.11,2.7-6.68,0-1.88-.42-3.71-1.25-5.5-.62-1.33-1.3-2.35-2.04-3.04-1.02-.95-2.43-1.82-4.21-2.59-1.79-.77-3.61-1.16-5.46-1.16h-1.14v-1.07c1.88-.24,3.77-.92,5.66-2.04,1.89-1.12,3.27-2.46,4.13-4.04.86-1.57,1.29-3.3,1.29-5.18,0-2.45-.77-4.43-2.3-5.95-1.54-1.51-3.45-2.27-5.73-2.27-3.69,0-6.77,1.98-9.25,5.93l-1.18-.57Z"/><path class="cls-2" d="M73.74,33.69V11.95h-4.32c-1.05,0-1.27-.58-2.21-2.97h6.53V1.06l3.43.7c.77.17.89.58.89.87v6.35h7.03V1.11l3.43.76c.77.17.89.58.89.93v6.18h1.11c.94,0,1.38-.58,2.44-1.69,1.16,1.22,1.94,1.81,1.94,2.8,0,1.22-.89,1.86-2.71,1.86h-2.77v21.74h1.38c1,0,1.44-.47,2.6-1.81,1.27,1.4,2.1,1.98,2.1,2.91,0,1.28-.89,1.98-2.82,1.98h-23.8c-1,0-1.16-.58-2.21-3.09h7.09ZM76.51,37.36l2.49,1.69c1.38.93,1.44,1.05.72,2.21-2.16,3.5-7.42,9.79-10.63,11.77-.77.47-1.33-.29-.89-.87,2.77-3.73,5.92-9.03,8.3-14.8ZM85.09,17.14v-5.19h-7.03v5.19h7.03ZM85.09,25.41v-5.3h-7.03v5.3h7.03ZM85.09,33.69v-5.3h-7.03v5.3h7.03ZM85.15,38.06c2.32,1.4,4.54,2.91,5.81,4.78,2.05,3.03-1.49,6.64-3.49,2.74-1.27-2.51-2.44-5.24-3.16-6.64-.33-.64.11-1.34.83-.87ZM88.3,52.1c5.2-5.65,7.86-12.59,8.3-21.44.33-6.99.17-15.38-.06-26.81l3.54.76c.61.12,1,.35,1,.76v.06h5.7c1,0,1.77-.47,2.55-1.46l3.49,1.22c2.55.87.83,2.45.83,3.73v40.91c0,2.74-2.49,4.43-4.54,2.51-1.61-1.52-3.71-2.33-5.09-2.8-.78-.29-.72-.87.17-.87,1.83,0,4.26.06,4.87-.17.28-.12.28-.41.28-.7v-14.39h-8.75c-.33,2.68-.89,5.42-1.88,7.93-1.88,4.89-4.93,9.03-9.63,11.71-.55.29-1.61-.06-.77-.93ZM109.34,30.25v-9.38h-8.25v3.67c0,1.75-.06,3.67-.17,5.71h8.41ZM109.34,17.78v-9.27h-8.25v9.27h8.25Z"/><path class="cls-2" d="M239.16,133.43l-3.08,8.45h-25.9v-1.2c7.62-6.95,12.98-12.62,16.09-17.03,3.11-4.4,4.66-8.43,4.66-12.07,0-2.78-.85-5.07-2.56-6.86-1.7-1.79-3.74-2.69-6.12-2.69-2.16,0-4.1.63-5.81,1.89-1.72,1.26-2.98,3.11-3.8,5.55h-1.2c.54-3.99,1.93-7.06,4.16-9.19,2.23-2.14,5.02-3.2,8.37-3.2,3.56,0,6.53,1.14,8.92,3.43,2.38,2.29,3.58,4.99,3.58,8.09,0,2.22-.52,4.45-1.55,6.67-1.6,3.5-4.19,7.2-7.77,11.1-5.37,5.87-8.73,9.41-10.07,10.62h11.46c2.33,0,3.97-.09,4.9-.26.94-.17,1.79-.52,2.54-1.05.76-.53,1.41-1.28,1.97-2.25h1.2Z"/><path class="cls-1" d="M272.21,115.75h1.17c-.07,2.81-.71,5-1.92,6.59s-2.68,2.38-4.43,2.38c-.79,0-1.65-.17-2.56-.5-.92-.33-3.28-1.47-7.1-3.42-2.66-1.38-4.55-2.07-5.67-2.07-1.21,0-2.23.46-3.06,1.39-.83.93-1.42,2.44-1.76,4.53h-1.14c.1-2.91.74-5.14,1.92-6.68,1.17-1.54,2.56-2.31,4.14-2.31.76,0,1.54.15,2.33.45,1.8.65,4.16,1.75,7.08,3.32,2.93,1.56,4.98,2.35,6.18,2.35,1.29,0,2.38-.52,3.26-1.55.88-1.04,1.4-2.52,1.55-4.47Z"/><path class="cls-2" d="M279.94,106.34c1.25-2.96,2.83-5.24,4.74-6.85,1.91-1.61,4.29-2.41,7.14-2.41,3.52,0,6.22,1.14,8.09,3.43,1.42,1.71,2.14,3.53,2.14,5.47,0,3.19-2.01,6.5-6.02,9.91,2.7,1.06,4.74,2.57,6.12,4.53,1.38,1.96,2.07,4.27,2.07,6.93,0,3.8-1.21,7.09-3.63,9.87-3.15,3.63-7.72,5.44-13.69,5.44-2.96,0-4.97-.37-6.04-1.1-1.07-.73-1.6-1.52-1.6-2.36,0-.63.25-1.18.76-1.65.51-.47,1.12-.71,1.83-.71.54,0,1.09.09,1.65.26.37.11,1.2.5,2.49,1.18,1.29.68,2.19,1.08,2.69,1.21.8.24,1.65.36,2.56.36,2.2,0,4.12-.85,5.75-2.56,1.63-1.7,2.44-3.72,2.44-6.05,0-1.7-.38-3.37-1.13-4.99-.56-1.21-1.18-2.13-1.85-2.75-.93-.86-2.2-1.65-3.82-2.35-1.62-.7-3.27-1.05-4.95-1.05h-1.04v-.97c1.7-.22,3.41-.83,5.13-1.85,1.72-1.01,2.96-2.23,3.74-3.66.78-1.42,1.16-2.99,1.16-4.69,0-2.22-.7-4.02-2.09-5.39-1.39-1.37-3.12-2.06-5.2-2.06-3.35,0-6.14,1.79-8.38,5.37l-1.07-.52Z"/><path class="cls-2" d="M315.55,140.79c2.9-3.96,4.91-9.09,5.8-13.38,1.39-6.74,1.34-17.73,1.06-32.11l3.79.72c.56.11.78.28.89.56,10.42-.89,21.63-2.23,28.48-4.12l1.78,2.12c1.17,1.39.72,1.84-.84,2.06-6.13.89-19.01,1.56-29.32,1.67v2.84h25.08c1.06,0,1.73-.33,2.62-1.28l3.79,1.28c2.29.78.67,2.17.67,3.12v6.13c0,1.78-2.29,2.62-4.46,2.12v-1.39h-27.7c0,8.19-.72,12.82-1.84,16.67-1.67,5.91-4.52,10.7-9.03,13.88-.56.39-1.5.11-.78-.89ZM336.84,120.11h-7.41c-.84,0-1.17-.72-2.17-2.9h17c-.39-.22-.78-.56-1.17-1.06-.84-1.11-2.01-2.79-2.62-3.73-.5-.78.06-1.06.72-.89,2.56.67,4.63,1.39,5.69,2.68.84,1,.39,2.4-.56,3.01h12.37c1,0,1.9-.61,2.95-1.9,1.34,1.28,2.4,1.84,2.4,2.84,0,1.39-1.28,1.95-3.34,1.95h-19.29c-.11,1.67-.28,3.23-.56,4.68h10.87c.67,0,1.23-.11,1.73-.67l.5-.61,3.57,1.45c2.51,1,1,2.4.89,3.07-.45,3.34-.89,5.24-1.5,6.97-1.67,4.91-3.85,7.02-5.52,7.52-2.23.67-2.68-1.34-6.35-3.62-.56-.33,0-.72.5-.67,3.68.5,4.18.45,4.68-.11.5-.56,1.17-1.39,1.95-3.4.72-1.9,1.34-4.01,1.62-7.02h-13.54c-1.95,7.13-6.19,12.04-14.16,15.16-1,.39-1.28-.5-.61-1,8.08-6.08,10.65-11.54,11.37-21.74ZM354.9,108.23v-4.18h-27.7v4.18h27.7Z"/><line class="cls-3" x1="183.89" y1="119.3" y2="119.3"/><line class="cls-3" x1="568.57" y1="119.3" x2="384.68" y2="119.3"/></g></svg>