<?xml version="1.0" encoding="UTF-8"?><svg id="_圖層_2" xmlns="http://www.w3.org/2000/svg" viewBox="0 0 351.18 363.05"><defs><style>.cls-1{fill:#fff;}</style></defs><g id="_圖層_2-2"><path class="cls-1" d="M255.86,171.02c1.25,1.44,3.23,2.57,3.69,4.28,1.13,4.16,2.09,8.16,7.06,9.03-.14.54-.28,1.08-.42,1.63-2.65.31-5.32.51-7.96.99-1.12.2-3.06.94-3.11,1.48-.13,1.44.22,3.19.99,4.31,2.32,3.35,6.18,4.22,9.78,4.42,5.89.33,11.89-.25,17.84-.54,5.86-.28,11.62-.29,17.17,1.76,2.44.9,5.25,1.12,7.92,1.04,4.74-.15,6.54-4.35,8.36-8.12,1.05-2.17,2.36-4.7,2.21-6.87-.28-4.01-5.34-5.62-9.25-2.83-3.73,2.67-7.62,2.09-11.46,2.48-.81.08-1.97-1.06-2.35-1.97-.21-.5.77-1.76,1.37-2.54.67-.87,1.59-1.52,2.29-2.37,2.48-2.97,4.83-6.07,7.41-8.94,2.18-2.43,2.38-4.99.13-7.28-1.61-1.64-3.2-3.35-5.01-4.7-2.15-1.61-4.27-2.6-7.04.14-2.94,2.91-2.67,6.37-3.23,9.77-.36,2.18-.3,4.51-1.11,6.5-1.39,3.42-2.65,7.67-5.2,9.65-2.55,1.97-6.62,1.69-10.04,2.16-1.7.23-3.6.25-3.47-2.56.13-2.69.12-5.38.2-8.07.3-9.36-7.68-17.48-18.91-10.77-.81.48-1.5,2.83-1.14,3.75.64,1.62,2.11,2.82,3.27,4.16Z"/><path class="cls-1" d="M350.94,278.8c-.34-1.6-1.37-2.9-2.27-4.05-.37-.47-.72-.91-1-1.34l-1-1.53-1.51,1.02c-.42.28-.85.56-1.29.83-1.06.67-2.15,1.37-3.16,2.23-.66.57-1.19,1.3-1.66,1.94-.3.42-.8,1.1-1.06,1.26-1.81.32-3.51.9-5.15,1.47-1.62.56-3.15,1.08-4.63,1.3-1.21.18-2.43.37-3.65.56-5.82.91-11.85,1.86-17.76,1.33,1.82-1.08,3.77-2.06,5.66-3.01l.81-.41c2.08-1.05,3.32-2.41,3.68-4.04.34-1.54-.15-3.15-1.44-4.77-1.63-2.03-3.64-4-6.15-6.02-1.41-1.13-4.28-.63-5.4.56-1.27,1.36-1.88,3.24-2.23,4.54-.83,3.07-2.34,5.26-4.75,6.87-1.54,1.02-3.1,3.24-3.05,5.16.03,1.17-.21,1.55-1.86,1.84-4.34.75-9.49,1.61-14.8,2.19-4.37.48-8.74.65-12.43.75-1.83.05-3.72.02-5.54-.01-2.72-.05-5.53-.09-8.32.12-3.23.25-6.44.81-9.54,1.35-1.36.24-2.72.48-4.08.69l-15.03,2.34,1.52,2.34c.3.46.54.87.76,1.24.5.85.93,1.58,1.61,2.21.64.59,1.32,1.04,1.98,1.48.62.41,1.21.8,1.65,1.24,3.19,3.19,6.61,4.27,9.93,4.27,3.07,0,6.05-.93,8.67-1.96,1.36-.54,3.03-.84,4.72-.85,1.8-.02,3.58.12,5.46.26,1.26.09,2.56.19,3.86.23l1.24.05c2.86.11,5.82.22,8.76.08,4.16-.21,8.3-.67,12.54-1.16,1.97-.23,3.96-.51,5.88-.78,2.63-.37,5.36-.76,8.03-1,1.39-.13,2.84-.09,4.37-.04,2.73.07,5.55.15,8.17-.77,5.46-1.91,11.19-1.86,16.75-1.81h1.52c4.33.04,8.26-.1,12.42-2.06,5.36-2.54,10.18-9.63,8.79-16.16Z"/><path class="cls-1" d="M267.06,270.62c-.39-.06-.77-.13-1.11-.2-.83-.18-1.58.03-2.14.18-.21.06-.45.12-.57.13-2.73.11-3.61-.35-4.2-3.62l-.31-1.7-1.71.23c-.61.08-1.21.14-1.8.19-1.41.13-2.87.26-4.27.74-1.83.63-3.71,1.69-5.59,3.16-1.31,1.02-1.75,3.33-1.27,4.71,1.1,3.17,3.38,9.77,11.69,9.32,1.14-.06,2.32.06,3.57.18,1.05.1,2.14.21,3.25.21,2.52,0,5.14-.56,7.61-2.98,2.45-2.41,3.06-5.41,1.68-8.24-.81-1.65-2.94-2-4.82-2.31Z"/><path class="cls-1" d="M296.79,314.49c-1.76.46-3.17,2.9-4.91,3.99-3.15,1.98-7.12,3.94-10.85,2.38-1.9-.79-3.46-2.26-4.69-3.88-1.1-1.45-1.97-4.65-3.77-5.25-.63-.21-1.38-.1-2.29.51-1.42.95-2.65,2.15-4.02,3.17-2.18,1.63-4.28,3.39-6.03,5.47-3.6,4.28-6.57,9.81-8.93,15.44-.92,2.2-.27,7.16,1.1,9.15,8.39,12.13,17.2,20.91,31.08,11.91,10.28-6.66,23.23-5.9,28.8-23.71,2.81-8.99,1.03-15.96-3.06-20.6-2.22-2.52-8.24.34-12.45,1.43Z"/><path class="cls-1" d="M248.39,252.09c6,3.3,8.85,1.73,14.74,1.91,7.11.21,11.29-1.31,22.14-1.35.3,0,1.57-.15,2.94-.33,6.09-.41,15.62-1.93,15.48-1.96,2.2-1.16,3.42-1.45,3.66-2.18l2.04-1.4c1.63-1.52,1.37-3.28,1.42-4.37v-.23s-.19-.67-.19-.67c-.04-.67-.33-1.35-.86-1.99-.54-.64-1.82-1.73-4.25-1.78l-2.76.06-4.48.62-.13.02c-5.33,1.15-8.29,1.65-9.93,1.87.17-.48.36-1.07.56-1.8l.02-.11c.97-5.63,1.78-7.8,2.26-8.6.72-1.09,1.88-2.22,3.4-3.33,4.74-3.14,7.27-6.03,7.74-8.83.27-1.66-.2-3.23-1.4-4.66l-.1-.12c-1.35-1.42-2.9-2.37-4.59-2.82-1.63-.44-3.33-.32-5.05.35-.11.03-.2.06-.29.08-.02-.05-.04-.11-.06-.17-.65-2.14-2.32-4.13-4.94-5.94l-.18-.13-.2-.1c-1.67-.81-2.27-1.05-2.7-1.16-1.61-.43-3.09-.26-4.41.5-1.61.93-2.44,3.07-2.61,6.73-.08,1.72.07,3.46.44,5.17-.24.26-1.44,1.12-7.06,2.11-5.23.86-6.14,1.21-6.58,1.46l-.18.13c-.7.59-1.08,1.5-1.14,2.7l-.04.95c-.1,2.09,1.15,4.09,3.6,5.8,1.29,1.05,2.27,1.9,2.9,2.53l.07.07c1.34,1.23,2.69,2.03,4.03,2.39,1.14.3,2.3.43,3.44.37.01.66,0,1.62-.07,3.01-.07,1.41.01,2.74.18,4.02-10.46-.56-20.42.57-29.99,1.92-1.13.16-2.28.33-3.1.87-.82.54-1.16,1.51-.73,2.67,1.1,2.94,5.55,4.91,6.96,5.69Z"/><path class="cls-1" d="M213.59,253.71c-.11-.32-.19-.66-.28-1-.2-.81-.44-1.74-.99-2.5-1.37-1.89-2.81-3.42-4.29-4.54-.24-.18-.66-.36-1.29-.14-.82.28-2.92,1.64-3.27,2.99-.65,2.5-2.13,2.62-4.89,2.62-1.15,0-2.25.27-3.08.5-.56.16-1.08.37-1.59.57-.64.25-1.24.49-1.83.6-1.57.29-2.92-.39-4.5-1.17-.26-.13-.52-.26-.79-.39-1.85-.89-2.36-1.66-2.22-3.31.11-1.19.12-2.46.04-3.89-.04-.66-.24-1.28-.42-1.82-.04-.13-.09-.26-.13-.4-.14-.46-.32-.9-.5-1.33-.31-.76-.6-1.48-.61-2.11-.02-1.23-.05-2.46-.08-3.68-.14-6.1-.29-12.4.65-18.5.09-.6.19-1.2.29-1.8.55-3.25,1.12-6.6.23-9.9-.43-1.61-1.17-3.09-1.88-4.53-1.06-2.14-2.06-4.15-2.02-6.4.05-2.52,1.31-4.73,2.65-7.06.59-1.03,1.2-2.09,1.69-3.18.3-.67,1.25-3.01.68-4.99-.55-1.89-1.67-3.84-3.09-5.34-2.35-2.49-6.11-5.77-11.62-5.47-1.12.06-2.29.07-3.41.08-.72,0-1.44,0-2.17.03-.37,0-.74,0-1.12,0-1.91-.02-4.07-.03-6.01,1.65-.28.1-1.16,0-1.66-.26-.12-.29-.19-.97-.11-1.16,1.26-1.98,1.72-4.01,1.44-6.38-.1-.85,0-1.76.11-2.73.08-.72.16-1.47.16-2.23,0-.84-.35-1.59-.65-2.25l-.13-.29c-.33-.74-.72-1.58-1.28-2.34-.24-.33-.48-.67-.72-1.01-1.47-2.09-3.15-4.45-6.29-4.99-2.14-.36-4.35-.34-6.42-.29-1.55.04-2.96.91-3.68,2.28-.71,1.33-.65,2.87.15,4.12,1.21,1.88,2.55,3.67,3.98,5.32,1.71,2.32.93,5.5.1,8.87-.32,1.29-.65,2.63-.81,3.9-.11.87-.27,1.01-.32,1.03-.08.04-.34.05-.57.05-3.34.05-6.54.93-9.63,1.77l-16.14,4.41c-.41.11-1.04.28-1.51.8-.7.76-.64,1.81-.62,2.21.23,4.1,2.56,7.94,6.09,10.04,3.53,2.1,8.02,2.31,11.73.56.66-.31,1.27-.67,1.87-1.02.72-.42,1.41-.83,2.13-1.12,1.32-.54,2.6-.55,3.42-.03,1.05.67,1.31,2.1,1.22,3.12-.18,2.03-1.15,4.16-2.09,6.21-.69,1.51-1.41,3.07-1.84,4.64-.56,2.03-1.65,4.01-2.82,6.1-.95,1.71-1.93,3.47-2.62,5.31-1.38,3.71-2.5,7.82-3.5,12.94-.58,2.93-1.07,5.91-1.54,8.8-.88,5.34-1.79,10.86-3.26,16.13-1.58,5.68-3.84,11.18-6.7,16.34-1.46,2.63-1.79,4.71-2.22,7.34l-.17,1.02c-.16.96-.51,2.03-.89,3.17-1.02,1.96-1.57,4.17-1.58,6.37h0s.22,0,.22,0c-1.89,3.85-4.89,7.62-7.49,10.89-.83,1.04-1.62,2.04-2.33,2.98-.49.65-1,1.32-1.64,1.64-.82.4-1.9.34-3.04.27-.89-.05-1.82-.11-2.73.06-1.99.35-3.95,1.25-5.52,2.53-1.04.84-1.5,1.75-1.37,2.71.11.78.59,1.34,1.06,1.78,3.56,3.41,9.17,5.63,14.28,5.67.05,0,.1,0,.14,0,3.22,0,6.11-.87,8.35-2.51,2.17-1.59,3.85-3.65,5.47-5.65l5.83-7.16c.99-1.22,2.02-2.47,2.94-3.81,2.44-3.55,4.09-7.62,4.82-11.86.47-1.39.65-2.88.82-4.34.06-.49.12-.98.19-1.46.69-4.75,2.76-9.3,4.76-13.7.41-.91.82-1.81,1.22-2.72,2.4-5.44,3.56-10.36,3.88-16.46.19-3.72,1.57-7.35,2.9-10.86.4-1.07.81-2.13,1.18-3.2l.35-.99c1.22-3.46,2.9-8.2,2.81-11.69-.09-3.49,1.15-6.32,3.91-8.9.09-.08,2.14-2.03,1.46-3.46-.89-1.88-.17-3.22,1.07-5.23.13-.21.26-.42.39-.63.37-.62.39-1.31.41-1.92,0-.25.01-.48.04-.67.49-3.05.91-5.59,1.33-8,.03-.06.12-.16.21-.28,2.43-3.11,5.14-3.73,8.79-2.04l.1.05c.32.15.68.32,1.11.41,1.02.21,1.36.56,1.31,2.26-.04,1.34.08,3.31.85,5.05.98,2.23,1.11,4.55.41,7.52-2.39,10.24-3.24,20.73-2.66,33.01.06,1.32.09,2.69.13,4.09.15,6.17.31,13.17,3.18,18.74.83,1.61,1.88,3.08,2.9,4.49l.38.52c3.27,4.56,7.27,5.7,12.56,6.81,3.5.74,6.94.66,10.82-.23.19-.04.38-.07.57-.09.44-.06.93-.12,1.42-.34l1.59-.71c2.55-1.14,5.19-2.32,7.71-3.65,1.49-.79,3.34-1.9,4.38-3.52.9-1.4,1.34-3.03,1.76-4.6.13-.47.25-.93.39-1.39.19-.63-.11-1.18-.31-1.54-.05-.09-.1-.17-.13-.25Z"/><path class="cls-1" d="M99.27,232.99c4.42-1.07,8.68-2.52,12.99-3.84.19-.06.36-.18.5-.29,1.63-1.26,3.32-2.49,4.85-3.8,3.47-2.97,7.45-5.85,6.11-9.84.25-.09.5-.18.76-.26-1.31-2.02-2.98-3.96-3.83-6.1-.77-1.95-2.15-3.04-5.2-3.29-.96-.08-1.87-.49-2.66-.86-5.72-2.71-6.62-2.57-11.01,1.83-.36.36-1,.68-1.16,1.06-.59,1.47-2,3.29-1.29,4.34.94,1.39.88,2.43.12,3.82-.46.85-.29,1.81-.59,2.7-1.04,3.15-.48,6.41-4.18,9.38-1.15.92-.64,3.1.07,4.41.34.62,3.15,1.04,4.5.72Z"/><path class="cls-1" d="M15.69,165.15c1.29,1.5,2.69,2.66,4.16,3.45.95.51,1.74.79,2.41.85,1.03.18,2.11.57,3.22,1.16,1.6.86,3.25,1.18,4.89.95,1.99-.2,3.47-.28,4.39-.24,2.52.12,4.38-.04,5.67-.48l4.73-.55c.11,0,.2,0,.3,0-.09.52-.23,1.2-.42,2.08-.35,1.19-.64,2.52-.86,3.97l-.19,1.26.08.38c.06.3.2,1.92-3.28,4.47-2.06,1.45-2.47,2.03-2.57,2.72,0,.01-.32,1.14-5.53.72h-.2c-2.99.08-3.92.3-4.41.48l-.37.14-.08.12c-.29.09-1.2.29-3.82.44-1.1-.27-2.45-.28-4.25-.04-1.08.11-2.02.31-2.81.58-2.26.16-3.54,1.09-3.79,2.78-.35,2.34.9,5.34,3.74,8.92,2.82,3.79,6.74,6.44,11.4,7.39l.23.05h.21s.01,0,.01,0c.07.25.15.54.23.86,5.9-.03,11.55-3.51,17.59-4.32,1.25-.45,3-1.03,5.46-1.81,3.62-.64,7.04-1.94,10.15-3.86l6.1-2.94c1.68-.15,2.71-1.16,2.98-2.93l.02-.3c-.05-2.31-1.5-3.97-2.91-4.8-1.8-1.22-5.3-2.47-16.39-2.79-.07,0-.14-.01-.21-.02l4.06-5.18c.93-1.3,1.54-2.31,1.85-3.07l2.34-5.57c.19-.2.69-.58,1.98-.95.53-.05,1.34-.12,2.45-.21,1.3-.11,2.93-.39,5-.86,3.97-.97,5.69-2.01,5.93-3.58l.04-.28-.05-.32c-.14-.86-.44-1.7-.89-2.5l-.22-.38-.31-.34c-.55-.59-1.22-1.15-5.49-3.45-2.51-1.35-3.72-2.14-4.26-2.55-.03-.48-.01-1.4.24-3.07v-.1c.29-3.18-.26-5.86-1.67-8.17-1.59-3.07-3.62-4.63-5.06-5.4-1.17-.63-2.37-.94-3.57-.92-1.66-.15-2.21,1.49-2.72,4.85l-.45,3.01-.43,4.57c-.19,1.24-.36,1.71-.44,1.87l-.06.06c-.07.04-.84.41-4.95.03-12.41-1.08-15.33-1.18-16.27-1.11l-5.81-.16c-3.53-.08-6.47.56-8.75,1.9l-.11.07c-1.41,1.06-2.24,2.4-2.48,3.98-.22,1.47-.13,2.65.29,3.71.67,1.71,2.01,3.54,3.99,5.42Z"/><path class="cls-1" d="M21.3,212.69c-1.71-.07-3.6.25-5.38.74-.7.19-1.74,1.29-1.94,2-1.21,4.34-1.55,8.14,3.28,9.83,3.58,1.25,5.94,4.55,11.22,2.54,2.67-1.01,3.96-2.76,4.25-4.64.16-1.02-1.69-1.95-2.77-2.77-.45-.34-1.3-.23-1.9-.44-2.93-1.07-3.52-2.55-1.94-6.13-1.7-.43-3.18-1.07-4.82-1.14Z"/><path class="cls-1" d="M92.39,257.06c-.28-1.5-1.06-1.01-1.74-2.39-1.08-.38-1.94-.2-2.68.78-.73.97-1.19,2.93-1.98,3.13-2.04.52-3.9,2-5.81,2.4-.64.14-1.27.28-1.91.43-7.21-.28-15.3-.51-15.79-.6-.03-1.12.02-2.91.28-5.73v-.12c.04-1.79-.66-3.85-2.09-6.12l-.11-.17c-.16-.22-.29-.42-.41-.6.4-.06.94-.14,1.64-.22,2.77.03,19.98-2.06,20.2-3.52l.03-.23-.36-3.19-1.16-4.19s-2.33-4.42-9.55-5.19c.01,0-14.29-1.06-14.28-1.07-.64-.09-1.31-.13-1.99-.14.32-.67.65-1.33,1.12-1.65,2.26-1.52,4.63-2.8,6.97-4.1,2.95-1.64,3.76-4.13,1.92-7.4-1.55-2.75-3.44-5.25-5.42-7.51-.53-.6-2.33-.42-2.9.27-.94,1.15-1.54,2.91-1.97,4.56-1.05,4.06-2.81,7.19-5.79,9.42-1.12.84-2.35,2.82-2.39,4.33-.04,1.69-.49,2.7-1.16,3.33-6.58,1.42-13.5,3.35-18.91,1.95-3.64.37-7.15.55-10.44.52l-5.96-.04-.25.09c-1.15.44-1.85,1.45-2.08,3.01-.12.79-.12,1.53,0,2.27.33,3.33,2.01,5.69,3.42,7.12,1.03,1.22,2.38,2.28,4,3.15l4.85.23c2.63,1.22,5.3-1.7,7.57-2.01l7.11.22c3.88.78,5.25.79,5.99.54,1.08-.28,2.9-.36,5.4-.24.44.04.82.09,1.16.14-.06.89-.08,2.2-.08,4.16v.09c.08,1.59-.05,3.51-.38,5.7-.41,2.72-1.11,3.39-1.41,3.56-6.72,1.27-13.62,2.02-20.52,2.22-6.85-.06-21.72,1.35-23.46,3.18-.78.69-1.63,1.64-.68,3.61,1.15,2.4,3.24,4.04,6.93,4.96.57.14,12.39.16,15.58,1.41l.14.05c1.98.66,5.72,1.08,17.23-1.48.84-.17,1.47-.27,1.97-.33.09,0,.18,0,.27.02.13,1.47.96,10.35.62,15.15-.22,1.56-.16,4.09.18,7.68.24,3.44.88,6.18,1.98,8.38.84,1.86,2.43,3.61,4.74,5.2,2.09,1.8,6.22,1.76,7.79-4.13-.05-.01.33-3.27.28-3.28-.02-1.7.19-5.46,1.29-13.72l1.1-17.34c.8-.15,1.6-.29,2.4-.39,2.4-.31,5.06.51,7.21-.6,3.66-1.9,7.47-1.66,11.21-1.62,2.48.03,4.68-.08,6.88-1.63,2.91-2.05,5.04-7.59,4.17-12.31Z"/><path class="cls-1" d="M240.46,106.37h.7v-17.88h2.05v-1.99h-2.05v-14.8h2.05v-1.99h-2.05v-15.48h2.05v-1.99h-2.05v-23.76h2.05v-1.99h-2.05v-3.52h-5.65V5.57h-10.49l.34-4.16-.89-.19c-.24-.05-5.9-1.23-10.67-1.23s-10.43,1.18-10.67,1.23l-.89.19.34,4.16h-10.49v17.39h-5.65v3.52h-1.77l.29.2v1.8h1.48v23.76h-1.77l.29.2v1.8h1.48v15.48h-1.77l.29.2v1.8h1.48v14.8h-1.77l.29.2v1.8h1.48v17.88h1.27v11.46h-5.88v2.66h64.49v-2.66h-5.88v-11.46ZM238.91,117.83h-1.71v-11.46h1.71v11.46ZM225.13,117.83v-11.46h4.22v11.46h-4.22ZM198.52,117.83v-11.46h4.22v11.46h-4.22ZM193.04,52.23v-23.76h5.58v23.76h-10.1v-23.76h3.52v23.76h1ZM235.82,52.23v-23.76h3.28v23.76h-9.95v-23.76h6.15v23.76h.52ZM212.64,7.7v2.98h-1.74v-2.98h1.74ZM229.14,88.52h-2.27v11.62h-1.04v-11.64h9.94v11.64h-6.62v-11.62h-.01ZM200.89,88.52h-2.27v11.62h-6.51v-11.64h10.3v11.64h-1.51v-11.62h-.01ZM191.12,71.7h1.04v14.8h-3.65v-14.8h2.61ZM239.1,86.5h-3.04v-14.8h3.04v14.8ZM235.06,86.5h-5.9v-14.8h5.9v14.8ZM205.38,12.27h7.47v14.03h-5.65v.92h-4.29v-14.94h2.46ZM221.09,12.27h4.24v14.94h-4.92v-.92h-5.27v-14.03h5.96ZM226.87,52.23h-1.04v-23.76h1.04v23.76ZM225.83,54.23h1.04v15.48h-1.04v-15.48ZM226.87,26.47h-1.04v-14.2h1.04v14.2ZM225.33,70.58h-4.92v-1.02h-5.12v-15.1h5.12v-.84h4.92v16.96ZM202.91,27.73h4.29v1.12h5.6v8.89h-5.6v1.37h-4.29v-11.37ZM213.79,51.91h-.3v-11.63h1.12v11.63h-.82ZM214,28.85h.61v8.89h-1.12v-8.89h.51ZM213.79,69.56h-.3v-15.1h1.12v15.1h-.82ZM213.79,86.22h-.3v-14.11h1.12v14.11h-.82ZM202.91,39.62h4.29v.67h5.6v11.63h-5.6v1.2h-4.29v-13.49ZM202.91,53.62h4.29v.84h5.6v15.1h-5.6v1.02h-4.29v-16.96ZM225.33,53.11h-4.92v-1.2h-5.12v-11.63h5.12v-.67h4.92v13.49ZM225.33,39.1h-4.92v-1.37h-5.12v-8.89h5.12v-1.12h4.92v11.37ZM202.41,52.23h-1.51v-23.76h1.51v23.76ZM200.9,54.23h1.51v15.48h-1.51v-15.48ZM202.41,26.47h-1.51v-14.2h1.51v14.2ZM200.9,71.7h1.51v14.8h-1.51v-14.8ZM202.91,71.09h4.29v1.02h5.6v14.11h-5.6v1.02h-4.29v-16.15ZM220.41,86.68v-.46h-5.12v-14.11h5.12v-1.02h4.92v16.15h-4.92v-.56ZM225.83,71.7h1.04v14.8h-1.04v-14.8ZM198.62,86.5h-5.45v-14.8h5.45v14.8ZM188.61,88.49h2.49v11.64h-2.59v-11.64h.1ZM202.91,87.75h4.29v1.02h5.6v11.37h-9.89v-12.38ZM213.49,88.77h1.12v11.37h-1.12v-11.37ZM215.29,88.77h5.12v-1.02h4.92v12.38h-10.04v-11.37ZM236.78,88.49h2.32v11.64h-2.32v-11.64ZM239.1,69.7h-2.32v-15.48h2.32v15.48ZM235.78,69.7h-6.62v-15.48h6.62v15.48ZM224.8,10.68h-1.74v-2.98h1.74v2.98ZM216.69,10.68h-1.74v-2.98h1.74v2.98ZM198.62,69.7h-6.57v-15.48h6.57v15.48ZM191.05,69.7h-2.53v-15.48h2.53v15.48ZM188.51,101.14h10.1v3.17h-10.1v-3.17ZM200.9,104.31v-3.17h25.97v3.17h-25.97ZM229.15,104.31v-3.17h9.95v3.17h-9.95ZM220.74,10.68h-1.74v-2.98h1.74v2.98ZM217.41,7.31l.19-5.02c.97.1,1.87.2,2.71.33l-.35,4.7h-2.55ZM216.74,7.31h-2.54l-.02-5.23c.9.01,1.82.06,2.74.14l-.19,5.09ZM211,7.31l-.24-5.1c.92-.08,1.84-.13,2.74-.14l.02,5.23h-2.52ZM210.32,7.31h-2.51l-.43-4.71c.85-.12,1.74-.23,2.71-.32l.23,5.03ZM208.58,7.7v2.98h-1.74v-2.98h1.74ZM204.53,7.7v2.98h-1.74v-2.98h1.74ZM196.97,106.37v11.46h-4.45v-11.46h4.45ZM204.28,106.37h19.3v11.46h-19.3v-11.46ZM230.9,106.37h4.76v11.46h-4.76v-11.46ZM233.46,7.63v17.39h5.65v1.46h-9.95v-14.2h0v-2.66l1.13-1.98h3.16ZM222.82,7.31h-2.18l.35-4.6c.87.13,1.65.26,2.18.36l-.35,4.24ZM213.85,2.06h-.1s.04,0,.06,0c.01,0,.03,0,.04,0ZM206.71,2.69l.42,4.61h-2.33l-.35-4.24c.55-.1,1.36-.24,2.26-.37ZM194.16,25.02V7.63h3.33l1.13,1.98v1.9h0v14.96h-10.1v-1.46h5.65ZM189.27,106.37h1.71v11.46h-1.71v-11.46Z"/><path class="cls-1" d="M28.68,358.45l2.16,4.19.05.09h1.87l-6.66-13.23-.04-.09h-.54l-6.8,13.32h1.92l2.19-4.28h5.86ZM27.91,356.87h-4.29l2.15-4.2,2.14,4.2Z"/><path class="cls-1" d="M44.65,356.68c1.04-.03,1.88-.17,2.5-.43.69-.28,1.24-.71,1.61-1.28.38-.56.57-1.22.57-1.95,0-.89-.28-1.65-.83-2.25-.54-.6-1.26-1-2.12-1.18-.57-.12-1.61-.18-3.2-.18h-2.96v13.32h1.72v-6.04h.56l5,5.98.05.06h2.15l-5.06-6.04ZM44.21,355.12l-2.26-.02v-4.11h2.32c.94,0,1.62.07,2.01.22.38.14.69.38.93.71.24.33.35.69.35,1.1s-.11.79-.35,1.13c-.23.33-.56.58-.98.73-.43.16-1.11.24-2.03.24Z"/><polygon class="cls-1" points="68.2 349.41 60.19 349.41 60.19 351 63.32 351 63.32 362.73 65.07 362.73 65.07 351 68.2 351 68.2 349.41"/><path class="cls-1" d="M86.51,361.97c.8-.72,1.21-1.59,1.21-2.58,0-.68-.24-1.37-.71-2.04-.46-.66-1.32-1.42-2.54-2.26-1.04-.71-1.63-1.13-1.8-1.28-.32-.3-.54-.57-.66-.82-.12-.24-.17-.49-.17-.75,0-.42.16-.77.48-1.06.33-.29.76-.44,1.28-.44.41,0,.8.1,1.14.29.35.2.79.61,1.31,1.24l.09.11,1.4-.98-.1-.13c-.66-.84-1.28-1.4-1.88-1.72-.6-.32-1.25-.47-1.93-.47s-1.26.14-1.81.42c-.55.28-.99.67-1.3,1.16-.31.49-.47,1.04-.47,1.63,0,.75.26,1.45.78,2.09.3.38,1.03.98,2.22,1.81,1.15.8,1.95,1.49,2.37,2.05.3.39.45.79.45,1.19,0,.35-.1.69-.3,1-.2.32-.5.57-.88.76-.39.19-.81.29-1.26.29-1.04,0-1.97-.7-2.77-2.07l-.08-.13-1.47.82.08.14c.6,1.01,1.26,1.74,1.98,2.17.72.43,1.52.66,2.4.66,1.14,0,2.13-.37,2.93-1.08Z"/><polygon class="cls-1" points="101.84 362.73 103.54 362.73 103.54 356.4 108.13 349.41 106.13 349.41 102.67 354.64 99.21 349.48 99.16 349.41 97.17 349.41 101.84 356.4 101.84 362.73"/><polygon class="cls-1" points="134.52 348.46 132.8 348.46 132.8 361.78 139.92 361.78 139.92 360.2 134.52 360.2 134.52 348.46"/><rect class="cls-1" x="154.73" y="348.46" width="1.72" height="13.32"/><polygon class="cls-1" points="171.14 361.78 172.86 361.78 172.86 355.39 178.49 355.39 178.49 353.8 172.86 353.8 172.86 350.05 178.49 350.05 178.49 348.46 171.14 348.46 171.14 361.78"/><polygon class="cls-1" points="198.17 360.19 191.58 360.19 191.58 355.39 198.17 355.39 198.17 353.8 191.58 353.8 191.58 350.05 198.23 350.05 198.23 348.46 189.86 348.46 189.86 361.78 198.17 361.78 198.17 360.19"/></g></svg>