<?xml version="1.0" encoding="UTF-8"?><svg id="_圖層_2" xmlns="http://www.w3.org/2000/svg" viewBox="0 0 450.71 122.99"><defs><style>.cls-1{fill:#b89062;}.cls-2{fill:#004730;}</style></defs><g id="_圖層_2-2"><path class="cls-2" d="M66.51.72c.62,0,1.13.08,1.53.25.4.17.71.38.94.65.23.26.38.57.47.92.08.35.13.7.13,1.06v2.7h-.72c0-1.44-.39-2.49-1.17-3.15-.78-.66-1.89-.99-3.33-.99h-6.7v9.36h9.72v1.44h-9.72v10.08h6.3c1.63,0,2.92-.3,3.87-.9.95-.6,1.7-1.62,2.25-3.06l.72.18-1.26,3.42c-.19.55-.51.99-.95,1.31-.44.32-1.03.49-1.75.49h-12.42V5.04c0-1.08-.15-1.95-.45-2.61-.3-.66-.99-.99-2.07-.99h-.72v-.72h15.34Z"/><path class="cls-2" d="M82.32,24.48h-1.8l9-11.7-5.04-7.38c-.31-.46-.64-.91-.97-1.35-.34-.44-.72-.85-1.15-1.22-.43-.37-.94-.68-1.53-.94-.59-.25-1.29-.4-2.11-.45v-.72h4.32c.58,0,1.11.12,1.6.36.49.24.94.55,1.35.94.41.38.78.81,1.12,1.28.34.47.66.93.97,1.39l3.6,5.4,7.2-9.36h1.8l-8.1,10.62,5.76,8.46c.31.46.65.91,1.01,1.35.36.44.76.85,1.19,1.22.43.37.9.68,1.4.94.5.25,1.04.4,1.62.45v.72h-3.78c-.58,0-1.11-.12-1.6-.36-.49-.24-.94-.55-1.35-.94-.41-.38-.79-.81-1.13-1.28-.35-.47-.67-.93-.95-1.39l-4.32-6.48-8.1,10.44Z"/><path class="cls-2" d="M110.61,12.6c0-1.75.26-3.4.77-4.93.52-1.54,1.26-2.87,2.23-4.01.97-1.14,2.15-2.03,3.53-2.68,1.38-.65,2.92-.97,4.63-.97s3.25.32,4.63.97c1.38.65,2.56,1.54,3.53,2.68.97,1.14,1.72,2.48,2.23,4.01.52,1.54.77,3.18.77,4.93,0,1.49-.19,2.9-.56,4.23-.37,1.33-.91,2.53-1.62,3.6-.71,1.07-1.57,1.98-2.59,2.74-1.02.76-2.17,1.3-3.44,1.64.29.91.75,1.75,1.39,2.52.64.77,1.36,1.43,2.16,2,.8.56,1.65,1.01,2.54,1.33.89.32,1.72.49,2.48.49v.72c-1.3,0-2.59-.11-3.89-.34-1.3-.23-2.56-.61-3.8-1.15-1.24-.54-2.45-1.27-3.64-2.2-1.19-.92-2.33-2.07-3.44-3.44-1.22-.36-2.33-.92-3.31-1.67-.98-.76-1.82-1.67-2.5-2.74-.68-1.07-1.21-2.26-1.57-3.56-.36-1.31-.54-2.69-.54-4.16ZM129.33,12.6c0-1.7-.17-3.25-.52-4.63-.35-1.38-.85-2.56-1.49-3.53-.65-.97-1.44-1.72-2.38-2.23-.94-.52-1.99-.77-3.17-.77s-2.23.26-3.17.77c-.94.52-1.73,1.26-2.38,2.23-.65.97-1.15,2.15-1.49,3.53-.35,1.38-.52,2.92-.52,4.63s.17,3.25.52,4.63c.35,1.38.85,2.56,1.49,3.53.65.97,1.44,1.72,2.38,2.23.94.52,1.99.77,3.17.77s2.23-.26,3.17-.77c.94-.52,1.73-1.26,2.38-2.23.65-.97,1.15-2.15,1.49-3.53.35-1.38.52-2.92.52-4.63Z"/><path class="cls-2" d="M145.39,5.04c0-1.08-.15-1.95-.45-2.61-.3-.66-.99-.99-2.07-.99h-.72v-.72h3.24c.62,0,1.15.05,1.57.16.42.11.76.32,1.01.65.25.32.43.77.52,1.33.1.56.14,1.29.14,2.18v10.26c0,1.27.11,2.41.32,3.4.22,1,.58,1.84,1.08,2.54.5.7,1.16,1.23,1.96,1.6.8.37,1.81.56,3.01.56,1.37,0,2.52-.18,3.46-.54.94-.36,1.69-.92,2.27-1.67.58-.76.98-1.71,1.22-2.86.24-1.15.36-2.52.36-4.1V.72h1.44v13.5c0,1.75-.13,3.29-.4,4.63-.26,1.33-.74,2.44-1.42,3.33-.68.89-1.62,1.55-2.81,2-1.19.44-2.71.67-4.55.67-1.75,0-3.22-.22-4.39-.67-1.18-.44-2.12-1.11-2.83-2-.71-.89-1.21-2-1.51-3.33-.3-1.33-.45-2.87-.45-4.63V5.04Z"/><path class="cls-2" d="M176.96.72h3.24v19.44c0,1.08.15,1.95.45,2.61.3.66.99.99,2.07.99h.72v.72h-3.24c-.62,0-1.15-.05-1.57-.16-.42-.11-.76-.32-1.01-.65-.25-.32-.43-.76-.52-1.31-.1-.55-.14-1.28-.14-2.2V.72Z"/><path class="cls-2" d="M208.86,18.43c0,1.01-.17,1.92-.52,2.74-.35.82-.85,1.52-1.49,2.11-.65.59-1.43,1.04-2.36,1.35-.92.31-1.96.47-3.11.47-.98,0-1.96-.1-2.93-.31-.97-.2-1.85-.5-2.63-.88-.78-.38-1.42-.85-1.91-1.39-.49-.54-.74-1.15-.74-1.82v-3.85h.72c.4,2.42,1.2,4.16,2.38,5.22,1.18,1.06,2.78,1.58,4.81,1.58.62,0,1.21-.08,1.77-.23.56-.16,1.06-.39,1.48-.7.43-.31.78-.7,1.04-1.15.26-.46.39-.98.39-1.58,0-1.06-.33-1.96-.99-2.7-.66-.74-1.65-1.5-2.97-2.27l-4.43-2.63c-1.54-.91-2.62-1.84-3.26-2.77-.64-.94-.95-2.08-.95-3.42,0-.94.17-1.78.5-2.52.34-.74.81-1.39,1.42-1.93.61-.54,1.34-.95,2.2-1.24.85-.29,1.81-.43,2.86-.43.89,0,1.79.1,2.72.29.92.19,1.76.47,2.5.85.74.37,1.36.83,1.84,1.37.48.54.72,1.15.72,1.82v3.85h-.72c-.41-2.42-1.18-4.15-2.33-5.18-1.14-1.03-2.73-1.55-4.76-1.55-.52,0-1.04.08-1.54.25-.5.17-.94.41-1.32.72-.38.31-.69.7-.93,1.15-.24.46-.36.96-.36,1.51s.08,1,.25,1.4c.17.41.42.79.76,1.15.34.36.76.71,1.26,1.06.5.35,1.08.71,1.73,1.1l4.43,2.63c.77.46,1.43.89,2,1.31.56.42,1.03.86,1.39,1.33.36.47.63.97.81,1.49.18.53.27,1.13.27,1.8Z"/><path class="cls-2" d="M220.81.72h3.24v19.44c0,1.08.15,1.95.45,2.61.3.66.99.99,2.07.99h.72v.72h-3.24c-.62,0-1.15-.05-1.57-.16-.42-.11-.76-.32-1.01-.65-.25-.32-.43-.76-.52-1.31-.1-.55-.14-1.28-.14-2.2V.72Z"/><path class="cls-2" d="M255.4.72v1.44h-8.1v22.32h-3.24V2.16h-3.24c-1.44,0-2.55.33-3.33.99-.78.66-1.17,1.71-1.17,3.15h-.72v-2.7c0-.36.04-.71.13-1.06.08-.35.24-.65.47-.92.23-.26.54-.48.94-.65.4-.17.91-.25,1.53-.25h16.74Z"/><path class="cls-2" d="M278.95.72c.62,0,1.13.08,1.53.25.4.17.71.38.94.65.23.26.38.57.47.92.08.35.13.7.13,1.06v2.7h-.72c0-1.44-.39-2.49-1.17-3.15-.78-.66-1.89-.99-3.33-.99h-6.7v9.36h9.72v1.44h-9.72v10.08h6.3c1.63,0,2.92-.3,3.87-.9.95-.6,1.7-1.62,2.25-3.06l.72.18-1.26,3.42c-.19.55-.51.99-.95,1.31-.44.32-1.03.49-1.75.49h-12.42V5.04c0-1.08-.15-1.95-.45-2.61-.3-.66-.99-.99-2.07-.99h-.72v-.72h15.34Z"/><path class="cls-2" d="M314.73,23.04h12.78v1.44h-16.02V5.04c0-1.08-.15-1.95-.45-2.61-.3-.66-.99-.99-2.07-.99h-.72v-.72h3.24c.62,0,1.15.05,1.57.16.42.11.76.32,1.01.65.25.32.43.77.52,1.33.1.56.14,1.29.14,2.18v18Z"/><path class="cls-2" d="M337.66.72h3.24v19.44c0,1.08.15,1.95.45,2.61.3.66.99.99,2.07.99h.72v.72h-3.24c-.62,0-1.15-.05-1.57-.16-.42-.11-.76-.32-1.01-.65-.25-.32-.43-.76-.52-1.31-.1-.55-.14-1.28-.14-2.2V.72Z"/><path class="cls-2" d="M366.86.72c.62,0,1.13.08,1.53.25.4.17.71.38.94.65.23.26.38.57.47.92.08.35.13.7.13,1.06v2.7h-.72c0-1.44-.39-2.49-1.17-3.15-.78-.66-1.89-.99-3.33-.99h-5.72v9.54h8.14v1.44h-8.14v11.34h-3.24V5.04c0-1.08-.15-1.95-.45-2.61-.3-.66-.99-.99-2.07-.99h-.72v-.72h14.36Z"/><path class="cls-2" d="M394,.72c.62,0,1.13.08,1.53.25.4.17.71.38.94.65.23.26.38.57.47.92.08.35.13.7.13,1.06v2.7h-.72c0-1.44-.39-2.49-1.17-3.15-.78-.66-1.89-.99-3.33-.99h-6.7v9.36h9.72v1.44h-9.72v10.08h6.3c1.63,0,2.92-.3,3.87-.9.95-.6,1.7-1.62,2.25-3.06l.72.18-1.26,3.42c-.19.55-.51.99-.95,1.31-.44.32-1.03.49-1.75.49h-12.42V5.04c0-1.08-.15-1.95-.45-2.61-.3-.66-.99-.99-2.07-.99h-.72v-.72h15.34Z"/><path class="cls-1" d="M27.39,121.35c0,.38-1.74,1.52-4.51,1.52h-.96v-10.24c-4.33,1.45-9.85,3.22-16.94,5.31-.3.76-.9,1.2-1.5,1.39l-2.88-6.77c1.44-.06,3.48-.25,5.95-.44v-21.5H.48l-.48-1.83h45.24l3.42-4.74s3.9,3.22,6.19,5.56c-.18.7-.78,1.01-1.62,1.01h-25.83v30.73ZM14.18,85.3c0,.57-2.52,1.83-4.81,1.83h-.84v-21.88l6.01,2.66h25.59l2.82-3.29,6.01,4.81c-.42.51-1.26,1.08-2.52,1.33v14.04c-.06.44-2.88,1.52-4.75,1.52h-.96v-16.57H14.18v15.56ZM12.02,90.62v5.56h9.91v-5.56h-9.91ZM12.02,103.7h9.91v-5.69h-9.91v5.69ZM12.02,111.61c3.06-.32,6.43-.7,9.91-1.08v-5h-9.91v6.07ZM34.72,78.66s2.52,2.02,4.27,3.6c-.18.7-.72,1.01-1.56,1.01h-20.31l-.48-1.83h15.92l2.16-2.78ZM34.78,71.96s2.52,1.96,4.21,3.54c-.18.7-.72,1.01-1.5,1.01h-20.31l-.48-1.83h15.86l2.22-2.72ZM52.99,97.7c-.36.63-.96.82-2.28.95-1.56,4.74-3.9,9.23-7.21,13.09,3.6,2.34,7.87,3.92,12.68,5.06l-.06.7c-2.4.51-4.15,2.47-4.87,5.31-4.57-1.9-8.35-4.24-11.41-7.4-3.3,2.85-7.21,5.19-11.95,7.02l-.48-.82c4.02-2.4,7.39-5.56,9.97-9.17-2.7-3.73-4.63-8.54-5.95-14.61h-3.06l-.48-1.83h16.1l3.36-3.48,5.65,5.19ZM32.56,97.82c1.62,4.62,4.02,8.28,7.15,11.13,2.04-3.48,3.54-7.21,4.51-11.13h-11.65Z"/><path class="cls-1" d="M87.7,97.51c-.42.44-1.14.82-2.34,1.01-.6,11.95-1.92,19.1-4.57,21.44-1.62,1.45-3.9,2.09-6.91,2.09,0-1.52-.24-2.91-1.2-3.67-.96-.88-3.3-1.64-5.77-2.09l.06-.95c2.58.19,6.91.57,8.17.57,1.08,0,1.62-.13,2.1-.57,1.5-1.33,2.46-7.78,3-17.64h-7.99l-1.98,2.4-4.99-3.48c.54-.44,1.26-.95,2.04-1.33.54-4.36,1.08-11.38,1.2-15.3l5.95,2.59h5.41v-12.58h-13.22l-.54-1.83h13.16l2.64-3.1,5.71,4.62c-.42.57-1.32,1.14-2.64,1.39v14.67c-.06.38-2.58,1.39-4.27,1.39h-.84v-2.72h-6.79c-.24,3.35-.66,8.03-1.08,11.45h7.63l2.82-2.97,5.23,4.62ZM109.93,106.42c15.98,7.59,11.35,19.66,6.01,15.05-.3-2.15-1.08-4.43-2.16-6.7-5.71,1.58-13.22,3.29-23.25,5.56-.36.82-1.02,1.27-1.62,1.39l-3.12-6.83c3.06-.06,8.29-.38,14.54-.82v-10.75h-6.55v2.78c0,.44-2.16,1.64-4.21,1.64h-.72v-20.93l5.29,2.34h6.19v-7.84c-2.88.63-5.95,1.2-9.07,1.83-.42.7-.96,1.14-1.44,1.33l-2.7-6.77s1.2-.25,1.74-.51c4.27-2.59,9.79-9.8,11.83-13.59l6.97,3.92c-.3.57-1.02,1.01-2.22.76-3.12,3.1-8.59,7.08-13.46,9.86,4.87-.19,12.19-.63,20.06-1.14-1.5-2.21-3.36-4.17-5.17-5.63l.54-.51c16.64,3.48,12.98,16.06,7.45,12.27-.3-1.52-.96-3.04-1.86-4.55-2.16.51-4.75,1.07-7.51,1.71v8.85h6.25l2.46-2.78,5.41,4.24c-.36.44-1.14.95-2.22,1.14v13.21c-.06.44-2.64,1.46-4.27,1.46h-.84v-3.1h-6.79v10.37l7.51-.57c-1.14-2.34-2.46-4.55-3.72-6.32l.66-.38ZM100.32,101.49v-10.5h-6.55v10.5h6.55ZM105.49,90.99v10.5h6.79v-10.5h-6.79Z"/><path class="cls-1" d="M131.67,78.73c13.4,2.34,9.13,12.52,4.2,8.85-.54-2.97-2.64-6.32-4.75-8.41l.54-.44ZM146.51,78.66c-1.92,6.96-5.35,19.67-6.01,22.51-.42,1.9-.72,3.86-.72,5.38.12,3.16,2.16,6.01,1.92,11.45-.12,2.97-1.68,4.81-4.02,4.81-1.2,0-2.22-1.01-2.46-3.22.96-6.7.66-12.33-.6-13.28-.78-.63-1.68-.82-2.94-.95v-1.33h2.52c.78,0,1.02,0,1.62-1.2q1.02-2.21,9.61-24.41l1.08.25ZM135.04,64.44c14.36,2.47,10.21,12.96,5.11,9.42-.84-3.16-3.48-6.7-5.65-8.98l.54-.44ZM187.3,70.32c-.42.51-1.32,1.01-2.4,1.26v44.14c0,4.11-.78,6.45-6.97,7.08-.12-1.71-.42-3.16-1.08-3.98-.72-.82-1.92-1.52-4.33-1.9v-.95s4.87.38,5.95.38c.96,0,1.2-.38,1.2-1.26v-16.38h-6.61c-.72,9.04-3.3,17.83-12.08,24.15l-.78-.63c3.24-3.73,5.23-7.84,6.43-12.39h-8.23v11.51c-.06.32-1.62,1.27-4.21,1.27h-.84v-12.77h-10.21l-.48-1.83h10.69v-7.59h-1.74v.51c0,.51-1.98,1.64-3.97,1.64h-.72v-23.08l4.93,2.28h1.5v-6.83h-7.51l-.48-1.83h7.99v-8.73l6.91.7c-.06.82-.6,1.39-1.86,1.58v6.45h1.98l2.7-4.17s3.18,2.97,4.99,5c-.12.7-.72,1.01-1.5,1.01h-8.17v6.83h2.46l2.16-2.59,4.27,4.3c-.42.44-1.26.89-2.22,1.08v16.12c-.06.25-1.98,1.33-3.91,1.33h-.9v-1.58h-1.86v7.59h2.1l2.76-4.3s2.16,2.02,3.84,3.92c1.14-5.25,1.32-10.88,1.32-16.82v-24.34l5.77,2.34h4.87l2.52-3.1,5.71,4.62ZM151.62,83.6v6.51h8.65v-6.51h-8.65ZM151.62,98.58h8.65v-6.64h-8.65v6.64ZM179.67,96.88v-12.39h-6.37v6.32c0,2.02,0,4.05-.12,6.07h6.49ZM173.3,70.63v12.01h6.37v-12.01h-6.37Z"/><path class="cls-1" d="M221.9,73.42c-1.08,1.14-2.22,2.28-3.54,3.41l7.45.63c-.06.82-.48,1.39-1.86,1.64v4.05h2.64l2.94-3.79s2.58,2.09,4.57,3.92c.9-1.01,1.74-1.96,2.46-2.91l6.01,5.06c-.54.51-1.2.7-2.52.19-2.28,2.28-4.99,4.55-8.11,6.83h10.93l3.24-4.17s3.66,2.85,5.89,5c-.18.7-.78,1.01-1.56,1.01h-21.09c-2.82,1.9-5.95,3.79-9.25,5.5h17.48l2.76-3.29,5.95,4.81c-.36.51-1.26,1.08-2.52,1.33v18.21c-.06.38-2.82,1.52-4.69,1.52h-.9v-3.41h-20.85v2.15c0,.51-2.34,1.83-4.69,1.83h-.84v-19.16c-4.39,1.83-8.95,3.41-13.64,4.68l-.42-.95c4.75-1.9,9.55-4.3,14.06-6.89v-3.48l3.24,1.45c2.22-1.39,4.39-2.84,6.43-4.3h-22.17l-.48-1.83h19.46v-7.46h-9.07l-.48-1.83c-3.18,1.64-6.85,3.1-10.87,4.3l-.42-.76c7.57-3.54,13.22-8.28,17.3-13.28h-15.92l-.54-1.83h17.9c1.92-2.59,3.42-5.18,4.57-7.71l7.81,2.97c-.36.82-1.2,1.14-2.46,1.01-.72,1.26-1.62,2.47-2.58,3.73h18.8l3.66-4.68s4.21,3.22,6.73,5.5c-.18.7-.78,1.01-1.62,1.01h-18.56c5.17,4.05,14.18,6.39,21.15,7.08l-.12.82c-2.46,1.14-4.09,2.78-4.45,5.06-7.45-2.21-14.42-7.08-18.86-12.96h-8.35ZM218.3,76.89c-2.64,2.28-5.83,4.36-9.49,6.26h9.49v-6.26ZM217.33,101.62v6.51h20.85v-6.51h-20.85ZM238.18,117.11v-7.14h-20.85v7.14h20.85ZM223.94,84.99v7.46c3.18-2.47,6.07-5,8.53-7.46h-8.53Z"/><path class="cls-1" d="M312.67,113s4.33,3.41,6.97,5.88c-.18.7-.78,1.01-1.68,1.01h-53.71l-.54-1.83h24.63v-18.78h-17.18l-.48-1.83h17.66v-16.06h-11.89c-3.54,6.26-7.75,11.32-12.44,15.11l-.78-.57c4.87-7.08,9.73-18.27,12.13-29.66l8.47,2.72c-.24.76-.96,1.33-2.34,1.26-1.2,3.29-2.58,6.39-4.09,9.3h10.93v-15.24l8.35.88c-.12.95-.6,1.58-2.16,1.83v12.52h11.23l3.66-4.74s4.08,3.1,6.79,5.56c-.18.7-.78,1.01-1.68,1.01h-20v16.06h9.19l3.72-4.81s4.21,3.29,6.79,5.63c-.12.7-.78,1.01-1.62,1.01h-18.08v18.78h14.3l3.84-5.06Z"/><path class="cls-1" d="M329.96,78.98c14.78,1.08,11.17,12.39,5.71,8.98-.9-3.04-3.72-6.51-6.19-8.47l.48-.51ZM348.35,76.96c-2.58,7.52-7.33,21.5-8.11,24.6-.54,2.02-1.02,4.05-1.02,5.69.12,3.1,2.16,5.56,1.98,10.88-.12,3.04-1.74,4.87-4.39,4.87-1.26,0-2.4-1.08-2.7-3.16.96-6.58.66-11.95-.72-12.9-.84-.63-1.74-.89-3-1.01v-1.27h2.7c.84,0,1.08,0,1.74-1.2q1.32-2.34,12.5-26.68l1.02.19ZM334.41,65.13c15.26,1.33,11.83,12.9,6.19,9.61-1.02-3.22-4.15-6.96-6.67-9.11l.48-.51ZM379.83,79.61s3.9,3.35,6.19,5.63c-.12.7-.78.95-1.62.95h-16.04v12.39h6.43l2.88-3.29,5.95,4.8c-.36.51-1.2,1.08-2.46,1.33v19.16c-.06.44-2.82,1.77-4.75,1.77h-.96v-5h-19.94v3.41c0,.57-2.4,1.83-4.81,1.83h-.84v-26.68l6.01,2.66h6.67v-12.39h-15.74l-.48-1.77h16.22v-11.07c-4.99.63-10.15,1.08-15.02,1.26l-.18-1.07c10.33-1.9,23.37-5.75,29.98-8.85l6.01,5.94c-.6.57-1.86.63-3.6-.06-3.18.7-7.09,1.39-11.35,2.02v11.82h8.05l3.42-4.8ZM355.5,100.42v15.11h19.94v-15.11h-19.94Z"/><path class="cls-1" d="M450.71,69.75c-.42.57-1.32,1.01-2.52,1.33v49.13c-.06.51-2.76,2.02-4.87,2.02h-.84v-4.36h-37.55v2.59c0,.76-2.16,2.28-4.63,2.28h-.96v-57.42l6.13,2.85h36.4l2.94-3.48,5.89,5.06ZM442.48,116.04v-46.03h-37.55v46.03h37.55ZM413.46,96.37c-2.28,2.02-4.87,3.73-7.93,5.25l-.6-.7c4.02-2.78,7.15-6.39,9.55-10.31h-8.35l-.48-1.83h9.91c.9-1.77,1.74-3.48,2.4-5.31h-9.85l-.48-1.83h11.05c1.26-3.67,2.1-7.46,2.64-11.13l7.21,1.58c-.24.95-.96,1.39-2.28,1.45-.66,2.66-1.5,5.44-2.58,8.09h8.17l2.7-3.1s3,2.15,4.87,3.92c-.18.7-.66,1.01-1.5,1.01h-14.96c-.84,1.83-1.8,3.6-2.94,5.31h14.6l2.58-3.16s2.88,2.21,4.81,3.98c-.18.7-.72,1.01-1.56,1.01h-8.77c12.31,4.49,10.57,12.39,6.25,10.31-1.8-3.16-6.25-7.59-9.61-10.31h-9.55c-.9,1.2-1.92,2.4-2.94,3.48l3.12,1.39h8.05l2.28-2.4,4.57,3.79c-.42.51-1.08.7-2.16.89-.12,4.93-.6,7.02-2.22,8.16-1.08.76-2.58,1.07-4.39,1.07,0-1.07-.12-2.09-.72-2.59-.54-.57-1.5-.89-2.7-1.14v-1.01c1.2.06,3.06.19,3.96.19.66,0,.96-.06,1.2-.32.42-.44.66-1.9.72-4.8h-9.37v10.69c0,.89.24,1.08,2.28,1.08h5.71c2.4,0,4.45,0,5.23-.06.66-.06.96-.19,1.26-.63.48-.76,1.14-2.97,1.86-5.44h.72l.18,5.56c1.44.57,1.86,1.08,1.86,1.96,0,2.15-2.1,2.84-11.53,2.84h-6.25c-5.05,0-6.01-1.01-6.01-4.43v-12.52ZM410.04,72.03c10.69,3.16,6.37,10.88,2.52,7.59-.24-2.4-1.74-5.38-3.18-7.21l.66-.38ZM427.82,80.18c1.14-1.96,2.52-5.18,3.66-8.28l5.83,2.66c-.3.7-1.02,1.14-2.28.95-1.98,1.96-4.33,4.05-6.31,5.37l-.9-.7Z"/></g></svg>