<?xml version="1.0" encoding="UTF-8"?><svg id="_圖層_2" xmlns="http://www.w3.org/2000/svg" viewBox="0 0 719.23 124.64"><defs><style>.cls-1{fill:#fff;}</style></defs><g id="_圖層_2-2"><path class="cls-1" d="M24.45,75c-1.08,1.14-2.22,2.28-3.54,3.41l7.45.63c-.06.82-.48,1.39-1.86,1.64v4.05h2.64l2.94-3.79s2.58,2.09,4.57,3.92c.9-1.01,1.74-1.96,2.46-2.91l6.01,5.06c-.54.51-1.2.7-2.52.19-2.28,2.28-4.99,4.55-8.11,6.83h10.93l3.24-4.17s3.66,2.85,5.89,5c-.18.7-.78,1.01-1.56,1.01h-21.09c-2.82,1.9-5.95,3.79-9.25,5.5h17.48l2.76-3.29,5.95,4.81c-.36.51-1.26,1.08-2.52,1.33v18.21c-.06.38-2.82,1.52-4.69,1.52h-.9v-3.41h-20.85v2.15c0,.51-2.34,1.83-4.69,1.83h-.84v-19.16c-4.39,1.83-8.95,3.41-13.64,4.68l-.42-.95c4.75-1.9,9.55-4.3,14.06-6.89v-3.48l3.24,1.45c2.22-1.39,4.39-2.84,6.43-4.3H1.86l-.48-1.83h19.46v-7.46h-9.07l-.48-1.83c-3.18,1.64-6.85,3.1-10.87,4.3l-.42-.76c7.57-3.54,13.22-8.28,17.3-13.28H1.38l-.54-1.83h17.9c1.92-2.59,3.42-5.18,4.57-7.71l7.81,2.97c-.36.82-1.2,1.14-2.46,1.01-.72,1.26-1.62,2.47-2.58,3.73h18.8l3.66-4.68s4.2,3.22,6.73,5.5c-.18.7-.78,1.01-1.62,1.01h-18.56c5.17,4.05,14.18,6.39,21.15,7.08l-.12.82c-2.46,1.14-4.09,2.78-4.45,5.06-7.45-2.21-14.42-7.08-18.86-12.96h-8.35ZM20.85,78.48c-2.64,2.28-5.83,4.36-9.49,6.26h9.49v-6.26ZM19.88,103.2v6.51h20.85v-6.51h-20.85ZM40.73,118.69v-7.14h-20.85v7.14h20.85ZM26.49,86.57v7.46c3.18-2.47,6.07-5,8.53-7.46h-8.53Z"/><path class="cls-1" d="M75.03,92.33c.24,4.05-1.38,6.83-3.3,7.9-1.8.95-4.14.51-4.75-1.45-.54-1.96.6-3.41,2.22-4.17,2.1-1.01,4.09-3.98,3.78-7.27l.96-.06c.42,1.14.72,2.21.9,3.22h38.45l3-3.16,5.41,5.44c-.48.51-1.14.57-2.34.63-1.8,1.52-4.99,3.79-7.27,5.06l-.72-.44c.6-1.52,1.44-3.79,2.04-5.69h-38.39ZM115.7,103.33c-.48.57-1.02.76-2.22.25-2.88,1.14-7.09,2.34-11.41,3.29,4.02,5.5,11.53,8.28,19.28,9.55v.7c-2.22.63-3.66,2.53-4.33,5.44-7.69-3.1-13.28-7.59-16.34-15.37-.96.19-1.92.38-2.82.51,2.64,5.69,2.16,11.7,0,14.29-1.08,1.64-3.48,2.28-7.15,2.28-.06-1.64-.42-2.66-1.2-3.35-.66-.57-2.52-1.2-4.45-1.64v-.89c2.04.19,5.83.38,7.09.38.66,0,1.08-.06,1.38-.51.78-1.01,1.2-3.22,1.02-5.94-7.39,4.24-17.72,7.97-27.15,9.67l-.36-1.01c9.55-2.78,20.24-8.22,26.49-13.78-.12-.51-.3-1.01-.48-1.46-6.43,3.54-15.86,6.77-24.27,8.16l-.36-1.08c8.11-2.21,17.36-6.51,22.59-11-.18-.25-.36-.51-.6-.82-5.95,2.66-13.34,4.49-20.79,5.5l-.42-.95c6.61-1.77,13.04-4.43,17.78-7.34h-9.37l-.48-1.83h24.87l3.06-3.86s3.36,2.66,5.53,4.68c-.18.7-.78,1.01-1.62,1.01h-13.22c-1.2.76-2.46,1.45-3.84,2.09,2.4,1.83,4.15,3.98,5.35,6.26,4.57-2.28,9.97-5.69,12.8-7.97l5.65,4.74ZM67.58,72.72h26.49c-.24-.13-.48-.25-.72-.38-.48-2.4-2.46-5.06-4.21-6.45l.42-.51c10.09-.06,10.15,5.88,7.33,7.34h14.48l3.42-4.74s3.96,3.22,6.37,5.56c-.18.7-.78,1.01-1.62,1.01h-51.48l-.48-1.83ZM104.7,88.79v-1.9h-20.91v.76c0,.51-2.58,1.77-4.81,1.77h-.78v-13.72l5.95,2.47h20l2.64-2.91,5.65,4.36c-.3.44-1.08.88-2.1,1.14v6.51c-.06.44-2.88,1.52-4.69,1.52h-.96ZM104.7,85.05v-5.06h-20.91v5.06h20.91Z"/><path class="cls-1" d="M137.5,106.81c2.1,6.58,1.44,11.57-.18,14.04-1.14,1.64-3.84,2.02-4.93.32-.78-1.52-.12-3.23,1.2-4.36,1.56-1.83,3.3-6.2,2.94-9.99h.96ZM132.87,98.78s1.38-.32,1.92-.7c2.94-2.4,6.55-7.02,9.49-11.63-2.16.82-4.81,1.77-7.45,2.66-.42.63-.9,1.08-1.38,1.26l-2.64-6.7s1.2-.25,1.68-.63c3.18-3.48,7.15-12.52,8.47-17.33l7.03,3.73c-.3.57-.96,1.01-2.16.88-2.46,4.11-7.03,9.87-10.99,13.66,2.46,0,5.71,0,9.07-.06,1.38-2.47,2.58-4.74,3.36-6.58l6.37,4.55c-.3.51-1.14.88-2.28.63-3.3,4.81-9.79,11.63-15.68,16.25,3.18-.19,7.51-.51,11.89-.82-.66-2.28-1.62-4.55-2.46-6.2l.72-.32c11.17,6.39,6.55,15.24,2.64,11.38-.06-1.01-.18-2.15-.48-3.22-3.36,1.26-8.11,2.97-13.22,4.55-.48.7-1.02,1.14-1.62,1.33l-2.28-6.7ZM142.67,105.73c8.83,8.09,3.24,16.63-.24,12.08.6-3.86.12-8.6-.6-11.82l.84-.25ZM148.49,104.59c10.51,4.74,5.89,13.22,2.1,9.55,0-3.1-1.38-6.83-2.82-9.17l.72-.38ZM187.72,89.61c-.42.63-1.08.82-2.46,1.01-1.74,7.27-4.45,13.91-8.83,19.66,3.54,3.73,7.81,6.7,12.5,8.85l-.18.7c-2.34.19-4.21,1.83-5.29,4.55-4.15-2.85-7.51-6.2-10.33-10.43-4.2,4.3-9.67,7.78-16.7,10.31l-.48-.88c6.37-3.29,11.35-7.71,15.08-12.9-2.88-5.63-4.93-12.46-6.13-20.87h-.9c-.96,13.15-3.78,25.23-12.74,34.78l-.96-.89c9.13-14.8,8.89-33.39,8.95-51.41h-4.45l-.54-1.83h20.49l2.4-2.85,5.41,4.55c-.48.51-1.02.7-2.1.82l-2.04,14.99h.78l3.18-3.23,5.35,5.06ZM164.59,72.09c-.06,5.31-.12,10.56-.48,15.68h8.95l2.04-15.68h-10.51ZM166.1,89.61c1.44,6.83,3.9,12.52,7.33,17.07,3-5.12,4.93-10.94,6.13-17.07h-13.46Z"/><path class="cls-1" d="M198.17,118.5c1.92-3.54,3.72-8.92,4.63-14.23l6.97,2.15c-.24.76-.96,1.33-2.22,1.33-2.1,4.81-5.17,8.79-8.53,11.32l-.84-.57ZM215.95,101.37v21.25c0,.32-1.74,1.64-4.45,1.64h-.9v-22.89h-11.65l-.48-1.83h21.87l3.12-4.17s3.6,2.91,5.71,5c-.18.7-.72,1.01-1.56,1.01h-11.65ZM198.83,73.23h11.83v-7.78l7.57.76c-.06.88-.6,1.52-2.16,1.77v5.25h4.27l2.94-4.05s3.48,2.78,5.59,4.87c-.12.7-.72,1.01-1.56,1.01h-11.23v7.4h3.24l2.82-3.73s3.24,2.59,5.29,4.55c-.18.7-.72,1.01-1.56,1.01h-25.05l-.48-1.83h10.33v-7.4h-11.35l-.48-1.83ZM220.22,86.7s3.3,2.72,5.41,4.74c-.18.7-.78,1.01-1.62,1.01h-21.93l-.48-1.83h15.62l3-3.92ZM218.6,104.66c13.22,4.62,7.87,14.86,3.24,10.37-.06-3.41-1.98-7.46-3.9-10.05l.66-.32ZM241,87.77c1.02,13.66,4.33,23.65,13.64,29.72l-.06.7c-2.7.7-4.33,2.53-4.87,6.07-6.01-5.69-8.35-16.31-9.37-28.58-1.26,10.69-4.69,20.68-17.24,28.71l-.78-1.01c12.38-11.51,13.34-24.98,13.64-40.15l7.51,1.83c-.24.82-.96,1.45-2.4,1.39l-.06,1.33ZM225.62,92.01c3.78-6.51,7.03-16.38,8.47-26.43l7.69,2.34c-.24.82-.9,1.39-2.28,1.39-.96,3.42-2.1,6.7-3.48,9.67h10.93l3-3.16,5.17,5.31c-.48.51-1.08.63-2.28.76-1.86,3.16-5.35,7.97-7.93,10.88l-.72-.44c1.08-3.1,2.34-8.03,3.12-11.51h-12.2c-2.4,4.68-5.29,8.66-8.65,11.76l-.84-.57Z"/><path class="cls-1" d="M284.01,82.72c-.3.57-.84.95-2.22.7-1.38,2.09-3.18,4.43-5.17,6.83l3,1.14c-.18.57-.72,1.01-1.86,1.2v29.72c0,.57-2.22,2.15-4.51,2.15h-1.02v-29.4c-2.34,2.4-4.87,4.68-7.51,6.64l-.66-.7c5.17-6.45,10.33-16.12,12.68-22.38l7.27,4.11ZM283.29,70.07c-.36.57-.84.88-2.22.63-3.66,4.11-9.79,9.49-16.04,12.96l-.66-.7c4.75-4.87,9.67-12.33,11.95-17.26l6.97,4.36ZM315.49,94.22s3.6,3.04,5.83,5.19c-.18.7-.78,1.01-1.62,1.01h-9.73v16.95c0,4.17-1.02,6.64-8.53,7.27-.18-1.71-.6-3.04-1.68-3.92-1.14-.82-2.82-1.45-6.25-1.96v-.82s7.87.51,9.37.51c1.14,0,1.44-.38,1.44-1.26v-16.76h-22.35l-.42-1.83h22.77v-7.21l7.75.76c-.12.95-.72,1.45-2.1,1.64v4.81h2.34l3.18-4.36ZM297.05,76.58v-11.07l7.57.76c-.12.82-.54,1.39-1.98,1.64v8.66h8.41l3.24-4.49s3.78,3.1,6.07,5.31c-.12.7-.78,1.01-1.56,1.01h-16.16v9.74h7.09l3.24-4.3s3.66,2.97,5.89,5.12c-.18.7-.78,1.01-1.62,1.01h-31.96l-.48-1.83h12.25v-9.74h-14.12l-.48-1.83h14.6ZM287.44,102.06c15.26,4.36,10.93,15.49,5.59,11.51-.9-3.67-3.84-8.22-6.19-11.13l.6-.38Z"/><path class="cls-1" d="M355.29,95.93c0-2.72,2.21-4.87,4.93-4.87s4.87,2.15,4.87,4.87-2.15,4.87-4.87,4.87-4.93-2.21-4.93-4.87Z"/><path class="cls-1" d="M453.3,118.63c1.62,2.47,1.86,3.6,1.2,4.43-1.62,2.15-5.23.38-7.45-1.64-2.46-2.09-4.39-4.68-5.95-7.59-3.66,4.62-8.17,8.03-13.52,10.62l-.66-.76c3-2.21,5.77-4.81,8.23-7.84-.18.06-.36.06-.6.06h-12.68l-1.62,2.59-4.75-3.41c.36-.38,1.08-.95,1.74-1.39v-27.89l4.93,2.53h6.37l2.4-3.22s2.64,2.28,4.33,3.98c-.12-1.58-.18-3.1-.24-4.74h-20v12.01c0,8.66-.42,20.3-8.23,28.07l-.84-.63c3.3-6.32,4.15-13.85,4.39-21.18h-3.24c-.36,6.64-1.62,14.04-7.27,19.48l-.96-.95c3.6-5.75,4.02-12.58,4.15-18.53h-3.18l-.54-1.83h11.05c.06-1.52.06-3.04.06-4.49v-1.58h-3.84l-1.62,2.66-4.75-3.42c.36-.44,1.08-.95,1.74-1.39v-11.95l6.61.76c-.18.76-.66,1.26-2.46,1.58v9.93h4.33v-12.71l5.47,2.34h19.1c-.06-1.64-.12-3.29-.12-4.93l6.97.82c-.06.76-.6,1.46-2.04,1.71v2.4h6.91l2.82-3.86s3.18,2.66,5.05,4.68c-.12.7-.72,1.01-1.56,1.01h-13.16c.12,6.89.72,13.59,2.34,19.35,1.86-4.55,3.3-9.74,4.08-15.49l7.03,2.4c-.24.76-.96,1.33-2.34,1.26-1.62,6.89-3.84,12.65-6.73,17.45,1.32,2.85,3.06,5.31,5.29,7.21.78.76,1.14.76,1.56-.32.72-1.39,1.68-4.11,2.4-6.45l.66.13-.84,8.73ZM399.6,71.71h11.11l-.72-6.07,7.45.57c-.06.76-.54,1.39-1.74,1.77l.48,3.73h3.06l2.76-3.92s3.24,2.72,5.17,4.74c-.12.7-.72,1.01-1.56,1.01h-9.25l.54,4.05c-.78,1.14-2.82,1.64-5.35,1.58l-.66-5.63h-10.87l-.42-1.83ZM424.41,96.63v-6.45h-3v6.45h3ZM429.87,98.46h-8.47v6.58h8.47v-6.58ZM424.41,114.08v-7.21h-3v7.21h3ZM431.62,110.73s2.64,2.34,4.33,4.05c1.2-1.52,2.28-3.22,3.3-4.93-2.28-5.94-3.42-12.84-3.96-20.49-.24.57-.72.82-1.5.82h-5.59v6.45h1.2l2.04-2.21,4.45,3.48c-.3.44-1.08.88-1.98,1.01v8.22c-.06.38-2.1,1.33-3.36,1.33h-.66v-1.58h-1.68v7.21h.96l2.46-3.35ZM428.31,71.71h7.75l.9-6.13,7.45,1.39c-.18.76-.72,1.39-2.28,1.52l-.54,3.22h4.69l2.82-3.92s3.24,2.72,5.17,4.74c-.18.7-.78,1.01-1.56,1.01h-11.41l-.24,1.33c10.21.82,6.79,8.6,2.82,6.01-.36-1.77-1.68-3.79-3-5.06l-.06.25c-1.02.88-3.24,1.2-5.53.63l.48-3.16h-6.97l-.48-1.83Z"/><path class="cls-1" d="M486.22,94.35l5.89,4.74c-.36.51-1.26,1.01-2.46,1.26v20.61c-.06.51-2.76,1.83-4.69,1.83h-.84v-4.93h-10.45v4.17c0,.57-2.34,1.83-4.69,1.83h-.84v-28.83l5.83,2.47h9.55l2.7-3.16ZM484.12,116.04v-16.69h-10.45v16.69h10.45ZM483.4,91.5c0,.51-2.52,1.9-4.93,1.9h-.84v-26.18l6.07,2.59h18.26l2.88-3.22,5.95,4.81c-.36.51-1.2,1.08-2.46,1.33v18.46c-.06.44-2.82,1.77-4.81,1.77h-.96v-4.93h-19.16v3.48ZM483.4,71.65v14.61h19.16v-14.61h-19.16ZM520.46,99.09c-.36.51-1.26,1.01-2.46,1.33v21.12c-.06.44-2.88,1.64-4.75,1.64h-.9v-5.31h-10.93v4.3c0,.57-2.28,1.83-4.63,1.83h-.84v-28.96l5.77,2.47h10.03l2.82-3.16,5.89,4.74ZM512.35,116.04v-16.69h-10.93v16.69h10.93Z"/><path class="cls-1" d="M536.26,106.81c2.1,6.58,1.44,11.57-.18,14.04-1.14,1.64-3.84,2.02-4.93.32-.78-1.52-.12-3.23,1.2-4.36,1.56-1.83,3.3-6.2,2.94-9.99h.96ZM531.63,98.78s1.38-.32,1.92-.7c2.94-2.4,6.55-7.02,9.49-11.63-2.16.82-4.81,1.77-7.45,2.66-.42.63-.9,1.08-1.38,1.26l-2.64-6.7s1.2-.25,1.68-.63c3.18-3.48,7.15-12.52,8.47-17.33l7.03,3.73c-.3.57-.96,1.01-2.16.88-2.46,4.11-7.03,9.87-10.99,13.66,2.46,0,5.71,0,9.07-.06,1.38-2.47,2.58-4.74,3.36-6.58l6.37,4.55c-.3.51-1.14.88-2.28.63-3.3,4.81-9.79,11.63-15.68,16.25,3.18-.19,7.51-.51,11.89-.82-.66-2.28-1.62-4.55-2.46-6.2l.72-.32c11.17,6.39,6.55,15.24,2.64,11.38-.06-1.01-.18-2.15-.48-3.22-3.36,1.26-8.11,2.97-13.22,4.55-.48.7-1.02,1.14-1.62,1.33l-2.28-6.7ZM541.42,105.73c8.83,8.09,3.24,16.63-.24,12.08.6-3.86.12-8.6-.6-11.82l.84-.25ZM547.25,104.59c10.51,4.74,5.89,13.22,2.1,9.55,0-3.1-1.38-6.83-2.82-9.17l.72-.38ZM586.48,89.61c-.42.63-1.08.82-2.46,1.01-1.74,7.27-4.45,13.91-8.83,19.66,3.54,3.73,7.81,6.7,12.5,8.85l-.18.7c-2.34.19-4.2,1.83-5.29,4.55-4.15-2.85-7.51-6.2-10.33-10.43-4.21,4.3-9.67,7.78-16.7,10.31l-.48-.88c6.37-3.29,11.35-7.71,15.08-12.9-2.88-5.63-4.93-12.46-6.13-20.87h-.9c-.96,13.15-3.78,25.23-12.74,34.78l-.96-.89c9.13-14.8,8.89-33.39,8.95-51.41h-4.45l-.54-1.83h20.49l2.4-2.85,5.41,4.55c-.48.51-1.02.7-2.1.82l-2.04,14.99h.78l3.18-3.23,5.35,5.06ZM563.35,72.09c-.06,5.31-.12,10.56-.48,15.68h8.95l2.04-15.68h-10.51ZM564.85,89.61c1.44,6.83,3.9,12.52,7.33,17.07,3-5.12,4.93-10.94,6.13-17.07h-13.46Z"/><path class="cls-1" d="M616.63,97.2c-.42.57-1.02.76-2.34.82-1.08,4.49-3.54,9.49-7.15,13.34.18.13.42.25.66.51,4.99,4.62,12.13,5.38,24.99,5.38,7.21,0,13.1,0,20.42-.38v.76c-2.34.51-3.72,2.53-4.02,4.93h-18.32c-13.1,0-18.56-2.02-23.79-8.66-.84-1.08-1.44-.88-1.92.06-.9,1.96-2.52,5.31-3.72,8.09.24.57.06.95-.36,1.26l-4.21-5.75c2.58-1.77,6.55-5.56,8.17-6.32,2.04-3.92,3.48-9.17,4.15-13.6h-4.69l-1.86,1.71-4.33-3.54c.6-.38,1.5-.82,2.4-1.14,1.86-3.04,4.33-7.52,5.95-10.75h-8.41l-.54-1.83h9.01l2.46-2.59,4.51,4.24c4.21-4.36,7.93-11.57,9.67-17.83l7.99,1.64c-.18.7-.6,1.01-2.16.95-.66,1.26-1.5,2.66-2.4,3.98h7.75l3.06-3.35,5.59,5.25c-.54.51-1.2.63-2.4.7-1.8,1.9-4.33,4.49-6.85,6.39h6.91l2.58-2.97,5.59,4.43c-.36.51-1.26,1.01-2.4,1.26v11.95c-.06.44-2.64,1.46-4.33,1.46h-.84v-2.09h-3.96v12.58c0,.82.18.95,1.5.95h3.36c1.32,0,2.52,0,3-.06.54,0,.78-.13,1.02-.7.42-.88,1.14-3.86,1.98-7.08h.72l.12,7.34c1.38.57,1.68,1.2,1.68,2.15,0,1.96-1.8,2.97-8.89,2.97h-4.33c-4.33,0-5.05-1.14-5.05-4.49v-11.82c-2.88,7.65-8.11,13.22-17.72,17.2l-.42-.82c7.87-4.87,11.89-10.75,13.82-18.21h-5.23v1.14c0,.51-2.34,1.77-4.45,1.77h-.78v-16.19c-1.32.95-2.64,1.9-4.02,2.72l-.24-.32c-.6.32-1.44.51-2.4.57-1.5,2.91-4.08,7.33-6.07,10.62h3.66l2.88-2.97,4.99,4.36ZM600.53,66.46c14,3.29,9.31,14.1,4.2,10.18-.42-3.42-2.7-7.4-4.75-9.74l.54-.44ZM625.46,74.31c-1.56,2.02-3.3,3.92-5.23,5.75l3.18,1.39h8.47c1.02-2.15,2.1-4.93,2.82-7.14h-9.25ZM628.77,93.65c.72-3.16,1.08-6.58,1.2-10.37h-6.91v10.37h5.71ZM635.37,83.28c-.3,3.79-.84,7.21-1.62,10.37h7.69v-10.37h-6.07ZM638.14,97.64c10.99,3.16,7.09,11.26,3.24,8.22-.3-2.66-2.22-5.94-3.9-7.78l.66-.44Z"/><path class="cls-1" d="M683.55,101.5c-3.3,2.91-8.29,6.96-15.26,12.01-.18.82-.66,1.45-1.26,1.77l-3.84-6.83c1.5-.44,3.84-1.33,6.73-2.4v-22.57h-6.19l-.48-1.83h6.67v-15.37l7.69.76c-.18.88-.66,1.52-2.22,1.77v12.84h1.26l2.64-4.3s3,2.97,4.63,5.12c-.12.7-.72,1.01-1.5,1.01h-7.03v20.49c2.52-.95,5.23-2.02,7.93-3.04l.24.57ZM717.43,116.99c1.38.63,1.68,1.26,1.68,2.28,0,2.09-1.8,3.1-8.89,3.1h-4.15c-4.45,0-5.17-1.14-5.17-4.68v-12.01h-3.24c-1.08,7.4-4.2,14.16-21.51,18.59l-.66-.95c13.82-5.18,15.62-11.32,16.1-17.64h-1.68v1.26c0,.57-2.4,1.83-4.69,1.83h-.78v-20.74l5.83,2.59h17.54l2.58-2.97,5.53,4.43c-.36.44-1.2.95-2.28,1.14v13.41c-.06.38-2.64,1.45-4.33,1.45h-.9v-2.4h-2.22v10.88c0,.76.18.95,1.38.95h3.12c1.2,0,2.28,0,2.82-.06.54,0,.72-.13,1.02-.63.48-.89,1.14-3.6,1.98-6.64h.72l.18,6.83ZM680.9,84.74h20.85c1.14-2.97,2.28-6.89,3-9.8l7.27,2.91c-.24.7-1.02,1.14-2.22.95-1.62,1.64-3.84,3.98-6.13,5.94h6.97l3-4.11s3.42,2.84,5.59,4.93c-.18.7-.72,1.01-1.62,1.01h-36.22l-.48-1.83ZM682.53,72.91h15.44c-.24-.13-.54-.32-.84-.57-.12-2.34-1.5-5.25-2.76-6.89l.54-.38c8.83,1.2,8.65,6.39,6.07,7.84h8.17l3.06-4.3s3.54,2.97,5.65,5.06c-.18.7-.78,1.01-1.62,1.01h-33.22l-.48-1.77ZM688.05,75.51c12.8,2.21,7.69,11.89,2.94,7.97-.18-2.66-1.86-5.75-3.48-7.59l.54-.38ZM689.92,92.39v4.81h18.5v-4.81h-18.5ZM689.92,103.83h18.5v-4.81h-18.5v4.81Z"/><path class="cls-1" d="M247.72.44v.88h-4.94v13.61h-1.98V1.32h-1.98c-.88,0-1.56.2-2.03.6-.48.4-.71,1.04-.71,1.92h-.44v-1.65c0-.22.03-.44.08-.65.05-.21.15-.4.29-.56.14-.16.33-.29.57-.4.24-.1.55-.15.93-.15h10.21Z"/><path class="cls-1" d="M260.84,12.29c0,.66.09,1.19.27,1.59.18.4.6.6,1.26.6h.44v.44h-1.98c-.38,0-.7-.03-.96-.1-.26-.07-.46-.2-.61-.4-.15-.2-.26-.46-.32-.8s-.09-.78-.09-1.34v-4.39h-6.59v7.02h-1.98V3.07c0-.66-.09-1.19-.27-1.59-.18-.4-.6-.6-1.26-.6h-.44v-.44h1.98c.38,0,.7.03.95.1.26.07.46.2.61.39.15.2.26.47.32.81.06.34.09.79.09,1.33v3.95h6.59V.44h1.98v11.85Z"/><path class="cls-1" d="M272.9.44c.38,0,.69.05.93.15.24.1.43.23.57.4.14.16.23.35.29.56s.08.43.08.65v1.65h-.44c0-.88-.24-1.52-.71-1.92-.48-.4-1.15-.6-2.03-.6h-4.08v5.71h5.93v.88h-5.93v6.15h3.84c1,0,1.78-.18,2.36-.55.58-.37,1.04-.99,1.37-1.87l.44.11-.77,2.09c-.12.34-.31.6-.58.8-.27.2-.63.3-1.06.3h-7.57V3.07c0-.66-.09-1.19-.27-1.59-.18-.4-.6-.6-1.26-.6h-.44v-.44h9.35Z"/><path class="cls-1" d="M296.16,14.93c-.25.07-.54.11-.88.11-.25,0-.54-.03-.87-.09-.33-.06-.67-.19-1.01-.38-.34-.2-.68-.49-1.01-.87-.33-.38-.61-.88-.85-1.51l-.55-1.43h-6.15l-1.76,4.17h-.99l6.15-14.49h.66l4.83,11.74c.18.41.34.76.49,1.04.15.29.33.52.52.69.19.18.4.31.61.4.22.09.48.15.79.17v.44ZM285.19,9.88h5.38l-2.63-6.37-2.74,6.37Z"/><path class="cls-1" d="M301.41,8.23h-1.54v6.7h-1.98V3.07c0-.66-.09-1.19-.27-1.59-.18-.4-.6-.6-1.26-.6h-.44v-.44h5.71c.47,0,1.02.04,1.65.12.63.08,1.23.26,1.8.54s1.05.68,1.45,1.2c.39.52.59,1.22.59,2.1,0,.63-.11,1.16-.33,1.6-.22.44-.5.8-.85,1.09-.34.29-.72.51-1.14.67s-.82.29-1.2.37l2.31,3.84c.28.47.54.86.78,1.16.24.31.48.56.71.76.23.2.47.34.7.43.23.09.49.15.77.17v.44c-.12.06-.3.11-.54.15-.24.04-.5.07-.78.07-.38,0-.74-.05-1.06-.15-.33-.1-.65-.28-.96-.53-.31-.25-.62-.58-.93-.99-.31-.41-.65-.91-1-1.51l-2.2-3.73ZM301.52,7.46c.31,0,.65-.06,1.04-.18.39-.12.76-.3,1.11-.54.35-.24.65-.56.89-.94.24-.39.36-.86.36-1.42s-.12-1.06-.36-1.47c-.24-.41-.54-.74-.89-.99-.35-.25-.72-.43-1.11-.55s-.74-.18-1.04-.18c-.28,0-.57.02-.87.07-.3.04-.56.09-.78.15v5.82c.22.06.48.11.78.15.3.04.59.07.87.07Z"/><path class="cls-1" d="M321.17.44v.88h-4.94v13.61h-1.98V1.32h-1.98c-.88,0-1.56.2-2.03.6-.48.4-.71,1.04-.71,1.92h-.44v-1.65c0-.22.03-.44.08-.65s.15-.4.29-.56c.14-.16.33-.29.57-.4.24-.1.55-.15.93-.15h10.21Z"/><path class="cls-1" d="M329.34,3.07c0-.66-.14-1.19-.42-1.59-.28-.4-.8-.6-1.56-.6h-.22v-.44h1.43c.72,0,1.31.12,1.77.35.46.23.86.56,1.2.97l7.68,9.55V.44h.88v14.71h-.44l-9.44-11.75v11.53h-.88V3.07Z"/><path class="cls-1" d="M351.66.44c.38,0,.69.05.93.15.24.1.43.23.57.4.14.16.23.35.29.56s.08.43.08.65v1.65h-.44c0-.88-.24-1.52-.71-1.92-.48-.4-1.15-.6-2.03-.6h-4.08v5.71h5.93v.88h-5.93v6.15h3.84c1,0,1.78-.18,2.36-.55.58-.37,1.04-.99,1.37-1.87l.44.11-.77,2.09c-.12.34-.31.6-.58.8-.27.2-.63.3-1.06.3h-7.57V3.07c0-.66-.09-1.19-.27-1.59-.18-.4-.6-.6-1.26-.6h-.44v-.44h9.35Z"/><path class="cls-1" d="M355.92,7.68c0-1.07.16-2.07.47-3.01.31-.94.77-1.75,1.36-2.45.59-.7,1.31-1.24,2.15-1.64.84-.4,1.78-.59,2.82-.59s1.98.2,2.82.59c.84.4,1.56.94,2.15,1.64.59.7,1.05,1.51,1.36,2.45.31.94.47,1.94.47,3.01s-.16,2.09-.47,3.02c-.31.93-.77,1.74-1.36,2.44-.59.7-1.31,1.24-2.15,1.64-.84.39-1.78.59-2.82.59s-1.98-.2-2.82-.59c-.84-.4-1.56-.94-2.15-1.64-.59-.7-1.05-1.51-1.36-2.44-.31-.93-.47-1.94-.47-3.02ZM367.34,7.68c0-1.04-.11-1.98-.32-2.82-.21-.84-.52-1.56-.91-2.15-.4-.59-.88-1.05-1.45-1.36-.57-.31-1.21-.47-1.93-.47s-1.36.16-1.93.47c-.57.32-1.05.77-1.45,1.36-.4.59-.7,1.31-.91,2.15-.21.84-.32,1.78-.32,2.82s.11,1.98.32,2.82c.21.84.52,1.56.91,2.15.4.59.88,1.05,1.45,1.36.57.32,1.21.47,1.93.47s1.36-.16,1.93-.47c.57-.31,1.05-.77,1.45-1.36.4-.59.7-1.31.91-2.15.21-.84.32-1.78.32-2.82Z"/><path class="cls-1" d="M371.99,8.34h5.6v1.54h-5.6v-1.54Z"/><path class="cls-1" d="M391.97,5.05c-.28-1.43-.79-2.49-1.55-3.16-.75-.67-1.74-1.01-2.95-1.01-.72,0-1.39.12-2.03.36-.64.24-1.2.64-1.68,1.19-.48.55-.86,1.27-1.14,2.16-.28.89-.42,2-.42,3.32,0,.82.1,1.62.3,2.41.2.79.51,1.49.93,2.11.42.62.97,1.11,1.64,1.49.67.38,1.47.57,2.4.57,1.1,0,2.04-.26,2.83-.79.79-.53,1.49-1.29,2.11-2.28l.44.33c-.35.69-.74,1.26-1.17,1.72-.43.46-.9.83-1.39,1.12-.5.29-1.04.49-1.61.6-.58.12-1.2.18-1.86.18-1.04,0-1.98-.19-2.82-.58-.84-.39-1.56-.92-2.15-1.59-.59-.67-1.05-1.46-1.36-2.37-.31-.91-.47-1.88-.47-2.92,0-1.1.18-2.13.54-3.08.36-.96.85-1.8,1.46-2.51.61-.72,1.34-1.28,2.16-1.69.83-.41,1.71-.61,2.64-.61,1.21,0,2.26.17,3.14.52.88.34,1.51.76,1.91,1.24.28.34.44.81.48,1.41.04.6.07,1.23.07,1.89h-.44Z"/><path class="cls-1" d="M397.94,14.05h7.79v.88h-9.77V3.07c0-.66-.09-1.19-.27-1.59-.18-.4-.6-.6-1.26-.6h-.44v-.44h1.98c.38,0,.7.03.95.1.26.07.46.2.61.39.15.2.26.47.32.81.06.34.09.79.09,1.33v10.98Z"/><path class="cls-1" d="M420.42,14.93c-.25.07-.54.11-.88.11-.25,0-.54-.03-.87-.09-.33-.06-.67-.19-1.01-.38-.34-.2-.68-.49-1.01-.87-.33-.38-.61-.88-.85-1.51l-.55-1.43h-6.15l-1.76,4.17h-.99l6.15-14.49h.66l4.83,11.74c.18.41.34.76.49,1.04.15.29.33.52.52.69.19.18.4.31.61.4.22.09.48.15.79.17v.44ZM409.44,9.88h5.38l-2.63-6.37-2.74,6.37Z"/><path class="cls-1" d="M430.58,11.24c0,.62-.11,1.17-.32,1.67-.21.5-.52.93-.91,1.28s-.87.63-1.44.82-1.2.29-1.9.29c-.6,0-1.2-.06-1.79-.19s-1.13-.3-1.6-.54c-.48-.23-.86-.52-1.16-.84s-.45-.7-.45-1.11v-2.35h.44c.25,1.48.73,2.54,1.45,3.18.72.64,1.7.97,2.94.97.38,0,.74-.05,1.08-.14.34-.09.64-.24.91-.43.26-.19.47-.42.63-.7.16-.28.24-.6.24-.97,0-.64-.2-1.19-.6-1.65-.4-.45-1.01-.91-1.81-1.38l-2.7-1.6c-.94-.56-1.6-1.12-1.99-1.69s-.58-1.27-.58-2.09c0-.57.1-1.08.31-1.54.21-.45.49-.85.87-1.17.37-.33.82-.58,1.34-.76.52-.18,1.1-.26,1.75-.26.54,0,1.09.06,1.66.18s1.07.29,1.53.52c.45.23.83.5,1.12.83.29.33.44.7.44,1.11v2.35h-.44c-.25-1.48-.72-2.53-1.42-3.16-.7-.63-1.66-.94-2.9-.94-.32,0-.63.05-.94.15-.31.1-.57.25-.81.44-.23.19-.42.42-.57.7-.15.28-.22.59-.22.92s.05.61.15.86c.1.25.26.48.46.7.2.22.46.44.77.65s.66.44,1.05.67l2.7,1.6c.47.28.87.55,1.22.8.34.26.63.53.85.81.22.29.38.59.49.91.11.32.16.69.16,1.1Z"/><path class="cls-1" d="M442.28,11.24c0,.62-.11,1.17-.32,1.67-.21.5-.52.93-.91,1.28s-.87.63-1.44.82-1.2.29-1.9.29c-.6,0-1.2-.06-1.79-.19s-1.13-.3-1.6-.54c-.48-.23-.86-.52-1.16-.84s-.45-.7-.45-1.11v-2.35h.44c.25,1.48.73,2.54,1.45,3.18.72.64,1.7.97,2.94.97.38,0,.74-.05,1.08-.14.34-.09.64-.24.91-.43.26-.19.47-.42.63-.7.16-.28.24-.6.24-.97,0-.64-.2-1.19-.6-1.65-.4-.45-1.01-.91-1.81-1.38l-2.7-1.6c-.94-.56-1.6-1.12-1.99-1.69s-.58-1.27-.58-2.09c0-.57.1-1.08.31-1.54.21-.45.49-.85.87-1.17.37-.33.82-.58,1.34-.76.52-.18,1.1-.26,1.75-.26.54,0,1.09.06,1.66.18s1.07.29,1.53.52c.45.23.83.5,1.12.83.29.33.44.7.44,1.11v2.35h-.44c-.25-1.48-.72-2.53-1.42-3.16-.7-.63-1.66-.94-2.9-.94-.32,0-.63.05-.94.15-.31.1-.57.25-.81.44-.23.19-.42.42-.57.7-.15.28-.22.59-.22.92s.05.61.15.86c.1.25.26.48.46.7.21.22.46.44.77.65s.66.44,1.05.67l2.7,1.6c.47.28.87.55,1.22.8.34.26.63.53.85.81.22.29.38.59.49.91.11.32.16.69.16,1.1Z"/><path class="cls-1" d="M445.18.44h1.98v11.85c0,.66.09,1.19.27,1.59.18.4.6.6,1.26.6h.44v.44h-1.98c-.38,0-.7-.03-.96-.1-.26-.07-.46-.2-.61-.4-.15-.2-.26-.46-.32-.8s-.09-.78-.09-1.34V.44Z"/><path class="cls-1" d="M462.26,5.05c-.28-1.43-.79-2.49-1.55-3.16-.75-.67-1.74-1.01-2.95-1.01-.72,0-1.39.12-2.03.36-.64.24-1.2.64-1.68,1.19-.48.55-.86,1.27-1.14,2.16-.28.89-.42,2-.42,3.32,0,.82.1,1.62.3,2.41.2.79.51,1.49.93,2.11.42.62.97,1.11,1.64,1.49.67.38,1.47.57,2.4.57,1.1,0,2.04-.26,2.83-.79.79-.53,1.49-1.29,2.11-2.28l.44.33c-.35.69-.74,1.26-1.17,1.72-.43.46-.9.83-1.39,1.12-.5.29-1.04.49-1.61.6s-1.2.18-1.86.18c-1.04,0-1.98-.19-2.82-.58-.84-.39-1.56-.92-2.15-1.59-.59-.67-1.05-1.46-1.36-2.37-.31-.91-.47-1.88-.47-2.92,0-1.1.18-2.13.54-3.08.36-.96.85-1.8,1.46-2.51.61-.72,1.34-1.28,2.16-1.69.83-.41,1.71-.61,2.64-.61,1.21,0,2.26.17,3.14.52.88.34,1.51.76,1.91,1.24.28.34.44.81.48,1.41.04.6.07,1.23.07,1.89h-.44Z"/><path class="cls-1" d="M478.46,14.93c-.25.07-.54.11-.88.11-.25,0-.54-.03-.87-.09-.33-.06-.67-.19-1.01-.38-.34-.2-.68-.49-1.01-.87-.33-.38-.61-.88-.85-1.51l-.55-1.43h-6.15l-1.76,4.17h-.99l6.15-14.49h.66l4.83,11.74c.18.41.34.76.49,1.04.15.29.33.52.52.69.19.18.4.31.61.4.22.09.48.15.79.17v.44ZM467.48,9.88h5.38l-2.63-6.37-2.74,6.37Z"/><path class="cls-1" d="M482.17,14.05h7.79v.88h-9.77V3.07c0-.66-.09-1.19-.27-1.59-.18-.4-.6-.6-1.26-.6h-.44v-.44h1.98c.38,0,.7.03.95.1.26.07.46.2.61.39.15.2.26.47.32.81.06.34.09.79.09,1.33v10.98Z"/></g></svg>