<?xml version="1.0" encoding="UTF-8"?><svg id="_圖層_2" xmlns="http://www.w3.org/2000/svg" viewBox="0 0 715.7 445.14"><defs><style>.cls-1{fill:none;stroke:#fff;stroke-miterlimit:10;}.cls-2{fill:#fff;}</style></defs><g id="_圖層_2-2"><path class="cls-2" d="M89.03,154.39c-.12.51-2.46,1.77-4.15,1.77h-.78v-4.74h-4.93v5.69c0,.63-1.74,1.96-3.91,1.96h-.84v-52.23l4.99,2.47h4.08l2.58-3.04,5.29,4.49c-.36.51-1.26.95-2.34,1.2v42.43ZM79.18,111.14v11.32h4.93v-11.32h-4.93ZM84.1,124.29h-4.93v11.51h4.93v-11.51ZM84.1,149.58v-11.95h-4.93v11.95h4.93ZM128.74,140.41c-.42.44-1.08.76-2.34.95-.12,12.84-.54,17.89-2.4,19.86-1.38,1.26-3.3,1.45-5.71,1.45,0-1.08-.18-1.77-.9-2.4-.72-.7-2.4-1.07-4.21-1.39l.06-1.01c1.8.13,4.75.38,5.77.38.9,0,1.32-.13,1.68-.57.96-1.01,1.2-6.2,1.32-16.88h-17.78c-.66.76-1.44,1.58-2.22,2.28l1.92.89h3.48v-2.91l4.87.57c-.06.57-.36,1.01-1.26,1.2v1.14h3.66l1.74-1.9,3.78,3.04c-.24.32-.78.63-1.5.76v4.87c-.06.32-1.98,1.01-3.06,1.01h-.6v-.89h-4.02v3.16l3.48-.25c-.48-.7-.96-1.33-1.44-1.77l.66-.44c8.71,1.9,5.65,8.03,2.58,5.69-.18-.7-.54-1.45-.96-2.21-3.6.88-8.47,1.96-15.02,3.35-.3.82-.84,1.14-1.38,1.26l-2.52-4.81c2.28-.06,6.31-.25,10.99-.57v-3.42h-4.2v.38c0,.25-1.2,1.14-3.06,1.14h-.6v-7.08c-.96.7-1.98,1.45-2.94,2.02l-.72-.57c2.1-2.47,4.39-6.58,5.77-9.99-.6.25-1.38.44-2.16.51h-.6v-10.24l-1.68-4.49c1.68-.19,4.81-.63,8.35-1.2-.18,0-.36,0-.6-.06-1.56-1.2-4.57-2.91-6.79-3.67l.42-.82c9.25-1.39,9.91,3.73,7.45,4.49l3.42-.63v-4.55l5.83.63c-.06.63-.48,1.14-1.56,1.33v2.66h1.5c1.74-1.2,4.27-3.04,5.89-4.43v-.76h-24.15v12.58c0,11.38-.48,24.91-9.85,34.21l-.84-.57c5.47-9.49,5.89-21.63,5.89-33.64v-23.4l5.65,2.4h22.77l2.52-2.78,5.35,4.24c-.3.44-1.2.95-2.28,1.2v6.01c-.06.32-1.68,1.01-3.06,1.26l1.44,2.34c-.36.25-.84.19-1.38-.19-1.02.38-3.06,1.08-5.05,1.77,9.61.88,8.77,5.31,6.25,5.25l3.24,2.53c-.24.32-.84.7-1.56.88v6.01c-.06.25-.84.76-1.8,1.07l4.51,3.73ZM121.11,113.67v-4.74h-24.15v4.74h24.15ZM109.45,121.95c-2.28,1.01-5.35,2.4-9.13,3.86l-.12.32,3,1.39h18.44l1.62-1.71c-2.28-1.14-6.37-2.72-9.55-3.67v3.67c0,.32-1.86.95-3.3.95h-.96v-4.81ZM121.41,138.96l1.8-2.09c-.18.06-.36.06-.54.06h-.66v-.95h-19.1c-.06.06-.12.13-.24.25l5.65,1.33c-.24.63-.66.95-2.16.82l-.42.57h15.68ZM106.93,134.22v-4.87h-4.02v4.87h4.02ZM103.21,145.73v3.29h4.2v-3.29h-4.2ZM110.23,134.22h4.02v-4.87h-4.02v4.87ZM111.02,145.73v3.29h4.02v-3.29h-4.02ZM117.56,134.22h4.45v-4.87h-4.45v4.87Z"/><path class="cls-2" d="M176.67,139.02c4.39,3.35,11.71,5.63,17.66,6.64l-.06.7c-2.04.57-3.3,2.34-3.9,5.06-6.19-2.66-12.25-6.96-15.68-12.39h-13.4c-5.29,5.5-12.5,10.37-22.23,12.9l-.54-.76c6.91-3.16,12.44-7.46,16.4-12.14h-14.48l-.48-1.83h16.46c1.38-1.83,2.52-3.6,3.48-5.44h-5.65v1.26c0,.57-2.46,1.77-4.75,1.77h-.78v-20.74l5.95,2.53h23.01l2.34-2.59c-1.14.7-3.18.95-5.35.44l.66-3.92h-6.67l-.48-1.83h7.45l.9-5.56,7.33,1.39c-.18.7-.72,1.39-2.28,1.45l-.48,2.72h4.63l2.76-3.98s3.3,2.78,5.23,4.81c-.18.7-.78,1.01-1.62,1.01h-11.23l-.6,3.16.12-.13,5.71,4.55c-.36.44-1.14.95-2.22,1.2v12.71c-.06.51-2.82,1.83-4.69,1.83h-.96v-2.09h-15.68l5.59,1.45c-.24.7-.96,1.08-2.82,1.08-.72.95-1.5,1.96-2.34,2.91h20.91l3.18-3.86s3.54,2.66,5.77,4.68c-.18.7-.78,1.01-1.62,1.01h-14.54ZM139.67,108.67h11.47l-.66-5.31,7.45.57c-.06.7-.54,1.39-1.74,1.77l.42,2.97h2.16l2.82-3.98s3.18,2.78,5.11,4.81c-.12.7-.72,1.01-1.56,1.01h-8.29l.42,2.91c-.78,1.08-2.88,1.58-5.35,1.58l-.54-4.49h-11.23l-.48-1.83ZM155.47,145.09c1.8,6.83-.9,11.26-3.66,12.71-1.74,1.01-4.15.76-4.75-1.08-.54-1.71.6-3.1,2.04-3.79,2.46-1.08,5.23-4.17,5.41-7.84h.96ZM154.26,118.41v4.87h23.97v-4.87h-23.97ZM154.26,129.92h23.97v-4.81h-23.97v4.81ZM169.82,140.86c-.12.88-.72,1.33-2.04,1.58v13.66c0,4.17-.78,6.39-6.85,6.96-.12-1.64-.36-2.97-1.02-3.79-.72-.82-1.74-1.45-4.02-1.77v-.95s4.51.38,5.47.38c.84,0,1.08-.32,1.08-1.01v-15.81l7.39.76ZM170.12,145.85c11.59,6.32,6.31,15.37,2.28,11,0-3.48-1.56-7.84-3-10.69l.72-.32ZM175.53,144.97c16.52,5.44,12.5,16.69,7.09,12.84-1.2-4.11-4.81-9.17-7.75-12.39l.66-.44Z"/><path class="cls-2" d="M207.9,111.39l13.87-6.45h1.39v45.84c0,3.04.13,4.94.4,5.69.27.75.82,1.32,1.66,1.72.84.4,2.55.63,5.13.68v1.48h-21.44v-1.48c2.69-.05,4.43-.27,5.21-.66.78-.39,1.33-.91,1.64-1.56.31-.65.46-2.61.46-5.87v-29.31c0-3.95-.14-6.49-.42-7.61-.2-.85-.55-1.48-1.07-1.88-.52-.4-1.14-.6-1.87-.6-1.04,0-2.48.41-4.33,1.24l-.63-1.24Z"/><path class="cls-2" d="M241.79,116.39c1.63-3.66,3.68-6.48,6.16-8.47,2.48-1.99,5.57-2.98,9.27-2.98,4.57,0,8.07,1.41,10.51,4.24,1.85,2.11,2.77,4.36,2.77,6.77,0,3.95-2.61,8.04-7.82,12.25,3.5,1.31,6.15,3.18,7.95,5.61,1.79,2.43,2.69,5.29,2.69,8.57,0,4.7-1.57,8.77-4.71,12.21-4.09,4.48-10.02,6.73-17.78,6.73-3.84,0-6.45-.45-7.84-1.36-1.39-.91-2.08-1.88-2.08-2.92,0-.77.33-1.45.99-2.04.66-.59,1.45-.88,2.38-.88.7,0,1.41.11,2.14.32.48.13,1.56.62,3.24,1.46,1.68.84,2.84,1.34,3.49,1.5,1.04.29,2.14.44,3.32.44,2.86,0,5.35-1.05,7.46-3.16,2.12-2.11,3.17-4.6,3.17-7.49,0-2.11-.49-4.16-1.47-6.17-.73-1.49-1.53-2.63-2.4-3.4-1.21-1.07-2.86-2.04-4.96-2.9-2.1-.87-4.25-1.3-6.43-1.3h-1.35v-1.2c2.21-.27,4.44-1.03,6.66-2.28,2.23-1.25,3.85-2.76,4.86-4.52,1.01-1.76,1.51-3.7,1.51-5.81,0-2.75-.9-4.97-2.71-6.67-1.81-1.7-4.06-2.54-6.75-2.54-4.34,0-7.97,2.22-10.89,6.65l-1.39-.64Z"/><path class="cls-2" d="M287.26,161.79c3.48-3.67,7.03-9.8,9.07-16.57l7.33,3.29c-.3.7-1.14,1.14-2.46,1.01-3.36,6.01-8.17,10.37-13.16,12.96l-.78-.7ZM343.73,109.68c-.42.51-1.32,1.08-2.52,1.33v43.88c0,4.24-.78,6.7-7.51,7.4-.18-1.83-.54-3.29-1.26-4.17-.9-.95-2.22-1.58-4.93-2.02v-.95s5.71.38,6.91.38c1.02,0,1.32-.38,1.32-1.33v-15.93h-9.85c-.84,8.98-3.72,17.71-12.92,23.97l-.78-.63c4.63-5.19,6.85-11.19,7.93-17.77-.24.06-.54.13-.84.13h-31.48l-.48-1.77h6.13v-26.43h-4.63l-.48-1.83h5.11v-9.42l7.27.82c-.12.76-.6,1.33-1.98,1.58v7.02h8.95v-9.42l7.57.82c-.18.82-.66,1.46-2.1,1.71v6.89h.3l2.34-3.86s2.76,2.78,4.33,4.68c-.12.7-.72,1.01-1.5,1.01h-5.47v26.43h.24l2.64-4.24s2.52,2.47,4.27,4.49c.6-4.17.72-8.54.72-12.96v-23.84l6.13,2.53h7.99l2.64-3.29,5.95,4.81ZM298.73,115.75v7.02h8.95v-7.02h-8.95ZM298.73,132.19h8.95v-7.59h-8.95v7.59ZM298.73,142.18h8.95v-8.16h-8.95v8.16ZM305.94,145.73c14.18,3.79,9.61,14.35,4.57,10.43-.54-3.48-3-7.53-5.17-9.99l.6-.44ZM335.74,136.43v-12.58h-9.49v5.56c0,2.34-.06,4.68-.18,7.02h9.67ZM326.25,110v12.01h9.49v-12.01h-9.49Z"/><path class="cls-2" d="M367.89,132.97c0-2.38,1.91-4.41,4.41-4.41s4.41,2.03,4.41,4.41-1.91,4.35-4.41,4.35-4.41-2.03-4.41-4.35Z"/><path class="cls-2" d="M431.03,113.03c22.53,7.71,19.28,22.83,12.8,18.59-.66-2.15-1.86-4.36-3.3-6.64-9.13,1.71-22.29,3.79-38.03,5.75-.48.63-.96,1.01-1.5,1.2l-2.28-7.08s1.44-.32,2.04-.7c6.55-3.98,15.62-14.61,18.8-20.61l8.11,3.67c-.3.63-1.08,1.2-2.46.95-4.57,5.25-13.22,12.14-20.85,16.76,8.05-.13,21.33-.7,35.14-1.39-2.64-3.79-6.07-7.33-9.07-9.93l.6-.57ZM438.24,132.83l6.31,5.18c-.42.57-1.32,1.14-2.7,1.46v20.68c-.06.38-3,1.52-4.99,1.52h-.96v-5h-25.05v3.48c0,.63-2.64,2.02-5.05,2.02h-.9v-28.58l6.31,2.78h24.03l3-3.54ZM435.89,154.83v-16.63h-25.05v16.63h25.05Z"/><path class="cls-2" d="M515.91,118.91c-.42.51-1.26,1.07-2.52,1.33v21.25c-.06.44-3,1.58-4.99,1.58h-1.02v-5.25h-15.2v22.32c0,.7-2.58,2.28-4.87,2.28h-1.14v-24.6h-15.2v4.11c0,.57-2.58,2.02-4.99,2.02h-.9v-29.47l6.43,2.85h14.66v-13.72l8.23.89c-.18.88-.6,1.58-2.22,1.83v11h14.6l2.94-3.41,6.19,5ZM486.17,135.99v-16.82h-15.2v16.82h15.2ZM507.38,135.99v-16.82h-15.2v16.82h15.2Z"/><path class="cls-2" d="M544.56,137.95v22.89c0,.38-1.74,1.52-4.51,1.52h-.96v-18.34c-.3.06-.72.06-1.26,0-1.98,4.43-5.29,10.12-9.79,13.91l-.66-.63c2.94-4.93,5.05-12.33,5.83-17.26l5.89,2.66v-4.74h-10.33l-.48-1.83h10.81v-7.59h-11.29l-.48-1.83h16.16c1.14-3.67,2.34-8.41,3-11.95h-13.22c11.35,6.01,6.25,14.8,2.22,10.56-.06-3.35-1.62-7.53-3-10.31l.54-.25h-4.33l-.48-1.83h13.82c-.54-.13-1.2-.38-1.86-.95-.36-2.78-2.04-6.13-3.66-8.16l.6-.38c10.45,2.21,9.25,8.92,5.83,9.48h4.81l2.94-4.05s3.3,2.78,5.35,4.87c-.18.7-.78,1.01-1.62,1.01h-7.33l6.61,2.21c-.24.76-.96,1.27-2.22,1.14-1.5,2.53-3.96,5.82-6.43,8.6h4.45l2.94-4.24s3.48,2.97,5.53,5.06c-.12.7-.72,1.01-1.56,1.01h-11.83v7.59h4.08l2.82-3.98s3.24,2.78,5.17,4.81c-.18.7-.72,1.01-1.56,1.01h-10.51ZM546,140.79c12.38,6.26,7.39,16.12,3.06,11.83,0-3.86-1.86-8.41-3.72-11.45l.66-.38ZM577.66,121.06s3.84,3.35,6.19,5.63c-.12.7-.78,1.01-1.62,1.01h-5.89v32.94c0,.38-1.8,1.77-4.63,1.77h-.96v-34.71h-7.15v2.21c0,11-1.02,24.03-12.92,32.44l-.78-.76c7.27-8.98,8.17-20.42,8.17-31.81v-21.06l6.01,2.15c4.57-2.15,9.43-5.12,12.07-7.21l6.25,5.25c-.6.63-1.68.76-3.3.19-3.9,1.33-9.85,2.78-15.5,3.6v13.15h10.63l3.42-4.81Z"/><path class="cls-2" d="M625.54,130.68c5.23,9.55,15.02,17.2,24.27,20.55l-.12.7c-2.34.51-4.14,2.34-4.99,5.31-9.13-5.18-16.28-14.23-20.49-26.56h-.12v29.53c0,.76-2.46,2.21-4.63,2.21h-1.14v-25.86c-5.65,8.92-14.12,16.38-24.63,21.5l-.6-.88c9.37-6.58,17.12-16.69,21.39-26.5h-20l-.48-1.83h24.33v-11.51h-19.1l-.48-1.77h19.58v-11.89l7.99.89c-.12.88-.6,1.52-2.22,1.77v9.23h10.33l3.6-4.68s4.02,3.16,6.55,5.5c-.18.63-.84.95-1.68.95h-18.8v11.51h14.36l3.72-4.81s4.21,3.29,6.73,5.63c-.12.7-.78,1.01-1.68,1.01h-21.69Z"/><path class="cls-2" d="M706.63,119.99c-.18.82-.9,1.39-2.16,1.39-.54,1.9-1.2,3.6-1.92,5.25,13.4,4.68,9.61,14.8,4.45,11.19-.78-3.04-3.12-6.51-5.41-9.29-2.04,3.92-4.63,6.96-7.69,9.17,5.47,7.4,13.58,12.96,21.81,15.49l-.12.7c-2.28.51-4.09,2.4-4.81,5.31-9.49-4.81-16.52-13.22-20.67-25.04v26.05c0,.76-2.46,2.28-4.63,2.28h-1.14v-20.74c-6.01,7.08-14.84,13.72-24.45,17.64l-.48-.95c10.45-5.94,20.37-16.88,24.93-28.64v-13.79h-23.43l-.54-1.83h23.97v-10.31l7.99.89c-.18.88-.6,1.52-2.22,1.77v7.65h14.3l3.66-4.74s4.08,3.23,6.61,5.56c-.18.7-.78,1.01-1.62,1.01h-22.95v15.3c.84,1.83,1.86,3.6,3,5.25,2.94-4.68,5.05-11.25,5.89-18.53l7.63,1.96ZM679.12,120.43c-.18.76-.96,1.33-2.22,1.26-.6,1.71-1.32,3.35-2.04,4.93,10.33,4.3,5.83,12.39,1.56,8.73-.3-2.09-1.38-4.49-2.7-6.58-2.88,5.18-6.49,9.11-10.75,11.82l-.78-.63c4.27-5.12,7.93-13.03,9.43-21.88l7.51,2.34Z"/><path class="cls-2" d="M21.88,0v1.59h-8.95v24.66h-3.58V1.59h-3.58c-1.59,0-2.82.37-3.68,1.09-.86.73-1.29,1.89-1.29,3.48h-.8v-2.98c0-.4.05-.79.14-1.17.09-.38.26-.72.52-1.01.25-.29.6-.53,1.03-.72.44-.18,1-.28,1.69-.28h18.5Z"/><path class="cls-2" d="M49.64,21.48c0,1.19.17,2.15.5,2.88.33.73,1.09,1.09,2.29,1.09h.8v.8h-3.58c-.69,0-1.27-.06-1.73-.18-.46-.12-.84-.36-1.11-.72-.28-.36-.47-.84-.58-1.45-.11-.61-.16-1.42-.16-2.43v-7.96h-11.93v12.73h-3.58V4.77c0-1.19-.17-2.15-.5-2.88-.33-.73-1.09-1.09-2.29-1.09h-.8v-.8h3.58c.69,0,1.27.06,1.73.18.46.12.83.36,1.11.72.28.36.47.85.58,1.47.11.62.16,1.43.16,2.41v7.16h11.93V0h3.58v21.48Z"/><path class="cls-2" d="M75.46,0c.69,0,1.25.09,1.69.28.44.19.78.42,1.03.72.25.29.42.63.52,1.01.09.38.14.78.14,1.17v2.98h-.8c0-1.59-.43-2.75-1.29-3.48-.86-.73-2.09-1.09-3.68-1.09h-7.4v10.34h10.74v1.59h-10.74v11.14h6.96c1.8,0,3.23-.33,4.28-.99,1.05-.66,1.88-1.79,2.49-3.38l.8.2-1.39,3.78c-.21.61-.56,1.09-1.05,1.45-.49.36-1.13.54-1.93.54h-13.72V4.77c0-1.19-.17-2.15-.5-2.88-.33-.73-1.09-1.09-2.29-1.09h-.8v-.8h16.95Z"/><path class="cls-2" d="M125.58,26.25c-.45.13-.98.2-1.59.2-.45,0-.97-.05-1.57-.16-.6-.11-1.21-.34-1.83-.7-.62-.36-1.23-.88-1.83-1.57-.6-.69-1.11-1.6-1.53-2.75l-.99-2.59h-11.14l-3.18,7.56h-1.79L111.26,0h1.19l8.75,21.28c.32.74.62,1.37.9,1.89.28.52.59.94.93,1.25.34.32.72.56,1.11.72.4.16.88.27,1.43.32v.8ZM105.69,17.1h9.75l-4.77-11.54-4.97,11.54Z"/><path class="cls-2" d="M139.07,14.12h-2.78v12.13h-3.58V4.77c0-1.19-.17-2.15-.5-2.88-.33-.73-1.09-1.09-2.29-1.09h-.8v-.8h10.34c.85,0,1.84.07,2.98.22,1.14.15,2.23.47,3.26.97,1.03.5,1.91,1.23,2.63,2.17.72.94,1.07,2.21,1.07,3.8,0,1.14-.2,2.11-.6,2.9-.4.8-.91,1.45-1.53,1.97-.62.52-1.31.92-2.07,1.21-.76.29-1.48.52-2.17.68l4.18,6.96c.5.85.97,1.55,1.41,2.11.44.56.87,1.01,1.29,1.37.42.36.85.62,1.27.78.42.16.89.27,1.39.32v.8c-.21.11-.54.2-.97.28-.44.08-.91.12-1.41.12-.69,0-1.33-.09-1.93-.28-.6-.19-1.17-.5-1.73-.95-.56-.45-1.12-1.05-1.69-1.79-.57-.74-1.17-1.66-1.81-2.74l-3.98-6.76ZM139.27,12.73c.56,0,1.19-.11,1.89-.32.7-.21,1.37-.54,2.01-.97.64-.44,1.17-1.01,1.61-1.71.44-.7.66-1.56.66-2.57s-.22-1.92-.66-2.67c-.44-.74-.97-1.34-1.61-1.79-.64-.45-1.31-.78-2.01-.99-.7-.21-1.33-.32-1.89-.32-.5,0-1.03.04-1.57.12-.54.08-1.01.17-1.41.28v10.54c.4.11.87.2,1.41.28.54.08,1.07.12,1.57.12Z"/><path class="cls-2" d="M178.85,0v1.59h-8.95v24.66h-3.58V1.59h-3.58c-1.59,0-2.82.37-3.68,1.09-.86.73-1.29,1.89-1.29,3.48h-.8v-2.98c0-.4.05-.79.14-1.17.09-.38.26-.72.52-1.01.25-.29.6-.53,1.03-.72.44-.18,1-.28,1.69-.28h18.5Z"/><path class="cls-2" d="M73.15,43.75c0-1.19-.25-2.15-.76-2.88-.5-.73-1.45-1.09-2.82-1.09h-.4v-.8h2.59c1.3,0,2.37.21,3.2.64.84.42,1.56,1.01,2.17,1.75l13.92,17.3v-19.69h1.59v26.65h-.8l-17.11-21.28v20.88h-1.59v-21.48Z"/><path class="cls-2" d="M117.59,38.98c.69,0,1.25.09,1.69.28.44.19.78.42,1.03.72.25.29.42.63.52,1.01.09.38.14.78.14,1.17v2.98h-.8c0-1.59-.43-2.75-1.29-3.48-.86-.73-2.09-1.09-3.68-1.09h-7.4v10.34h10.74v1.59h-10.74v11.14h6.96c1.8,0,3.23-.33,4.28-.99,1.05-.66,1.88-1.79,2.49-3.38l.8.2-1.39,3.78c-.21.61-.56,1.09-1.05,1.45-.49.36-1.13.54-1.93.54h-13.72v-21.48c0-1.19-.17-2.15-.5-2.88-.33-.73-1.09-1.09-2.29-1.09h-.8v-.8h16.95Z"/><path class="cls-2" d="M129.28,52.11c0-1.94.28-3.75.85-5.45.57-1.7,1.39-3.18,2.47-4.44,1.07-1.26,2.37-2.25,3.9-2.96,1.52-.72,3.23-1.07,5.11-1.07s3.59.36,5.11,1.07c1.52.72,2.82,1.7,3.9,2.96,1.07,1.26,1.9,2.74,2.47,4.44.57,1.7.85,3.51.85,5.45s-.29,3.79-.85,5.47c-.57,1.68-1.39,3.16-2.47,4.42-1.07,1.26-2.37,2.25-3.9,2.96-1.53.72-3.23,1.07-5.11,1.07s-3.59-.36-5.11-1.07c-1.53-.72-2.82-1.7-3.9-2.96-1.07-1.26-1.9-2.73-2.47-4.42-.57-1.68-.85-3.51-.85-5.47ZM149.97,52.11c0-1.88-.19-3.59-.58-5.11-.38-1.52-.94-2.82-1.65-3.9-.72-1.07-1.59-1.9-2.63-2.47-1.03-.57-2.2-.86-3.5-.86s-2.47.29-3.5.86c-1.03.57-1.91,1.39-2.63,2.47-.72,1.07-1.27,2.37-1.65,3.9-.38,1.52-.58,3.23-.58,5.11s.19,3.59.58,5.11c.38,1.53.93,2.82,1.65,3.9.72,1.07,1.59,1.9,2.63,2.47,1.03.57,2.2.86,3.5.86s2.47-.28,3.5-.86c1.03-.57,1.91-1.39,2.63-2.47.72-1.07,1.27-2.37,1.65-3.9.38-1.52.58-3.23.58-5.11Z"/><path class="cls-2" d="M162.38,53.3h10.14v2.78h-10.14v-2.78Z"/><path class="cls-2" d="M202.56,47.33c-.5-2.6-1.44-4.51-2.8-5.73-1.37-1.22-3.15-1.83-5.35-1.83-1.3,0-2.53.22-3.68.66-1.15.44-2.17,1.15-3.04,2.15-.88.99-1.57,2.3-2.07,3.92-.5,1.62-.76,3.62-.76,6.01,0,1.49.18,2.94.54,4.38.36,1.43.92,2.7,1.69,3.82.77,1.11,1.76,2.02,2.96,2.7,1.21.69,2.66,1.03,4.36,1.03,1.99,0,3.7-.48,5.13-1.43,1.43-.95,2.71-2.33,3.82-4.14l.8.6c-.64,1.25-1.35,2.29-2.13,3.12-.78.84-1.62,1.51-2.53,2.03-.9.52-1.88.88-2.92,1.09-1.05.21-2.17.32-3.36.32-1.88,0-3.59-.35-5.11-1.05-1.53-.7-2.82-1.66-3.9-2.88-1.07-1.22-1.9-2.65-2.47-4.3-.57-1.64-.85-3.41-.85-5.29,0-1.99.32-3.85.97-5.59.65-1.74,1.53-3.26,2.64-4.55s2.42-2.32,3.92-3.06c1.5-.74,3.1-1.11,4.79-1.11,2.2,0,4.1.31,5.69.94,1.59.62,2.74,1.37,3.46,2.25.5.61.8,1.46.88,2.55s.12,2.23.12,3.42h-.8Z"/><path class="cls-2" d="M217.35,63.64h14.12v1.59h-17.7v-21.48c0-1.19-.17-2.15-.5-2.88-.33-.73-1.09-1.09-2.29-1.09h-.8v-.8h3.58c.69,0,1.27.06,1.73.18.46.12.83.36,1.11.72.28.36.47.85.58,1.47.11.62.16,1.43.16,2.41v19.89Z"/><path class="cls-2" d="M262.07,65.23c-.45.13-.98.2-1.59.2-.45,0-.97-.05-1.57-.16-.6-.11-1.21-.34-1.83-.7-.62-.36-1.23-.88-1.83-1.57-.6-.69-1.11-1.6-1.53-2.75l-.99-2.59h-11.14l-3.18,7.56h-1.79l11.14-26.25h1.19l8.75,21.28c.32.74.62,1.37.9,1.89.28.52.59.94.93,1.25.34.32.72.56,1.11.72.4.16.88.27,1.43.32v.8ZM242.18,56.08h9.75l-4.77-11.54-4.97,11.54Z"/><path class="cls-2" d="M284.46,58.55c0,1.11-.19,2.12-.58,3.02-.38.9-.93,1.68-1.65,2.33-.72.65-1.59,1.15-2.61,1.49-1.02.34-2.17.52-3.44.52-1.09,0-2.17-.11-3.24-.34-1.07-.23-2.04-.55-2.9-.97s-1.56-.94-2.11-1.53c-.54-.6-.82-1.27-.82-2.01v-4.26h.8c.45,2.68,1.32,4.6,2.63,5.77,1.3,1.17,3.08,1.75,5.32,1.75.69,0,1.34-.09,1.96-.26.62-.17,1.17-.43,1.64-.78.47-.34.86-.77,1.15-1.27.29-.5.44-1.09.44-1.75,0-1.17-.36-2.16-1.09-2.98-.73-.82-1.82-1.66-3.28-2.51l-4.89-2.9c-1.7-1.01-2.9-2.03-3.6-3.06-.7-1.03-1.05-2.29-1.05-3.78,0-1.03.19-1.96.56-2.78.37-.82.9-1.53,1.57-2.13.68-.6,1.48-1.05,2.43-1.37.94-.32,2-.48,3.16-.48.98,0,1.98.11,3,.32,1.02.21,1.94.52,2.76.94.82.41,1.5.91,2.03,1.51.53.6.8,1.27.8,2.01v4.26h-.8c-.45-2.68-1.3-4.59-2.57-5.73-1.27-1.14-3.02-1.71-5.26-1.71-.58,0-1.15.09-1.7.28-.55.19-1.04.45-1.46.8-.42.34-.76.77-1.03,1.27-.26.5-.39,1.06-.39,1.67s.09,1.1.28,1.55c.19.45.46.88.84,1.27.37.4.84.79,1.39,1.17.56.38,1.19.79,1.91,1.21l4.89,2.9c.85.5,1.58.99,2.21,1.45.62.46,1.13.95,1.53,1.47.4.52.7,1.07.9,1.65.2.58.3,1.25.3,1.99Z"/><path class="cls-2" d="M309.64,58.55c0,1.11-.19,2.12-.58,3.02-.38.9-.93,1.68-1.65,2.33-.72.65-1.59,1.15-2.61,1.49-1.02.34-2.17.52-3.44.52-1.09,0-2.17-.11-3.24-.34-1.07-.23-2.04-.55-2.9-.97s-1.57-.94-2.11-1.53c-.54-.6-.82-1.27-.82-2.01v-4.26h.8c.45,2.68,1.32,4.6,2.63,5.77,1.3,1.17,3.08,1.75,5.32,1.75.69,0,1.34-.09,1.96-.26.62-.17,1.17-.43,1.64-.78.47-.34.86-.77,1.15-1.27.29-.5.44-1.09.44-1.75,0-1.17-.36-2.16-1.09-2.98-.73-.82-1.82-1.66-3.28-2.51l-4.89-2.9c-1.7-1.01-2.9-2.03-3.6-3.06-.7-1.03-1.05-2.29-1.05-3.78,0-1.03.19-1.96.56-2.78.37-.82.9-1.53,1.57-2.13.68-.6,1.48-1.05,2.43-1.37.94-.32,2-.48,3.16-.48.98,0,1.98.11,3,.32,1.02.21,1.94.52,2.76.94.82.41,1.5.91,2.03,1.51.53.6.8,1.27.8,2.01v4.26h-.8c-.45-2.68-1.3-4.59-2.57-5.73-1.27-1.14-3.02-1.71-5.26-1.71-.58,0-1.15.09-1.7.28-.55.19-1.04.45-1.46.8-.42.34-.76.77-1.03,1.27-.26.5-.4,1.06-.4,1.67s.09,1.1.28,1.55c.19.45.46.88.84,1.27.37.4.84.79,1.39,1.17.56.38,1.19.79,1.91,1.21l4.89,2.9c.85.5,1.58.99,2.21,1.45.62.46,1.13.95,1.53,1.47.4.52.7,1.07.9,1.65.2.58.3,1.25.3,1.99Z"/><path class="cls-2" d="M318.87,38.98h3.58v21.48c0,1.19.16,2.15.5,2.88.33.73,1.09,1.09,2.29,1.09h.8v.8h-3.58c-.69,0-1.27-.06-1.73-.18-.46-.12-.84-.36-1.11-.72-.28-.36-.47-.84-.58-1.45-.11-.61-.16-1.42-.16-2.43v-21.48Z"/><path class="cls-2" d="M353.8,47.33c-.5-2.6-1.44-4.51-2.8-5.73-1.37-1.22-3.15-1.83-5.35-1.83-1.3,0-2.53.22-3.68.66-1.15.44-2.17,1.15-3.04,2.15-.88.99-1.57,2.3-2.07,3.92-.5,1.62-.76,3.62-.76,6.01,0,1.49.18,2.94.54,4.38.36,1.43.92,2.7,1.69,3.82.77,1.11,1.76,2.02,2.96,2.7,1.21.69,2.66,1.03,4.36,1.03,1.99,0,3.7-.48,5.13-1.43,1.43-.95,2.71-2.33,3.82-4.14l.8.6c-.64,1.25-1.35,2.29-2.13,3.12-.78.84-1.62,1.51-2.53,2.03-.9.52-1.88.88-2.92,1.09-1.05.21-2.17.32-3.36.32-1.88,0-3.59-.35-5.11-1.05-1.53-.7-2.82-1.66-3.9-2.88-1.07-1.22-1.9-2.65-2.47-4.3-.57-1.64-.85-3.41-.85-5.29,0-1.99.32-3.85.97-5.59.65-1.74,1.53-3.26,2.65-4.55s2.42-2.32,3.92-3.06c1.5-.74,3.1-1.11,4.79-1.11,2.2,0,4.1.31,5.69.94,1.59.62,2.74,1.37,3.46,2.25.5.61.8,1.46.88,2.55s.12,2.23.12,3.42h-.8Z"/><path class="cls-2" d="M387.13,65.23c-.45.13-.98.2-1.59.2-.45,0-.97-.05-1.57-.16-.6-.11-1.21-.34-1.83-.7-.62-.36-1.23-.88-1.83-1.57-.6-.69-1.11-1.6-1.53-2.75l-.99-2.59h-11.14l-3.18,7.56h-1.79l11.14-26.25h1.19l8.75,21.28c.32.74.62,1.37.9,1.89.28.52.59.94.93,1.25.34.32.72.56,1.11.72.4.16.88.27,1.43.32v.8ZM367.24,56.08h9.75l-4.77-11.54-4.97,11.54Z"/><path class="cls-2" d="M397.83,63.64h14.12v1.59h-17.7v-21.48c0-1.19-.17-2.15-.5-2.88-.33-.73-1.09-1.09-2.29-1.09h-.8v-.8h3.58c.69,0,1.27.06,1.73.18.46.12.83.36,1.11.72.28.36.47.85.58,1.47.11.62.16,1.43.16,2.41v19.89Z"/><line class="cls-1" x1="35.38" y1="58.14" x2="35.38" y2="445.14"/><path class="cls-2" d="M89.79,227.82c10.62,4.61,9.6,10.91,7.01,9.25-.29-1.02-.9-2.14-1.7-3.23-5.09.77-12.29,1.6-20.73,2.37-.19.26-.38.38-.58.48l-1.18-2.56s.64-.16.93-.32c3.68-2.34,8.61-7.71,10.59-10.72l3.01,1.5c-.16.32-.58.58-1.28.42-2.37,2.72-6.88,6.56-10.91,9.15,4.29-.1,11.77-.51,19.65-.99-1.5-1.92-3.46-3.78-5.15-5.02l.35-.32ZM93.66,237.94l2.62,2.05c-.19.29-.7.54-1.38.67v10.72c-.03.19-1.12.7-1.82.7h-.32v-2.4h-14.75v1.95c0,.22-.9.74-1.79.74h-.32v-14.14l2.3,1.06h14.21l1.25-1.34ZM92.77,248.72v-8.51h-14.75v8.51h14.75Z"/><path class="cls-2" d="M131.14,230.54c-.19.26-.7.51-1.34.64v10.98c-.03.19-1.12.67-1.82.67h-.35v-2.66h-9.31v11.39c0,.32-.93.86-1.73.86h-.42v-12.26h-9.31v2.3c0,.22-.86.7-1.76.7h-.32v-14.43l2.3,1.09h9.09v-6.75l3.3.38c-.06.45-.32.77-1.15.9v5.47h8.99l1.22-1.34,2.62,2.05ZM116.16,239.22v-8.45h-9.31v8.45h9.31ZM127.62,239.22v-8.45h-9.31v8.45h9.31Z"/><path class="cls-2" d="M148.8,236.46v15.36c0,.16-.67.64-1.73.64h-.32v-5.05c-2.43.64-5.54,1.47-9.57,2.46-.16.38-.45.58-.77.67l-1.25-2.66c.83-.06,2.02-.16,3.42-.29v-11.13h-3.36l-.29-.93h24.48l1.5-1.95s1.76,1.34,2.82,2.37c-.1.35-.42.51-.83.51h-14.11ZM141.73,233.9c0,.19-.93.67-1.76.67h-.32v-10.69l2.24,1.02h14.97l1.18-1.28,2.56,1.98c-.19.26-.7.51-1.34.64v7.39c-.03.19-1.09.64-1.76.64h-.32v-8.45h-15.46v8.06ZM146.75,236.46h-6.14v2.85h6.14v-2.85ZM146.75,240.27h-6.14v2.91h6.14v-2.91ZM140.61,247.34c1.86-.19,3.97-.48,6.14-.77v-2.46h-6.14v3.23ZM153.95,230.61s1.18.93,1.95,1.7c-.1.35-.35.51-.77.51h-11.58l-.26-.96h9.63l1.02-1.25ZM153.98,227.12s1.18.93,1.95,1.7c-.1.35-.35.51-.77.51h-11.58l-.26-.93h9.63l1.02-1.28ZM162.56,239.89c-.22.32-.54.38-1.28.42-.93,2.5-2.3,4.8-4.19,6.78,2.02,1.47,4.45,2.5,7.3,3.2l-.03.32c-.93.16-1.6.8-1.89,1.79-2.75-.96-4.99-2.27-6.72-4-1.79,1.47-3.9,2.75-6.5,3.68l-.29-.42c2.27-1.18,4.22-2.66,5.76-4.38-1.54-1.89-2.66-4.25-3.39-7.2h-1.89l-.29-.96h9.66l1.41-1.31,2.34,2.08ZM152,240.08c.83,2.4,2.08,4.35,3.81,5.95,1.34-1.86,2.4-3.84,3.04-5.95h-6.85Z"/><path class="cls-2" d="M195.39,249.29c.74.22.9.51.9.93,0,.93-.99,1.34-6.21,1.34h-3.65c-2.59,0-3.14-.51-3.14-2.14v-9.73h-4.54c-.64,5.6-2.05,10.02-11.84,12.83l-.32-.51c8.06-3.26,9.38-7.55,9.79-12.32h-8.03l-.29-.93h22.65l1.54-1.82s1.76,1.28,2.88,2.24c-.1.35-.38.51-.83.51h-8.93v9.28c0,.51.13.67,1.41.67h3.33c1.47,0,2.69-.03,3.17-.06.35-.03.48-.13.61-.45.26-.54.64-2.34.99-4.26h.45l.06,4.42ZM171.2,229.14c.03,2.08-.86,3.42-1.79,4.06-.83.61-2.05.58-2.4-.22-.29-.74.19-1.41.86-1.82,1.25-.7,2.5-2.53,2.34-4.61l.54-.03c.19.61.32,1.15.38,1.66h20.93l1.41-1.41,2.56,2.43c-.22.26-.61.29-1.25.32-.93,1.12-2.59,2.72-3.87,3.58l-.38-.26c.48-.93,1.15-2.5,1.57-3.71h-20.89ZM186.14,233.39l1.44-1.73s1.7,1.22,2.75,2.14c-.06.35-.35.51-.8.51h-17.02l-.22-.93h13.85ZM179.36,223.09c6.27,1.47,4.32,6.08,2.11,4.41-.19-1.41-1.31-3.17-2.46-4.19l.35-.22Z"/><path class="cls-2" d="M205.38,235.82c-1.76,1.92-4.03,3.52-6.66,4.74l-.35-.51c2.69-1.73,4.93-4.03,6.34-6.53h-2.59v.45c0,.19-.8.61-1.57.61h-.26v-6.72l1.98.93h3.1v-2.02h-6.21l-.26-.93h6.46v-2.88l3.1.35c-.06.45-.38.74-1.15.86v1.66h3.2l1.38-1.66s1.5,1.15,2.5,2.08c-.1.35-.42.51-.86.51h-6.21v2.02h3.1l.99-1.06,2.14,1.66c-.16.19-.58.45-1.02.51v3.84c-.03.22-.96.67-1.57.67h-.29v-.9h-3.36v.99c7.04.77,6.34,4.96,4.16,4-.77-1.22-2.62-2.69-4.16-3.49v4.86c0,.26-.83.67-1.54.67h-.42v-4.74ZM225.15,248.81s1.7,1.31,2.72,2.27c-.06.35-.35.51-.8.51h-28l-.26-.93h6.4v-6.21l3.1.32c-.06.42-.35.7-1.06.83v5.06h5.06v-8.16h-11.07l-.29-.93h20.61l1.41-1.79s1.66,1.25,2.66,2.21c-.1.35-.38.51-.8.51h-10.43v3.3h5.57l1.47-1.82s1.63,1.31,2.69,2.24c-.1.35-.42.51-.86.51h-8.86v3.94h9.25l1.5-1.86ZM202.11,232.59h3.26v-2.88h-3.26v2.88ZM207.33,229.71v2.88h3.36v-2.88h-3.36ZM225.31,228.53c-.77,2.56-1.95,4.67-3.62,6.43,1.76,1.5,3.97,2.69,6.78,3.46l-.1.35c-.77.19-1.38.7-1.57,1.7-2.72-1.12-4.74-2.59-6.3-4.38-2.08,1.79-4.77,3.14-8.13,4.19l-.22-.48c3.17-1.31,5.6-2.94,7.39-4.9-1.09-1.54-1.92-3.23-2.59-5.12-.93,1.31-1.95,2.43-3.04,3.33l-.45-.35c1.73-2.27,3.33-5.86,4.16-9.63l3.14.99c-.16.35-.51.61-1.15.61-.38.99-.83,1.98-1.34,2.88h6.05l1.44-1.82s1.6,1.31,2.59,2.24c-.1.35-.38.51-.8.51h-2.24ZM217.41,229.07c.77,1.76,1.76,3.36,3.04,4.74,1.18-1.57,2.02-3.33,2.53-5.28h-5.22l-.35.54Z"/><path class="cls-2" d="M244.26,229.49c-.16.26-.7.51-1.34.64v19.61c-.03.22-1.02.77-1.7.77h-.32v-2.46h-6.69v2.66c0,.22-.77.74-1.63.74h-.35v-23.71l2.14,1.06h1.06c.42-1.63.93-4,1.22-5.66l3.36.8c-.16.45-.54.7-1.18.7-.64,1.18-1.57,2.85-2.34,4.16h4.1l1.18-1.31,2.5,2.02ZM234.21,229.74v8h6.69v-8h-6.69ZM240.9,247.12v-8.45h-6.69v8.45h6.69ZM259.87,229.49c-.22.26-.61.45-1.31.51-.22,11.84-.8,18.94-2.3,20.8-.9,1.09-2.14,1.57-3.71,1.57,0-.7-.13-1.31-.58-1.63-.51-.38-1.89-.74-3.2-.96l.03-.58c1.44.16,3.74.35,4.51.35.67,0,.9-.06,1.25-.42,1.18-1.18,1.66-8.48,1.89-19.42h-7.81c-1.34,2.66-2.94,4.99-4.67,6.72l-.48-.29c2.08-3.14,4.06-8.1,5.15-13.02l3.26.99c-.13.35-.48.67-1.18.64-.48,1.38-1.02,2.69-1.6,4h6.98l1.31-1.41,2.46,2.14ZM246.78,235.38c7.68,3.49,5.82,8.67,3.52,6.85-.38-2.18-2.27-4.93-3.87-6.62l.35-.22Z"/><path class="cls-2" d="M289.15,248.46s1.82,1.41,2.88,2.43c-.06.32-.35.48-.83.48h-28.29l-.22-.93h13.5v-3.62h-10.75l-.29-.96h11.04v-3.23h-7.17v.64c0,.22-.9.7-1.76.7h-.32v-11.74l2.27,1.02h6.98v-3.01h-12.73l-.29-.93h13.02v-2.94c-3.52.32-7.23.51-10.72.54l-.1-.64c7.1-.51,15.97-1.92,20.73-3.23l2.14,2.18c-.29.22-.9.22-1.66-.13-2.37.38-5.22.77-8.29,1.09v3.14h8.99l1.5-1.89s1.76,1.34,2.85,2.34c-.1.32-.42.48-.86.48h-12.48v3.01h6.91l1.15-1.28,2.62,1.98c-.22.26-.7.51-1.38.64v8.51c-.03.13-1.09.58-1.76.58h-.32v-1.06h-7.23v3.23h7.49l1.44-1.73s1.7,1.25,2.69,2.18c-.1.35-.38.51-.8.51h-10.81v3.62h9.28l1.57-1.98ZM269.03,234.22v3.2h7.17v-3.2h-7.17ZM276.19,241.68v-3.33h-7.17v3.33h7.17ZM278.3,234.22v3.2h7.23v-3.2h-7.23ZM285.54,241.68v-3.33h-7.23v3.33h7.23Z"/><path class="cls-2" d="M312.42,227.09s1.31,1.06,2.14,1.92c-.06.35-.38.51-.8.51h-3.1v3.04c-.03.19-.99.67-1.63.67h-.32v-.58h-4.35v2.02h4.9l1.15-1.44s1.28,1.06,2.11,1.86c-.1.32-.38.48-.8.48h-7.36v2.02h5.28l1.22-1.57s1.44,1.12,2.37,1.95c-.1.35-.42.51-.83.51h-17.53l-.22-.9h7.81v-2.02h-6.62l-.26-.9h6.88v-2.02h-6.05l-.29-.93h6.34v-2.21h-7.58l-.26-.96h7.84v-2.21h-5.79l-.29-.96h6.08v-2.27l3.01.35c-.06.45-.35.74-1.09.86v1.06h4.06l1.09-1.15,2.4,1.82c-.19.26-.7.48-1.25.61v1.89h.58l1.18-1.47ZM294.69,249.61c3.17-.03,10.56-.38,18.33-.8l.03.58c-3.81.67-9.02,1.44-16.32,2.4-.19.38-.51.58-.86.64l-1.18-2.82ZM308.77,248.17v-.9h-10.3v.58c0,.16-.64.64-1.6.64h-.29v-9.25l2.3.99h9.57l1.12-1.18,2.43,1.86c-.19.22-.74.48-1.31.61v5.98c-.03.22-.99.67-1.63.67h-.29ZM298.47,241.17v2.08h4.1v-2.08h-4.1ZM298.47,246.32h4.1v-2.11h-4.1v2.11ZM304.35,228.56h4.35v-2.21h-4.35v2.21ZM308.7,229.52h-4.35v2.21h4.35v-2.21ZM304.42,241.17v2.08h4.35v-2.08h-4.35ZM308.77,246.32v-2.11h-4.35v2.11h4.35ZM316.99,244.81c0,.29-.83.74-1.54.74h-.38v-19.49l3.07.32c-.1.45-.35.77-1.15.86v17.57ZM323.68,224.08c-.1.45-.42.74-1.18.83v24.48c0,1.7-.35,2.72-3.2,3.04-.06-.64-.26-1.18-.7-1.5-.42-.35-1.18-.61-2.59-.8v-.51s3.14.26,3.78.26c.58,0,.74-.19.74-.67v-25.47l3.17.35Z"/><path class="cls-2" d="M334.05,234.51c6.14,2.98,4.45,6.82,2.53,5.34-.35-1.41-1.5-3.3-2.53-4.61v16.38c0,.29-.86.74-1.6.74h-.38v-15.39c-1.25,3.01-2.94,5.76-5.15,8.13l-.42-.42c2.56-3.68,4.16-8.42,5.09-13.21h-4.48l-.26-.96h5.22v-7.36l3.1.38c-.1.45-.35.77-1.12.9v6.08h1.09l1.41-1.79s1.54,1.28,2.5,2.24c-.1.35-.42.51-.86.51h-4.13v3.04ZM355.01,233.87c-.26.29-.58.38-1.31.45-.9,3.84-2.27,7.46-4.58,10.59,2.08,2.27,4.61,3.97,7.55,5.09l-.06.38c-1.02.26-1.86.93-2.08,1.95-2.69-1.38-4.93-3.33-6.69-5.86-2.11,2.34-4.86,4.32-8.51,5.82l-.32-.45c3.36-1.76,5.95-4.06,7.94-6.78-1.76-2.98-3.01-6.66-3.68-11.07h-1.34c-.06,5.73-.77,13.18-5.82,18.4l-.48-.32c3.81-5.66,4.35-12.61,4.35-19.07v-8.48l2.34.99h9.44l1.47-1.86s1.63,1.31,2.66,2.3c-.06.35-.35.51-.8.51h-13.15v6.56h9.44l1.34-1.28,2.3,2.11ZM344,234c.77,3.81,2.14,6.98,4,9.47,1.7-2.85,2.85-6.05,3.52-9.47h-7.52Z"/><path class="cls-2" d="M369.19,242.45c-1.92,1.02-4.7,2.56-8.45,4.38-.13.38-.38.67-.67.8l-1.47-2.75c.86-.19,2.27-.54,3.97-1.02v-10.62h-3.68l-.26-.96h3.94v-8.29l3.2.35c-.1.45-.38.77-1.18.86v7.07h1.06l1.31-1.79s1.5,1.28,2.4,2.24c-.1.35-.38.51-.83.51h-3.94v10.05c1.44-.42,2.94-.83,4.51-1.31l.1.48ZM387.46,249.77c.64.22.8.45.8.86,0,.8-.86,1.15-5.15,1.15h-2.85c-2.18,0-2.59-.48-2.59-1.86v-10.85h-2.34v.32c-.06,3.26-.74,9.22-7.74,12.99l-.35-.42c5.38-4.22,6.11-9.28,6.14-12.61v-.29h-1.79v1.22c0,.16-.64.61-1.63.61h-.32v-14.94l2.34,1.02h2.3c.42-1.15.96-2.82,1.31-3.97l3.39.99c-.16.45-.58.64-1.25.58-.64.7-1.57,1.63-2.34,2.4h7.78l1.06-1.25,2.3,1.79c-.22.26-.54.45-1.22.54v11.87c0,.13-.8.61-1.73.61h-.29v-1.47h-3.81v10.37c0,.48.1.64,1.09.64h2.56c1.15,0,2.08-.03,2.43-.06.29-.03.45-.1.54-.32.22-.38.54-1.82.8-3.23h.45l.1,3.3ZM371.58,227.92v4.54h4.7v-4.54h-4.7ZM371.58,238.16h4.7v-4.74h-4.7v4.74ZM378.18,227.92v4.54h5.12v-4.54h-5.12ZM383.3,238.16v-4.74h-5.12v4.74h5.12ZM384.67,241.45c-.13.29-.48.58-1.09.51-.58,1.12-1.41,2.53-2.21,3.58.9-.1,2.05-.26,3.17-.42-.26-.7-.61-1.38-.93-1.89l.35-.19c3.9,2.4,2.27,5.34.99,4.03,0-.38-.06-.8-.16-1.25-.96.45-2.24,1.02-3.46,1.47-.16.29-.38.51-.58.61l-1.06-2.21s.42-.13.58-.22c.7-1.06,1.47-3.9,1.66-5.25l2.72,1.22Z"/><path class="cls-2" d="M80.71,286.18c-.13.35-.51.64-1.22.64-.83,2.37-1.86,4.67-3.01,6.78l1.22.48c-.1.29-.38.51-.96.58v19.1c-.03.16-.9.64-1.66.64h-.35v-17.79c-1.18,1.86-2.46,3.46-3.81,4.8l-.45-.32c2.66-3.84,5.34-9.92,6.94-15.93l3.3,1.02ZM99.46,310.94c.77,1.12.9,1.66.51,2.08-.83.9-2.53,0-3.78-1.18-3.46-3.2-5.34-8.26-6.21-13.98h-7.23v10.21c1.98-.67,4.64-1.63,7.3-2.59l.16.48c-1.86,1.06-5.12,2.98-8.7,4.93-.22.32-.48.54-.67.64l-1.44-2.75c1.12-.54,1.31-.77,1.31-1.38v-19.42l3.17,1.02c4.22-.99,8.83-2.53,11.39-3.68l2.46,2.18c-.29.29-.86.29-1.63-.03-1.34.38-2.94.77-4.77,1.12-.06,2.62.1,5.54.54,8.35h3.36l1.5-1.92s1.73,1.34,2.75,2.34c-.06.35-.38.51-.83.51h-6.62c.86,4.96,2.56,9.54,5.41,11.84.45.42.7.42.93-.16.29-.74.8-2.05,1.15-3.26l.42.06-.48,4.61ZM92.58,310.46s1.44,1.15,2.4,2.05c-.1.35-.42.51-.83.51h-12.03l-.26-.93h9.44l1.28-1.63ZM89.82,296.93c-.35-2.56-.54-5.25-.58-7.97-2.11.42-4.35.74-6.5.99v6.98h7.07Z"/><path class="cls-2" d="M113.22,298.05c-.22.29-.51.38-1.18.45-.51,3.46-1.34,6.82-3.07,9.73,3.42,2.75,8.22,3.3,15.14,3.3,1.86,0,5.86,0,8-.03v.42c-.96.16-1.44.83-1.5,1.7h-6.69c-7.3,0-12.22-.8-15.68-4.22-1.34,1.95-3.2,3.65-5.66,5.02l-.26-.48c2.18-1.57,3.78-3.52,4.93-5.7-1.44-1.79-2.59-4.22-3.55-7.39l.48-.26c.93,2.85,2.14,4.96,3.58,6.56,1.25-2.69,1.89-5.73,2.24-8.86h-3.62l-.9.77-1.95-1.6c.29-.19.74-.38,1.18-.51,1.18-2.14,2.88-5.6,3.87-7.9h-5.76l-.29-.93h6.08l1.18-1.22,2.43,2.18c-.29.32-.93.45-1.66.48-.93,2.05-2.66,5.44-3.9,7.78h3.1l1.22-1.22,2.24,1.95ZM130.11,290.98s1.54,1.28,2.37,2.21c-.1.35-.35.51-.8.51h-3.49v4.61c-.03.22-1.02.7-1.7.7h-.29v-1.02h-4.7v3.3h4.42l1.34-1.73s1.57,1.22,2.53,2.18c-.1.35-.35.51-.8.51h-7.49v3.36h5.86l1.5-1.89s1.7,1.31,2.78,2.3c-.1.35-.38.51-.83.51h-9.31v3.46c0,.32-.86.7-1.63.7h-.42v-4.16h-7.87l-.26-.93h8.13v-3.36h-6.14l-.26-.96h6.4v-3.3h-5.7l-.29-.96h5.98v-3.33h-8.35l-.26-.93h8.61v-3.29h-5.7l-.29-.93h5.98v-3.42l3.2.35c-.1.48-.35.8-1.15.93v2.14h4.38l1.15-1.25,2.5,1.92c-.19.26-.7.51-1.34.64v2.91h.67l1.25-1.79ZM121.5,292.77h4.7v-3.29h-4.7v3.29ZM126.21,293.7h-4.7v3.33h4.7v-3.33Z"/><path class="cls-2" d="M141.12,289.22h-6.18l-.22-.96h6.27l-.42-3.1,3.04.26c-.03.38-.29.7-.96.86l.29,1.98h2.56l1.38-1.73s1.54,1.22,2.46,2.18c-.06.35-.38.51-.8.51h-5.44l.32,2.27c-.29.38-.99.61-1.92.58l-.38-2.85ZM149.95,311.13c0,1.57-.26,2.43-2.46,2.66-.03-.51-.13-1.02-.42-1.34-.32-.29-.8-.48-1.63-.64v-.51s1.76.13,2.18.13.51-.13.51-.54v-11.84h-4.13v13.54c-.03.13-.61.58-1.38.58h-.22v-14.11h-4.19v14.72c0,.13-.64.67-1.57.67h-.29v-17.31l2.24.96h3.68v-5.98l2.98.32c-.06.45-.35.74-1.12.83v4.83h3.71l.93-1.12,2.37,1.76c-.16.22-.64.48-1.18.58v11.84ZM136.96,292.51c5.41,2.53,3.65,6.24,1.89,4.77-.22-1.47-1.34-3.36-2.27-4.54l.38-.22ZM138.43,309.63c.74-2.3,1.28-5.5,1.44-8.48l2.53.42c-.1.42-.38.74-1.09.8-.42,2.66-1.18,5.57-2.34,7.52l-.54-.26ZM145.19,301.31c3.78,4.64,2.24,8.22.86,6.69.06-2.02-.7-4.8-1.38-6.59l.51-.1ZM145.6,297.38c.74-1.22,1.63-3.2,2.37-5.09l2.82,1.22c-.16.35-.54.61-1.15.51-1.09,1.34-2.43,2.78-3.55,3.68l-.48-.32ZM161.63,297.69c-.7,3.9-1.95,7.26-3.94,10.11,1.47,1.95,3.46,3.52,6.02,4.61l-.1.32c-.9.19-1.57.7-1.82,1.7-2.27-1.34-3.97-3.07-5.25-5.15-1.7,1.98-3.84,3.65-6.59,5.09l-.29-.45c2.59-1.76,4.58-3.81,6.11-6.14-1.15-2.33-1.89-5.06-2.37-8.03-.8,1.44-1.66,2.69-2.59,3.74l-.51-.29c1.44-2.72,2.75-6.85,3.42-10.82l3.23.77c-.13.42-.48.7-1.15.7-.29.99-.64,1.95-1.02,2.91h4.7l1.41-1.79s1.6,1.25,2.62,2.21c-.1.35-.42.51-.83.51h-1.06ZM161.57,286.53s1.54,1.22,2.5,2.18c-.06.35-.38.51-.8.51h-6.85l-.45,2.59c-.35.32-1.15.42-2.02.19l.48-2.78h-4.06l-.26-.96h4.48l.54-3.14,3.01.64c-.13.38-.45.74-1.25.74l-.32,1.76h3.65l1.34-1.73ZM154.4,297.69c-.16.35-.32.7-.51,1.06.61,2.82,1.47,5.38,2.75,7.52,1.38-2.56,2.24-5.44,2.62-8.58h-4.86Z"/><path class="cls-2" d="M177.09,296.22c3.1,1.18,5.09,2.62,6.24,4.29.45.7.77,1.54.7,2.3-.03.61-.42,1.09-1.06,1.09-.58,0-.93-.45-1.38-1.44-1.06-2.08-2.53-3.87-4.9-5.7l.38-.54Z"/><path class="cls-2" d="M208.71,286.18c-.13.35-.51.64-1.22.64-.83,2.37-1.86,4.67-3.01,6.78l1.22.48c-.1.29-.38.51-.96.58v19.1c-.03.16-.9.64-1.66.64h-.35v-17.79c-1.18,1.86-2.46,3.46-3.81,4.8l-.45-.32c2.66-3.84,5.34-9.92,6.94-15.93l3.3,1.02ZM227.46,310.94c.77,1.12.9,1.66.51,2.08-.83.9-2.53,0-3.78-1.18-3.46-3.2-5.34-8.26-6.21-13.98h-7.23v10.21c1.98-.67,4.64-1.63,7.3-2.59l.16.48c-1.86,1.06-5.12,2.98-8.7,4.93-.22.32-.48.54-.67.64l-1.44-2.75c1.12-.54,1.31-.77,1.31-1.38v-19.42l3.17,1.02c4.22-.99,8.83-2.53,11.39-3.68l2.46,2.18c-.29.29-.86.29-1.63-.03-1.34.38-2.94.77-4.77,1.12-.06,2.62.1,5.54.54,8.35h3.36l1.5-1.92s1.73,1.34,2.75,2.34c-.06.35-.38.51-.83.51h-6.62c.86,4.96,2.56,9.54,5.41,11.84.45.42.7.42.93-.16.29-.74.8-2.05,1.15-3.26l.42.06-.48,4.61ZM220.58,310.46s1.44,1.15,2.4,2.05c-.1.35-.42.51-.83.51h-12.03l-.26-.93h9.44l1.28-1.63ZM217.82,296.93c-.35-2.56-.54-5.25-.58-7.97-2.11.42-4.35.74-6.5.99v6.98h7.07Z"/><path class="cls-2" d="M235.04,290.11c.06,2.14-.83,3.55-1.73,4.13-.77.58-1.92.64-2.3-.1-.29-.67.13-1.28.77-1.66,1.31-.7,2.43-2.62,2.27-4.77l.58-.03c.16.51.26.99.32,1.47h21.12l1.28-1.38,2.5,2.37c-.26.26-.61.29-1.22.35-.7.99-1.95,2.43-2.94,3.3l-.42-.26c.32-.9.7-2.3.96-3.42h-21.18ZM242.24,302.3c-1.7,0-2.59-.13-3.07-.58-2.4.9-4.93,1.6-7.55,2.11l-.22-.58c2.53-.64,5.02-1.57,7.36-2.59v-8.19l2.88.32c-.03.38-.32.67-.93.77v6.14c4.61-2.37,8.45-5.31,10.75-8.51l2.5,1.7c-.26.29-.54.38-1.25.1-2.37,2.78-6.14,5.47-10.72,7.58h5.06c2.02,0,3.68-.03,4.29-.06.38-.06.58-.13.74-.35.26-.42.58-1.5.96-2.82h.35l.1,2.88c.77.22.99.42.99.83,0,.96-1.09,1.25-7.52,1.25h-4.7ZM236.13,293.95c.86,3.26-.35,5.31-1.6,6.11-.74.51-1.82.54-2.18-.16-.29-.64.16-1.25.77-1.6,1.25-.64,2.5-2.37,2.43-4.35h.58ZM253.82,304.8l3.26.35c-.06.45-.38.77-1.18.9v8c0,.22-.93.64-1.7.64h-.38v-1.82h-16.41l-.93,1.15-2.59-1.6c.29-.26.74-.54,1.18-.74v-6.85l3.26.35c-.06.48-.42.8-1.22.93v5.79h7.23v-8.61l3.14.32c-.06.42-.32.7-1.06.83v7.46h7.39v-7.1ZM242.91,290.62c5.5,1.82,3.84,5.92,1.95,4.42-.13-1.41-1.28-3.17-2.3-4.19l.35-.22ZM243.1,284.86c5.98.83,4.38,5.25,2.21,3.84-.26-1.28-1.47-2.82-2.53-3.58l.32-.26ZM253.38,294.3c7.55,2.5,5.92,7.68,3.65,6.05-.35-2.02-2.24-4.42-3.97-5.76l.32-.29Z"/><path class="cls-2" d="M267.91,297.31c0,5.31-.32,12.35-4.96,17.21l-.51-.35c3.07-4.93,3.39-11.1,3.39-16.83v-9.12l2.46,1.06h19.2l1.57-1.98s1.76,1.38,2.82,2.4c-.06.35-.38.51-.8.51h-23.17v7.1ZM287.74,304.06c-.29.26-.64.35-1.47.38-1.44,2.05-3.26,3.78-5.5,5.22,3.2,1.34,7.14,2.11,11.52,2.46l-.03.38c-.93.19-1.57.86-1.79,1.86-4.64-.67-8.45-1.79-11.46-3.65-3.52,1.82-7.84,3.04-12.93,3.65l-.22-.51c4.51-.9,8.51-2.27,11.74-4.13-1.86-1.47-3.36-3.26-4.48-5.57h-2.53l-.29-.96h13.66l1.54-1.25,2.24,2.11ZM282.46,301.82v-1.41h-6.88v1.12c0,.22-.9.64-1.63.64h-.38v-6.59h-4.64l-.26-.93h4.9v-3.52l3.17.32c-.06.45-.35.74-1.15.86v2.34h6.88v-3.52l3.2.32c-.06.45-.35.74-1.15.86v2.34h2.62l1.41-1.89s1.63,1.34,2.56,2.3c-.03.35-.35.51-.8.51h-5.79v5.57c0,.22-.9.67-1.63.67h-.42ZM273.92,304.16c1.25,1.95,2.98,3.49,5.12,4.64,1.95-1.28,3.55-2.85,4.74-4.64h-9.85ZM275.71,284.7c6.4,1.12,4.86,5.44,2.62,4.1-.48-1.25-1.82-2.91-2.94-3.84l.32-.26ZM282.46,299.45v-3.87h-6.88v3.87h6.88Z"/><path class="cls-2" d="M305.09,296.22c3.1,1.18,5.09,2.62,6.24,4.29.45.7.77,1.54.7,2.3-.03.61-.42,1.09-1.06,1.09-.58,0-.93-.45-1.38-1.44-1.06-2.08-2.53-3.87-4.9-5.7l.38-.54Z"/><path class="cls-2" d="M352.74,286.91s1.86,1.41,3.01,2.46c-.1.35-.42.51-.83.51h-27.49l-.29-.96h14.21c-.48-1.38-2.11-3.01-3.49-3.87l.29-.29c5.02.64,5.6,3.36,4.61,4.16h8.32l1.66-2.02ZM352.61,299.26l2.69,2.02c-.19.22-.7.51-1.34.61v9.66c0,1.63-.38,2.62-3.3,2.91-.1-.64-.22-1.15-.64-1.44-.48-.32-1.25-.61-2.62-.77v-.48s3.04.22,3.74.22c.58,0,.74-.22.74-.67v-9.85h-20.48v12.22c0,.22-.9.7-1.73.7h-.35v-14.88l2.3,1.02h19.93l1.06-1.28ZM346.94,299.2v-1.25h-10.91v.8c0,.16-.9.67-1.73.67h-.29v-8.06l2.18.99h10.43l1.15-1.25,2.62,1.95c-.22.26-.74.51-1.38.64v4.86c-.03.19-1.09.64-1.76.64h-.32ZM348.29,304.67c-.16.22-.64.48-1.18.58v5.25c-.03.19-1.02.67-1.7.67h-.32v-1.5h-7.42v1.28c0,.19-.9.64-1.66.64h-.32v-8.54l2.14.96h6.98l1.12-1.15,2.37,1.82ZM346.94,297.02v-3.71h-10.91v3.71h10.91ZM345.09,308.7v-3.74h-7.42v3.74h7.42Z"/><path class="cls-2" d="M361.31,305.69c.86,3.14.35,5.54-.42,6.66-.51.67-1.6.99-2.08.35-.38-.54-.1-1.25.48-1.7.83-.96,1.6-3.26,1.44-5.31h.58ZM367.14,286.62c-.13.29-.51.54-1.12.48-1.22,2.21-3.36,5.31-5.28,7.39,1.22.03,2.75.03,4.32,0,.77-1.28,1.38-2.43,1.76-3.36l2.72,1.86c-.16.22-.58.42-1.15.29-1.66,2.53-4.74,6.11-7.55,8.58,1.63-.06,3.94-.22,6.4-.45-.32-1.25-.83-2.56-1.34-3.46l.42-.19c4.9,3.74,2.88,7.58,1.25,5.86,0-.42-.06-.93-.16-1.44-1.73.48-4.22,1.15-6.82,1.73-.22.32-.51.51-.77.61l-.96-2.72s.64-.16.86-.32c1.47-1.34,3.23-3.65,4.7-5.92-1.09.32-2.37.67-3.68.96-.19.29-.45.48-.67.58l-1.09-2.75s.58-.13.77-.29c1.7-1.92,3.74-6.46,4.48-8.86l2.91,1.44ZM363.84,305.12c3.36,4.22,1.18,7.84-.19,6.05.32-1.89.1-4.29-.32-5.92l.51-.13ZM366.59,304.51c4.45,3.36,2.59,6.98,1.06,5.38.03-1.63-.77-3.87-1.47-5.18l.42-.19ZM376.7,305.63c-1.09.99-2.78,2.53-4.96,4.38-.03.42-.22.7-.48.86l-1.66-2.3c1.22-.51,4.1-1.89,6.91-3.33l.19.38ZM385.57,294.85s1.63,1.31,2.62,2.3c-.1.35-.38.51-.86.51h-7.84v13.76c0,1.57-.35,2.59-3.01,2.88-.03-.54-.19-1.02-.54-1.31-.42-.35-1.12-.58-2.4-.7v-.54s2.75.22,3.36.22c.54,0,.67-.16.67-.61v-13.69h-7.49l-.26-.96h9.98l.9-2.69h-7.04l-1.09,1.02-2.18-1.86c.38-.26.96-.48,1.5-.61.99-2.18,2.27-5.57,2.82-7.36l2.98.61c-.13.42-.45.77-1.28.74-.16.51-.38,1.09-.64,1.73h6.43l1.09-1.09,2.08,1.89c-.22.26-.51.32-1.12.35l-2.34,7.26h2.24l1.41-1.86ZM371.58,299.1c5.79,2.43,4.13,6.21,2.24,4.77-.32-1.44-1.57-3.39-2.59-4.51l.35-.26ZM380.96,293.06l1.25-3.81h-6.82c-.51,1.31-1.12,2.72-1.6,3.81h7.17ZM387.04,300.45c-.16.22-.45.29-1.06.13-1.18.9-3.42,2.37-4.93,3.33l-.29-.35c1.18-1.28,2.91-3.55,3.87-4.93l2.4,1.82ZM381.25,305.37c7.55,1.63,7.17,6.98,4.86,5.7-1.06-1.63-2.66-3.94-5.12-5.31l.26-.38Z"/><path class="cls-2" d="M391.14,287.62l-.26-.93h24.83l1.44-1.79s1.7,1.25,2.75,2.21c-.1.35-.38.51-.83.51h-9.09v2.11h4.9l1.09-1.12,2.4,1.79c-.16.22-.64.48-1.18.58v3.58c-.03.13-.51.38-.99.51.45.38,1.34,1.12,2.05,1.76-.1.35-.38.51-.83.51h-13.28c-.26.42-.54.83-.83,1.25l.93.42h9.38l1.09-1.12,2.4,1.79c-.19.22-.67.45-1.18.58v4.86c-.03.19-1.02.67-1.7.67h-.32v-.74h-9.82v.26c0,.19-.9.64-1.66.64h-.29v-5.76c-.86.99-1.76,1.95-2.72,2.69l-.42-.32c1.73-1.95,3.36-5.44,4.13-8.13l3.14.7c-.1.32-.35.45-1.12.42-.13.29-.29.58-.45.86h9.95l.99-1.22h-.45v-.99h-19.58v.64c0,.19-.93.61-1.7.61h-.32v-6.75l2.24,1.02h4.74v-2.11h-9.41ZM398.08,303.17c-.1.29-.42.45-.96.54v10.02c-.03.16-.9.64-1.63.64h-.38v-9.5c-1.22,1.02-2.5,1.92-3.87,2.69l-.32-.42c2.85-2.24,5.6-5.82,6.91-8.48l2.72,1.38c-.19.32-.45.45-1.22.32-.54.77-1.25,1.63-2.08,2.5l.83.32ZM391.23,301.22c2.53-1.76,5.06-4.67,6.3-6.78l2.59,1.38c-.19.32-.48.45-1.18.29-1.57,1.86-4.42,4.16-7.33,5.57l-.38-.45ZM395.59,293.28h4.96v-2.59h-4.96v2.59ZM416.93,307.9c-.26.26-.64.32-1.44.35-1.18,1.18-2.66,2.21-4.35,3.01,2.69.54,5.63.86,8.64.99l-.03.38c-.83.19-1.44.83-1.63,1.79-3.49-.42-6.78-1.02-9.6-2.05-3.07,1.09-6.62,1.73-10.53,2.05l-.16-.54c3.2-.48,6.27-1.22,8.93-2.21-1.38-.61-2.62-1.28-3.74-2.14-1.02.7-2.24,1.31-3.52,1.76l-.32-.45c1.02-.54,2.05-1.28,2.91-2.05-.61-.58-1.18-1.15-1.7-1.82l.48-.38c.54.58,1.18,1.12,1.92,1.57,1.02-.96,1.86-1.98,2.37-2.88l2.85.67c-.13.32-.51.48-1.28.48-.19.22-.42.48-.67.7h7.39l1.38-1.15,2.11,1.92ZM402.5,287.62v2.11h5.5v-2.11h-5.5ZM402.5,293.28h5.5v-2.59h-5.5v2.59ZM405.02,308.06c-.32.29-.7.58-1.06.86,1.44.74,3.1,1.34,4.93,1.86,1.6-.8,2.94-1.7,4.03-2.72h-7.9ZM404.06,299.97v1.57h9.82v-1.57h-9.82ZM413.89,304.13v-1.66h-9.82v1.66h9.82ZM409.98,290.69v2.59h5.18v-2.59h-5.18Z"/><path class="cls-2" d="M436.8,298.46v15.36c0,.16-.67.64-1.73.64h-.32v-5.05c-2.43.64-5.54,1.47-9.57,2.46-.16.38-.45.58-.77.67l-1.25-2.66c.83-.06,2.02-.16,3.42-.29v-11.13h-3.36l-.29-.93h24.48l1.5-1.95s1.76,1.34,2.82,2.37c-.1.35-.42.51-.83.51h-14.11ZM429.73,295.9c0,.19-.93.67-1.76.67h-.32v-10.69l2.24,1.02h14.97l1.18-1.28,2.56,1.98c-.19.26-.7.51-1.34.64v7.39c-.03.19-1.09.64-1.76.64h-.32v-8.45h-15.46v8.06ZM434.75,298.46h-6.14v2.85h6.14v-2.85ZM434.75,302.27h-6.14v2.91h6.14v-2.91ZM428.61,309.34c1.86-.19,3.97-.48,6.14-.77v-2.46h-6.14v3.23ZM441.95,292.61s1.18.93,1.95,1.7c-.1.35-.35.51-.77.51h-11.58l-.26-.96h9.63l1.02-1.25ZM441.98,289.12s1.18.93,1.95,1.7c-.1.35-.35.51-.77.51h-11.58l-.26-.93h9.63l1.02-1.28ZM450.56,301.89c-.22.32-.54.38-1.28.42-.93,2.5-2.3,4.8-4.19,6.78,2.02,1.47,4.45,2.5,7.3,3.2l-.03.32c-.93.16-1.6.8-1.89,1.79-2.75-.96-4.99-2.27-6.72-4-1.79,1.47-3.9,2.75-6.5,3.68l-.29-.42c2.27-1.18,4.22-2.66,5.76-4.38-1.54-1.89-2.66-4.25-3.39-7.2h-1.89l-.29-.96h9.66l1.41-1.31,2.34,2.08ZM440,302.08c.83,2.4,2.08,4.35,3.81,5.95,1.34-1.86,2.4-3.84,3.04-5.95h-6.85Z"/><path class="cls-2" d="M461.73,289.73v20.57c0,1.63-.38,2.91-3.39,3.2-.06-.61-.26-1.22-.67-1.57-.51-.38-1.31-.64-2.82-.86v-.48s3.33.26,4,.26c.61,0,.8-.19.8-.67v-20.45h-4.86l-.26-.9h7.97l1.5-1.95s1.7,1.38,2.75,2.37c-.06.32-.38.48-.86.48h-4.16ZM463.49,313.98c2.98-1.38,6.5-3.78,8.22-5.92l2.66,1.66c-.16.29-.54.32-1.06.13-2.08,1.79-6.08,3.65-9.5,4.61l-.32-.48ZM481.54,285.5s1.73,1.31,2.78,2.34c-.1.35-.42.51-.8.51h-7.78c-.64,1.28-1.41,2.66-2.11,3.62h5.79l1.09-1.22,2.37,1.86c-.16.19-.61.45-1.12.54v14.37c-.03.22-1.02.7-1.76.7h-.32v-1.34h-9.98v1.09c0,.22-.83.74-1.73.74h-.35v-17.76l2.24,1.02h2.78c.22-.99.45-2.4.58-3.62h-7.26l-.26-.96h14.3l1.54-1.89ZM469.7,292.9v3.62h9.98v-3.62h-9.98ZM469.7,301.15h9.98v-3.71h-9.98v3.71ZM479.68,305.92v-3.81h-9.98v3.81h9.98ZM475.87,308.25c9.28,1.86,8.64,7.04,6.02,5.89-1.12-1.86-4.1-4.26-6.3-5.54l.29-.35Z"/><path class="cls-2" d="M502.05,303.52c2.5,4.99,7.68,7.58,14.4,8.7l-.06.35c-.9.16-1.6.8-1.86,1.86-6.34-1.7-10.62-4.64-12.89-10.21-1.22,4.35-4.45,7.74-14.85,10.24l-.26-.64c8.86-2.78,11.87-6.05,12.93-10.3h-12.38l-.29-.96h12.86c.22-1.18.32-2.4.38-3.71l3.46.32c-.06.48-.42.83-1.15.9-.1.86-.19,1.7-.35,2.5h9.47l1.57-1.95s1.79,1.38,2.91,2.4c-.06.35-.42.51-.86.51h-13.02ZM497.54,289.28c-.16.32-.45.48-1.18.35-1.82,2.88-5.22,6.46-9.18,8.67l-.32-.42c3.3-2.66,6.27-6.88,7.65-10.08l3.04,1.47ZM502.43,297.57c0,.26-.9.7-1.7.7h-.42v-13.09l3.3.35c-.06.45-.35.74-1.18.86v11.17ZM505.92,288.51c11.23,3.49,10.4,10.08,7.55,8.42-1.12-2.88-4.9-6.27-7.87-8.06l.32-.35Z"/><path class="cls-2" d="M545.06,310.08s1.89,1.41,3.04,2.5c-.1.35-.38.51-.83.51h-28.29l-.26-.96h13.44v-9.31h-9.6l-.26-.9h9.86v-8.13h-7.2c-1.73,3.01-3.81,5.54-6.02,7.42l-.42-.32c2.78-3.46,5.57-8.9,7.1-14.66l3.36,1.06c-.13.38-.54.67-1.25.64-.64,1.73-1.41,3.39-2.24,4.93h6.66v-7.71l3.33.38c-.1.45-.35.77-1.12.9v6.43h7.23l1.63-1.98s1.82,1.31,2.98,2.4c-.1.35-.42.51-.86.51h-10.98v8.13h6.05l1.66-2.02s1.82,1.41,2.98,2.43c-.06.32-.38.48-.83.48h-9.85v9.31h9.02l1.66-2.05Z"/><path class="cls-2" d="M550.82,292.58c6.82.8,5.63,5.44,3.33,4.19-.54-1.41-2.21-3.01-3.62-3.87l.29-.32ZM560.23,291.33c-1.44,3.94-4.16,11.26-4.64,12.8-.29.99-.51,1.95-.51,2.75.03,1.41.93,2.88.8,5.47-.06,1.38-.67,2.18-1.79,2.18-.58,0-.93-.58-.99-1.57.42-3.3.26-5.76-.45-6.21-.45-.32-.9-.42-1.6-.48v-.7h1.44c.38,0,.51,0,.83-.61q.58-1.15,6.3-13.76l.61.13ZM553.19,285.6c7.01,1.06,5.76,5.82,3.39,4.54-.51-1.5-2.27-3.3-3.68-4.26l.29-.29ZM577.31,293.06s1.79,1.41,2.85,2.4c-.1.35-.35.51-.8.51h-8.9v6.37h4.51l1.18-1.31,2.59,1.98c-.22.26-.74.51-1.38.64v9.82c-.03.22-1.06.74-1.76.74h-.32v-2.37h-11.87v1.79c0,.22-.86.7-1.73.7h-.32v-13.02l2.24,1.02h4.74v-6.37h-8.77l-.26-.93h9.02v-5.79c-2.69.35-5.54.64-8.26.77l-.13-.58c5.66-.77,12.58-2.56,16.19-4l2.5,2.3c-.32.26-.93.29-1.7-.03-1.82.42-4.06.86-6.5,1.22v6.11h5.31l1.54-1.98ZM563.42,303.23v7.68h11.87v-7.68h-11.87Z"/><path class="cls-2" d="M73.03,353.3c.9,3.26.54,5.89-.16,7.1-.48.8-1.63,1.22-2.11.58-.42-.54-.19-1.28.35-1.86.77-1.06,1.47-3.68,1.31-5.86l.61.03ZM78.05,347.47c-.1.45-.35.77-1.15.9v27.33c0,.29-.86.77-1.6.77h-.38v-29.37l3.14.38ZM77.6,352.34c4.77,3.14,2.88,6.78,1.25,5.22-.03-1.63-.9-3.74-1.66-5.02l.42-.19ZM98.11,367.79c-.16.26-.45.35-1.09.19-.93.64-2.62,1.57-4,2.37,2.05,1.5,4.51,2.62,7.14,3.2l-.03.35c-.77.13-1.38.67-1.57,1.57-4.32-1.47-7.55-4.26-9.5-8.38-.96.64-2.02,1.31-3.23,1.92v4.48c1.41-.35,3.17-.83,4.9-1.31l.1.48c-1.18.61-3.65,1.86-6.08,3.01-.19.48-.54.8-.83.93l-1.12-2.43c.96-.45,1.12-.64,1.12-1.12v-3.17c-1.86.83-3.94,1.54-6.05,2.02l-.29-.45c4.45-1.57,8.7-4.26,10.78-6.5l3.2.96c-.1.35-.54.51-1.44.48l-.48.32c.74,1.22,1.73,2.27,2.85,3.2,1.15-1.18,2.53-2.78,3.36-3.78l2.27,1.66ZM79.17,351.76l-.26-.96h16.93l1.5-1.95s1.76,1.38,2.85,2.4c-.1.35-.42.51-.83.51h-20.19ZM90.21,364.24c0,.26-.9.7-1.57.7h-.38v-2.02c-1.76.8-4.06,1.79-7.04,3.01-.13.38-.35.61-.67.67l-1.15-2.21c1.63-.26,5.22-1.15,8.86-2.14v-2.62l2.88.32c-.03.35-.29.61-.93.7v1.54c.48.03.93.1,1.31.13,1.79-.77,4.22-2.02,5.28-2.69l1.22,2.05c-.22.13-.48.06-.8-.16-.8.29-2.46.7-4.1,1.06,7.01,1.25,6.08,3.71,4.42,3.2-1.54-.83-4.8-2.02-7.33-2.82v1.28ZM80.13,359.98c7.49-.16,7.33,2.98,5.57,2.69-1.25-.64-3.87-1.63-5.79-2.18l.22-.51ZM95.74,359.5v-.64h-12.83v.29c0,.16-.83.58-1.6.58h-.29v-7.07l2.08.96h12.35l1.06-1.12,2.3,1.76c-.13.22-.64.48-1.18.58v4.06c-.03.19-.99.61-1.6.61h-.29ZM82.91,357.9h3.17v-3.36h-3.17v3.36ZM86.82,346.67c5.31,1.25,3.55,5.12,1.63,3.68-.13-1.18-1.06-2.62-1.95-3.42l.32-.26ZM87.87,354.54v3.36h2.88v-3.36h-2.88ZM95.74,357.9v-3.36h-3.2v3.36h3.2Z"/><path class="cls-2" d="M113.15,360.85c-1.06.54-2.3,1.22-3.74,1.98v10.56c0,1.7-.32,2.72-3.07,3.04-.1-.64-.26-1.22-.64-1.5-.38-.38-1.12-.61-2.37-.77v-.54s2.78.22,3.36.22c.54,0,.7-.16.7-.64v-9.31c-1.09.58-2.3,1.18-3.58,1.82-.1.42-.35.74-.67.83l-.99-2.69c1.02-.26,2.94-.86,5.25-1.6v-6.88h-4.48l-.22-.96h4.7v-7.3l3.2.35c-.1.45-.42.77-1.18.86v6.08h.64l1.28-1.79s1.5,1.31,2.37,2.24c-.1.35-.38.51-.8.51h-3.49v6.21l3.58-1.18.16.45ZM131.01,373.36c.83.29,1.06.48,1.06.9,0,1.09-1.31,1.41-8.51,1.41l-5.25-.03c-3.33,0-4.22-.51-4.22-2.56v-15.61c-.77.8-1.57,1.54-2.4,2.14l-.45-.32c2.5-2.82,4.83-7.33,6.11-12.25l3.3,1.15c-.13.35-.51.61-1.25.58-.38,1.02-.83,2.02-1.34,2.98h10.34l1.15-1.28,2.4,1.98c-.19.26-.61.42-1.25.51-.26,9.7-.86,14.3-2.18,15.74-.8.86-1.92,1.22-3.1,1.22,0-.61-.1-1.15-.45-1.5-.38-.29-1.34-.58-2.3-.74l.03-.54c1.06.06,2.69.22,3.26.22s.8-.06,1.09-.35c.93-.93,1.41-5.54,1.63-14.3h-11.14c-.67,1.22-1.44,2.37-2.27,3.36l1.22.54h5.22l1.06-1.18,2.4,1.79c-.19.22-.64.45-1.18.58v7.84c-.03.19-1.06.61-1.7.61h-.29v-1.34h-5.89v7.81c0,.8.26,1.12,2.34,1.12h5.18c2.4,0,4.19-.03,4.9-.1.51-.06.7-.16.93-.38.26-.45.67-1.7,1.06-3.33h.42l.1,3.36ZM116.1,357.49v6.5h5.89v-6.5h-5.89Z"/><path class="cls-2" d="M134.72,376.01c5.38-5.38,7.84-13.92,8.35-22.85l3.52.7c-.13.38-.38.58-1.28.54-.99,8.54-3.71,16.7-10.11,21.95l-.48-.35ZM155.94,350.45c-.45.48-1.28.77-2.53.83,1.12,9.54,3.65,18.53,10.85,23.01l-.16.35c-.93.19-1.73.96-2.11,1.76-6.53-5.28-8.51-13.92-9.54-25.63h-3.71l-.29-.96h3.2l1.15-1.7,3.14,2.34Z"/><path class="cls-2" d="M170.08,366.48v-13.41h-2.82l-.26-.96h3.07v-4.58l3.07.35c-.1.42-.38.7-1.06.83v3.39h5.79v-4.61l3.14.35c-.06.45-.35.77-1.12.86v3.39h.48l1.18-1.6s1.34,1.15,2.18,2.05c-.06.35-.38.51-.8.51h-3.04v13.41h.51l1.31-1.76s1.44,1.28,2.34,2.21c-.06.32-.38.48-.83.48h-16.54l-.26-.93h3.65ZM166.47,376.01c1.92-1.66,3.84-4.48,5.02-7.71l3.04,1.34c-.16.32-.61.54-1.25.45-1.63,2.85-3.97,5.02-6.4,6.34l-.42-.42ZM172.1,353.07v3.58h5.79v-3.58h-5.79ZM172.1,361.45h5.79v-3.84h-5.79v3.84ZM172.1,366.48h5.79v-4.1h-5.79v4.1ZM176.58,368.49c6.5,2.18,4.9,6.56,2.82,5.06-.35-1.6-1.92-3.65-3.2-4.8l.38-.26ZM196.16,349.81c-.22.26-.74.54-1.38.64v22.85c0,1.7-.35,2.72-3.26,3.04-.1-.64-.29-1.22-.7-1.5-.45-.35-1.25-.64-2.66-.8v-.54s3.17.26,3.84.26c.58,0,.77-.19.77-.7v-8.64h-6.21c-.38,4.48-1.73,8.83-5.95,11.93l-.48-.35c4.06-4.19,4.61-9.73,4.61-15.77v-12.13l2.37,1.02h5.34l1.02-1.31,2.69,2.02ZM192.77,363.44v-6.4h-6.05v3.14c0,1.09-.03,2.18-.1,3.26h6.14ZM186.72,350.06v6.08h6.05v-6.08h-6.05Z"/><path class="cls-2" d="M209.09,358.22c3.1,1.18,5.09,2.62,6.24,4.29.45.7.77,1.54.7,2.3-.03.61-.42,1.09-1.06,1.09-.58,0-.93-.45-1.38-1.44-1.06-2.08-2.53-3.87-4.9-5.7l.38-.54Z"/><path class="cls-2" d="M256.77,349.49s1.86,1.41,3.04,2.46c-.1.35-.42.51-.9.51h-12.61v4.16h8.51l1.12-1.31,2.66,2.02c-.19.26-.7.54-1.38.64v15.46c0,1.66-.38,2.75-3.46,3.07-.1-.67-.29-1.25-.77-1.57-.54-.35-1.38-.64-2.94-.83v-.48s3.52.29,4.29.29c.61,0,.8-.26.8-.74v-15.62h-19.23v18.14c0,.26-.86.8-1.73.8h-.35v-20.96l2.3,1.09h8.1v-4.16h-12.86l-.29-.93h13.15v-4.54l3.23.35c-.03.45-.35.77-1.15.86v3.33h8.83l1.63-2.05ZM246.3,369.33v5.95c0,.13-.67.58-1.73.58h-.32v-6.53h-6.82l-.26-.96h7.07v-3.97h-5.98l-.26-.96h8.48c.7-1.54,1.54-3.78,2.02-5.34l3.04.93c-.13.35-.51.61-1.22.58-.74,1.15-1.92,2.66-3.04,3.84h2.18l1.28-1.54s1.47,1.09,2.43,1.98c-.06.35-.38.51-.83.51h-6.05v3.97h3.39l1.44-1.7s1.6,1.22,2.62,2.14c-.1.35-.38.51-.83.51h-6.62ZM240,358.22c5.41,2.27,3.46,6.18,1.6,4.58-.13-1.44-1.12-3.3-1.98-4.38l.38-.19Z"/><path class="cls-2" d="M289.6,373.13c1.12.19,1.41.45,1.41.93,0,1.18-1.92,1.41-12.35,1.38h-7.9c-4.48,0-6.02-.58-6.02-3.42v-21.85h-1.28l-.26-.96h23.04l1.44-1.86s1.7,1.31,2.72,2.3c-.1.35-.38.51-.83.51h-22.91v21.6c0,1.41.61,1.95,3.9,1.95h8.29c3.71,0,6.69-.06,7.68-.16.64-.03.99-.06,1.38-.13.29-.06.74-.16,1.18-.32h.38l.13.03ZM275.65,371.66v-1.44h-4.64v1.38c0,.19-.8.64-1.57.64h-.29v-10.33l2.02.9h4.22l1.02-1.02,2.21,1.66c-.16.19-.61.45-1.09.51v7.1c-.03.19-.96.61-1.6.61h-.29ZM275.65,369.26v-5.5h-4.64v5.5h4.64ZM283.33,359.57h-8.54v.99c0,.19-.9.64-1.73.64h-.29v-9.21l2.18.96h8.1l1.12-1.18,2.43,1.86c-.19.22-.67.48-1.25.58v5.95c-.03.22-1.02.67-1.7.67h-.32v-1.25ZM283.33,358.61v-4.74h-8.54v4.74h8.54ZM286.53,371.53v-1.31h-4.7v.96c0,.19-.83.61-1.6.61h-.29v-9.89l2.05.9h4.26l1.06-1.12,2.3,1.79c-.16.19-.64.45-1.18.54v6.88c-.03.19-.96.64-1.6.64h-.29ZM286.53,369.26v-5.5h-4.7v5.5h4.7Z"/><path class="cls-2" d="M305.09,358.22c3.1,1.18,5.09,2.62,6.24,4.29.45.7.77,1.54.7,2.3-.03.61-.42,1.09-1.06,1.09-.58,0-.93-.45-1.38-1.44-1.06-2.08-2.53-3.87-4.9-5.7l.38-.54Z"/><path class="cls-2" d="M352.74,348.91s1.86,1.41,3.01,2.46c-.1.35-.42.51-.83.51h-27.49l-.29-.96h14.21c-.48-1.38-2.11-3.01-3.49-3.87l.29-.29c5.02.64,5.6,3.36,4.61,4.16h8.32l1.66-2.02ZM352.61,361.26l2.69,2.02c-.19.22-.7.51-1.34.61v9.66c0,1.63-.38,2.62-3.3,2.91-.1-.64-.22-1.15-.64-1.44-.48-.32-1.25-.61-2.62-.77v-.48s3.04.22,3.74.22c.58,0,.74-.22.74-.67v-9.85h-20.48v12.22c0,.22-.9.7-1.73.7h-.35v-14.88l2.3,1.02h19.93l1.06-1.28ZM346.94,361.2v-1.25h-10.91v.8c0,.16-.9.67-1.73.67h-.29v-8.06l2.18.99h10.43l1.15-1.25,2.62,1.95c-.22.26-.74.51-1.38.64v4.86c-.03.19-1.09.64-1.76.64h-.32ZM348.29,366.67c-.16.22-.64.48-1.18.58v5.25c-.03.19-1.02.67-1.7.67h-.32v-1.5h-7.42v1.28c0,.19-.9.64-1.66.64h-.32v-8.54l2.14.96h6.98l1.12-1.15,2.37,1.82ZM346.94,359.02v-3.71h-10.91v3.71h10.91ZM345.09,370.7v-3.74h-7.42v3.74h7.42Z"/><path class="cls-2" d="M369.79,370.48c-2.24,1.02-5.31,2.53-9.34,4.22-.13.38-.38.67-.7.77l-1.02-2.59c.9-.16,2.46-.54,4.32-1.06v-10.4h-3.9l-.26-.93h4.16v-4.8h-2.37l-.1-.35c-.61.7-1.25,1.31-1.86,1.86l-.42-.29c2.02-2.59,3.97-7.1,4.7-10.11l3.2.83c-.06.32-.38.58-1.18.61v.03c6.46,3.1,3.87,5.98,2.34,4.64-.45-1.06-1.38-2.72-2.56-4.13-.86,1.89-2.21,4.1-3.74,5.98h3.9l1.25-1.54s1.41,1.09,2.3,1.95c-.1.35-.42.51-.86.51h-2.75v4.8h.77l1.25-1.7s1.44,1.22,2.34,2.11c-.06.35-.38.51-.8.51h-3.55v9.89c1.47-.42,3.14-.86,4.74-1.34l.16.51ZM359.65,362.93c4.13,4.32,2.27,8.09.77,6.4.1-1.95-.58-4.54-1.25-6.24l.48-.16ZM365.66,369.33c.38-1.79.74-4.42.93-6.69l2.88.74c-.13.38-.45.67-1.09.7-.58,1.79-1.31,3.94-2.21,5.44l-.51-.19ZM387.62,374c.74,1.25.83,1.76.51,2.08-.77.83-2.43-.19-3.36-1.44-.99-1.22-1.73-2.72-2.3-4.35-1.79,2.43-4.16,4.54-7.3,6.11l-.35-.42c3.1-1.89,5.41-4.54,7.07-7.52-.96-3.68-1.34-8.22-1.47-13.31h-11.68l-.26-.93h4.77v-2.62h-3.1l-.26-.96h3.36v-3.3l2.94.32c-.06.42-.35.7-1.06.83v2.14h1.09l1.22-1.54s1.41,1.09,2.27,1.98c-.1.35-.38.51-.8.51h-3.78v2.62h5.25c-.06-2.27-.06-4.61-.06-7.1l3.2.38c-.06.42-.35.8-1.15.9-.03,1.95-.06,3.94-.06,5.82h2.11l1.34-1.73c-.32.1-.67,0-1.02-.29-.16-1.18-.96-2.59-1.66-3.49l.35-.22c3.68,1.38,3.52,3.58,2.46,3.97.26.22,1.66,1.34,2.53,2.18-.1.35-.42.51-.83.51h-5.28c.06,3.87.26,7.55.86,10.66.96-2.37,1.63-4.86,1.98-7.33l3.1.74c-.13.38-.38.61-1.25.61-.64,2.82-1.66,5.76-3.23,8.45.48,1.79,1.15,3.26,2.08,4.42.38.54.48.51.77-.16.32-.77.8-2.24,1.12-3.55l.38.06-.51,4.96ZM379.46,371.15c-1.98.67-4.9,1.66-8.83,2.85-.13.41-.38.61-.67.7l-1.31-2.4c.96-.13,2.62-.35,4.61-.67v-2.88h-3.71l-.26-.96h3.97v-2.5c-1.25.13-2.5.22-3.68.29l-.19-.61c2.75-.45,6.24-1.47,8.06-2.21l1.95,1.98c-.29.22-.83.19-1.47-.1-.77.13-1.76.29-2.82.42v2.72h1.22l1.18-1.31s1.31.93,2.14,1.76c-.1.35-.35.51-.77.51h-3.78v2.59c1.38-.22,2.82-.48,4.29-.74l.06.54ZM376.74,362.57v-.86h-5.02v.8c0,.13-.8.54-1.5.54h-.29v-7.04l1.95.86h4.61l.99-.99,2.14,1.63c-.16.19-.58.45-1.09.51v3.97c-.03.22-.93.58-1.5.58h-.29ZM376.74,360.78v-2.94h-5.02v2.94h5.02Z"/><path class="cls-2" d="M403.17,361.55c-1.31.67-2.85,1.44-4.67,2.37v11.71c0,.32-.86.8-1.6.8h-.42v-11.49c-1.12.54-2.27,1.09-3.55,1.7-.1.38-.38.67-.64.8l-1.41-2.62c1.15-.26,3.17-.9,5.6-1.66v-7.14h-2.88c-.64,2.46-1.44,4.77-2.46,6.59l-.54-.26c1.02-3.3,1.73-7.84,1.92-12.06l3.07.51c-.1.42-.42.7-1.09.77-.19,1.18-.42,2.37-.67,3.49h2.66v-7.81l3.17.35c-.1.45-.35.77-1.15.9v6.56h.99l1.38-1.89s1.66,1.31,2.62,2.34c-.06.35-.38.51-.83.51h-4.16v6.53l4.54-1.47.13.48ZM418.05,361.9s1.57,1.25,2.56,2.18c-.1.35-.38.51-.83.51h-5.12v9.06c0,1.63-.42,2.59-3.58,2.91-.13-.61-.29-1.06-.77-1.34-.61-.29-1.54-.54-3.2-.74v-.48s3.87.26,4.67.26c.67,0,.86-.19.86-.7v-8.96h-11.65l-.26-.93h11.9v-3.39l3.17.35c-.1.48-.38.74-1.15.83v2.21h1.98l1.41-1.76ZM401.38,352.46h7.62v-5.38l3.04.32c-.06.42-.32.7-1.02.83v4.22h4.9l1.41-1.79s1.6,1.25,2.62,2.21c-.1.35-.38.51-.83.51h-8.1v4.99h4.29l1.38-1.76s1.6,1.25,2.59,2.21c-.1.35-.38.51-.83.51h-15.52l-.26-.96h6.34v-4.99h-7.36l-.26-.93ZM403.84,365.68c6.94,2.75,5.38,7.17,3.26,5.66-.54-1.73-2.27-4-3.62-5.44l.35-.22Z"/><path class="cls-2" d="M449.6,373.13c1.12.19,1.41.45,1.41.93,0,1.18-1.92,1.41-12.35,1.38h-7.9c-4.48,0-6.02-.58-6.02-3.42v-21.85h-1.28l-.26-.96h23.04l1.44-1.86s1.7,1.31,2.72,2.3c-.1.35-.38.51-.83.51h-22.91v21.6c0,1.41.61,1.95,3.9,1.95h8.29c3.71,0,6.69-.06,7.68-.16.64-.03.99-.06,1.38-.13.29-.06.74-.16,1.18-.32h.38l.13.03ZM435.65,371.66v-1.44h-4.64v1.38c0,.19-.8.64-1.57.64h-.29v-10.33l2.02.9h4.22l1.02-1.02,2.21,1.66c-.16.19-.61.45-1.09.51v7.1c-.03.19-.96.61-1.6.61h-.29ZM435.65,369.26v-5.5h-4.64v5.5h4.64ZM443.33,359.57h-8.54v.99c0,.19-.9.64-1.73.64h-.29v-9.21l2.18.96h8.1l1.12-1.18,2.43,1.86c-.19.22-.67.48-1.25.58v5.95c-.03.22-1.02.67-1.7.67h-.32v-1.25ZM443.33,358.61v-4.74h-8.54v4.74h8.54ZM446.53,371.53v-1.31h-4.7v.96c0,.19-.83.61-1.6.61h-.29v-9.89l2.05.9h4.26l1.06-1.12,2.3,1.79c-.16.19-.64.45-1.18.54v6.88c-.03.19-.96.64-1.6.64h-.29ZM446.53,369.26v-5.5h-4.7v5.5h4.7Z"/><path class="cls-2" d="M465.09,358.22c3.1,1.18,5.09,2.62,6.24,4.29.45.7.77,1.54.7,2.3-.03.61-.42,1.09-1.06,1.09-.58,0-.93-.45-1.38-1.44-1.06-2.08-2.53-3.87-4.9-5.7l.38-.54Z"/><path class="cls-2" d="M513.25,367.63s1.89,1.41,3.04,2.43c-.1.35-.42.51-.83.51h-13.09v5.21c0,.13-.7.64-1.82.64h-.32v-5.86h-13.41l-.29-.93h13.69v-3.26h-6.82v.96c0,.19-.86.67-1.73.67h-.32v-12.42l2.27,1.06h15.26l1.18-1.28,2.56,1.95c-.19.26-.7.51-1.34.64v8.99c-.03.22-1.06.74-1.76.74h-.32v-1.31h-6.85v3.26h9.28l1.6-2.02ZM491.84,355.09c0,.19-.9.67-1.73.67h-.29v-8.03l2.18.96h5.41l1.12-1.25,2.53,1.89c-.19.26-.74.51-1.31.64v4.54c-.03.19-1.06.67-1.73.67h-.29v-1.02h-5.89v.93ZM491.84,349.58v3.65h5.89v-3.65h-5.89ZM493.41,357.58v3.42h6.82v-3.42h-6.82ZM500.22,365.42v-3.49h-6.82v3.49h6.82ZM502.37,357.58v3.42h6.85v-3.42h-6.85ZM509.22,365.42v-3.49h-6.85v3.49h6.85ZM504.96,354.77c0,.19-.9.64-1.73.64h-.32v-7.71l2.21.99h5.47l1.15-1.25,2.56,1.89c-.22.26-.74.51-1.31.64v4.67c-.03.19-1.06.67-1.76.67h-.32v-1.15h-5.95v.61ZM504.96,349.58v3.65h5.95v-3.65h-5.95Z"/><path class="cls-2" d="M547.49,373.2c.7.26.86.51.86.96,0,.96-.99,1.34-6.08,1.34h-3.42c-2.59,0-3.17-.51-3.17-2.27v-14.5h-5.41c-.48,9.06-2.62,14.43-11.62,17.76l-.22-.45c7.52-3.97,9.18-9.12,9.47-17.31h-8.8l-.26-.96h24.41l1.7-2.05s1.89,1.41,3.01,2.5c-.1.35-.38.51-.83.51h-9.38v14.02c0,.58.19.77,1.47.77h3.1c1.41,0,2.46,0,2.91-.06.38-.03.51-.13.64-.48.29-.61.67-2.85,1.09-5.15h.45l.06,5.38ZM522.47,350.86l-.26-.96h18.01l1.63-1.98s1.82,1.38,2.98,2.43c-.1.35-.42.51-.86.51h-21.5Z"/><path class="cls-2" d="M577.18,371.31s1.89,1.5,2.98,2.59c-.1.35-.38.51-.83.51h-28.48l-.26-.96h7.52c.86-3.3,1.89-7.81,2.85-12.22h-6.69l-.29-.93h7.17c.67-3.14,1.28-6.14,1.73-8.61h-9.98l-.29-.9h21.02l1.63-2.08s1.89,1.44,2.98,2.5c-.06.32-.42.48-.86.48h-12.32c-.48,2.46-1.12,5.5-1.76,8.61h7.49l1.22-1.31,2.59,1.98c-.22.26-.74.51-1.38.64v11.84h2.3l1.66-2.14ZM563.07,361.23c-.96,4.45-1.98,8.96-2.82,12.22h10.85v-12.22h-8.03Z"/><path class="cls-2" d="M97.25,429.95s1.7,1.18,2.78,2.14c-.06.35-.38.51-.83.51h-12.86v3.04c0,1.57-.48,2.53-3.55,2.78-.06-.54-.29-.99-.8-1.25-.48-.32-1.44-.54-3.14-.77v-.48s3.84.26,4.61.26c.67,0,.83-.16.83-.61v-2.98h-13.18l-.29-.96h13.47v-2.18h-9.7l-.26-.96h9.95v-2.34c-3.39.16-6.94.26-10.3.22l-.1-.67c6.75-.29,15.23-1.22,19.84-2.11l1.86,1.98c-.29.22-.86.22-1.54-.16-2.24.22-4.9.45-7.71.61v2.46h5.98l1.44-1.63s1.57,1.15,2.62,2.08c-.06.35-.38.51-.83.51h-9.22v2.18h9.38l1.54-1.7ZM74.98,415.39c.1,2.02-.7,3.42-1.63,4-.77.51-1.86.54-2.21-.19-.29-.74.19-1.34.86-1.76,1.18-.64,2.14-2.46,1.92-4.42l.54-.03c.19.51.32.99.38,1.44h9.44v-5.5l3.23.35c-.06.45-.38.77-1.15.86v4.29h3.39c.99-1.5,2.18-3.65,2.88-5.25l3.26,1.06c-.16.38-.61.61-1.25.58-1.02,1.09-2.53,2.53-3.97,3.62h5.31l1.38-1.38,2.5,2.4c-.22.22-.61.29-1.22.32-.7.96-2.02,2.3-3.01,3.1l-.42-.22c.29-.86.67-2.18.93-3.26h-21.18ZM76.19,409.31c6.5,1.7,4.83,6.3,2.69,4.74-.26-1.54-1.73-3.42-3.04-4.48l.35-.26ZM91.33,423.45v-.7h-11.97v.86c0,.16-.93.58-1.73.58h-.32v-7.55l2.21.99h11.49l1.12-1.15,2.46,1.82c-.19.22-.67.48-1.22.61v3.9c-.03.22-1.06.64-1.73.64h-.32ZM91.33,421.79v-3.2h-11.97v3.2h11.97Z"/><path class="cls-2" d="M112.86,422.46c-.99.61-2.24,1.38-3.68,2.21v10.62c0,1.76-.32,2.78-3.01,3.07-.06-.67-.22-1.22-.54-1.57-.42-.38-1.09-.64-2.3-.8v-.51s2.62.19,3.17.19.67-.16.67-.61v-9.18c-.99.54-2.02,1.15-3.17,1.76-.1.38-.35.74-.64.86l-1.15-2.62c.99-.29,2.78-.93,4.96-1.73v-6.85h-4.29l-.26-.96h4.54v-7.26l3.17.35c-.03.48-.35.8-1.15.9v6.02h.7l1.28-1.7s1.47,1.18,2.34,2.14c-.06.35-.38.51-.8.51h-3.52v6.08c1.12-.45,2.34-.93,3.52-1.41l.16.48ZM115.71,419.26c0,5.92-.35,13.7-5.34,19.17l-.48-.35c3.42-5.54,3.81-12.35,3.81-18.78v-9.31l2.43,1.02h12.1l1.06-1.06,2.3,1.7c-.16.22-.61.45-1.09.51v5.02c-.03.19-1.02.64-1.7.64h-.32v-1.06h-12.77v2.5ZM129.63,434.37s1.63,1.28,2.62,2.27c-.1.35-.42.51-.83.51h-17.41l-.26-.96h8.1v-4.58h-5.54l-.26-.93h5.79v-3.68l3.01.32c-.06.38-.35.67-1.02.8v2.56h3.07l1.31-1.66s1.44,1.18,2.34,2.08c-.1.35-.38.51-.8.51h-5.92v4.58h4.35l1.44-1.82ZM115.71,411.97v3.84h12.77v-3.84h-12.77ZM123.94,420.67c-1.31,1.5-3.23,3.3-4.96,4.64,2.14-.1,5.25-.35,8.54-.61-.77-.99-1.63-1.98-2.4-2.66l.35-.26c7.23,2.66,5.82,6.94,3.68,5.57-.22-.64-.64-1.31-1.15-2.02-2.37.54-5.89,1.31-9.7,2.02-.16.22-.38.35-.58.42l-.86-2.46s.45-.13.67-.19c1.34-.86,2.88-2.94,3.84-4.45h-4.96l-.26-.96h11.07l1.44-1.79s1.63,1.25,2.69,2.24c-.1.35-.42.51-.86.51h-6.56Z"/><path class="cls-2" d="M150.4,419.49c1.15,6.05,4.54,12.51,14.05,16.86l-.06.35c-1.12.13-1.89.54-2.21,1.76-8.9-4.9-11.46-12.54-12.38-18.94-.9,7.46-3.84,14.08-14.81,18.91l-.35-.58c9.34-4.99,12.1-11.23,12.93-18.37h-12.32l-.29-.93h12.7c.26-2.98.26-6.11.26-9.38l3.42.35c-.1.48-.35.8-1.09.93-.06,2.75-.1,5.47-.35,8.09h9.22l1.76-2.21s1.95,1.54,3.14,2.62c-.06.35-.35.51-.83.51h-12.77Z"/><path class="cls-2" d="M185.79,413.82c10.62,4.61,9.6,10.91,7.01,9.25-.29-1.02-.9-2.14-1.7-3.23-5.09.77-12.29,1.6-20.73,2.37-.19.26-.38.38-.58.48l-1.18-2.56s.64-.16.93-.32c3.68-2.34,8.61-7.71,10.59-10.72l3.01,1.5c-.16.32-.58.58-1.28.42-2.37,2.72-6.88,6.56-10.91,9.15,4.29-.1,11.77-.51,19.65-.99-1.5-1.92-3.46-3.78-5.15-5.02l.35-.32ZM189.66,423.94l2.62,2.05c-.19.29-.7.54-1.38.67v10.72c-.03.19-1.12.7-1.82.7h-.32v-2.4h-14.75v1.95c0,.22-.9.74-1.79.74h-.32v-14.14l2.3,1.06h14.21l1.25-1.34ZM188.77,434.72v-8.51h-14.75v8.51h14.75Z"/><path class="cls-2" d="M227.14,416.54c-.19.26-.7.51-1.34.64v10.98c-.03.19-1.12.67-1.82.67h-.35v-2.66h-9.31v11.39c0,.32-.93.86-1.73.86h-.42v-12.26h-9.31v2.3c0,.22-.86.7-1.76.7h-.32v-14.43l2.3,1.09h9.09v-6.75l3.3.38c-.06.45-.32.77-1.15.9v5.47h8.99l1.22-1.34,2.62,2.05ZM212.16,425.22v-8.45h-9.31v8.45h9.31ZM223.62,425.22v-8.45h-9.31v8.45h9.31Z"/><path class="cls-2" d="M244.8,422.46v15.36c0,.16-.67.64-1.73.64h-.32v-5.05c-2.43.64-5.54,1.47-9.57,2.46-.16.38-.45.58-.77.67l-1.25-2.66c.83-.06,2.02-.16,3.42-.29v-11.13h-3.36l-.29-.93h24.48l1.5-1.95s1.76,1.34,2.82,2.37c-.1.35-.42.51-.83.51h-14.11ZM237.73,419.9c0,.19-.93.67-1.76.67h-.32v-10.69l2.24,1.02h14.97l1.18-1.28,2.56,1.98c-.19.26-.7.51-1.34.64v7.39c-.03.19-1.09.64-1.76.64h-.32v-8.45h-15.46v8.06ZM242.75,422.46h-6.14v2.85h6.14v-2.85ZM242.75,426.27h-6.14v2.91h6.14v-2.91ZM236.61,433.34c1.86-.19,3.97-.48,6.14-.77v-2.46h-6.14v3.23ZM249.95,416.61s1.18.93,1.95,1.7c-.1.35-.35.51-.77.51h-11.58l-.26-.96h9.63l1.02-1.25ZM249.98,413.12s1.18.93,1.95,1.7c-.1.35-.35.51-.77.51h-11.58l-.26-.93h9.63l1.02-1.28ZM258.56,425.89c-.22.32-.54.38-1.28.42-.93,2.5-2.3,4.8-4.19,6.78,2.02,1.47,4.45,2.5,7.3,3.2l-.03.32c-.93.16-1.6.8-1.89,1.79-2.75-.96-4.99-2.27-6.72-4-1.79,1.47-3.9,2.75-6.5,3.68l-.29-.42c2.27-1.18,4.22-2.66,5.76-4.38-1.54-1.89-2.66-4.25-3.39-7.2h-1.89l-.29-.96h9.66l1.41-1.31,2.34,2.08ZM248,426.08c.83,2.4,2.08,4.35,3.81,5.95,1.34-1.86,2.4-3.84,3.04-5.95h-6.85Z"/><path class="cls-2" d="M270.91,434.59c-.06.26-.96.77-1.63.77h-.29v-2.24h-3.39v2.98c0,.22-.64.7-1.5.7h-.35v-26.14l2.02.99h2.91l1.12-1.25,2.43,1.92c-.19.26-.7.51-1.31.64v21.63ZM265.6,412.61v5.73h3.39v-5.73h-3.39ZM268.99,419.3h-3.39v5.82h3.39v-5.82ZM268.99,432.16v-6.08h-3.39v6.08h3.39ZM292.03,427.39c-.22.22-.58.35-1.18.42-.1,6.27-.38,9.05-1.31,9.98-.64.61-1.66.74-2.66.74,0-.42-.13-.77-.45-.96-.38-.29-1.34-.48-2.24-.61l-.03-.54c1.02.06,2.66.22,3.2.22.51,0,.74-.06.93-.29.54-.58.7-3.26.8-8.7h-10.62c-.35.38-.74.8-1.15,1.15l1.06.45h2.56v-1.41l2.3.29c-.06.32-.22.54-.74.64v.48h2.66l.86-.83,1.82,1.41c-.16.16-.51.35-.93.45v2.59c-.03.16-.83.45-1.31.45h-.26v-.45h-2.85v1.7l2.43-.19c-.35-.35-.7-.67-1.02-.9l.35-.29c4.51,1.02,3.33,3.9,1.86,2.94-.13-.35-.38-.74-.67-1.12-2.21.38-5.18.86-9.09,1.44-.16.38-.45.58-.74.67l-1.12-2.08c1.31-.03,3.68-.16,6.43-.38v-1.79h-2.94v.22c0,.13-.54.48-1.31.48h-.26v-3.9c-.58.51-1.15.99-1.76,1.38l-.42-.35c1.31-1.38,2.82-3.68,3.65-5.34l2.72.74c-.13.32-.35.42-1.12.35l-.22.29h9.5l.96-1.06c-.19.06-.35.1-.51.1h-.26v-.45h-11.52v.1c0,.16-.74.54-1.38.54h-.26v-5.41h-.03l-.83-1.95c1.28-.16,4.1-.54,6.94-1.02v-2.24l2.59.29c-.03.35-.29.61-.9.7v1.15c.38.03.77.03,1.12.06,1.22-.64,3.04-1.79,3.84-2.37l.26.35v-.48h-14.05v6.24c0,5.66-.29,12.45-4.8,17.09l-.51-.29c3.14-4.74,3.42-10.75,3.42-16.8v-11.49l2.27.99h13.34l1.09-1.12,2.4,1.82c-.16.22-.7.48-1.31.61v3.23c-.03.19-.96.61-1.57.61l.58.9c-.19.13-.42.1-.7-.13-.64.26-1.76.64-2.88.96,5.41.67,4.93,2.66,3.65,2.46l1.76,1.41c-.13.16-.48.35-.9.45v3.17c-.03.1-.35.32-.74.45l2.18,1.79ZM288.8,414.08v-2.34h-14.05v2.34h14.05ZM275.78,415.55c5.38-.06,4.93,2.66,3.46,2.24-.83-.58-2.46-1.38-3.71-1.82l.26-.42ZM281.89,418.18c-1.34.48-3.2,1.09-5.47,1.7-.06.19-.13.32-.22.42l1.44.67h11.1l.86-.86h-.06c-1.31-.54-3.9-1.41-5.95-1.92v1.89c0,.13-.74.42-1.31.42h-.38v-2.3ZM277.44,424.35h2.72v-2.46h-2.72v2.46ZM277.98,430.21v1.73h2.94v-1.73h-2.94ZM281.66,421.89v2.46h2.72v-2.46h-2.72ZM282.5,430.21v1.73h2.85v-1.73h-2.85ZM288.96,424.35v-2.46h-3.1v2.46h3.1Z"/><path class="cls-2" d="M320.83,412.35c-.26.29-.83.58-1.54.7v24.35c-.06.26-1.06.83-1.86.83h-.32v-2.46h-15.29v1.76c0,.29-.8.86-1.73.86h-.42v-27.87l2.34,1.09h14.75l1.28-1.47,2.78,2.21ZM301.83,412.54v6.69h15.29v-6.69h-15.29ZM301.83,420.16v6.78h15.29v-6.78h-15.29ZM317.12,434.85v-6.94h-15.29v6.94h15.29Z"/><path class="cls-2" d="M330.11,417.95v19.74c0,.26-.67.8-1.57.8h-.38v-28.7l2.11,1.02h6.85l1.09-1.09,2.3,1.76c-.16.22-.64.48-1.18.58v6.24c-.03.19-.99.58-1.63.58h-.29v-.93h-7.3ZM330.11,411.78v2.21h7.3v-2.21h-7.3ZM337.41,416.99v-2.05h-7.3v2.05h7.3ZM331.81,426.27s.45-.1.67-.19c1.22-.7,2.56-1.86,3.78-3.04-.9.19-1.98.38-2.94.51-.19.38-.45.58-.67.67l-.8-1.86s.38-.1.51-.16c1.41-.8,2.94-3.1,3.58-4.22l2.21,1.41c-.16.26-.58.51-1.22.35-.74.8-1.89,1.76-2.98,2.59.93-.03,2.05-.1,3.14-.16.86-.9,1.6-1.79,2.11-2.43l2.05,1.57c-.16.22-.61.45-1.25.22-1.38,1.38-3.71,3.23-5.98,4.67,1.38-.1,3.17-.29,5.06-.48-.35-.64-.74-1.25-1.12-1.7l.42-.22c4,2.05,2.59,4.74,1.25,3.58-.03-.35-.13-.7-.29-1.06-1.5.32-3.94.83-6.21,1.28-.16.22-.35.38-.51.45l-.8-1.79ZM338.21,427.71l2.82.32c-.1.38-.32.67-1.09.8v2.14c-.03,2.59-1.28,5.31-7.62,6.82l-.29-.48c4.06-1.22,5.57-3.01,6.02-4.93h-2.78l-.83,1.09-2.34-1.54c.22-.22.77-.48,1.22-.67v-3.36l2.75.32c-.06.42-.38.7-1.09.83v2.4h3.2c.03-.19.03-.35.03-.54v-3.2ZM348.06,423.87c3.94,2.08,2.53,4.8,1.22,3.65-.03-.35-.19-.8-.35-1.25-1.63.32-4.06.86-6.46,1.25-.19.22-.38.38-.54.45l-.77-1.82s.42-.1.64-.19c1.09-.58,2.34-1.57,3.46-2.62-.96.19-2.05.38-3.07.51-.16.22-.35.38-.51.45l-.8-1.86s.38-.1.54-.19c1.38-.7,3.04-2.91,3.71-3.97l2.21,1.41c-.16.29-.58.54-1.28.32-.8.8-2.08,1.82-3.3,2.59.99-.03,2.18-.1,3.39-.19.9-.86,1.63-1.73,2.11-2.37l2.11,1.54c-.19.26-.64.48-1.31.26-1.31,1.28-3.52,3.01-5.66,4.32,1.41-.13,3.33-.29,5.28-.51-.32-.58-.67-1.12-1.02-1.54l.42-.22ZM344.29,432.38v4.35c0,.26-.77.64-1.41.64h-.35v-9.63l2.91.32c-.03.48-.32.77-1.15.9v2.46h3.58v-3.3l2.82.29c-.06.45-.35.74-1.15.86v4.03c0,.22-.74.58-1.34.58h-.32v-1.5h-3.58ZM355.58,411.52c-.22.26-.74.54-1.38.64v23.2c0,1.66-.35,2.72-3.39,3.04-.13-.64-.32-1.18-.8-1.47-.54-.35-1.41-.61-3.01-.83v-.51s3.68.29,4.38.29.86-.19.86-.74v-17.21h-7.36v.51c0,.16-.86.58-1.63.58h-.32v-9.12l2.08.93h6.91l1.02-1.28,2.62,1.98ZM344.9,411.78v2.21h7.36v-2.21h-7.36ZM352.26,416.99v-2.05h-7.36v2.05h7.36Z"/><path class="cls-2" d="M369.82,432.48c-2.27,1.02-5.34,2.53-9.38,4.22-.13.38-.38.67-.7.77l-1.02-2.59c.9-.16,2.46-.54,4.32-1.06v-10.4h-3.94l-.22-.93h4.16v-4.8h-2.37l-.1-.29c-.61.7-1.28,1.34-1.92,1.89l-.42-.32c2.05-2.56,3.94-6.88,4.7-9.89l3.39.45c-.06.38-.38.58-1.18.64l-.03.06c6.69,2.98,4.1,6.02,2.46,4.67-.48-1.09-1.44-2.72-2.69-4.19-.9,1.92-2.21,4.16-3.78,6.05h3.97l1.25-1.54s1.41,1.09,2.3,1.95c-.1.35-.42.51-.86.51h-2.88v4.8h.77l1.28-1.7s1.41,1.22,2.3,2.11c-.06.35-.38.51-.8.51h-3.55v9.89c1.47-.42,3.14-.86,4.74-1.34l.19.51ZM359.65,424.96c4.29,4.29,2.3,8.1.74,6.4.13-1.98-.54-4.58-1.22-6.24l.48-.16ZM365.66,431.36c.38-1.79.77-4.42.96-6.72l2.91.8c-.1.32-.45.64-1.12.67-.58,1.79-1.31,3.97-2.21,5.47l-.54-.22ZM376.03,421.95c-.22.26-.51.35-1.15.42-.35,3.2-.9,6.27-2.11,9.06,2.05,3.39,5.06,4.26,9.44,4.26,1.44,0,4.54,0,6.14-.03v.45c-.74.1-1.15.8-1.18,1.63h-5.15c-4.64,0-7.81-1.09-9.86-5.09-1.28,2.27-3.17,4.26-6.02,5.86l-.32-.48c2.78-1.92,4.51-4.38,5.57-7.17-.67-1.73-1.15-3.84-1.57-6.46l.51-.16c.42,2.11.9,3.87,1.5,5.31.7-2.27,1.02-4.77,1.22-7.39h-1.76l-.9.83-1.82-1.54c.26-.16.67-.35,1.06-.51.9-2.21,2.18-5.95,2.85-8.38h-3.46l-.29-.96h3.62l1.02-1.09,2.24,1.89c-.26.26-.74.41-1.31.51-.64,2.14-1.95,5.79-2.88,8.29h1.38l1.12-1.15,2.11,1.92ZM375.62,412.19h3.26v-3.14l2.98.35c-.1.45-.35.77-1.15.9v1.89h2.53l.99-1.02,2.18,1.66c-.16.22-.61.45-1.09.51v3.14h.38l.93-1.5s1.12,1.12,1.73,1.95c-.06.35-.35.51-.77.51h-2.27v4.64c-.03.19-.93.64-1.54.64h-.29v-.86h-2.78v3.42h2.24l1.22-1.63s1.41,1.18,2.24,2.08c-.1.35-.38.51-.8.51h-4.9v3.2h2.82l1.28-1.73s1.47,1.25,2.34,2.18c-.1.35-.38.51-.8.51h-5.63v3.62c0,.29-.8.74-1.47.74h-.35v-4.35h-4.35l-.26-.96h4.61v-3.2h-3.68l-.26-.96h3.94v-3.42h-2.75l-.29-.96h3.04v-3.46h-4.93l-.26-.96h5.18v-3.33h-2.98l-.29-.96ZM380.7,413.15v3.33h2.78v-3.33h-2.78ZM383.49,417.44h-2.78v3.46h2.78v-3.46Z"/><path class="cls-2" d="M397.66,420.42c6.08,3.33,4.32,7.49,2.37,5.89-.26-1.57-1.31-3.55-2.37-5.02v16.38c0,.29-.86.8-1.57.8h-.45v-15.23c-1.22,3.1-2.88,5.92-5.06,8.35l-.45-.42c2.5-3.84,4.13-8.8,4.99-13.7h-4.22l-.26-.93h4.99v-7.58l3.17.35c-.1.48-.35.77-1.15.9v6.34h.83l1.34-1.79s1.54,1.28,2.53,2.21c-.1.35-.38.51-.83.51h-3.87v2.94ZM419.97,424.7c-.26.35-.58.45-1.34.29-1.66,2.34-3.46,4.32-5.44,6.02,8.83,3.46,7.52,8.54,4.9,6.98-.9-2.05-3.42-4.67-5.5-6.5-3.81,3.1-8.19,5.25-13.15,6.85l-.26-.54c7.17-3.07,13.41-7.36,17.79-14.78l3.01,1.7ZM401.34,415.65l-.26-.93h14.94l1.44-1.92s1.7,1.34,2.72,2.34c-.1.35-.38.51-.83.51h-9.7l2.14.96c-.16.26-.54.51-1.22.42-1.34,1.76-3.71,4.03-5.86,5.66,1.82-.13,4.35-.32,6.98-.51.93-1.25,1.82-2.59,2.66-4.03l2.88,1.5c-.22.32-.54.42-1.31.29-3.87,5.82-9.15,9.79-15.61,12.51l-.32-.54c4.19-2.24,7.9-5.06,11.01-8.83-1.82.45-4.22,1.02-6.75,1.5-.16.35-.42.54-.67.64l-1.02-2.53s.54-.13.74-.26c1.92-1.38,4.22-4.8,5.34-6.78h-7.3ZM407.87,408.9c6.53,2.27,4.67,6.56,2.53,4.99-.42-1.5-1.79-3.52-2.88-4.77l.35-.22Z"/><path class="cls-2" d="M426.95,418.88c1.38,5.6-.03,9.5-1.25,11.29-.74,1.12-1.98,1.73-2.66,1.12-.54-.45-.35-1.28.19-1.98,1.7-1.7,3.2-5.98,3.14-10.4l.58-.03ZM434.08,415.2c-.03.42-.35.74-1.12.86v17.76c0,.83.32,1.15,2.11,1.15h4.51c2.11,0,3.62-.03,4.26-.1.51-.06.7-.22.83-.58.29-.64.74-2.82,1.22-5.44h.42l.1,5.7c.83.26,1.06.51,1.06.96,0,1.12-1.34,1.5-7.94,1.5h-4.64c-3.07,0-4-.61-4-2.69v-19.52l3.2.38ZM439.97,418.02c-.64-2.66-3.14-6.21-5.09-8.42l.38-.26c8.86,4.86,7.23,10.59,4.7,8.67ZM450.08,430.33c-.51-2.82-1.76-7.55-4.58-10.69l.35-.29c8.48,6.27,6.4,13.31,4.22,10.98Z"/></g></svg>