<?xml version="1.0" encoding="UTF-8"?><svg id="_圖層_2" xmlns="http://www.w3.org/2000/svg" viewBox="0 0 82.38 74.89"><defs><style>.cls-1{fill:#fff;}</style></defs><g id="_圖層_2-2"><path class="cls-1" d="M31.92,35.11c0-3.4,0-6.63,0-9.86,0-6.47-.06-12.94,0-19.41.02-2.33,1.91-4.05,4.1-4.03,2.29.02,4,1.78,4.04,4.23.04,2.03.02,4.06.04,6.09,0,.09.06.18.09.26,3.51-.36,4.39.02,5.62,2.19,1.66.22,3.24.04,4.36.68,1.08.61,1.69,2.06,2.51,3.14-.1.11-.19.22-.29.33.31-.07.61-.16.92-.22,2.63-.48,4.94,1.2,4.98,3.87.08,5.57.23,11.16-.09,16.71-.34,6.06-3.61,10.39-9.27,12.58-5.72,2.2-11.01,1.09-15.45-3.14-4.37-4.17-8.58-8.51-12.83-12.81-1.77-1.8-1.79-4.29-.13-5.95,1.64-1.64,4.15-1.59,5.94.16,1.69,1.65,3.35,3.32,5.03,4.98.03.03.08.04.43.18Z"/><polygon class="cls-1" points="53.2 9.63 59.69 4.81 53.2 0 53.2 9.63"/><rect class="cls-1" x="45.92" y="3.02" width="8.92" height="3.58"/><polygon class="cls-1" points="17.83 9.63 11.34 4.81 17.83 0 17.83 9.63"/><rect class="cls-1" x="16.18" y="3.02" width="8.92" height="3.58" transform="translate(41.29 9.63) rotate(180)"/><path class="cls-1" d="M0,74.51c.45-.46.65-1.27.74-2.05l.54.15c-.1.83-.28,1.69-.76,2.19l-.52-.28ZM.18,71.32c.58-.02,1.31-.07,2.11-.11v-.92H.41v-.61h1.87v-.83H.52v-3.86h4.34v3.86h-1.9v.83h1.98v.61h-1.98v.89l2.15-.13v.61c-1.79.13-3.62.26-4.9.33l-.03-.65ZM1.1,68.3h1.27v-2.74h-1.27v2.74ZM1.68,66.02c.2.54.35,1.26.38,1.7l-.43.12c-.02-.47-.16-1.18-.35-1.73l.39-.1ZM2.19,72.43c.18.61.3,1.41.31,1.93l-.53.08c0-.53-.12-1.32-.29-1.95l.5-.06ZM3.24,72.32c.26.56.5,1.3.58,1.79l-.52.11c-.06-.49-.3-1.23-.56-1.79l.49-.11ZM4.24,65.56h-1.35v2.74h1.35v-2.74ZM3.1,67.79c.17-.48.39-1.29.49-1.81l.46.17c-.2.58-.41,1.32-.61,1.77l-.35-.13ZM4.27,72.07c.41.5.82,1.2,1,1.65l-.52.24c-.16-.46-.56-1.18-.94-1.69l.46-.19ZM7.88,67.73v2.14h1.97v4.86h-.71v-.49h-2.95v.54h-.7v-4.9h1.65v-5.27h.73v2.43h2.43v.7h-2.43ZM9.15,70.57h-2.95v2.99h2.95v-2.99Z"/><path class="cls-1" d="M17.62,72.61h4.77v.54h-4.77v.89c0,.42-.11.57-.43.67-.34.1-.89.1-1.82.09-.03-.18-.15-.4-.25-.57.7.02,1.35.01,1.51,0,.18,0,.24-.04.24-.2v-.88h-4.75v-.54h4.75v-.64h-3.82v-.52h3.82v-.63c-1.38.06-2.79.07-4.07.04-.01-.15-.07-.36-.12-.48,2.84.03,6.45-.08,8.23-.37l.55.43c-1.02.17-2.39.28-3.85.36v.65h3.66v.52h-3.66v.64ZM14.44,68.78h-2.23v-.45h2.23v-.38h-1.69v-1.94h1.69v-.4h-2.06v-.46h2.06v-.56h.61v.56h2.13v.46h-2.13v.4h1.76v.81c1.02-.35,1.21-.77,1.21-1.23v-.64h2.83v1.2c0,.24.02.31.18.31h.73c.13,0,.37-.01.49-.04.02.17.05.42.07.57-.11.05-.34.05-.55.05h-.82c-.63,0-.76-.25-.76-.9v-.63h-1.53v.1c0,.62-.28,1.27-1.45,1.7-.07-.12-.27-.35-.4-.46v1.1h-1.76v.38h2.2v.45h-2.2v.75h1.18v-.62h.58v1.08h-4.04v-1.08h.57v.62h1.1v-.75ZM13.3,66.77h1.14v-.39h-1.14v.39ZM14.44,67.58v-.43h-1.14v.43h1.14ZM15.05,66.38v.39h1.2v-.39h-1.2ZM16.25,67.15h-1.2v.43h1.2v-.43ZM21.49,67.44c-.29.68-.77,1.22-1.37,1.64.67.28,1.47.48,2.31.58-.15.13-.3.38-.39.55-.92-.15-1.78-.41-2.5-.8-.68.36-1.47.58-2.29.73-.07-.16-.18-.38-.3-.5.72-.11,1.41-.29,2.03-.55-.44-.31-.81-.67-1.08-1.09l.43-.15h-.61v-.54h3.27l.12-.02.37.15ZM18.49,67.86c.26.36.62.67,1.07.93.43-.25.79-.56,1.04-.93h-2.11Z"/><path class="cls-1" d="M34.28,66.13h-1.39v7.56c0,.56-.15.82-.55.95-.44.13-1.2.13-2.29.13-.06-.22-.21-.58-.33-.81.92.04,1.82.03,2.09.02.24-.01.31-.09.31-.31v-7.55h-7.76v-.75h9.91v.75ZM26.25,71.96v.9h-.72v-5.02h4.53v4.13h-3.81ZM26.25,68.54v2.71h3.08v-2.71h-3.08Z"/><path class="cls-1" d="M40.15,67.34c-.65,2.57-1.68,5.06-3.52,6.75-.11-.16-.35-.44-.49-.58,1.68-1.51,2.66-3.8,3.26-6.17h-2.84v-.73h3.02c.15-.68.27-1.37.38-2.03l.75.1c-.1.63-.22,1.28-.38,1.93h5.81v.73h-5.99ZM46.35,73.73v.72h-8v-.72h3.69v-3.47h-2.55v-.72h6.33v.72h-3.02v3.47h3.54Z"/><path class="cls-1" d="M52.44,67.42c-.3.79-.65,1.53-1.08,2.23h6.11v5.1h-.77v-.58h-5.11v.64h-.74v-4.37c-.59.82-1.3,1.55-2.14,2.15-.11-.18-.34-.44-.49-.59,1.61-1.11,2.7-2.76,3.43-4.58h-3.07v-.73h3.33c.25-.71.44-1.4.58-2.12l.77.16c-.16.65-.34,1.31-.56,1.96h5.61v.73h-5.87ZM51.58,70.37v3.08h5.11v-3.08h-5.11Z"/><path class="cls-1" d="M62.28,69.53c-.43-.35-1.26-.86-1.91-1.21l.43-.53c.64.33,1.49.82,1.93,1.16l-.45.58ZM60.73,74.14c.52-.84,1.22-2.29,1.75-3.52l.58.44c-.47,1.16-1.12,2.53-1.66,3.53l-.67-.45ZM62.97,66.67c-.44-.42-1.32-1.03-2.02-1.45l.45-.5c.7.4,1.59.99,2.05,1.38l-.48.57ZM70.49,68.01v1.85h-.72v-1.24h-5.9v1.24h-.7v-1.85h1.19v-3.03h4.94v3.03h1.19ZM69.37,74.02c0,.39-.09.57-.38.68-.29.11-.79.11-1.59.11-.03-.18-.11-.44-.21-.62.59.02,1.12.02,1.27.02.16-.01.21-.06.21-.2v-1.5c-1.2.27-2.41.54-3.38.75l-.25-.62c.93-.17,2.29-.44,3.62-.72v-1.87h-3.69v1.21c0,1.09-.15,2.58-.98,3.62-.12-.13-.41-.36-.57-.44.75-.95.84-2.23.84-3.2v-1.81h5.1v4.56ZM65.05,68.01h1.39v-1.61h2.15v-.8h-3.54v2.41ZM65.62,70.67c.9.09,2.04.35,2.65.61l-.21.55c-.62-.26-1.76-.54-2.67-.66l.24-.49ZM68.6,66.93h-1.51v1.09h1.51v-1.09Z"/><path class="cls-1" d="M82.38,67.59c-.13,4.72-.24,6.27-.62,6.74-.18.28-.4.36-.73.39-.31.03-.84.03-1.36,0-.02-.2-.1-.52-.22-.71.56.04,1.08.06,1.29.06.19,0,.29-.03.39-.17.27-.34.42-1.84.53-6.01h-1.7c-.13,2.98-.64,5.47-2.65,6.95-.11-.17-.37-.42-.56-.53.21-.16.41-.31.59-.49-1.74.21-3.52.41-4.8.56l-.1-.66c.67-.07,1.52-.15,2.46-.25v-1.02h-2.15v-.58h2.15v-.73h-2.12v-3.32h2.12v-.75h-2.47v-.58h2.47v-.81c-.73.07-1.47.11-2.14.13-.03-.17-.11-.41-.19-.56,1.66-.09,3.7-.29,4.85-.55l.38.57c-.61.13-1.38.25-2.21.34v.88h2.42v.58h-2.42v.75h2.21v3.32h-2.21v.73h2.22v.58h-2.22v.95c.74-.08,1.51-.16,2.28-.25v.07c1-1.36,1.3-3.21,1.4-5.34h-1.36v-.7h1.38c.02-.8.02-1.64.02-2.49h.71c0,.85-.01,1.69-.03,2.49h2.4v.39ZM73.39,69.21h1.5v-.85h-1.5v.85ZM74.9,70.62v-.88h-1.5v.88h1.5ZM75.58,68.36v.85h1.56v-.85h-1.56ZM77.14,69.74h-1.56v.88h1.56v-.88Z"/></g></svg>