<?xml version="1.0" encoding="UTF-8"?><svg id="_圖層_2" xmlns="http://www.w3.org/2000/svg" viewBox="0 0 791.72 153.76"><defs><style>.cls-1{fill:#fff;}</style></defs><g id="_圖層_2-2"><path class="cls-1" d="M65.32,11.65c-.1,1.38-.61,2.4-1.22,2.91-.58.51-1.7.64-2.08-.06-.29-.58.1-1.28.7-1.7.8-.54,1.76-1.98,1.82-3.26l.58.03c.1.38.16.77.16,1.15h14.08c.58-1.44,1.25-3.42,1.66-4.83l3.3,1.18c-.16.32-.54.58-1.22.48-.7.93-1.76,2.14-2.85,3.17h6.69l1.34-1.34,2.4,2.34c-.26.26-.58.29-1.22.32-.86.7-2.5,1.92-3.49,2.56l-.45-.22c.35-.64.93-1.82,1.34-2.72h-21.57ZM87.01,14.56s1.66,1.28,2.72,2.24c-.1.35-.42.51-.86.51h-14.43c-.13.96-.29,1.98-.58,2.94h8.51l1.18-1.22,2.4,1.95c-.19.26-.61.38-1.25.48-.29,4.16-1.02,6.78-2.21,7.71-.77.54-1.82.83-3.1.83,0-.58-.13-1.12-.58-1.44-.42-.35-1.63-.64-2.72-.8v-.54c1.25.13,3.39.29,4.03.29.54,0,.8-.06,1.09-.26.58-.51,1.12-2.72,1.41-6.05h-9.09c-1.22,3.14-3.97,6.11-10.78,8.45l-.38-.51c8.22-3.52,9.31-7.84,9.6-11.84h-8.64l-.29-.96h22.53l1.44-1.79ZM63.17,5.63l-.26-.96h22.65l1.5-1.89s1.73,1.34,2.82,2.33c-.1.35-.38.51-.83.51h-25.89ZM69.83,6.02c5.38,1.92,3.39,5.7,1.5,4.13-.13-1.31-1.09-2.94-1.86-3.94l.35-.19ZM73.86.19c5.86,1.25,4.16,5.54,2.08,4.1-.19-1.31-1.34-2.98-2.4-3.81l.32-.29ZM74.34,12c5.47,1.5,3.58,5.34,1.63,3.84-.22-1.22-1.22-2.75-1.98-3.68l.35-.16Z"/><path class="cls-1" d="M103.59,1.38c-.13.38-.54.67-1.25.67-.8,2.37-1.76,4.67-2.88,6.82l1.31.48c-.13.29-.42.48-.99.58v18.97c-.03.19-.9.67-1.7.67h-.38V12.03c-1.15,1.89-2.43,3.55-3.78,4.93l-.45-.32c2.59-3.94,5.25-10.17,6.69-16.25l3.42.99ZM120.45,10.98s1.7,1.28,2.72,2.27c-.06.35-.38.51-.83.51h-3.55v12.7c0,1.7-.45,2.94-3.52,3.26-.06-.7-.29-1.31-.7-1.63-.51-.38-1.44-.64-3.01-.86v-.48s3.62.26,4.32.26c.64,0,.83-.16.83-.61v-12.64h-15.55l-.26-.96h18.11l1.44-1.82ZM109.8,4.51c.22-1.22.32-2.62.35-4.19l3.26.29c-.06.38-.35.74-1.02.83-.06,1.12-.16,2.14-.35,3.07h5.25l1.5-1.89s1.76,1.31,2.82,2.3c-.1.35-.45.51-.86.51h-8.9c-.06.42-.19.83-.35,1.18,8.9,1.5,8.93,6.05,6.46,5.31-1.25-1.6-4.35-3.52-6.78-4.64-1.22,2.18-3.58,3.87-8.74,5.12l-.29-.61c4.83-1.66,6.69-3.62,7.49-6.37h-6.85l-.26-.93h7.26ZM113.12,24.06c0,.22-.99.7-1.66.7h-.32v-1.44h-5.02v1.54c0,.19-.86.64-1.66.64h-.29v-9.89l2.11.93h4.61l1.06-1.06,2.27,1.7c-.16.22-.58.45-1.09.51v6.37ZM111.14,22.37v-4.86h-5.02v4.86h5.02Z"/><path class="cls-1" d="M135.84,14.17c-1.02.54-2.24,1.22-3.65,2.02v10.4c0,1.73-.32,2.75-3.07,3.07-.1-.67-.26-1.25-.61-1.54-.45-.38-1.15-.61-2.4-.77v-.54s2.78.22,3.36.22c.54,0,.7-.16.7-.64v-9.12c-.99.51-2.05,1.06-3.2,1.63-.1.38-.35.7-.64.83l-1.18-2.66c.99-.26,2.82-.83,5.02-1.54v-6.94h-4.26l-.22-.96h4.48V.35l3.2.35c-.1.45-.42.77-1.18.86v6.08h.7l1.28-1.79s1.47,1.31,2.34,2.24c-.06.35-.35.51-.8.51h-3.52v6.27c1.15-.38,2.34-.77,3.52-1.18l.13.48ZM145.12,26.43c1.09.13,2.27.19,3.62.19,1.5,0,4.99,0,6.69-.03v.45c-.74.13-1.12.8-1.12,1.63h-5.7c-5.22,0-8.26-1.12-10.24-5.63-1.18,3.01-2.98,5.22-5.38,6.62l-.42-.38c2.56-2.5,4.29-6.21,4.77-11.07l3.17.64c-.1.42-.45.7-1.15.74-.19.93-.42,1.82-.7,2.62,1.09,2.05,2.5,3.2,4.42,3.78v-9.25h-6.43l-.26-.93h6.69v-3.3h-8.32l-.26-.96h8.58v-3.07h-6.05l-.29-.93h6.34v-2.75h-7.78l-.26-.93h8.03V.45l3.1.32c-.06.45-.32.77-1.06.86v2.24h5.41l1.5-1.92s1.7,1.38,2.75,2.37c-.1.32-.42.48-.86.48h-8.8v2.75h4.35l1.09-1.15,2.34,1.82c-.19.19-.64.45-1.15.54v2.78h.35l1.18-1.63s1.38,1.18,2.18,2.08c-.06.35-.35.51-.77.51h-2.94v4.83c-.03.19-1.02.67-1.7.67h-.29v-1.28h-4.64v3.97h3.74l1.44-1.73s1.66,1.25,2.66,2.14c-.1.35-.38.51-.8.51h-7.04v4.8ZM145.12,11.55h4.64v-3.07h-4.64v3.07ZM145.12,15.81h4.64v-3.3h-4.64v3.3Z"/><path class="cls-1" d="M167.4,16.03c-.26.29-.58.35-1.25.38-.54,2.3-1.6,4.99-3.3,7.04.19.06.32.16.51.35,2.85,2.82,6.43,3.26,12.77,3.23,3.81,0,7.01,0,10.94-.16l-.03.42c-.9.16-1.41.8-1.54,1.66h-9.98c-6.53,0-9.63-.9-12.54-4.29-.45-.45-.74-.38-1.02.03-.58.93-1.86,2.78-2.66,4.1.13.26.1.45-.13.67l-1.82-2.14c1.38-1.09,3.55-3.23,4.54-3.81,1.18-1.98,2.02-4.83,2.34-7.23h-3.2l-.93.77-1.73-1.66c.32-.16.8-.38,1.28-.48,1.12-1.54,2.66-3.84,3.65-5.54h-5.06l-.29-.93h5.5l1.06-1.09,2.24,1.95c-.29.29-.86.45-1.57.48-.93,1.5-2.53,3.9-3.74,5.57h2.59l1.22-1.22,2.14,1.89ZM159.75.61c6.62,2.11,4.99,6.46,2.94,5.02-.38-1.63-1.95-3.62-3.3-4.77l.35-.26ZM169.28,3.23c-.1,1.47-.77,2.5-1.54,2.94-.74.45-1.79.48-2.11-.26-.26-.67.19-1.28.83-1.63,1.02-.54,2.02-1.98,1.95-3.49h.54c.16.54.26,1.02.32,1.5h13.85l1.25-1.31,2.34,2.27c-.22.22-.61.29-1.15.32-.54.8-1.44,1.98-2.18,2.66.45.35.93.77,1.31,1.15-.06.35-.38.51-.8.51h-7.2v2.53h4.06l1.12-1.25,2.5,1.92c-.19.26-.74.54-1.38.67v7.2c-.03.22-.99.7-1.63.7h-.29v-1.02h-4.38v2.69h5.12l1.44-1.79s1.63,1.25,2.66,2.21c-.06.35-.38.51-.83.51h-8.38v3.49c0,.26-.86.7-1.6.7h-.38v-4.19h-7.78l-.26-.93h8.03v-2.69h-4.38v.67c0,.19-.86.67-1.63.67h-.32v-10.56l2.11.99h4.22v-2.53h-6.85l-.26-.93h7.1v-3.1l3.14.35c-.06.45-.35.77-1.15.9v1.86h4.1l1.34-1.66s.35.26.8.61c.16-.74.32-1.82.42-2.69h-14.08ZM170.34,11.36v2.66h4.38v-2.66h-4.38ZM174.72,17.73v-2.75h-4.38v2.75h4.38ZM176.71,11.36v2.66h4.38v-2.66h-4.38ZM181.09,17.73v-2.75h-4.38v2.75h4.38Z"/><path class="cls-1" d="M200.1,11.46c3.1,1.18,5.09,2.62,6.24,4.29.45.7.77,1.54.7,2.3-.03.61-.42,1.09-1.06,1.09-.58,0-.93-.45-1.38-1.44-1.06-2.08-2.53-3.87-4.9-5.7l.38-.54Z"/><path class="cls-1" d="M240.8,5.06c10.62,4.61,9.6,10.91,7.01,9.25-.29-1.02-.9-2.14-1.7-3.23-5.09.77-12.29,1.6-20.73,2.37-.19.26-.38.38-.58.48l-1.18-2.56s.64-.16.93-.32c3.68-2.34,8.61-7.71,10.59-10.72l3.01,1.5c-.16.32-.58.58-1.28.42-2.37,2.72-6.88,6.56-10.91,9.15,4.29-.1,11.77-.51,19.65-.99-1.5-1.92-3.46-3.78-5.15-5.02l.35-.32ZM244.67,15.17l2.62,2.05c-.19.29-.7.54-1.38.67v10.72c-.03.19-1.12.7-1.82.7h-.32v-2.4h-14.75v1.95c0,.22-.9.74-1.79.74h-.32v-14.14l2.3,1.06h14.21l1.25-1.34ZM243.78,25.95v-8.51h-14.75v8.51h14.75Z"/><path class="cls-1" d="M264.8,23.71c-2.24,1.02-5.31,2.53-9.34,4.22-.13.38-.38.67-.7.77l-1.02-2.59c.9-.16,2.46-.54,4.32-1.06v-10.4h-3.9l-.26-.93h4.16v-4.8h-2.37l-.1-.35c-.61.7-1.25,1.31-1.86,1.86l-.42-.29c2.02-2.59,3.97-7.1,4.7-10.11l3.2.83c-.06.32-.38.58-1.18.61v.03c6.46,3.1,3.87,5.98,2.34,4.64-.45-1.06-1.38-2.72-2.56-4.13-.86,1.89-2.21,4.1-3.74,5.98h3.9l1.25-1.54s1.41,1.09,2.3,1.95c-.1.35-.42.51-.86.51h-2.75v4.8h.77l1.25-1.7s1.44,1.22,2.34,2.11c-.06.35-.38.51-.8.51h-3.55v9.89c1.47-.42,3.14-.86,4.74-1.34l.16.51ZM254.66,16.16c4.13,4.32,2.27,8.09.77,6.4.1-1.95-.58-4.54-1.25-6.24l.48-.16ZM260.68,22.56c.38-1.79.74-4.42.93-6.69l2.88.74c-.13.38-.45.67-1.09.7-.58,1.79-1.31,3.94-2.21,5.44l-.51-.19ZM282.63,27.23c.74,1.25.83,1.76.51,2.08-.77.83-2.43-.19-3.36-1.44-.99-1.22-1.73-2.72-2.3-4.35-1.79,2.43-4.16,4.54-7.3,6.11l-.35-.42c3.1-1.89,5.41-4.54,7.07-7.52-.96-3.68-1.34-8.22-1.47-13.31h-11.68l-.26-.93h4.77v-2.62h-3.1l-.26-.96h3.36V.58l2.94.32c-.06.42-.35.7-1.06.83v2.14h1.09l1.22-1.54s1.41,1.09,2.27,1.98c-.1.35-.38.51-.8.51h-3.78v2.62h5.25c-.06-2.27-.06-4.61-.06-7.1l3.2.38c-.06.42-.35.8-1.15.9-.03,1.95-.06,3.94-.06,5.82h2.11l1.34-1.73c-.32.1-.67,0-1.02-.29-.16-1.18-.96-2.59-1.66-3.49l.35-.22c3.68,1.38,3.52,3.58,2.46,3.97.26.22,1.66,1.34,2.53,2.18-.1.35-.42.51-.83.51h-5.28c.06,3.87.26,7.55.86,10.66.96-2.37,1.63-4.86,1.98-7.33l3.1.74c-.13.38-.38.61-1.25.61-.64,2.82-1.66,5.76-3.23,8.45.48,1.79,1.15,3.26,2.08,4.42.38.54.48.51.77-.16.32-.77.8-2.24,1.12-3.55l.38.06-.51,4.96ZM274.47,24.38c-1.98.67-4.9,1.66-8.83,2.85-.13.41-.38.61-.67.7l-1.31-2.4c.96-.13,2.62-.35,4.61-.67v-2.88h-3.71l-.26-.96h3.97v-2.5c-1.25.13-2.5.22-3.68.29l-.19-.61c2.75-.45,6.24-1.47,8.06-2.21l1.95,1.98c-.29.22-.83.19-1.47-.1-.77.13-1.76.29-2.82.42v2.72h1.22l1.18-1.31s1.31.93,2.14,1.76c-.1.35-.35.51-.77.51h-3.78v2.59c1.38-.22,2.82-.48,4.29-.74l.06.54ZM271.75,15.81v-.86h-5.02v.8c0,.13-.8.54-1.5.54h-.29v-7.04l1.95.86h4.61l.99-.99,2.14,1.63c-.16.19-.58.45-1.09.51v3.97c-.03.22-.93.58-1.5.58h-.29ZM271.75,14.01v-2.94h-5.02v2.94h5.02Z"/><path class="cls-1" d="M313.25,18.72s1.5,1.31,2.37,2.24c-.1.35-.38.51-.83.51h-29.02l-.29-.93h3.55l-.45-18.33,2.46.99c1.31-1.02,2.72-2.24,3.42-2.94l2.11,1.82c-.16.19-.48.22-.9.06-1.12.58-3.14,1.5-5.06,2.14l.13,4.38h1.82l1.09-1.37s1.22.99,1.95,1.82c-.1.35-.35.51-.8.51h-4.06l.13,5.02h1.95l1.12-1.47s1.25,1.09,2.05,1.89c-.06.35-.35.51-.8.51h-4.29l.13,4.96h18.56l.13-4.96h-4.19l-.29-.93h4.51l.1-5.02h-3.84l-.29-.96h4.16l.1-4.93h-4.45l-.29-.93h4.48l1.06-1.28,2.3,1.98c-.22.22-.51.32-1.12.42l-.38,16.61h.38l1.28-1.82ZM285.96,29.25c3.71-1.7,7.68-4.77,9.44-7.01l3.1,1.44c-.19.38-.67.48-1.5.35-2.34,2.02-6.59,4.38-10.78,5.66l-.26-.45ZM300.13,12c-.1.35-.45.67-1.09.67-.67,2.66-1.73,5.34-3.01,7.14l-.58-.26c.83-2.14,1.5-5.25,1.76-8.19l2.91.64ZM295.91,9.15c.29-.19.77-.42,1.22-.61.32-2.33.74-6.14.8-8.13l2.94.64c-.1.38-.38.74-1.15.7-.06.64-.13,1.34-.19,2.14h2.78l1.09-1.41s1.25,1.06,2.02,1.86c-.06.35-.38.51-.8.51h-5.18c-.13,1.38-.32,2.85-.48,4h3.33l1.06-1.12,2.24,1.79c-.22.26-.58.38-1.22.45-.16,5.79-.61,8.29-1.6,9.15-.67.61-1.6.83-2.5.83,0-.51-.1-1.02-.42-1.31-.32-.26-1.02-.48-1.79-.58l.03-.54c.83.06,2.11.16,2.62.16.45,0,.67-.03.86-.26.51-.51.86-2.78.99-7.62h-3.46l-.96,1.06-2.24-1.73ZM303.65,22.69c14.02,3.2,10.66,8.54,8.45,6.46-1.47-1.86-4.38-4.1-8.64-5.92l.19-.54Z"/><path class="cls-1" d="M343.75,2.14s1.86,1.41,3.01,2.46c-.1.35-.42.51-.83.51h-27.49l-.29-.96h14.21c-.48-1.38-2.11-3.01-3.49-3.87l.29-.29c5.02.64,5.6,3.36,4.61,4.16h8.32l1.66-2.02ZM343.62,14.5l2.69,2.02c-.19.22-.7.51-1.34.61v9.66c0,1.63-.38,2.62-3.3,2.91-.1-.64-.22-1.15-.64-1.44-.48-.32-1.25-.61-2.62-.77v-.48s3.04.22,3.74.22c.58,0,.74-.22.74-.67v-9.85h-20.48v12.22c0,.22-.9.7-1.73.7h-.35v-14.88l2.3,1.02h19.93l1.06-1.28ZM337.95,14.43v-1.25h-10.91v.8c0,.16-.9.67-1.73.67h-.29V6.59l2.18.99h10.43l1.15-1.25,2.62,1.95c-.22.26-.74.51-1.38.64v4.86c-.03.19-1.09.64-1.76.64h-.32ZM339.3,19.9c-.16.22-.64.48-1.18.58v5.25c-.03.19-1.02.67-1.7.67h-.32v-1.5h-7.42v1.28c0,.19-.9.64-1.66.64h-.32v-8.54l2.14.96h6.98l1.12-1.15,2.37,1.82ZM337.95,12.25v-3.71h-10.91v3.71h10.91ZM336.1,23.93v-3.74h-7.42v3.74h7.42Z"/><path class="cls-1" d="M360.8,23.71c-2.24,1.02-5.31,2.53-9.34,4.22-.13.38-.38.67-.7.77l-1.02-2.59c.9-.16,2.46-.54,4.32-1.06v-10.4h-3.9l-.26-.93h4.16v-4.8h-2.37l-.1-.35c-.61.7-1.25,1.31-1.86,1.86l-.42-.29c2.02-2.59,3.97-7.1,4.7-10.11l3.2.83c-.06.32-.38.58-1.18.61v.03c6.46,3.1,3.87,5.98,2.34,4.64-.45-1.06-1.38-2.72-2.56-4.13-.86,1.89-2.21,4.1-3.74,5.98h3.9l1.25-1.54s1.41,1.09,2.3,1.95c-.1.35-.42.51-.86.51h-2.75v4.8h.77l1.25-1.7s1.44,1.22,2.34,2.11c-.06.35-.38.51-.8.51h-3.55v9.89c1.47-.42,3.14-.86,4.74-1.34l.16.51ZM350.66,16.16c4.13,4.32,2.27,8.09.77,6.4.1-1.95-.58-4.54-1.25-6.24l.48-.16ZM356.68,22.56c.38-1.79.74-4.42.93-6.69l2.88.74c-.13.38-.45.67-1.09.7-.58,1.79-1.31,3.94-2.21,5.44l-.51-.19ZM378.63,27.23c.74,1.25.83,1.76.51,2.08-.77.83-2.43-.19-3.36-1.44-.99-1.22-1.73-2.72-2.3-4.35-1.79,2.43-4.16,4.54-7.3,6.11l-.35-.42c3.1-1.89,5.41-4.54,7.07-7.52-.96-3.68-1.34-8.22-1.47-13.31h-11.68l-.26-.93h4.77v-2.62h-3.1l-.26-.96h3.36V.58l2.94.32c-.06.42-.35.7-1.06.83v2.14h1.09l1.22-1.54s1.41,1.09,2.27,1.98c-.1.35-.38.51-.8.51h-3.78v2.62h5.25c-.06-2.27-.06-4.61-.06-7.1l3.2.38c-.06.42-.35.8-1.15.9-.03,1.95-.06,3.94-.06,5.82h2.11l1.34-1.73c-.32.1-.67,0-1.02-.29-.16-1.18-.96-2.59-1.66-3.49l.35-.22c3.68,1.38,3.52,3.58,2.46,3.97.26.22,1.66,1.34,2.53,2.18-.1.35-.42.51-.83.51h-5.28c.06,3.87.26,7.55.86,10.66.96-2.37,1.63-4.86,1.98-7.33l3.1.74c-.13.38-.38.61-1.25.61-.64,2.82-1.66,5.76-3.23,8.45.48,1.79,1.15,3.26,2.08,4.42.38.54.48.51.77-.16.32-.77.8-2.24,1.12-3.55l.38.06-.51,4.96ZM370.47,24.38c-1.98.67-4.9,1.66-8.83,2.85-.13.41-.38.61-.67.7l-1.31-2.4c.96-.13,2.62-.35,4.61-.67v-2.88h-3.71l-.26-.96h3.97v-2.5c-1.25.13-2.5.22-3.68.29l-.19-.61c2.75-.45,6.24-1.47,8.06-2.21l1.95,1.98c-.29.22-.83.19-1.47-.1-.77.13-1.76.29-2.82.42v2.72h1.22l1.18-1.31s1.31.93,2.14,1.76c-.1.35-.35.51-.77.51h-3.78v2.59c1.38-.22,2.82-.48,4.29-.74l.06.54ZM367.75,15.81v-.86h-5.02v.8c0,.13-.8.54-1.5.54h-.29v-7.04l1.95.86h4.61l.99-.99,2.14,1.63c-.16.19-.58.45-1.09.51v3.97c-.03.22-.93.58-1.5.58h-.29ZM367.75,14.01v-2.94h-5.02v2.94h5.02Z"/><path class="cls-1" d="M393.89,17.85c1.73-1.02,2.53-2.34,2.88-3.9-1.5-.67-2.3-1.41-2.3-2.5,0-.99.67-1.82,1.86-1.82,1.31,0,2.14.99,2.14,2.78,0,2.08-.96,4.9-4.03,6.4l-.54-.96Z"/><path class="cls-1" d="M440.1,25.15s1.86,1.47,3.07,2.5c-.1.35-.45.51-.9.51h-24.32l-.93,1.22-2.66-1.63c.26-.26.77-.58,1.25-.77V1.25l2.5,1.34h19.55l1.54-1.92s1.79,1.31,2.85,2.37c-.06.35-.38.51-.86.51h-23.49v23.65h20.77l1.63-2.05ZM425.28,9.31c-.9,2.37-2.91,7.23-3.26,8.22-.22.77-.45,1.54-.45,2.21.03,1.09.74,2.37.64,4.32-.06,1.12-.54,1.79-1.47,1.79-.45,0-.77-.48-.83-1.31.35-2.72.16-4.51-.45-4.86-.38-.26-.77-.32-1.38-.38v-.74h1.34c.32,0,.45,0,.77-.58q.48-.83,4.51-8.83l.58.16ZM418.44,9.57c5.41,1.12,3.9,4.96,2.08,3.68-.22-1.22-1.34-2.66-2.4-3.42l.32-.26ZM419.94,4.51c5.76,1.5,4.35,5.34,2.46,4.1-.35-1.31-1.66-2.91-2.82-3.84l.35-.26ZM426.24,26.33v-14.01c-.74,1.06-1.54,2.08-2.27,2.91l-.51-.29c1.66-2.72,3.52-6.98,4.64-10.94l2.94.93c-.13.38-.51.67-1.15.61-.45,1.09-.96,2.18-1.54,3.2l.26.1h9.06l1.34-1.63s1.57,1.15,2.5,2.08c-.1.35-.35.51-.8.51h-5.98v3.68h2.53l1.22-1.5s1.34,1.09,2.24,1.95c-.1.35-.38.51-.83.51h-5.15v3.97h2.53l1.22-1.5s1.34,1.06,2.24,1.92c-.1.35-.38.51-.83.51h-5.15v4.26h3.01l1.38-1.73s1.6,1.22,2.53,2.14c-.06.35-.35.51-.77.51h-12.64v.99c0,.19-.67.83-1.63.83h-.35ZM428.23,9.79v3.68h4.61v-3.68h-4.61ZM432.83,14.43h-4.61v3.97h4.61v-3.97ZM432.83,19.33h-4.61v4.26h4.61v-4.26ZM431.88,4.06c4.99,2.02,3.23,5.5,1.54,4.1-.19-1.31-1.12-2.94-1.95-3.9l.42-.19Z"/><path class="cls-1" d="M452.39,13.05c-1.76,1.92-4.03,3.52-6.66,4.74l-.35-.51c2.69-1.73,4.93-4.03,6.34-6.53h-2.59v.45c0,.19-.8.61-1.57.61h-.26v-6.72l1.98.93h3.1v-2.02h-6.21l-.26-.93h6.46V.19l3.1.35c-.06.45-.38.74-1.15.86v1.66h3.2l1.38-1.66s1.5,1.15,2.5,2.08c-.1.35-.42.51-.86.51h-6.21v2.02h3.1l.99-1.06,2.14,1.66c-.16.19-.58.45-1.02.51v3.84c-.03.22-.96.67-1.57.67h-.29v-.9h-3.36v.99c7.04.77,6.34,4.96,4.16,4-.77-1.22-2.62-2.69-4.16-3.49v4.86c0,.26-.83.67-1.54.67h-.42v-4.74ZM472.16,26.05s1.7,1.31,2.72,2.27c-.06.35-.35.51-.8.51h-28l-.26-.93h6.4v-6.21l3.1.32c-.06.42-.35.7-1.06.83v5.06h5.06v-8.16h-11.07l-.29-.93h20.61l1.41-1.79s1.66,1.25,2.66,2.21c-.1.35-.38.51-.8.51h-10.43v3.3h5.57l1.47-1.82s1.63,1.31,2.69,2.24c-.1.35-.42.51-.86.51h-8.86v3.94h9.25l1.5-1.86ZM449.12,9.82h3.26v-2.88h-3.26v2.88ZM454.34,6.94v2.88h3.36v-2.88h-3.36ZM472.32,5.76c-.77,2.56-1.95,4.67-3.62,6.43,1.76,1.5,3.97,2.69,6.78,3.46l-.1.35c-.77.19-1.38.7-1.57,1.7-2.72-1.12-4.74-2.59-6.3-4.38-2.08,1.79-4.77,3.14-8.13,4.19l-.22-.48c3.17-1.31,5.6-2.94,7.39-4.9-1.09-1.54-1.92-3.23-2.59-5.12-.93,1.31-1.95,2.43-3.04,3.33l-.45-.35c1.73-2.27,3.33-5.86,4.16-9.63l3.14.99c-.16.35-.51.61-1.15.61-.38.99-.83,1.98-1.34,2.88h6.05l1.44-1.82s1.6,1.31,2.59,2.24c-.1.35-.38.51-.8.51h-2.24ZM464.42,6.3c.77,1.76,1.76,3.36,3.04,4.74,1.18-1.57,2.02-3.33,2.53-5.28h-5.22l-.35.54Z"/><path class="cls-1" d="M502.24,26.08l1.79-2.24s2.02,1.54,3.3,2.66c-.1.35-.42.51-.9.51h-28.51l-.29-.93h24.61ZM500.77,4.16l1.73-2.14s1.95,1.47,3.17,2.56c-.06.35-.42.51-.86.51h-25.09l-.29-.93h21.34ZM497.83,14.56l1.66-2.08s1.89,1.47,3.07,2.53c-.06.35-.38.51-.83.51h-19.71l-.26-.96h16.06Z"/><path class="cls-1" d="M520.8,23.71c-2.24,1.02-5.31,2.53-9.34,4.22-.13.38-.38.67-.7.77l-1.02-2.59c.9-.16,2.46-.54,4.32-1.06v-10.4h-3.9l-.26-.93h4.16v-4.8h-2.37l-.1-.35c-.61.7-1.25,1.31-1.86,1.86l-.42-.29c2.02-2.59,3.97-7.1,4.7-10.11l3.2.83c-.06.32-.38.58-1.18.61v.03c6.46,3.1,3.87,5.98,2.34,4.64-.45-1.06-1.38-2.72-2.56-4.13-.86,1.89-2.21,4.1-3.74,5.98h3.9l1.25-1.54s1.41,1.09,2.3,1.95c-.1.35-.42.51-.86.51h-2.75v4.8h.77l1.25-1.7s1.44,1.22,2.34,2.11c-.06.35-.38.51-.8.51h-3.55v9.89c1.47-.42,3.14-.86,4.74-1.34l.16.51ZM510.66,16.16c4.13,4.32,2.27,8.09.77,6.4.1-1.95-.58-4.54-1.25-6.24l.48-.16ZM516.68,22.56c.38-1.79.74-4.42.93-6.69l2.88.74c-.13.38-.45.67-1.09.7-.58,1.79-1.31,3.94-2.21,5.44l-.51-.19ZM538.63,27.23c.74,1.25.83,1.76.51,2.08-.77.83-2.43-.19-3.36-1.44-.99-1.22-1.73-2.72-2.3-4.35-1.79,2.43-4.16,4.54-7.3,6.11l-.35-.42c3.1-1.89,5.41-4.54,7.07-7.52-.96-3.68-1.34-8.22-1.47-13.31h-11.68l-.26-.93h4.77v-2.62h-3.1l-.26-.96h3.36V.58l2.94.32c-.06.42-.35.7-1.06.83v2.14h1.09l1.22-1.54s1.41,1.09,2.27,1.98c-.1.35-.38.51-.8.51h-3.78v2.62h5.25c-.06-2.27-.06-4.61-.06-7.1l3.2.38c-.06.42-.35.8-1.15.9-.03,1.95-.06,3.94-.06,5.82h2.11l1.34-1.73c-.32.1-.67,0-1.02-.29-.16-1.18-.96-2.59-1.66-3.49l.35-.22c3.68,1.38,3.52,3.58,2.46,3.97.26.22,1.66,1.34,2.53,2.18-.1.35-.42.51-.83.51h-5.28c.06,3.87.26,7.55.86,10.66.96-2.37,1.63-4.86,1.98-7.33l3.1.74c-.13.38-.38.61-1.25.61-.64,2.82-1.66,5.76-3.23,8.45.48,1.79,1.15,3.26,2.08,4.42.38.54.48.51.77-.16.32-.77.8-2.24,1.12-3.55l.38.06-.51,4.96ZM530.47,24.38c-1.98.67-4.9,1.66-8.83,2.85-.13.41-.38.61-.67.7l-1.31-2.4c.96-.13,2.62-.35,4.61-.67v-2.88h-3.71l-.26-.96h3.97v-2.5c-1.25.13-2.5.22-3.68.29l-.19-.61c2.75-.45,6.24-1.47,8.06-2.21l1.95,1.98c-.29.22-.83.19-1.47-.1-.77.13-1.76.29-2.82.42v2.72h1.22l1.18-1.31s1.31.93,2.14,1.76c-.1.35-.35.51-.77.51h-3.78v2.59c1.38-.22,2.82-.48,4.29-.74l.06.54ZM527.75,15.81v-.86h-5.02v.8c0,.13-.8.54-1.5.54h-.29v-7.04l1.95.86h4.61l.99-.99,2.14,1.63c-.16.19-.58.45-1.09.51v3.97c-.03.22-.93.58-1.5.58h-.29ZM527.75,14.01v-2.94h-5.02v2.94h5.02Z"/><path class="cls-1" d="M551.84,14.17c-1.02.54-2.24,1.22-3.65,2.02v10.4c0,1.73-.32,2.75-3.07,3.07-.1-.67-.26-1.25-.61-1.54-.45-.38-1.15-.61-2.4-.77v-.54s2.78.22,3.36.22c.54,0,.7-.16.7-.64v-9.12c-.99.51-2.05,1.06-3.2,1.63-.1.38-.35.7-.64.83l-1.18-2.66c.99-.26,2.82-.83,5.02-1.54v-6.94h-4.26l-.22-.96h4.48V.35l3.2.35c-.1.45-.42.77-1.18.86v6.08h.7l1.28-1.79s1.47,1.31,2.34,2.24c-.06.35-.35.51-.8.51h-3.52v6.27c1.15-.38,2.34-.77,3.52-1.18l.13.48ZM561.12,26.43c1.09.13,2.27.19,3.62.19,1.5,0,4.99,0,6.69-.03v.45c-.74.13-1.12.8-1.12,1.63h-5.7c-5.22,0-8.26-1.12-10.24-5.63-1.18,3.01-2.98,5.22-5.38,6.62l-.42-.38c2.56-2.5,4.29-6.21,4.77-11.07l3.17.64c-.1.42-.45.7-1.15.74-.19.93-.42,1.82-.7,2.62,1.09,2.05,2.5,3.2,4.42,3.78v-9.25h-6.43l-.26-.93h6.69v-3.3h-8.32l-.26-.96h8.58v-3.07h-6.05l-.29-.93h6.34v-2.75h-7.78l-.26-.93h8.03V.45l3.1.32c-.06.45-.32.77-1.06.86v2.24h5.41l1.5-1.92s1.7,1.38,2.75,2.37c-.1.32-.42.48-.86.48h-8.8v2.75h4.35l1.09-1.15,2.34,1.82c-.19.19-.64.45-1.15.54v2.78h.35l1.18-1.63s1.38,1.18,2.18,2.08c-.06.35-.35.51-.77.51h-2.94v4.83c-.03.19-1.02.67-1.7.67h-.29v-1.28h-4.64v3.97h3.74l1.44-1.73s1.66,1.25,2.66,2.14c-.1.35-.38.51-.8.51h-7.04v4.8ZM561.12,11.55h4.64v-3.07h-4.64v3.07ZM561.12,15.81h4.64v-3.3h-4.64v3.3Z"/><path class="cls-1" d="M585.09,11.46l2.66,1.95c-.19.22-.74.54-1.38.64v12.74c0,1.66-.29,2.62-2.85,2.91-.06-.64-.19-1.15-.54-1.5-.32-.32-.93-.58-2.02-.74v-.51s2.27.16,2.82.16c.48,0,.61-.16.61-.54v-4.67c-1.6.9-3.42,1.76-5.54,2.53-.1.38-.35.67-.64.77l-.8-1.66c-.45,2.3-1.38,4.61-3.42,6.4l-.42-.38c2.14-3.23,2.27-7.2,2.27-11.01v-6.88l2.34,1.02h5.92l.99-1.22ZM583.27,4.48c7.07,2.94,5.38,7.87,3.3,6.21-.1-.74-.38-1.54-.83-2.34-2.5.61-6.11,1.38-10.05,2.05-.19.32-.45.51-.67.61l-1.06-2.69s.54-.1.74-.22c2.08-1.63,4.67-5.63,5.63-7.74l2.98,1.38c-.16.22-.54.51-1.18.42-1.41,1.89-3.78,4.38-5.98,6.18,2.34-.13,5.73-.38,9.25-.67-.7-1.09-1.63-2.18-2.46-2.94l.35-.22ZM577.8,18.5c0,1.31-.03,2.75-.26,4.22,1.89-.32,4.48-.93,6.85-1.7v-7.39h-6.59v2.91c5.92-.93,7.36,3.04,5.18,2.82-1.25-.9-2.94-1.66-5.18-2.02v1.15ZM592.8,13.92c-2.46,0-2.98-.48-2.98-2.11V.61l3.04.32c-.03.42-.35.7-.99.8v3.68h5.6l1.22-1.57s1.38,1.15,2.24,1.98c-.1.35-.38.51-.83.51h-8.22v5.02c0,.54.13.7,1.31.7h3.14c1.25,0,2.46-.03,2.88-.03.29-.03.54-.06.67-.1.19,0,.51-.06.74-.13h.29l.13.03c.74.22,1.02.42,1.02.83,0,.93-1.02,1.25-5.92,1.25h-3.33ZM601.38,26.78c.7.22.93.45.93.86,0,.96-1.06,1.31-6.05,1.31h-3.36c-2.53,0-3.07-.51-3.07-2.14v-11.94l3.07.35c-.06.38-.35.7-.99.8v3.04h5.95l1.25-1.57s1.38,1.12,2.24,1.98c-.1.35-.38.51-.8.51h-8.64v6.37c0,.54.16.7,1.34.7h3.1c1.41,0,2.53,0,2.94-.03.38-.03.51-.13.64-.35.26-.42.61-1.86.93-3.33h.42l.1,3.42Z"/><path class="cls-1" d="M632.16,25.69s1.82,1.41,2.88,2.43c-.06.32-.35.48-.83.48h-28.29l-.22-.93h13.5v-3.62h-10.75l-.29-.96h11.04v-3.23h-7.17v.64c0,.22-.9.7-1.76.7h-.32v-11.74l2.27,1.02h6.98v-3.01h-12.73l-.29-.93h13.02v-2.94c-3.52.32-7.23.51-10.72.54l-.1-.64c7.1-.51,15.97-1.92,20.73-3.23l2.14,2.18c-.29.22-.9.22-1.66-.13-2.37.38-5.22.77-8.29,1.09v3.14h8.99l1.5-1.89s1.76,1.34,2.85,2.34c-.1.32-.42.48-.86.48h-12.48v3.01h6.91l1.15-1.28,2.62,1.98c-.22.26-.7.51-1.38.64v8.51c-.03.13-1.09.58-1.76.58h-.32v-1.06h-7.23v3.23h7.49l1.44-1.73s1.7,1.25,2.69,2.18c-.1.35-.38.51-.8.51h-10.81v3.62h9.28l1.57-1.98ZM612.04,11.46v3.2h7.17v-3.2h-7.17ZM619.2,18.91v-3.33h-7.17v3.33h7.17ZM621.32,11.46v3.2h7.23v-3.2h-7.23ZM628.55,18.91v-3.33h-7.23v3.33h7.23Z"/><path class="cls-1" d="M664.23,16.64s1.76,1.28,2.85,2.3c-.1.35-.38.51-.86.51h-7.39c-.51,1.95-1.38,3.62-3.2,5.12,12.1,2.75,9.66,5.86,7.23,4.74-2.24-1.22-5.38-2.43-9.15-3.52-2.88,1.57-7.42,2.85-14.53,3.9l-.16-.7c5.95-1.09,9.92-2.34,12.61-3.78-2.53-.67-5.25-1.31-8.19-1.89.9-.9,2.05-2.37,3.14-3.87h-8.61l-.29-.93h9.57c1.15-1.57,2.18-3.14,2.75-4.1h-6.69v.74c0,.13-.93.61-1.76.61h-.29V6.18l2.27.99h4.29v-3.84h-9.15l-.29-.96h23.87l1.54-1.89s1.7,1.34,2.82,2.34c-.06.35-.42.51-.86.51h-8.93v3.84h4.13l1.18-1.25,2.56,1.95c-.19.26-.74.51-1.34.67v6.4c-.03.19-1.09.61-1.76.61h-.32v-1.12h-10.94l2.82,1.09c-.16.32-.48.61-1.41.45-.48.74-1.12,1.63-1.82,2.56h6.98c.16-.8.29-1.66.35-2.59l3.2.38c-.06.42-.45.77-1.18.83-.06.48-.16.93-.19,1.38h3.65l1.54-1.89ZM643.3,13.5h4.51v-5.38h-4.51v5.38ZM649.16,19.45c-.93,1.22-1.95,2.46-2.85,3.52,2.72.32,5.06.7,7.07,1.12,1.82-1.34,2.72-2.88,3.26-4.64h-7.49ZM649.83,7.17h4.93v-3.84h-4.93v3.84ZM654.75,13.5v-5.38h-4.93v5.38h4.93ZM656.8,8.13v5.38h4.45v-5.38h-4.45Z"/><path class="cls-1" d="M677.96,6.11s1.5,1.31,2.43,2.24c-.1.35-.38.51-.83.51h-3.68v2.78c5.63,2.82,4.03,6.37,2.27,5.02-.32-1.34-1.34-3.04-2.27-4.29v16.42c0,.29-.86.8-1.54.8h-.42v-14.85c-.99,2.72-2.34,5.25-4.1,7.46l-.48-.45c2.11-3.65,3.42-8.29,4.1-12.9h-3.42l-.26-.96h4.16V.22l3.1.38c-.1.45-.35.77-1.15.9v6.4h.74l1.34-1.79ZM698.05,26.62c.83.22,1.12.45,1.12.9,0,.96-1.47,1.25-8.8,1.22h-5.38c-3.36,0-4.38-.58-4.38-2.75V4.1h-1.6l-.26-.96h16.19l1.47-1.82s1.63,1.28,2.62,2.27c-.06.35-.38.51-.8.51h-15.77v21.53c0,.99.38,1.38,2.62,1.38h5.44c2.43,0,4.45-.03,5.15-.06.42-.03.7-.1.96-.13.22-.03.58-.1.86-.22h.38l.16.03ZM688.35,24.73v-1.44h-2.94v1.28c0,.16-.7.54-1.34.54h-.26v-10.02l1.76.8h2.53l.93-.93,2.05,1.54c-.16.19-.61.42-1.09.51v7.07c-.03.22-.83.64-1.38.64h-.26ZM688.35,22.33v-5.47h-2.94v5.47h2.94ZM693.92,12.64h-6.18v.9c0,.19-.83.61-1.57.61h-.29V5.38l2.02.9h5.73l1.06-1.09,2.34,1.73c-.19.26-.67.51-1.25.61v5.66c-.03.19-.93.61-1.57.61h-.29v-1.15ZM693.92,11.68v-4.45h-6.18v4.45h6.18ZM695.91,24.8v-1.5h-2.91v1.22c0,.16-.7.54-1.38.54h-.26v-9.95l1.79.8h2.5l.93-.96,2.08,1.57c-.16.19-.64.42-1.12.51v7.17c-.03.19-.83.61-1.38.61h-.26ZM695.91,22.33v-5.47h-2.91v5.47h2.91Z"/><path class="cls-1" d="M704.52,21.12c.86,3.23.32,5.63-.51,6.72-.54.7-1.63.99-2.11.38-.35-.58-.1-1.28.48-1.79.9-.93,1.73-3.26,1.57-5.31h.58ZM702.02,17.15s.64-.13.9-.32c1.79-1.38,3.9-3.81,5.66-6.21-1.34.35-3.04.8-4.83,1.15-.22.35-.48.58-.77.67l-1.09-2.82s.61-.1.8-.26c2.08-1.92,4.64-6.5,5.6-8.96l2.98,1.54c-.16.29-.54.54-1.18.45-1.44,2.18-3.9,5.25-6.18,7.33,1.47.03,3.36.03,5.31,0,.93-1.31,1.73-2.59,2.24-3.58l2.75,1.86c-.19.29-.61.48-1.28.35-1.86,2.59-5.47,6.3-8.7,8.83,1.86-.13,4.45-.32,7.23-.58-.42-1.25-1.02-2.56-1.6-3.46l.42-.16c5.25,3.58,3.42,7.52,1.7,5.92-.03-.51-.13-1.02-.29-1.6-1.98.51-4.83,1.31-7.9,2.02-.22.35-.48.54-.74.64l-1.02-2.82ZM707.59,20.48c3.68,4.26,1.41,7.97-.1,6.14.29-1.92,0-4.42-.38-6.05l.48-.1ZM710.88,19.77c4.93,3.3,2.98,7.2,1.28,5.54.03-1.73-.86-3.94-1.7-5.38l.42-.16ZM728.93,25.34s1.44,1.28,2.27,2.21c-.06.35-.38.51-.8.51h-18.08l-.26-.93h5.12c.38-3.3.8-7.71,1.15-12.09h-4.54l-.26-.93h4.86c.29-3.55.51-7.01.64-9.76h-4.51l-.29-.96h11.26l1.12-1.34,2.3,2.05c-.22.22-.54.38-1.18.45l-.22,9.57h.16l1.28-1.76s1.41,1.25,2.3,2.18c-.1.35-.38.51-.83.51h-2.91l-.29,12.09h.45l1.25-1.79ZM720.32,15.04c-.35,4.38-.77,8.83-1.12,12.09h6.02l.29-12.09h-5.18ZM721.06,4.35c-.16,2.78-.38,6.21-.67,9.76h5.15l.22-9.76h-4.7Z"/><path class="cls-1" d="M10.85,78.09c-.26.26-.58.32-1.28.38-.64,2.27-1.82,4.8-3.71,6.78.16.06.29.16.48.35,2.75,2.85,6.3,3.26,12.48,3.26,3.74,0,6.88,0,10.69-.19v.45c-.93.16-1.41.8-1.54,1.63h-9.76c-6.4,0-9.44-.9-12.29-4.26-.42-.45-.74-.38-.99,0-.67.93-2.11,2.82-2.98,4.13.13.26.06.51-.16.67l-1.79-2.21c1.41-1.02,3.62-3.04,4.74-3.71,1.34-1.92,2.3-4.67,2.75-7.04h-3.81l-.86.74-1.82-1.7c.32-.16.83-.35,1.31-.48,1.15-1.54,2.66-3.84,3.68-5.54H.54l-.29-.93h5.86l1.15-1.22,2.46,2.18c-.35.35-1.02.48-1.86.51-.99,1.5-2.53,3.81-3.74,5.47h3.2l1.28-1.22,2.24,1.92ZM1.95,62.64c6.85,1.82,5.34,6.46,3.14,5.02-.42-1.57-2.08-3.58-3.46-4.74l.32-.29ZM9.7,86.35c2.75-4.29,3.01-9.44,3.01-14.14v-7.45l2.18.7c3.36-.83,7.17-2.18,9.18-3.17l2.43,2.24c-.29.26-.83.22-1.57-.03-2.59.64-6.53,1.38-10.18,1.7v6.37h9.12l1.54-1.95s1.73,1.34,2.85,2.37c-.1.35-.42.51-.86.51h-5.44v13.7c0,.13-.7.58-1.76.58h-.32v-14.27h-5.12c-.1,4.22-.67,9.47-4.61,13.25l-.45-.38Z"/><path class="cls-1" d="M49.18,83.85s1.25,1.06,2.05,1.89c-.06.35-.35.51-.8.51h-3.49v4.74c0,.22-.77.67-1.41.67h-.38v-5.41h-2.69l-.8.74-1.79-1.41c.26-.19.67-.38,1.06-.51.42-1.63.93-4.1,1.18-5.57h-.64l-.1-.35c-.19.1-.48.13-.9.16-.99,4.9-3.04,9.5-8.29,12.29l-.29-.48c2.27-1.57,3.9-3.62,4.96-5.92-.26.1-.54.06-.86-.16-.22-.9-1.02-1.95-1.89-2.75-.51.83-1.09,1.57-1.73,2.21l-.51-.29c1.44-2.27,2.69-5.7,3.36-9.15l2.75.74c-.13.38-.45.67-1.15.67-.19.61-.42,1.15-.61,1.73h2.27l1.12-1.12,1.66,1.47h3.87v-3.04l2.85.32c-.06.42-.35.7-1.06.8v1.92h.8l1.02-1.28s1.18.96,1.92,1.73c-.1.35-.38.51-.8.51h-2.94v5.79h1.12l1.12-1.44ZM32.77,69.36l-.26-.96h7.68v-5.89l3.14.32c-.06.45-.38.74-1.18.86v4.7h4.51l1.28-1.57s1.44,1.12,2.34,2.02c-.06.35-.35.51-.8.51h-7.33v6.18c0,.26-.86.7-1.57.7h-.38v-6.88h-7.42ZM39.78,71.34c-.16.29-.42.42-1.15.22-1.44,1.34-3.71,3.14-5.79,4.13l-.32-.38c1.47-1.28,3.3-3.49,4.29-5.18l2.98,1.22ZM34.53,63.41c5.44,1.7,3.78,5.37,1.92,4-.22-1.25-1.34-2.88-2.3-3.78l.38-.22ZM35.84,79.15c-.42.9-.83,1.73-1.31,2.53,1.89.61,2.69,1.6,2.85,2.37.61-1.54.99-3.23,1.25-4.9h-2.78ZM45.15,85.29v-5.79h-1.38c-.29,1.57-.86,4.03-1.31,5.79h2.69ZM43.52,70.64c6.78.9,7.1,5.6,4.96,4.77-1.15-1.38-2.82-3.23-5.18-4.35l.22-.42ZM48.61,64.46c-.16.32-.54.54-1.18.42-1.06,1.02-2.34,2.02-3.42,2.62l-.42-.38c.74-.93,1.63-2.46,2.4-4.03l2.62,1.38ZM61.37,65.81c-.22.29-.67.35-1.41.35-.93,2.14-2.72,6.21-4.03,8.29,3.52,2.72,4.9,5.54,4.9,8.29,0,3.23-1.09,4.61-4.35,4.77,0-.64-.1-1.31-.38-1.57-.29-.22-.96-.38-1.76-.48v-.54h2.78c.32,0,.51-.03.77-.19.54-.35.86-1.02.86-2.43,0-2.59-1.06-5.15-3.62-7.74.74-2.11,1.89-6.18,2.56-8.9h-4.26v25.31c0,.19-.67.7-1.66.7h-.29v-28l2.34,1.02h3.74l1.34-1.31,2.46,2.43Z"/><path class="cls-1" d="M92.93,64.88c-.22.26-.74.51-1.38.64v25.05c-.06.22-1.02.83-1.73.83h-.32v-1.86h-21.69v1.28c0,.32-.74.86-1.63.86h-.38v-28.57l2.21,1.06h21.18l1.18-1.31,2.56,2.02ZM89.5,88.59v-23.45h-21.69v23.45h21.69ZM79.14,81.65c-1.86.74-4.61,1.76-8.35,3.01-.16.38-.38.61-.67.7l-1.41-2.37c1.86-.26,6.08-.99,10.34-1.82l.1.48ZM80.77,70.96c.22,2.75.67,5.47,1.5,7.84,1.12-1.86,2.05-3.97,2.72-6.27l2.85,1.15c-.19.35-.58.64-1.28.54-.93,2.46-2.11,4.61-3.49,6.43.7,1.38,1.57,2.59,2.66,3.55.42.42.58.42.8-.13.32-.64.74-1.92,1.06-3.04l.38.06-.38,4.1c.74,1.09.83,1.5.54,1.86-.64.8-2.27,0-3.33-.99-1.22-1.09-2.21-2.4-3.01-3.84-2.02,2.24-4.35,3.9-6.98,5.09l-.32-.45c2.4-1.47,4.67-3.55,6.56-6.18-1.22-2.82-1.89-6.11-2.18-9.73h-9.76l-.26-.96h9.92c-.1-1.41-.13-2.88-.16-4.38l3.07.64c-.1.35-.38.67-1.06.7,0,.99.03,2.02.06,3.04h4.38l1.22-1.54s1.44,1.09,2.3,1.98c-.1.35-.42.51-.83.51h-7.01ZM75.74,80.14v-1.02h-3.39v1.09c0,.16-.77.58-1.47.58h-.26v-8.19l1.86.9h3.04l.96-1.02,2.08,1.6c-.16.22-.58.45-1.06.48v4.96c-.03.19-.9.64-1.5.64h-.26ZM75.74,78.16v-3.74h-3.39v3.74h3.39ZM82.27,65.74c5.25.61,4.13,4,2.37,3.07-.45-.99-1.66-2.18-2.69-2.75l.32-.32Z"/><path class="cls-1" d="M106.53,78.06c-.19.29-.54.35-1.25.38-.61,2.3-1.82,4.86-3.74,6.85.13.06.29.16.45.32,2.78,2.82,6.4,3.23,12.64,3.23,3.81,0,7.01,0,10.88-.16v.42c-.93.16-1.44.8-1.57,1.63h-9.92c-6.5,0-9.5-.83-12.41-4.22-.42-.45-.74-.38-.99,0-.64.96-1.92,2.78-2.72,4.1.1.26.06.48-.16.67l-1.79-2.18c1.44-1.09,3.71-3.33,4.67-3.81,1.31-1.92,2.24-4.61,2.66-6.94h-3.68l-.9.74-1.79-1.66c.29-.19.83-.38,1.28-.51,1.15-1.54,2.69-3.87,3.68-5.54h-5.34l-.29-.93h5.76l1.12-1.18,2.34,2.11c-.29.32-.93.48-1.7.51-.96,1.47-2.53,3.81-3.78,5.5h3.14l1.28-1.22,2.14,1.89ZM97.95,62.67c6.62,1.98,5.02,6.53,2.88,5.02-.35-1.57-1.92-3.62-3.23-4.74l.35-.29ZM105.7,68.56l-.26-.96h10.56c.74-1.54,1.54-3.71,1.98-5.28l3.3.9c-.1.38-.51.64-1.15.61-.8,1.12-2.05,2.62-3.23,3.78h3.3l1.5-1.89s1.7,1.31,2.78,2.34c-.1.35-.42.51-.86.51h-8.83c-.38,1.02-.9,2.18-1.41,3.14h5.66l1.15-1.31,2.5,1.98c-.16.26-.67.51-1.31.64v13.47c-.03.19-1.02.7-1.7.7h-.32v-1.82h-9.57v1.31c0,.26-.8.74-1.66.74h-.35v-16.74l2.18,1.02h2.11c.1-.99.22-2.18.29-3.14h-6.66ZM108.51,62.42c6.02,1.86,4.13,6.11,2.08,4.58-.19-1.47-1.34-3.33-2.43-4.35l.35-.22ZM109.79,72.62v3.26h9.57v-3.26h-9.57ZM109.79,80.11h9.57v-3.3h-9.57v3.3ZM119.36,84.4v-3.36h-9.57v3.36h9.57Z"/><path class="cls-1" d="M139.46,66.19l6.61-3.22h.66v22.92c0,1.52.06,2.47.19,2.84.13.37.39.66.79.86s1.21.31,2.44.34v.74h-10.21v-.74c1.28-.03,2.11-.14,2.48-.33.37-.19.63-.45.78-.78.15-.33.22-1.3.22-2.93v-14.65c0-1.97-.07-3.24-.2-3.8-.09-.43-.26-.74-.51-.94s-.54-.3-.89-.3c-.49,0-1.18.21-2.06.62l-.3-.62Z"/><path class="cls-1" d="M166.9,73.46c3.1,1.18,5.09,2.62,6.24,4.29.45.7.77,1.54.7,2.3-.03.61-.42,1.09-1.06,1.09-.58,0-.93-.45-1.38-1.44-1.06-2.08-2.53-3.87-4.9-5.7l.38-.54Z"/><path class="cls-1" d="M189.24,68.7c.77-1.83,1.75-3.24,2.93-4.23,1.18-.99,2.65-1.49,4.41-1.49,2.18,0,3.84.71,5,2.12.88,1.05,1.32,2.18,1.32,3.38,0,1.97-1.24,4.02-3.72,6.12,1.67.65,2.93,1.59,3.78,2.8.85,1.21,1.28,2.64,1.28,4.29,0,2.35-.75,4.38-2.24,6.11-1.95,2.24-4.77,3.36-8.47,3.36-1.83,0-3.07-.23-3.73-.68-.66-.45-.99-.94-.99-1.46,0-.39.16-.73.47-1.02.31-.29.69-.44,1.13-.44.33,0,.67.05,1.02.16.23.07.74.31,1.54.73.8.42,1.35.67,1.66.75.49.15,1.02.22,1.58.22,1.36,0,2.55-.53,3.55-1.58,1.01-1.05,1.51-2.3,1.51-3.74,0-1.05-.23-2.08-.7-3.08-.35-.75-.73-1.31-1.14-1.7-.57-.53-1.36-1.02-2.36-1.45s-2.02-.65-3.06-.65h-.64v-.6c1.05-.13,2.11-.51,3.17-1.14,1.06-.63,1.83-1.38,2.31-2.26.48-.88.72-1.85.72-2.9,0-1.37-.43-2.49-1.29-3.33-.86-.85-1.93-1.27-3.21-1.27-2.07,0-3.8,1.11-5.18,3.32l-.66-.32Z"/><path class="cls-1" d="M226.92,72.53s1.5,1.25,2.46,2.18c-.1.35-.38.51-.83.51h-6.08c-.29,1.06-.8,2.69-1.18,3.9h3.71l1.12-1.15,2.27,1.86c-.19.26-.61.38-1.25.45-.35,5.38-1.22,8.38-2.5,9.37-.77.64-1.79.93-2.91.93,0-.54-.1-1.09-.51-1.34-.35-.29-1.25-.58-2.14-.7v-.54c1.02.1,2.72.19,3.3.19.54,0,.8-.03,1.09-.26.7-.64,1.41-3.26,1.79-7.84h-4.06l-.96.86-1.92-1.5c.26-.19.64-.38,1.06-.54.35-1.06.8-2.59,1.06-3.68h-3.17l-.26-.96h8.61l1.31-1.73ZM220.84,72.43c0,.16-.83.58-1.63.58h-.29v-9.57l2.08.93h4.19l1.15-1.22,2.5,1.89c-.19.26-.77.54-1.38.67v6.24c-.03.19-.99.64-1.63.64h-.32v-1.06h-4.67v.9ZM220.84,65.3v5.28h4.67v-5.28h-4.67ZM246.47,69.94c-.22.26-.61.32-1.18.35-.64.7-1.73,1.63-2.56,2.11l-.45-.19c.26-.58.51-1.47.74-2.27h-11.68v7.17c0,4.77-.38,10.53-5.09,14.43l-.42-.38c3.17-3.94,3.55-8.96,3.55-14.01v-9.18l2.34,1.06h3.58v-6.66l3.14.32c-.06.45-.38.77-1.15.86v2.05h4.16l1.41-1.7s1.57,1.22,2.59,2.11c-.1.35-.42.51-.83.51h-7.33v2.5h5.6l1.25-1.28,2.34,2.21ZM229.19,91.18c4.26-2.4,4.86-6.56,4.42-10.88l3.33.67c-.13.48-.48.74-1.18.77-.13,3.74-.96,7.74-6.37,9.95l-.19-.51ZM244.17,77.17c.64.22.93.32.93.7,0,.8-.86,1.02-4.96,1.02h-2.66c-2.11,0-2.46-.45-2.46-1.73v-2.34l-2.94.26-.35-.93,3.3-.29v-3.33l2.75.35c-.06.35-.38.64-.93.74v2.05l2.62-.22,1.09-1.54s1.47.99,2.37,1.63c-.03.35-.35.58-.77.61l-5.31.48v2.21c0,.38.1.48,1.02.48h4.74c.22,0,.42-.03.58-.06.13,0,.38-.06.58-.1h.42ZM245.64,88.88c.61.19.74.38.74.77,0,.77-.8,1.06-3.58,1.06h-1.7c-1.73,0-2.02-.54-2.02-1.76v-8.38l2.82.35c-.03.38-.35.67-.93.77v6.94c0,.35.06.45.61.45h2.43c.19-.03.29-.06.42-.26.19-.38.48-1.73.74-3.01h.38l.1,3.07Z"/><path class="cls-1" d="M259.4,73.46c3.1,1.18,5.09,2.62,6.24,4.29.45.7.77,1.54.7,2.3-.03.61-.42,1.09-1.06,1.09-.58,0-.93-.45-1.38-1.44-1.06-2.08-2.53-3.87-4.9-5.7l.38-.54Z"/><path class="cls-1" d="M300.1,67.06c10.62,4.61,9.6,10.91,7.01,9.25-.29-1.02-.9-2.14-1.7-3.23-5.09.77-12.29,1.6-20.73,2.37-.19.26-.38.38-.58.48l-1.18-2.56s.64-.16.93-.32c3.68-2.34,8.61-7.71,10.59-10.72l3.01,1.5c-.16.32-.58.58-1.28.42-2.37,2.72-6.88,6.56-10.91,9.15,4.29-.1,11.77-.51,19.65-.99-1.5-1.92-3.46-3.78-5.15-5.02l.35-.32ZM303.97,77.17l2.62,2.05c-.19.29-.7.54-1.38.67v10.72c-.03.19-1.12.7-1.82.7h-.32v-2.4h-14.75v1.95c0,.22-.9.74-1.79.74h-.32v-14.14l2.3,1.06h14.21l1.25-1.34ZM303.08,87.95v-8.51h-14.75v8.51h14.75Z"/><path class="cls-1" d="M323.78,63.53h14.55v.76l-9.05,26.95h-2.24l8.11-24.44h-7.47c-1.51,0-2.58.18-3.22.54-1.12.61-2.02,1.56-2.7,2.84l-.58-.22,2.6-6.43Z"/><path class="cls-1" d="M359.23,80.67v2.84h-3.64v7.17h-3.3v-7.17h-11.49v-2.56l12.59-17.98h2.2v17.7h3.64ZM352.29,80.67v-13.47l-9.53,13.47h9.53Z"/><path class="cls-1" d="M372.4,73.46c3.1,1.18,5.09,2.62,6.24,4.29.45.7.77,1.54.7,2.3-.03.61-.42,1.09-1.06,1.09-.58,0-.93-.45-1.38-1.44-1.06-2.08-2.53-3.87-4.9-5.7l.38-.54Z"/><path class="cls-1" d="M411.03,62.97v.74c-1.76.17-3.2.52-4.31,1.05-1.11.53-2.22,1.33-3.3,2.41-1.09,1.08-1.99,2.29-2.7,3.61-.71,1.33-1.31,2.91-1.79,4.74,1.92-1.32,3.85-1.98,5.79-1.98s3.46.75,4.82,2.24c1.36,1.5,2.04,3.42,2.04,5.77s-.69,4.34-2.06,6.21c-1.66,2.27-3.84,3.4-6.57,3.4-1.86,0-3.43-.61-4.72-1.84-2.54-2.39-3.8-5.49-3.8-9.29,0-2.43.49-4.74,1.46-6.93.97-2.19,2.37-4.13,4.17-5.83,1.81-1.7,3.54-2.84,5.19-3.42,1.65-.59,3.2-.88,4.62-.88h1.16ZM398.58,76.98c-.24,1.8-.36,3.26-.36,4.36,0,1.28.24,2.67.71,4.17.47,1.5,1.18,2.69,2.11,3.57.68.63,1.51.94,2.48.94,1.16,0,2.2-.55,3.11-1.64.91-1.09,1.37-2.66,1.37-4.68,0-2.28-.45-4.26-1.36-5.93-.91-1.67-2.2-2.5-3.86-2.5-.51,0-1.05.11-1.63.32-.58.21-1.44.67-2.57,1.38Z"/><path class="cls-1" d="M415.24,68.7c.77-1.83,1.75-3.24,2.93-4.23,1.18-.99,2.65-1.49,4.41-1.49,2.18,0,3.84.71,5,2.12.88,1.05,1.32,2.18,1.32,3.38,0,1.97-1.24,4.02-3.72,6.12,1.67.65,2.93,1.59,3.78,2.8.85,1.21,1.28,2.64,1.28,4.29,0,2.35-.75,4.38-2.24,6.11-1.95,2.24-4.77,3.36-8.47,3.36-1.83,0-3.07-.23-3.73-.68-.66-.45-.99-.94-.99-1.46,0-.39.16-.73.47-1.02.31-.29.69-.44,1.13-.44.33,0,.67.05,1.02.16.23.07.74.31,1.54.73.8.42,1.35.67,1.66.75.49.15,1.02.22,1.58.22,1.36,0,2.55-.53,3.55-1.58,1.01-1.05,1.51-2.3,1.51-3.74,0-1.05-.23-2.08-.7-3.08-.35-.75-.73-1.31-1.14-1.7-.57-.53-1.36-1.02-2.36-1.45s-2.02-.65-3.06-.65h-.64v-.6c1.05-.13,2.11-.51,3.17-1.14,1.06-.63,1.83-1.38,2.31-2.26.48-.88.72-1.85.72-2.9,0-1.37-.43-2.49-1.29-3.33-.86-.85-1.93-1.27-3.21-1.27-2.07,0-3.8,1.11-5.18,3.32l-.66-.32Z"/><path class="cls-1" d="M445.69,82.89c.86,3.14.35,5.54-.45,6.62-.51.67-1.6.99-2.05.38-.38-.54-.1-1.25.48-1.76.83-.93,1.6-3.26,1.44-5.25h.58ZM443.29,79.02s.61-.16.83-.32c1.54-1.38,3.3-3.71,4.8-5.95-1.06.32-2.3.64-3.62.93-.22.42-.51.67-.8.77l-1.06-2.78s.54-.1.74-.29c1.82-1.89,4.06-6.43,4.86-8.86l2.91,1.47c-.16.29-.54.54-1.15.48-1.25,2.14-3.42,5.18-5.47,7.26,1.18.03,2.69.03,4.19,0,.77-1.28,1.41-2.43,1.82-3.36l2.69,1.86c-.16.22-.61.45-1.18.32-1.6,2.5-4.7,6.08-7.55,8.54,1.66-.1,3.94-.26,6.3-.45-.35-1.25-.93-2.53-1.47-3.42l.42-.19c4.86,3.58,3.07,7.39,1.47,5.79,0-.42-.1-.9-.19-1.41-1.76.48-4.22,1.15-6.78,1.73-.26.32-.51.54-.8.61l-.96-2.72ZM448.47,82.29c3.49,4.19,1.25,7.84-.19,6.05.35-1.89.13-4.35-.29-5.92l.48-.13ZM451.35,81.74c4.58,3.07,2.69,6.72,1.12,5.18,0-1.6-.8-3.71-1.54-5.02l.42-.16ZM471.25,79.79c-.13.22-.64.42-1.18.19-.86.7-2.4,1.76-3.84,2.66,1.73,2.3,3.97,3.84,6.08,4.93l-.06.32c-.77.13-1.38.7-1.66,1.63-3.1-2.27-5.5-5.21-6.91-10.33v9.37c0,1.63-.38,2.82-3.14,3.1-.03-.61-.16-1.22-.58-1.5-.48-.35-1.18-.61-2.56-.8v-.48s3.01.22,3.62.22c.54,0,.7-.16.7-.58v-8.26c-.22.22-.54.35-1.22.38-1.12,3.81-3.42,7.49-7.65,9.76l-.35-.48c3.2-2.3,5.12-5.82,5.98-9.44h-3.97l-.26-.96h4.13l1.25-1.18,2.08,1.86v-4.19h-4.03v1.18c0,.19-.61.58-1.6.58h-.29v-12.45l2.27.96h2.27c.26-1.09.64-2.85.86-4l3.33.64c-.1.45-.51.7-1.18.7-.54.77-1.41,1.82-2.08,2.66h6.02l1.02-1.15,2.24,1.7c-.22.29-.54.45-1.18.54v9.57c0,.13-.77.58-1.63.58h-.32v-1.5h-3.74v1.41c.54,1.82,1.28,3.36,2.18,4.67,1.12-1.34,2.4-3.17,2.98-4.22l2.43,1.92ZM457.69,67.25v3.42h9.73v-3.42h-9.73ZM467.41,75.09v-3.46h-9.73v3.46h9.73Z"/><path class="cls-1" d="M487.19,79.85c1.73-1.02,2.53-2.34,2.88-3.9-1.5-.67-2.3-1.41-2.3-2.5,0-.99.67-1.82,1.86-1.82,1.31,0,2.14.99,2.14,2.78,0,2.08-.96,4.9-4.03,6.4l-.54-.96Z"/><path class="cls-1" d="M517.4,78.09c-.22.26-.54.32-1.22.38-.61,2.27-1.86,4.9-3.78,6.85.13.06.26.16.38.29,2.82,2.82,6.43,3.23,12.77,3.23,3.81,0,7.01,0,10.94-.19v.45c-.96.16-1.47.8-1.6,1.63h-9.98c-6.56,0-9.66-.83-12.54-4.22-.42-.45-.74-.38-.96,0-.64.96-1.86,2.78-2.59,4.06.13.26.1.48-.13.67l-1.86-2.14c1.5-1.15,3.94-3.62,4.74-3.87,1.25-1.92,2.21-4.58,2.62-6.88h-3.9l-.93.74-1.7-1.7c.29-.16.83-.38,1.28-.48,1.18-1.54,2.75-3.84,3.78-5.5h-5.25l-.29-.96h5.7l1.15-1.15,2.3,2.05c-.32.32-.99.48-1.73.51-.96,1.5-2.62,3.87-3.87,5.54h3.3l1.22-1.22,2.14,1.92ZM508.95,62.64c6.53,2.11,4.86,6.56,2.72,5.06-.32-1.6-1.82-3.62-3.07-4.8l.35-.26ZM515.96,66.51h8.7v-4.29l3.2.35c-.1.48-.35.77-1.18.9v3.04h4.38l1.47-1.86s1.73,1.28,2.82,2.27c-.1.35-.42.51-.9.51h-7.78v3.23h3.97l1.15-1.25,2.5,1.92c-.19.26-.74.54-1.34.67v5.86c-.03.16-1.02.64-1.66.64h-.32v-1.31h-4.29v1.47c9.06,2.78,8.29,7.65,5.89,6.43-.99-1.89-3.71-4.26-5.89-5.76v7.87c0,.29-.86.74-1.6.74h-.42v-8.13c-2.08,2.59-4.8,4.74-7.97,6.37l-.35-.51c3.2-2.21,5.89-5.25,7.55-8.48h-3.78v.99c0,.19-.86.64-1.66.64h-.29v-9.15l2.14.99h4.35v-3.23h-8.45l-.26-.93ZM524.66,76.24v-4.64h-4.54v4.64h4.54ZM526.68,71.6v4.64h4.29v-4.64h-4.29Z"/><path class="cls-1" d="M550.81,75.25c-1.34.77-3.01,1.73-4.99,2.82v10.4c0,1.73-.32,2.82-3.23,3.14-.1-.67-.26-1.28-.67-1.6-.48-.38-1.28-.64-2.69-.83v-.51s3.2.22,3.81.22.77-.16.77-.67v-9.02c-1.02.54-2.08,1.12-3.23,1.73-.1.35-.35.7-.64.83l-1.18-2.62c1.02-.29,2.85-.93,5.06-1.76v-6.82h-4.38l-.26-.96h4.64v-7.26l3.2.35c-.1.48-.42.8-1.18.9v6.01h1.38l1.28-1.76s1.5,1.25,2.4,2.21c-.1.35-.42.51-.83.51h-4.22v6.05c1.54-.54,3.2-1.18,4.83-1.82l.16.48ZM567.83,88.33c.77,1.12.86,1.63.48,2.02-.74.86-2.4.03-3.55-1.12-3.36-3.07-4.9-8.22-5.6-14.24h-5.82v10.08c1.57-.74,3.55-1.63,5.5-2.59l.19.45c-1.38,1.02-3.9,3.04-6.69,5.06-.19.51-.58.83-.83.96l-1.44-2.75c1.09-.51,1.28-.7,1.28-1.34v-19.65l2.75.74c3.65-.93,7.68-2.34,9.92-3.42l2.43,2.24c-.29.29-.86.29-1.6,0-1.18.32-2.56.64-4.13.93-.1,2.69,0,5.6.29,8.38h2.53l1.47-1.89s1.7,1.31,2.72,2.3c-.1.35-.35.51-.8.51h-5.82c.67,5.18,2.11,9.95,4.8,12.16.42.42.67.38.9-.19.32-.7.8-2.02,1.09-3.26l.45.06-.51,4.58ZM561.14,87.98s1.47,1.18,2.37,2.08c-.06.35-.38.51-.83.51h-10.24l-.22-.96h7.65l1.28-1.63ZM559.06,74.06c-.26-2.56-.35-5.28-.38-8-1.73.29-3.58.54-5.34.7v7.3h5.73Z"/><path class="cls-1" d="M590.1,67.06c10.62,4.61,9.6,10.91,7.01,9.25-.29-1.02-.9-2.14-1.7-3.23-5.09.77-12.29,1.6-20.73,2.37-.19.26-.38.38-.58.48l-1.18-2.56s.64-.16.93-.32c3.68-2.34,8.61-7.71,10.59-10.72l3.01,1.5c-.16.32-.58.58-1.28.42-2.37,2.72-6.88,6.56-10.91,9.15,4.29-.1,11.77-.51,19.65-.99-1.5-1.92-3.46-3.78-5.15-5.02l.35-.32ZM593.97,77.17l2.62,2.05c-.19.29-.7.54-1.38.67v10.72c-.03.19-1.12.7-1.82.7h-.32v-2.4h-14.75v1.95c0,.22-.9.74-1.79.74h-.32v-14.14l2.3,1.06h14.21l1.25-1.34ZM593.08,87.95v-8.51h-14.75v8.51h14.75Z"/><path class="cls-1" d="M631.45,69.78c-.19.26-.7.51-1.34.64v10.98c-.03.19-1.12.67-1.82.67h-.35v-2.66h-9.31v11.39c0,.32-.93.86-1.73.86h-.42v-12.26h-9.31v2.3c0,.22-.86.7-1.76.7h-.32v-14.43l2.3,1.09h9.09v-6.75l3.3.38c-.06.45-.32.77-1.15.9v5.47h8.99l1.22-1.34,2.62,2.05ZM616.47,78.45v-8.45h-9.31v8.45h9.31ZM627.93,78.45v-8.45h-9.31v8.45h9.31Z"/><path class="cls-1" d="M643.74,68.7c.77-1.83,1.75-3.24,2.93-4.23,1.18-.99,2.65-1.49,4.41-1.49,2.18,0,3.84.71,5,2.12.88,1.05,1.32,2.18,1.32,3.38,0,1.97-1.24,4.02-3.72,6.12,1.67.65,2.93,1.59,3.78,2.8.85,1.21,1.28,2.64,1.28,4.29,0,2.35-.75,4.38-2.24,6.11-1.95,2.24-4.77,3.36-8.47,3.36-1.83,0-3.07-.23-3.73-.68-.66-.45-.99-.94-.99-1.46,0-.39.16-.73.47-1.02.31-.29.69-.44,1.13-.44.33,0,.67.05,1.02.16.23.07.74.31,1.54.73.8.42,1.35.67,1.66.75.49.15,1.02.22,1.58.22,1.36,0,2.55-.53,3.55-1.58,1.01-1.05,1.51-2.3,1.51-3.74,0-1.05-.23-2.08-.7-3.08-.35-.75-.73-1.31-1.14-1.7-.57-.53-1.36-1.02-2.36-1.45s-2.02-.65-3.06-.65h-.64v-.6c1.05-.13,2.11-.51,3.17-1.14,1.06-.63,1.83-1.38,2.31-2.26.48-.88.72-1.85.72-2.9,0-1.37-.43-2.49-1.29-3.33-.86-.85-1.93-1.27-3.21-1.27-2.07,0-3.8,1.11-5.18,3.32l-.66-.32Z"/><path class="cls-1" d="M683.11,72.72c1.15,6.05,4.54,12.51,14.05,16.86l-.06.35c-1.12.13-1.89.54-2.21,1.76-8.9-4.9-11.46-12.54-12.38-18.94-.9,7.46-3.84,14.08-14.81,18.91l-.35-.58c9.34-4.99,12.1-11.23,12.93-18.37h-12.32l-.29-.93h12.7c.26-2.98.26-6.11.26-9.37l3.42.35c-.1.48-.35.8-1.09.93-.06,2.75-.1,5.47-.35,8.09h9.22l1.76-2.21s1.95,1.54,3.14,2.62c-.06.35-.35.51-.83.51h-12.77Z"/><path class="cls-1" d="M707.5,74.93c6.56,2.56,5.09,6.56,3.07,5.18-.45-1.38-1.86-3.1-3.07-4.38v15.23c-.03.16-.7.67-1.73.67h-.32v-14.21c-1.54,3.07-3.58,5.86-6.11,8.13l-.45-.41c2.78-3.39,4.86-7.94,6.05-12.42h-5.09l-.26-.93h5.86v-5.57c-1.86.38-3.81.74-5.66.93l-.16-.51c3.71-.93,8.13-2.75,10.4-4.16l2.59,2.18c-.29.26-.83.29-1.6.03-.99.35-2.21.7-3.52,1.06v6.05h1.63l1.34-1.79s1.57,1.28,2.5,2.21c-.06.35-.38.51-.8.51h-4.67v2.21ZM726.85,78.29s1.7,1.15,2.66,1.89c0,.35-.29.64-.67.7l-4.64.93v8.96c0,.32-.9.8-1.63.8h-.42v-9.37l-11.04,2.18-.45-.9,11.49-2.24v-18.3l3.2.38c-.1.45-.35.74-1.15.86v16.64l1.5-.29,1.15-2.24ZM713.45,73.26c7.62,1.54,6.37,6.3,4.03,4.96-.67-1.57-2.69-3.62-4.35-4.67l.32-.29ZM714.18,65.71c7.52,1.7,6.21,6.4,3.84,5.06-.58-1.6-2.56-3.65-4.13-4.74l.29-.32Z"/><path class="cls-1" d="M757.77,85.97s1.89,1.47,3.04,2.53c-.1.35-.35.51-.83.51h-28.29l-.26-.96h13.47v-20h-11.01l-.29-.96h20.35l1.66-2.08s1.92,1.47,3.07,2.53c-.1.35-.45.51-.86.51h-10.72v20h8.99l1.66-2.08Z"/><path class="cls-1" d="M790.31,88.37c1.12.19,1.41.45,1.41.93,0,1.18-1.92,1.41-12.35,1.38h-7.9c-4.48,0-6.02-.58-6.02-3.42v-21.85h-1.28l-.26-.96h23.04l1.44-1.86s1.7,1.31,2.72,2.3c-.1.35-.38.51-.83.51h-22.91v21.6c0,1.41.61,1.95,3.9,1.95h8.29c3.71,0,6.69-.06,7.68-.16.64-.03.99-.06,1.38-.13.29-.06.74-.16,1.18-.32h.38l.13.03ZM776.36,86.89v-1.44h-4.64v1.38c0,.19-.8.64-1.57.64h-.29v-10.33l2.02.9h4.22l1.02-1.02,2.21,1.66c-.16.19-.61.45-1.09.51v7.1c-.03.19-.96.61-1.6.61h-.29ZM776.36,84.49v-5.5h-4.64v5.5h4.64ZM784.04,74.8h-8.54v.99c0,.19-.9.64-1.73.64h-.29v-9.21l2.18.96h8.1l1.12-1.18,2.43,1.86c-.19.22-.67.48-1.25.58v5.95c-.03.22-1.02.67-1.7.67h-.32v-1.25ZM784.04,73.84v-4.74h-8.54v4.74h8.54ZM787.24,86.77v-1.31h-4.7v.96c0,.19-.83.61-1.6.61h-.29v-9.89l2.05.9h4.26l1.06-1.12,2.3,1.79c-.16.19-.64.45-1.18.54v6.88c-.03.19-.96.64-1.6.64h-.29ZM787.24,84.49v-5.5h-4.7v5.5h4.7Z"/><path class="cls-1" d="M137.25,142.72s1.5,1.31,2.37,2.24c-.1.35-.38.51-.83.51h-29.02l-.29-.93h3.55l-.45-18.33,2.46.99c1.31-1.02,2.72-2.24,3.42-2.94l2.11,1.82c-.16.19-.48.22-.9.06-1.12.58-3.14,1.5-5.06,2.14l.13,4.38h1.82l1.09-1.37s1.22.99,1.95,1.82c-.1.35-.35.51-.8.51h-4.06l.13,5.02h1.95l1.12-1.47s1.25,1.09,2.05,1.89c-.06.35-.35.51-.8.51h-4.29l.13,4.96h18.56l.13-4.96h-4.19l-.29-.93h4.51l.1-5.02h-3.84l-.29-.96h4.16l.1-4.93h-4.45l-.29-.93h4.48l1.06-1.28,2.3,1.98c-.22.22-.51.32-1.12.42l-.38,16.61h.38l1.28-1.82ZM109.96,153.25c3.71-1.7,7.68-4.77,9.44-7.01l3.1,1.44c-.19.38-.67.48-1.5.35-2.34,2.02-6.59,4.38-10.78,5.66l-.26-.45ZM124.13,136c-.1.35-.45.67-1.09.67-.67,2.66-1.73,5.34-3.01,7.14l-.58-.26c.83-2.14,1.5-5.25,1.76-8.19l2.91.64ZM119.91,133.15c.29-.19.77-.42,1.22-.61.32-2.33.74-6.14.8-8.13l2.94.64c-.1.38-.38.74-1.15.7-.06.64-.13,1.34-.19,2.14h2.78l1.09-1.41s1.25,1.06,2.02,1.86c-.06.35-.38.51-.8.51h-5.18c-.13,1.38-.32,2.85-.48,4h3.33l1.06-1.12,2.24,1.79c-.22.26-.58.38-1.22.45-.16,5.79-.61,8.29-1.6,9.15-.67.61-1.6.83-2.5.83,0-.51-.1-1.02-.42-1.31-.32-.26-1.02-.48-1.79-.58l.03-.54c.83.06,2.11.16,2.62.16.45,0,.67-.03.86-.26.51-.51.86-2.78.99-7.62h-3.46l-.96,1.06-2.24-1.73ZM127.65,146.69c14.02,3.2,10.66,8.54,8.45,6.46-1.47-1.86-4.38-4.1-8.64-5.92l.19-.54Z"/><path class="cls-1" d="M170.63,126.88c-.22.26-.74.51-1.38.64v25.05c-.06.22-1.02.83-1.73.83h-.32v-1.86h-21.69v1.28c0,.32-.74.86-1.63.86h-.38v-28.57l2.21,1.06h21.18l1.18-1.31,2.56,2.02ZM167.2,150.59v-23.45h-21.69v23.45h21.69ZM156.84,143.65c-1.86.74-4.61,1.76-8.35,3.01-.16.38-.38.61-.67.7l-1.41-2.37c1.86-.26,6.08-.99,10.34-1.82l.1.48ZM158.47,132.96c.22,2.75.67,5.47,1.5,7.84,1.12-1.86,2.05-3.97,2.72-6.27l2.85,1.15c-.19.35-.58.64-1.28.54-.93,2.46-2.11,4.61-3.49,6.43.7,1.38,1.57,2.59,2.66,3.55.42.42.58.42.8-.13.32-.64.74-1.92,1.06-3.04l.38.06-.38,4.1c.74,1.09.83,1.5.54,1.86-.64.8-2.27,0-3.33-.99-1.22-1.09-2.21-2.4-3.01-3.84-2.02,2.24-4.35,3.9-6.98,5.09l-.32-.45c2.4-1.47,4.67-3.55,6.56-6.18-1.22-2.82-1.89-6.11-2.18-9.73h-9.76l-.26-.96h9.92c-.1-1.41-.13-2.88-.16-4.38l3.07.64c-.1.35-.38.67-1.06.7,0,.99.03,2.02.06,3.04h4.38l1.22-1.54s1.44,1.09,2.3,1.98c-.1.35-.42.51-.83.51h-7.01ZM153.44,142.14v-1.02h-3.39v1.09c0,.16-.77.58-1.47.58h-.26v-8.19l1.86.9h3.04l.96-1.02,2.08,1.6c-.16.22-.58.45-1.06.48v4.96c-.03.19-.9.64-1.5.64h-.26ZM153.44,140.16v-3.74h-3.39v3.74h3.39ZM159.97,127.74c5.25.61,4.13,4,2.37,3.07-.45-.99-1.66-2.18-2.69-2.75l.32-.32Z"/><path class="cls-1" d="M184.96,127.36c-.26.29-.7.35-1.41.35-.96,1.95-2.69,5.7-3.9,7.65,2.91,2.46,4,5.18,4,7.68.03,3.07-.99,4.41-3.87,4.54,0-.67-.1-1.34-.35-1.6-.26-.22-.83-.38-1.5-.51v-.48h2.11c.32,0,.51-.03.74-.19.48-.29.74-.99.74-2.21,0-2.34-.67-4.77-2.66-7.14.67-2.02,1.73-5.73,2.37-8.25h-4.29v25.73c0,.16-.67.7-1.63.7h-.35v-28.41l2.37,1.06h3.78l1.38-1.31,2.5,2.4ZM202.82,128.13c-.22.22-.64.29-1.25.32-.9,1.6-2.53,3.62-4.03,4.99,1.47,1.95,3.39,3.52,5.54,4.51l-.06.35c-.74.06-1.31.61-1.6,1.44-3.58-2.37-5.98-6.27-7.07-11.17-.19.1-.48.1-.9.13-1.44,4.7-4.26,9.34-9.41,12.29l-.35-.51c4.06-2.88,6.69-7.39,7.87-11.93h-4.19c-.22.42-.48.86-.7,1.28,4.61,1.06,3.62,3.94,2.02,3.01-.35-.83-1.38-1.86-2.34-2.53-.93,1.47-2.05,2.85-3.26,3.9l-.45-.32c1.95-2.3,3.58-6.3,4.35-9.57l2.78,1.06c-.16.32-.42.42-1.18.26-.19.64-.45,1.28-.77,1.95h3.65l1.18-1.12,1.98,1.76.26-.1c.48,1.76,1.25,3.33,2.24,4.77.83-1.41,1.73-3.26,2.3-4.74h-4.06l-.29-.96h4.29l1.25-1.25,2.21,2.18ZM188.42,133.7c-.74.64-1.86,1.54-3.3,2.43-.03.38-.19.64-.45.74l-1.41-1.82c1.28-.29,3.23-1.02,4.96-1.82l.19.48ZM183.36,151.74c1.89-1.82,3.74-4.51,4.61-6.62l2.75,1.31c-.16.32-.51.35-1.06.26-1.22,1.86-3.62,4.06-5.95,5.47l-.35-.42ZM194.37,144.03v9.06c0,.13-.67.58-1.7.58h-.32v-9.63h-6.94l-.26-.93h13.15l1.38-1.76s1.57,1.22,2.53,2.18c-.06.35-.38.51-.8.51h-7.04ZM196.51,136.48s1.44,1.15,2.3,2.05c-.06.35-.35.51-.77.51h-9.41l-.22-.96h6.85l1.25-1.6ZM196.35,145.5c7.9,3.01,6.59,7.87,4.32,6.4-.61-1.98-2.88-4.61-4.67-6.14l.35-.26Z"/><path class="cls-1" d="M211.78,135.23c5.06,2.88,3.55,6.27,1.79,4.9-.26-1.12-1.02-2.59-1.79-3.74v16.42c0,.29-.83.8-1.54.8h-.42v-14.81c-.99,2.69-2.3,5.18-4.03,7.39l-.48-.38c2.08-3.68,3.36-8.32,4.06-12.93h-3.39l-.22-.96h4.06v-7.68l3.1.38c-.1.45-.35.77-1.15.9v6.4h.06l1.31-1.7s1.47,1.22,2.37,2.14c-.06.35-.38.51-.8.51h-2.94v2.37ZM234.18,151.45c.86.83.96,1.18.8,1.57-.51,1.02-2.21.48-3.62-.29-1.44-.64-2.62-1.66-3.58-2.91-2.3,1.79-4.99,2.98-7.78,3.71l-.22-.51c2.53-.99,4.99-2.53,7.14-4.58-1.02-1.76-1.7-3.94-2.14-6.43h-4.61c-.06.83-.16,1.6-.29,2.46,5.15,1.44,3.84,5.02,1.89,3.84-.29-.93-1.15-2.05-2.08-2.88-.7,2.91-2.21,5.82-5.89,8.13l-.48-.48c3.97-3.39,4.54-7.49,4.67-11.07h-2.78l-.26-.93h9.66c-.51-3.07-.7-6.59-.8-10.56-.19.22-.58.42-1.12.32-1.22,1.86-3.39,4.41-5.34,6.21,1.12-.1,2.59-.22,4.1-.35-.26-.86-.61-1.63-.99-2.27l.45-.16c4.22,2.88,2.37,6.08.93,4.61,0-.48-.06-.99-.19-1.54-1.12.35-2.75.9-4.38,1.34-.16.35-.38.61-.61.7l-1.22-2.34s.51-.13.7-.26c1.09-.99,2.37-2.75,3.39-4.45-.7.26-1.54.51-2.37.77-.16.35-.38.61-.61.74l-1.25-2.43s.48-.13.67-.22c1.38-1.34,3.01-4.64,3.65-6.33l2.66,1.28c-.13.29-.45.58-1.12.48-.99,1.5-2.59,3.46-4.06,4.9.86-.03,1.92-.1,3.04-.19.48-.86.9-1.63,1.18-2.27l2.5,1.34c-.06-1.89-.06-3.9-.06-5.98l3.17.38c-.06.42-.38.77-1.15.93-.1,5.82-.03,11.1.67,15.36h4.86l1.31-1.66s1.54,1.18,2.5,2.08c-.1.35-.38.51-.83.51h-7.68c.38,1.92.93,3.62,1.63,5.02,1.02-1.15,1.92-2.5,2.66-4l2.5,1.63c-.22.32-.51.42-1.18.22-.83,1.38-1.82,2.62-2.98,3.68.8.99,1.7,1.73,2.82,2.24.54.29.67.26.93-.35.35-.8.86-2.34,1.18-3.68l.42.03-.38,4.64ZM225.99,131.46s.45-.13.64-.26c1.15-1.28,2.46-4.54,2.94-6.18l2.72,1.28c-.13.26-.45.54-1.12.48-.8,1.38-2.14,3.2-3.39,4.61.83-.03,1.82-.1,2.82-.16.54-.99,1.02-1.86,1.31-2.56l2.46,1.7c-.16.26-.54.45-1.15.29-1.12,1.63-2.98,3.84-4.8,5.47,1.15-.1,2.56-.22,4-.35-.29-.67-.61-1.25-.93-1.7l.42-.22c4.48,2.5,2.59,5.92,1.09,4.45,0-.54-.13-1.22-.32-1.89-1.09.35-2.78.9-4.42,1.34-.19.38-.45.67-.67.77l-1.18-2.37s.54-.13.7-.22c.9-.83,1.95-2.21,2.88-3.65-.67.22-1.47.48-2.21.7-.16.35-.38.61-.61.7l-1.18-2.24ZM228.61,137.82c4.13,1.09,2.46,3.94.96,2.75-.13-.9-.74-1.95-1.34-2.53l.38-.22Z"/><path class="cls-1" d="M248.39,141.28c-2.11,1.38-5.12,3.39-9.02,5.76-.03.38-.29.74-.61.9l-1.34-2.69c.86-.29,2.4-.9,4.26-1.66v-9.66h-3.65l-.22-.93h3.87v-8.25l3.23.35c-.06.45-.35.77-1.18.86v7.04h.67l1.38-1.92s1.54,1.38,2.46,2.37c-.1.35-.42.48-.83.48h-3.68v8.83c1.44-.61,2.98-1.25,4.51-1.92l.16.45ZM253.89,139.01c-.48.93-1.06,1.79-1.7,2.62h11.26l1.15-1.25,2.37,1.92c-.19.26-.61.38-1.25.48-.42,5.54-1.38,8.83-2.75,9.92-.83.67-1.92.96-3.1.96,0-.61-.1-1.15-.51-1.44-.38-.35-1.38-.61-2.37-.77l.03-.54c1.09.1,2.91.22,3.55.22.54,0,.83-.06,1.12-.29.8-.7,1.6-3.62,2.02-8.32h-2.46c-1.76,4.8-5.02,8.45-10.11,11.07l-.29-.51c4.03-2.66,6.69-6.27,8.1-10.56h-2.62c-2.21,4.1-5.86,7.3-10.59,9.57l-.38-.51c3.87-2.27,6.94-5.47,8.83-9.06h-2.72c-1.82,2.02-4.16,3.65-6.88,4.96l-.35-.45c3.2-2.08,5.7-4.9,7.2-8.03h-4.86l-.26-.96h16.8l1.47-1.86s1.73,1.31,2.75,2.3c-.1.35-.38.51-.8.51h-12.64ZM252,136.19c0,.19-.9.64-1.73.64h-.29v-11.87l2.18.99h8.8l1.15-1.28,2.56,1.95c-.22.26-.7.51-1.34.64v8.51c-.03.19-1.06.74-1.73.74h-.32v-1.31h-9.28v.99ZM252,126.88v3.17h9.28v-3.17h-9.28ZM261.28,134.24v-3.23h-9.28v3.23h9.28Z"/><path class="cls-1" d="M281.89,141.85c1.73-1.02,2.53-2.34,2.88-3.9-1.5-.67-2.3-1.41-2.3-2.5,0-.99.67-1.82,1.86-1.82,1.31,0,2.14.99,2.14,2.78,0,2.08-.96,4.9-4.03,6.4l-.54-.96Z"/><path class="cls-1" d="M330.4,150.53c.74.22.9.51.9.93,0,.93-.99,1.34-6.21,1.34h-3.65c-2.59,0-3.14-.51-3.14-2.14v-9.73h-4.54c-.64,5.6-2.05,10.02-11.84,12.83l-.32-.51c8.06-3.26,9.38-7.55,9.79-12.32h-8.03l-.29-.93h22.65l1.54-1.82s1.76,1.28,2.88,2.24c-.1.35-.38.51-.83.51h-8.93v9.28c0,.51.13.67,1.41.67h3.33c1.47,0,2.69-.03,3.17-.06.35-.03.48-.13.61-.45.26-.54.64-2.34.99-4.26h.45l.06,4.42ZM306.21,130.37c.03,2.08-.86,3.42-1.79,4.06-.83.61-2.05.58-2.4-.22-.29-.74.19-1.41.86-1.82,1.25-.7,2.5-2.53,2.34-4.61l.54-.03c.19.61.32,1.15.38,1.66h20.93l1.41-1.41,2.56,2.43c-.22.26-.61.29-1.25.32-.93,1.12-2.59,2.72-3.87,3.58l-.38-.26c.48-.93,1.15-2.5,1.57-3.71h-20.89ZM321.15,134.62l1.44-1.73s1.7,1.22,2.75,2.14c-.06.35-.35.51-.8.51h-17.02l-.22-.93h13.85ZM314.37,124.32c6.27,1.47,4.32,6.08,2.11,4.42-.19-1.41-1.31-3.17-2.46-4.19l.35-.22Z"/><path class="cls-1" d="M340.39,137.05c-1.76,1.92-4.03,3.52-6.66,4.74l-.35-.51c2.69-1.73,4.93-4.03,6.34-6.53h-2.59v.45c0,.19-.8.61-1.57.61h-.26v-6.72l1.98.93h3.1v-2.02h-6.21l-.26-.93h6.46v-2.88l3.1.35c-.06.45-.38.74-1.15.86v1.66h3.2l1.38-1.66s1.5,1.15,2.5,2.08c-.1.35-.42.51-.86.51h-6.21v2.02h3.1l.99-1.06,2.14,1.66c-.16.19-.58.45-1.02.51v3.84c-.03.22-.96.67-1.57.67h-.29v-.9h-3.36v.99c7.04.77,6.34,4.96,4.16,4-.77-1.22-2.62-2.69-4.16-3.49v4.86c0,.26-.83.67-1.54.67h-.42v-4.74ZM360.16,150.05s1.7,1.31,2.72,2.27c-.06.35-.35.51-.8.51h-28l-.26-.93h6.4v-6.21l3.1.32c-.06.42-.35.7-1.06.83v5.06h5.06v-8.16h-11.07l-.29-.93h20.61l1.41-1.79s1.66,1.25,2.66,2.21c-.1.35-.38.51-.8.51h-10.43v3.3h5.57l1.47-1.82s1.63,1.31,2.69,2.24c-.1.35-.42.51-.86.51h-8.86v3.94h9.25l1.5-1.86ZM337.12,133.82h3.26v-2.88h-3.26v2.88ZM342.34,130.94v2.88h3.36v-2.88h-3.36ZM360.32,129.76c-.77,2.56-1.95,4.67-3.62,6.43,1.76,1.5,3.97,2.69,6.78,3.46l-.1.35c-.77.19-1.38.7-1.57,1.7-2.72-1.12-4.74-2.59-6.3-4.38-2.08,1.79-4.77,3.14-8.13,4.19l-.22-.48c3.17-1.31,5.6-2.94,7.39-4.9-1.09-1.54-1.92-3.23-2.59-5.12-.93,1.31-1.95,2.43-3.04,3.33l-.45-.35c1.73-2.27,3.33-5.86,4.16-9.63l3.14.99c-.16.35-.51.61-1.15.61-.38.99-.83,1.98-1.34,2.88h6.05l1.44-1.82s1.6,1.31,2.59,2.24c-.1.35-.38.51-.8.51h-2.24ZM352.42,130.3c.77,1.76,1.76,3.36,3.04,4.74,1.18-1.57,2.02-3.33,2.53-5.28h-5.22l-.35.54Z"/><path class="cls-1" d="M394.08,140.32c-.19.26-.74.51-1.38.64v7.07c-.03.22-1.09.67-1.76.67h-.32v-1.86h-9.22v6.05c0,.29-.93.8-1.73.8h-.42v-6.85h-9.15v1.54c0,.19-.9.7-1.76.7h-.29v-10.5l2.27,1.02h8.93v-4.1h-7.62v1.15c0,.22-.9.67-1.76.67h-.29v-9.79l2.27.99h7.39v-4.19l3.26.38c-.1.45-.35.77-1.12.9v2.91h7.42l1.15-1.28,2.59,1.98c-.22.26-.74.51-1.34.64v6.5c-.03.16-1.09.67-1.76.67h-.32v-1.54h-7.74v4.1h8.9l1.18-1.28,2.59,1.98ZM379.27,145.89v-5.31h-9.15v5.31h9.15ZM379.27,134.59v-5.12h-7.62v5.12h7.62ZM381.41,129.47v5.12h7.74v-5.12h-7.74ZM390.63,145.89v-5.31h-9.22v5.31h9.22Z"/><path class="cls-1" d="M407.78,127.55v25.53c0,.13-.64.64-1.6.64h-.29v-7.71c-1.76.83-3.94,1.89-6.66,3.1-.1.35-.38.67-.7.77l-.93-2.56c.48-.1,1.18-.26,2.05-.45v-19.33h-1.82l-.26-.96h8.99l1.47-1.79s1.66,1.28,2.69,2.24c-.06.35-.38.51-.83.51h-2.11ZM405.89,127.55h-4.38v5.22h4.38v-5.22ZM405.89,133.73h-4.38v5.66h4.38v-5.66ZM401.51,146.4c1.34-.35,2.82-.74,4.38-1.15v-4.9h-4.38v6.05ZM414.88,139.04l2.88.32c-.1.42-.32.7-1.09.8v3.84c-.06,3.62-1.15,7.42-7.17,9.7l-.35-.48c3.55-1.7,4.99-4.13,5.5-6.66h-2.85l-.8,1.12-2.11-1.54c.19-.19.54-.42.9-.64v-5.86l3.1.26c-.06.38-.32.67-1.34.83v4.86h3.23c.06-.58.1-1.09.1-1.66v-4.9ZM415.08,133.7c4.26,3.04,2.53,6.34,1.09,4.9-.03-.38-.1-.86-.19-1.31-1.44.35-3.81.96-5.98,1.38-.13.1-.22.16-.32.19l-.74-2.02s.48-.1.67-.22c1.18-1.06,2.46-2.72,3.65-4.42-.9.26-2.02.51-3.04.7-.13.16-.26.26-.42.29l-.86-2.02s.42-.1.61-.26c1.41-1.44,3.07-5.06,3.68-6.88l2.62,1.28c-.1.26-.45.54-1.12.48-.99,1.63-2.59,3.87-4.06,5.44.9.03,2.08.03,3.2,0,.86-1.31,1.57-2.59,1.98-3.55l2.4,1.73c-.16.26-.58.45-1.22.29-1.38,2.11-3.9,5.09-6.24,7.2,1.31-.06,3.14-.16,4.99-.26-.26-1.02-.7-2.02-1.15-2.75l.45-.19ZM423.71,133.63c4.7,2.98,3.07,6.3,1.57,4.9-.03-.38-.16-.83-.32-1.31-1.47.35-3.9.96-6.14,1.38-.13.06-.19.13-.32.16l-.74-1.98s.48-.1.67-.22c1.09-1.06,2.37-2.78,3.42-4.51-.99.26-2.21.51-3.39.74-.13.16-.26.22-.38.29l-.83-1.98s.42-.13.54-.26c1.41-1.44,2.98-5.02,3.55-6.85l2.69,1.28c-.13.29-.51.54-1.18.48-.93,1.57-2.5,3.81-3.94,5.38.99.03,2.27.03,3.52,0,.77-1.28,1.38-2.46,1.79-3.39l2.37,1.7c-.16.26-.58.45-1.18.35-1.28,2.08-3.65,4.99-5.86,7.07,1.34-.03,3.23-.13,5.18-.26-.35-1.02-.93-2.02-1.44-2.75l.42-.19ZM426.91,140.25c-.06.45-.35.7-1.15.83v6.43c0,.22-.77.61-1.41.61h-.35v-1.57h-3.33v6.43c0,.26-.8.67-1.5.67h-.35v-14.69l3.04.35c-.06.42-.38.77-1.18.86v5.41h3.33v-5.66l2.91.32Z"/><path class="cls-1" d="M458.15,131.78c-.19.26-.7.51-1.34.64v10.98c-.03.19-1.12.67-1.82.67h-.35v-2.66h-9.31v11.39c0,.32-.93.86-1.73.86h-.42v-12.26h-9.31v2.3c0,.22-.86.7-1.76.7h-.32v-14.43l2.3,1.09h9.09v-6.75l3.3.38c-.06.45-.32.77-1.15.9v5.47h8.99l1.22-1.34,2.62,2.05ZM443.17,140.45v-8.45h-9.31v8.45h9.31ZM454.63,140.45v-8.45h-9.31v8.45h9.31Z"/><path class="cls-1" d="M471.4,148v5.02c0,.13-.7.61-1.73.61h-.32v-5.63h-7.39l-.26-.93h7.65v-3.17h-3.36v.48c0,.16-.67.64-1.66.64h-.32v-9.76l2.37,1.02h8.26l1.15-1.25,2.53,1.92c-.19.26-.74.51-1.34.64v6.4c-.03.22-1.02.67-1.7.67h-.32v-.77h-3.55v3.17h4.67l1.41-1.73s1.57,1.22,2.56,2.14c-.06.35-.38.51-.83.51h-7.81ZM471.88,133.25c.48-1.28,1.02-3.1,1.34-4.42h-10.53l-.22-.96h8.1c-.19-.03-.42-.13-.64-.29-.22-1.12-1.15-2.56-1.92-3.36l.35-.22c4.29,1.09,3.9,3.65,2.59,3.87h3.87l1.38-1.73s1.63,1.22,2.62,2.18c-.1.35-.38.51-.8.51h-4.61l2.85.8c-.13.35-.51.64-1.18.58-.61.93-1.5,2.08-2.34,3.04h2.98l1.38-1.73s1.6,1.22,2.59,2.14c-.06.35-.38.51-.83.51h-16.8l-.26-.93h10.08ZM465.76,128.83c4.58,2.24,2.46,5.54.86,4,0-1.25-.67-2.85-1.25-3.84l.38-.16ZM465.99,137.21v2.37h8.96v-2.37h-8.96ZM465.99,142.94h8.96v-2.43h-8.96v2.43ZM491.36,143.68c-.22.32-.51.42-1.28.29-3.52,4.8-8.06,7.78-13.79,9.76l-.26-.58c5.06-2.43,9.18-5.82,12.22-11.04l3.1,1.57ZM479.11,141.89c3.33-2.21,6.24-5.31,8.29-8.96l3.01,1.6c-.19.35-.48.45-1.18.32-2.46,3.14-5.92,5.79-9.76,7.58l-.35-.54ZM489.63,126.66c-.19.32-.45.35-1.12.29-2.18,2.43-5.22,4.77-8.35,6.34l-.38-.51c2.69-2.02,5.15-4.83,6.91-7.81l2.94,1.7Z"/><path class="cls-1" d="M504.48,136.16c-1.06.86-2.37,1.92-3.9,3.17v11.07c0,1.79-.35,2.88-3.36,3.2-.06-.67-.26-1.28-.7-1.6-.48-.42-1.31-.67-2.75-.86v-.54s3.33.29,3.97.29.8-.19.8-.7v-9.25c-.93.67-1.89,1.44-2.94,2.21-.03.38-.22.74-.48.93l-1.57-2.46c.99-.45,2.78-1.41,4.99-2.62v-6.33h-4.67l-.26-.96h4.93v-7.36l3.23.35c-.1.48-.42.8-1.18.9v6.11h1.18l1.31-1.76s1.54,1.25,2.46,2.21c-.06.35-.42.51-.83.51h-4.13v5.22c1.22-.67,2.43-1.41,3.65-2.08l.26.38ZM521.03,139.84c-.26.26-.64.35-1.38.38-1.28,2.91-3.04,5.41-5.44,7.55,2.53,1.79,5.57,2.98,9.12,3.74l-.06.38c-.93.1-1.6.7-1.92,1.7-3.49-1.09-6.34-2.56-8.58-4.64-2.75,2.08-6.21,3.68-10.59,4.74l-.26-.51c3.94-1.28,7.2-3.07,9.76-5.31-1.86-2.11-3.26-4.67-4.19-7.94h-2.43l-.29-.93h12.61l1.38-1.28,2.27,2.11ZM503.72,137.98c3.55-2.66,4.13-5.89,4.13-8.86v-3.71l2.34,1.02h5.44l1.15-1.18,2.27,2.02c-.22.22-.61.38-1.18.45v6.66c0,.32.06.45.58.45h2.4c.16,0,.32,0,.45-.03.16-.03.38-.06.51-.1h.42c.61.26.86.38.86.83,0,.8-.74,1.22-3.62,1.22h-1.57c-1.73,0-1.98-.51-1.98-1.79v-7.55h-6.11v1.73c0,2.78-.58,6.78-5.73,9.31l-.35-.45ZM508.16,139.93c1.02,2.78,2.62,5.06,4.74,6.85,1.95-1.98,3.49-4.29,4.48-6.85h-9.22Z"/><path class="cls-1" d="M541.41,134.72c1.15,6.05,4.54,12.51,14.05,16.86l-.06.35c-1.12.13-1.89.54-2.21,1.76-8.9-4.9-11.46-12.54-12.38-18.94-.9,7.46-3.84,14.08-14.81,18.91l-.35-.58c9.34-4.99,12.1-11.23,12.93-18.37h-12.32l-.29-.93h12.7c.26-2.98.26-6.11.26-9.37l3.42.35c-.1.48-.35.8-1.09.93-.06,2.75-.1,5.47-.35,8.09h9.22l1.76-2.21s1.95,1.54,3.14,2.62c-.06.35-.35.51-.83.51h-12.77Z"/><path class="cls-1" d="M565.06,135.74c6.14,2.98,4.45,6.82,2.53,5.34-.35-1.41-1.5-3.3-2.53-4.61v16.38c0,.29-.86.74-1.6.74h-.38v-15.39c-1.25,3.01-2.94,5.76-5.15,8.13l-.42-.42c2.56-3.68,4.16-8.42,5.09-13.21h-4.48l-.26-.96h5.22v-7.36l3.1.38c-.1.45-.35.77-1.12.9v6.08h1.09l1.41-1.79s1.54,1.28,2.5,2.24c-.1.35-.42.51-.86.51h-4.13v3.04ZM586.02,135.1c-.26.29-.58.38-1.31.45-.9,3.84-2.27,7.46-4.58,10.59,2.08,2.27,4.61,3.97,7.55,5.09l-.06.38c-1.02.26-1.86.93-2.08,1.95-2.69-1.38-4.93-3.33-6.69-5.86-2.11,2.34-4.86,4.32-8.51,5.82l-.32-.45c3.36-1.76,5.95-4.06,7.94-6.78-1.76-2.98-3.01-6.66-3.68-11.07h-1.34c-.06,5.73-.77,13.18-5.82,18.4l-.48-.32c3.81-5.66,4.35-12.61,4.35-19.07v-8.48l2.34.99h9.44l1.47-1.86s1.63,1.31,2.66,2.3c-.06.35-.35.51-.8.51h-13.15v6.56h9.44l1.34-1.28,2.3,2.11ZM575.01,135.23c.77,3.81,2.14,6.98,4,9.47,1.7-2.85,2.85-6.05,3.52-9.47h-7.52Z"/><path class="cls-1" d="M600.2,143.68c-1.92,1.02-4.7,2.56-8.45,4.38-.13.38-.38.67-.67.8l-1.47-2.75c.86-.19,2.27-.54,3.97-1.02v-10.62h-3.68l-.26-.96h3.94v-8.29l3.2.35c-.1.45-.38.77-1.18.86v7.07h1.06l1.31-1.79s1.5,1.28,2.4,2.24c-.1.35-.38.51-.83.51h-3.94v10.05c1.44-.42,2.94-.83,4.51-1.31l.1.48ZM618.47,151.01c.64.22.8.45.8.86,0,.8-.86,1.15-5.15,1.15h-2.85c-2.18,0-2.59-.48-2.59-1.86v-10.85h-2.34v.32c-.06,3.26-.74,9.22-7.74,12.99l-.35-.42c5.38-4.22,6.11-9.28,6.14-12.61v-.29h-1.79v1.22c0,.16-.64.61-1.63.61h-.32v-14.94l2.34,1.02h2.3c.42-1.15.96-2.82,1.31-3.97l3.39.99c-.16.45-.58.64-1.25.58-.64.7-1.57,1.63-2.34,2.4h7.78l1.06-1.25,2.3,1.79c-.22.26-.54.45-1.22.54v11.87c0,.13-.8.61-1.73.61h-.29v-1.47h-3.81v10.37c0,.48.1.64,1.09.64h2.56c1.15,0,2.08-.03,2.43-.06.29-.03.45-.1.54-.32.22-.38.54-1.82.8-3.23h.45l.1,3.3ZM602.6,129.15v4.54h4.7v-4.54h-4.7ZM602.6,139.39h4.7v-4.74h-4.7v4.74ZM609.19,129.15v4.54h5.12v-4.54h-5.12ZM614.31,139.39v-4.74h-5.12v4.74h5.12ZM615.68,142.69c-.13.29-.48.58-1.09.51-.58,1.12-1.41,2.53-2.21,3.58.9-.1,2.05-.26,3.17-.42-.26-.7-.61-1.38-.93-1.89l.35-.19c3.9,2.4,2.27,5.34.99,4.03,0-.38-.06-.8-.16-1.25-.96.45-2.24,1.02-3.46,1.47-.16.29-.38.51-.58.61l-1.06-2.21s.42-.13.58-.22c.7-1.06,1.47-3.9,1.66-5.25l2.72,1.22Z"/><path class="cls-1" d="M628.48,128.38h-6.5l-.22-.96h6.59l-.42-3.07,3.01.26c-.03.35-.26.67-.9.86l.26,1.95h2.18l1.28-1.63s1.47,1.18,2.37,2.08c-.1.35-.38.51-.8.51h-4.86l.26,1.89c-.29.38-.99.61-1.92.61l-.32-2.5ZM647.97,149.89s1.47,1.22,2.34,2.14c-.1.35-.35.51-.8.51h-26.53l-.29-.96h3.01v-7.33l2.37.99h16.09l1.06-1.02,2.14,1.63c-.13.19-.54.38-.96.48v5.25h.35l1.22-1.7ZM634.53,129.82s1.47,1.15,2.37,2.05c-.06.35-.35.51-.8.51h-4.77v2.59h2.02l.96-1.02,2.14,1.66c-.16.19-.61.42-1.09.51v3.84c-.03.19-.9.61-1.5.61h-.26v-.9h-2.27v2.69h2.5l1.25-1.6s1.47,1.15,2.34,2.05c-.1.35-.38.51-.77.51h-9.7l-.83.99-2.4-1.47c.26-.19.67-.48,1.09-.67v-11.9l2.24,1.15h6.21l1.28-1.6ZM629.54,132.38h-2.88v2.59h2.88v-2.59ZM626.66,135.94v2.78h6.94v-2.78h-6.94ZM629.54,139.68h-2.88v2.69h2.88v-2.69ZM627.65,151.58h4.32v-5.38h-4.32v5.38ZM633.89,146.21v5.38h4.35v-5.38h-4.35ZM641.95,131.14c-.13.35-.45.64-1.12.64-.29.83-.61,1.63-.99,2.43h4.51l1.38-1.79s1.6,1.28,2.56,2.24c-.06.35-.38.51-.83.51h-8.06c-.83,1.6-1.73,3.07-2.72,4.22l-.51-.32c1.12-2.21,2.18-5.57,2.82-8.77l2.98.83ZM648.42,125.79s1.54,1.18,2.4,2.08c-.1.35-.38.51-.8.51h-6.37l-.35,2.02c-.38.29-1.15.38-1.98.22l.35-2.24h-4.32l-.22-.96h4.7l.48-3.07,3.01.61c-.13.42-.45.74-1.22.74l-.29,1.73h3.36l1.25-1.63ZM643.43,141.15l1.41-1.76s1.57,1.25,2.56,2.18c-.1.35-.38.51-.83.51h-8.45l-.26-.93h5.57ZM640.16,146.21v5.38h4.26v-5.38h-4.26Z"/><path class="cls-1" d="M682.63,126.94c-.22.26-.77.51-1.41.64v24.96c-.03.22-.99.8-1.73.8h-.29v-1.57h-21.73v1.06c0,.29-.74.83-1.63.83h-.38v-28.48l2.21,1.06h21.21l1.18-1.31,2.56,2.02ZM679.2,150.81v-23.61h-21.73v23.61h21.73ZM675.97,134.17s1.41,1.12,2.3,1.95c-.1.35-.42.48-.83.48h-18.46l-.26-.9h8.58v-2.08h-3.62v.38c0,.16-.86.61-1.63.61h-.29v-6.14l2.08.9h8.83l1.02-1.06,2.21,1.66c-.16.19-.58.45-1.02.51v3.36c-.03.19-1.02.61-1.66.61h-.29v-.83h-3.68v2.08h5.47l1.25-1.54ZM674.88,137.31l2.18,1.73c-.16.16-.58.38-1.09.48v9.34c-.03.19-.96.64-1.57.64h-.29v-1.34h-11.58v1.02c0,.22-.77.61-1.54.61h-.32v-12.32l2.02.93h11.17l1.02-1.09ZM674.11,147.2v-7.87h-11.58v7.87h11.58ZM672.93,132.7v-2.4h-9.25v2.4h9.25ZM672.83,141.57c-.13.19-.51.35-.9.45v3.62c-.03.22-.86.64-1.41.64h-.22v-1.02h-3.87v.58c0,.13-.74.51-1.41.51h-.26v-6.14l1.79.83h3.52l.9-.9,1.86,1.44ZM670.31,144.35v-2.43h-3.87v2.43h3.87Z"/></g></svg>