<?xml version="1.0" encoding="UTF-8"?><svg id="_圖層_2" xmlns="http://www.w3.org/2000/svg" viewBox="0 0 472.43 122.79"><defs><style>.cls-1{fill:#fff;}</style></defs><g id="_圖層_2-2"><path class="cls-1" d="M127.15,18.36c0,1.01-.17,1.92-.52,2.74-.35.82-.85,1.52-1.49,2.11-.65.59-1.43,1.04-2.36,1.35-.92.31-1.96.47-3.11.47-.98,0-1.96-.1-2.93-.31-.97-.2-1.85-.5-2.63-.88-.78-.38-1.42-.85-1.91-1.39-.49-.54-.74-1.15-.74-1.82v-3.85h.72c.4,2.42,1.2,4.16,2.38,5.22,1.18,1.06,2.78,1.58,4.81,1.58.62,0,1.21-.08,1.77-.23.56-.16,1.06-.39,1.48-.7.43-.31.78-.7,1.04-1.15.26-.46.39-.98.39-1.58,0-1.06-.33-1.96-.99-2.7-.66-.74-1.65-1.5-2.97-2.27l-4.43-2.63c-1.54-.91-2.62-1.84-3.26-2.77-.64-.94-.95-2.08-.95-3.42,0-.94.17-1.78.5-2.52.34-.74.81-1.39,1.42-1.93.61-.54,1.34-.95,2.2-1.24.85-.29,1.81-.43,2.86-.43.89,0,1.79.1,2.72.29.92.19,1.76.47,2.5.85.74.37,1.36.83,1.84,1.37.48.54.72,1.15.72,1.82v3.85h-.72c-.41-2.42-1.18-4.15-2.33-5.18-1.14-1.03-2.73-1.55-4.76-1.55-.52,0-1.04.08-1.54.25-.5.17-.94.41-1.32.72-.38.31-.69.7-.93,1.15-.24.46-.36.96-.36,1.51s.08,1,.25,1.4c.17.41.42.79.76,1.15.34.36.76.71,1.26,1.06s1.08.71,1.73,1.1l4.43,2.63c.77.46,1.43.89,2,1.31.56.42,1.03.86,1.39,1.33.36.47.63.97.81,1.49.18.53.27,1.13.27,1.8Z"/><path class="cls-1" d="M142.95,24.41h-3.24V4.97c0-1.08-.15-1.95-.45-2.61-.3-.66-.99-.99-2.07-.99h-.72v-.72h9.36c.77,0,1.67.07,2.7.22,1.03.14,2.02.46,2.95.95.94.49,1.73,1.22,2.38,2.18.65.96.97,2.24.97,3.85,0,1.03-.15,1.91-.45,2.65-.3.73-.69,1.35-1.17,1.85-.48.5-1.01.91-1.6,1.22-.59.31-1.18.55-1.76.7-.59.16-1.14.26-1.66.32-.52.06-.94.09-1.28.09h-3.96v9.72ZM145.65,13.43c.5,0,1.07-.09,1.71-.29.64-.19,1.24-.52,1.82-.97.58-.45,1.06-1.05,1.46-1.78.4-.73.59-1.64.59-2.72s-.2-1.99-.59-2.72c-.4-.73-.88-1.33-1.46-1.78-.58-.45-1.18-.78-1.82-.97-.64-.19-1.21-.29-1.71-.29-.46,0-.93.04-1.42.11-.49.07-.92.16-1.28.25v10.8c.36.1.79.18,1.28.25.49.07.97.11,1.42.11Z"/><path class="cls-1" d="M178.88.65c.62,0,1.13.08,1.53.25.4.17.71.38.94.65.23.26.38.57.47.92.08.35.13.7.13,1.06v2.7h-.72c0-1.44-.39-2.49-1.17-3.15-.78-.66-1.89-.99-3.33-.99h-6.7v9.36h9.72v1.44h-9.72v10.08h6.3c1.63,0,2.92-.3,3.87-.9.95-.6,1.7-1.62,2.25-3.06l.72.18-1.26,3.42c-.19.55-.51.99-.95,1.31-.44.32-1.03.49-1.75.49h-12.42V4.97c0-1.08-.15-1.95-.45-2.61-.3-.66-.99-.99-2.07-.99h-.72v-.72h15.34Z"/><path class="cls-1" d="M207.32.65c.62,0,1.13.08,1.53.25.4.17.71.38.94.65.23.26.38.57.47.92.08.35.13.7.13,1.06v2.7h-.72c0-1.44-.39-2.49-1.17-3.15-.78-.66-1.89-.99-3.33-.99h-6.7v9.36h9.72v1.44h-9.72v10.08h6.3c1.63,0,2.92-.3,3.87-.9.95-.6,1.7-1.62,2.25-3.06l.72.18-1.26,3.42c-.19.55-.51.99-.95,1.31-.44.32-1.03.49-1.75.49h-12.42V4.97c0-1.08-.15-1.95-.45-2.61-.3-.66-.99-.99-2.07-.99h-.72v-.72h15.34Z"/><path class="cls-1" d="M229.85.65c2.38,0,4.45.28,6.23.83,1.78.55,3.25,1.33,4.41,2.34,1.16,1.01,2.04,2.24,2.63,3.69.59,1.45.88,3.08.88,4.88s-.28,3.37-.85,4.84c-.56,1.48-1.4,2.74-2.5,3.8-1.1,1.06-2.48,1.88-4.12,2.48-1.64.6-3.56.9-5.74.9h-7.13V4.97c0-1.08-.15-1.95-.45-2.61-.3-.66-.99-.99-2.07-.99h-.72v-.72h9.43ZM227.08,22.68c1.41.31,2.63.47,3.65.47,1.31,0,2.54-.25,3.69-.74,1.15-.49,2.14-1.2,2.97-2.12.84-.92,1.49-2.04,1.97-3.35.48-1.31.72-2.78.72-4.41s-.23-3.03-.7-4.34c-.47-1.31-1.12-2.43-1.95-3.37-.84-.94-1.83-1.66-2.99-2.16-1.16-.5-2.42-.76-3.78-.76-.53,0-1.09.05-1.7.14-.61.1-1.24.24-1.88.43v20.2Z"/><path class="cls-1" d="M276.04,22.97h12.78v1.44h-16.02V4.97c0-1.08-.15-1.95-.45-2.61-.3-.66-.99-.99-2.07-.99h-.72v-.72h3.24c.62,0,1.15.05,1.57.16.42.11.76.32,1.01.65.25.32.43.77.52,1.33.1.56.14,1.29.14,2.18v18Z"/><path class="cls-1" d="M298.97.65h3.24v19.44c0,1.08.15,1.95.45,2.61.3.66.99.99,2.07.99h.72v.72h-3.24c-.62,0-1.15-.05-1.57-.16-.42-.11-.76-.32-1.01-.65-.25-.32-.43-.76-.52-1.31-.1-.55-.14-1.28-.14-2.2V.65Z"/><path class="cls-1" d="M328.17.65c.62,0,1.13.08,1.53.25.4.17.71.38.94.65.23.26.38.57.47.92.08.35.13.7.13,1.06v2.7h-.72c0-1.44-.39-2.49-1.17-3.15-.78-.66-1.89-.99-3.33-.99h-5.72v9.54h8.14v1.44h-8.14v11.34h-3.24V4.97c0-1.08-.15-1.95-.45-2.61-.3-.66-.99-.99-2.07-.99h-.72v-.72h14.36Z"/><path class="cls-1" d="M355.31.65c.62,0,1.13.08,1.53.25.4.17.71.38.94.65.23.26.38.57.47.92.08.35.13.7.13,1.06v2.7h-.72c0-1.44-.39-2.49-1.17-3.15-.78-.66-1.89-.99-3.33-.99h-6.7v9.36h9.72v1.44h-9.72v10.08h6.3c1.63,0,2.92-.3,3.87-.9.95-.6,1.7-1.62,2.25-3.06l.72.18-1.26,3.42c-.19.55-.51.99-.95,1.31-.44.32-1.03.49-1.75.49h-12.42V4.97c0-1.08-.15-1.95-.45-2.61-.3-.66-.99-.99-2.07-.99h-.72v-.72h15.34Z"/><path class="cls-1" d="M.88,76.7c1.63-3.66,3.68-6.48,6.16-8.47,2.48-1.99,5.57-2.98,9.27-2.98,4.57,0,8.07,1.41,10.51,4.24,1.85,2.11,2.77,4.36,2.77,6.77,0,3.95-2.61,8.04-7.82,12.25,3.5,1.31,6.15,3.18,7.95,5.61,1.79,2.43,2.69,5.29,2.69,8.57,0,4.7-1.57,8.77-4.71,12.21-4.09,4.48-10.02,6.73-17.78,6.73-3.84,0-6.45-.45-7.84-1.36-1.39-.91-2.08-1.88-2.08-2.92,0-.77.33-1.45.99-2.04.66-.59,1.45-.88,2.38-.88.7,0,1.41.11,2.14.32.48.13,1.56.62,3.24,1.46,1.68.84,2.84,1.34,3.49,1.5,1.04.29,2.14.44,3.32.44,2.86,0,5.35-1.05,7.46-3.16,2.12-2.11,3.17-4.6,3.17-7.49,0-2.11-.49-4.16-1.47-6.17-.73-1.49-1.53-2.63-2.4-3.4-1.2-1.07-2.86-2.04-4.96-2.9-2.1-.87-4.25-1.3-6.43-1.3h-1.35v-1.2c2.21-.27,4.44-1.03,6.66-2.28,2.23-1.25,3.85-2.76,4.86-4.52,1.01-1.76,1.51-3.7,1.51-5.81,0-2.75-.9-4.97-2.71-6.67-1.81-1.7-4.06-2.54-6.75-2.54-4.34,0-7.97,2.22-10.89,6.65l-1.39-.64Z"/><path class="cls-1" d="M68.28,109.95c-4.02,2.28-9.91,5.44-17.66,9.3-.24.76-.84,1.39-1.44,1.58l-2.34-6.51c1.68-.32,4.39-.88,7.75-1.71v-20.23h-6.97l-.48-1.83h7.45v-9.17h-4.33c-1.02,1.14-2.1,2.15-3.18,3.1l-.66-.57c3.48-5.31,6.67-14.67,7.75-20.49l7.45,2.02c-.18.7-.78,1.14-2.28,1.2l-.06.19c12.8,5.5,6.37,12.46,3.06,8.79-.54-1.9-1.86-4.87-3.6-7.52-1.68,3.67-4.08,7.84-6.97,11.45h6.19l2.7-3.6s3.06,2.53,4.93,4.43c-.18.7-.78,1.01-1.62,1.01h-4.63v9.17h.72l2.7-3.98s3.06,2.84,4.81,4.81c-.12.7-.72,1.01-1.56,1.01h-6.67v18.97c2.76-.7,5.77-1.45,8.77-2.21l.18.82ZM48.51,94.9c8.53,8.41,4.09,16.44.84,12.58.36-3.92-.6-8.92-1.68-12.33l.84-.25ZM60.35,107.61c.66-3.54,1.26-8.66,1.56-13.21l5.95,1.96c-.24.7-.9,1.26-2.1,1.33-1.08,3.48-2.58,7.46-4.39,10.37l-1.02-.44ZM103.36,87.88c-.24.76-.72,1.2-2.4,1.2-1.2,5.82-3.12,11.76-6.13,17.26.84,2.84,1.86,5.37,3.3,7.33.66,1.08.9.95,1.38-.25.72-1.58,1.74-4.68,2.46-7.21l.72.13-1.08,10.18c1.44,2.97,1.74,4.49.96,5.25-2.04,2.02-5.59-.38-7.27-2.91-1.56-2.09-2.82-4.55-3.84-7.33-3.24,4.43-7.57,8.22-13.16,11.07l-.6-.76c5.47-3.73,9.55-8.79,12.5-14.48-1.92-7.53-2.58-16.76-2.82-27.19h-21.39l-.48-1.83h8.17v-5.44h-5.41l-.48-1.83h5.89v-6.58l6.79.7c-.06.76-.54,1.33-1.92,1.58v4.3h1.14l2.46-3.29s2.82,2.34,4.57,4.11c-.18.7-.78,1.01-1.56,1.01h-6.61v5.44h8.77c-.06-4.55-.06-9.29-.06-14.29l7.33.88c-.12.82-.66,1.52-2.22,1.71-.06,3.98-.12,7.9-.12,11.7h2.82l2.22-3.16c-.36-.19-.78-.38-1.08-.7-.12-2.47-1.38-5.44-2.64-7.27l.66-.38c7.93,2.47,7.27,7.52,4.81,8.35,1.14,1.01,2.94,2.66,4.27,3.98-.18.7-.78,1.01-1.62,1.01h-9.43c.06,7.08.3,13.72,1.2,19.41,1.5-4.43,2.46-9.11,3-13.59l6.91,1.9ZM86.54,111.22c-3.66,1.71-8.95,4.11-16.46,7.08-.24.82-.78,1.2-1.32,1.39l-3.24-6.07c1.8-.19,4.69-.63,8.23-1.2v-5.44h-6.79l-.48-1.83h7.27v-4.55c-2.22.19-4.39.25-6.49.25l-.3-1.07c5.11-1.14,11.59-3.35,15.02-4.93l4.39,4.93c-.6.51-1.74.44-3.12-.25-1.32.25-2.94.44-4.75.63v5h1.62l2.34-2.97s2.76,2.15,4.57,3.79c-.18.7-.78,1.01-1.56,1.01h-6.97v4.68c2.58-.38,5.23-.82,7.93-1.26l.12.82ZM80.05,94.84v-1.96h-7.63v1.58c0,.38-1.92,1.39-3.72,1.39h-.6v-14.42l4.63,2.02h6.79l2.22-2.4,4.81,3.79c-.3.38-1.14.89-2.16,1.08v7.59c0,.44-2.22,1.33-3.66,1.33h-.66ZM80.05,91.04v-5.75h-7.63v5.75h7.63Z"/><path class="cls-1" d="M133.57,91.49c-1.98,1.33-4.39,2.85-7.51,4.74v18.59c0,4.43-.78,7.08-7.27,7.78-.18-2.02-.48-3.54-1.2-4.49-.84-1.01-2.1-1.71-4.57-2.09v-1.01s5.23.38,6.37.38c1.02,0,1.26-.32,1.26-1.14v-14.73c-1.14.63-2.34,1.33-3.6,2.02-.24.76-.72,1.39-1.32,1.58l-3-7.15c1.68-.32,4.51-1.01,7.93-1.83v-13.72h-6.97l-.48-1.83h7.45v-14.67l7.63.82c-.12.88-.72,1.52-2.22,1.71v12.14h.9l2.76-4.3s3.12,3.04,4.93,5.12c-.12.7-.72,1.01-1.56,1.01h-7.03v12.33c2.4-.63,4.87-1.33,7.33-2.02l.18.76ZM163.73,94.52s3.06,2.53,4.87,4.36c-.12.7-.72,1.01-1.56,1.01h-8.65c-1.08,4.3-2.76,8.16-5.83,11.57,17.78,6.51,10.93,13.53,6.01,10.37-2.28-2.21-5.65-4.55-9.73-6.89-4.57,3.35-10.99,6.01-20,7.78l-.36-.89c7.69-2.28,13.1-5.18,16.88-8.79-3.48-1.71-7.27-3.42-11.53-4.93,1.08-1.9,2.52-5,3.84-8.22h-8.47l-.48-1.83h9.67c1.38-3.48,2.52-6.89,3.06-8.91l7.63,1.77c-.24.7-.72,1.33-2.52,1.39-.6,1.58-1.38,3.6-2.34,5.75h8.83c.36-1.96.54-4.05.66-6.07l7.87,1.39c-.18.95-.96,1.39-2.28,1.45-.12,1.08-.3,2.15-.54,3.22h2.46l2.52-3.54ZM130.33,87h20.97c1.5-3.6,3-8.41,3.84-12.01l7.45,2.09c-.3.76-.96,1.33-2.28,1.26-1.74,2.59-4.45,5.88-7.21,8.66h5.47l3.18-4.11s3.54,2.85,5.71,4.93c-.18.7-.78,1.01-1.62,1.01h-35.08l-.42-1.83ZM133.33,74.6l-.48-1.83h24.27l3-3.98s3.42,2.78,5.41,4.81c-.12.7-.72,1.01-1.5,1.01h-30.7ZM137.24,75.11c12.5,4.87,7.81,14.48,3.3,10.56-.36-3.41-2.28-7.46-3.96-10.18l.66-.38ZM143.48,99.9c-1.26,2.91-2.64,5.88-3.72,8.03,3.12.7,5.95,1.39,8.35,2.09,2.34-3.04,3.72-6.45,4.57-10.12h-9.19ZM143.72,63.41c12.8,2.34,7.81,12.2,3.06,8.28-.18-2.72-1.92-5.94-3.6-7.84l.54-.44Z"/><path class="cls-1" d="M233.95,115.2c1.38.7,1.56,1.33,1.56,2.47,0,2.21-1.86,3.54-6.73,3.54h-2.34c-3.78,0-4.39-1.46-4.39-5.06v-34.84h-4.99c-.54,19.35-2.7,32.38-16.1,41.35l-.96-.89c9.37-9.67,11.17-22.19,11.53-40.47h-5.59l.72.57c-.36.44-1.2.95-2.28,1.14v18.34c-.06.51-2.46,1.71-4.15,1.71h-.78v-2.47h-4.02v7.4h3.06l3.12-4.24s3.66,2.97,5.83,5.06c-.18.7-.78,1.01-1.56,1.01h-10.45v11.25c0,.38-1.74,1.58-4.51,1.58h-.96v-12.84h-10.63l-.48-1.83h11.11v-7.4h-3.66v1.64c0,.51-2.04,1.58-4.02,1.58h-.78v-25.67l5.11,2.28h3.36v-5.94h-10.39l-.48-1.83h10.87v-8.66l7.45.7c-.12.89-.54,1.45-1.98,1.71v6.26h3.18l3.06-4.3s3.54,3.04,5.59,5.12c-.12.7-.66,1.01-1.5,1.01h-10.33v5.94h3.42l2.52-2.85,4.39,3.6-.48-1.71h6.31c.06-4.68.06-9.74.06-15.24l7.81.76c-.18.95-.78,1.64-2.22,1.83-.06,4.49-.06,8.73-.18,12.65h4.33l2.76-3.35,5.65,4.87c-.42.51-1.08.88-2.34,1.08v32.38c0,.76.06,1.07.72,1.07h.96c.48,0,.84,0,1.08-.06.3,0,.54-.06.78-.76.42-1.2,1.32-6.39,1.92-10.43h.78l.24,10.94ZM186.31,82.26v7.34h4.02v-7.34h-4.02ZM186.31,98.76h4.02v-7.34h-4.02v7.34ZM195.14,82.26v7.34h4.33v-7.34h-4.33ZM199.47,98.76v-7.34h-4.33v7.34h4.33Z"/><path class="cls-1" d="M282.43,110.21l-3.99,10.45h-33.63v-1.48c9.89-8.59,16.86-15.62,20.89-21.06,4.04-5.45,6.05-10.42,6.05-14.93,0-3.44-1.11-6.27-3.32-8.49-2.21-2.21-4.86-3.32-7.95-3.32-2.8,0-5.32.78-7.55,2.34-2.23,1.56-3.88,3.85-4.94,6.87h-1.56c.7-4.94,2.5-8.73,5.4-11.37,2.9-2.64,6.52-3.96,10.87-3.96,4.62,0,8.48,1.41,11.58,4.24,3.1,2.83,4.65,6.17,4.65,10.01,0,2.75-.67,5.5-2.02,8.25-2.07,4.32-5.44,8.9-10.09,13.73-6.98,7.26-11.34,11.64-13.07,13.13h14.88c3.03,0,5.15-.11,6.37-.32,1.22-.21,2.32-.65,3.3-1.3.98-.65,1.84-1.58,2.56-2.78h1.56Z"/><path class="cls-1" d="M301.29,76.06c2.16,6.77,1.62,12.14.12,14.73-1.02,1.77-3.54,2.34-4.69.76-.84-1.26-.36-2.97.9-4.17,1.44-2.02,3-7.02,2.64-11.32h1.02ZM311.74,64.8c-.12.88-.54,1.52-2.16,1.77v54.32c0,.63-2.28,1.83-4.27,1.83h-1.08v-58.81l7.51.89ZM311.14,75.17c9.91,6.39,5.11,14.54,1.56,10.62.12-3.35-1.08-7.53-2.34-10.31l.78-.32ZM348.2,90.92s3.12,3.04,4.99,5.19c-.12.7-.72,1.01-1.56,1.01h-20.06c-1.86,10.81-7.27,20.23-20.6,25.67l-.54-.82c10.09-6.32,14.12-14.99,15.56-24.85h-12.92l-.48-1.83h13.64c.36-2.97.48-6.01.48-9.17v-8.79h-9.73l-.54-1.83h10.27v-11.51l7.93.82c-.12.88-.6,1.58-2.16,1.83v8.85h6.37l2.88-3.16,5.71,4.68c-.36.51-1.26,1.01-2.52,1.26v17.01h.42l2.88-4.36ZM332.46,86.18c0,3.1-.18,6.13-.6,9.11h7.57v-17.96h-6.97v8.85ZM334.99,101.67c20.31,11.26,16.22,24.79,10.15,19.79-1.56-6.01-6.79-13.97-10.87-19.35l.72-.44Z"/><path class="cls-1" d="M402.57,110.21l-3.99,10.45h-33.63v-1.48c9.89-8.59,16.86-15.62,20.89-21.06,4.04-5.45,6.05-10.42,6.05-14.93,0-3.44-1.11-6.27-3.32-8.49-2.21-2.21-4.86-3.32-7.95-3.32-2.8,0-5.32.78-7.55,2.34-2.23,1.56-3.88,3.85-4.94,6.87h-1.56c.7-4.94,2.5-8.73,5.4-11.37,2.9-2.64,6.52-3.96,10.87-3.96,4.62,0,8.48,1.41,11.58,4.24,3.1,2.83,4.65,6.17,4.65,10.01,0,2.75-.67,5.5-2.02,8.25-2.07,4.32-5.44,8.9-10.09,13.73-6.98,7.26-11.34,11.64-13.07,13.13h14.88c3.03,0,5.15-.11,6.37-.32,1.22-.21,2.32-.65,3.3-1.3.98-.65,1.84-1.58,2.56-2.78h1.56Z"/><path class="cls-1" d="M465.64,66.95s4.21,3.22,6.79,5.56c-.18.7-.78,1.01-1.68,1.01h-52.68l-.48-1.83h25.95c-.72-2.84-3.3-5.94-5.59-7.71l.48-.44c10.51.19,11.59,6.01,9.25,8.16h14.18l3.78-4.74ZM465.58,91.49l6.13,4.87c-.36.44-1.26,1.01-2.52,1.26v18.02c0,4.05-.9,6.45-7.69,7.08-.18-1.83-.42-3.1-1.26-3.98-.78-.88-2.1-1.58-4.81-1.96v-.88s5.41.38,6.79.38c1.02,0,1.26-.44,1.26-1.26v-18.46h-36.52v24.16c0,.51-2.46,1.9-4.75,1.9h-.9v-30.48l6.13,2.59h35.44l2.7-3.23ZM454.17,92.25v-2.72h-18.26v1.45c0,.51-2.52,1.83-4.81,1.83h-.78v-16.88l5.95,2.53h17.3l2.76-3.16,6.07,4.74c-.42.51-1.32,1.07-2.52,1.33v9.42c-.06.38-2.94,1.45-4.75,1.45h-.96ZM455.91,114.06c-.06.44-2.7,1.64-4.45,1.64h-.9v-3.1h-11.35v2.28c0,.51-2.4,1.71-4.51,1.71h-.78v-17.52l5.53,2.4h10.57l2.58-2.78,5.53,4.24c-.36.51-1.14,1.01-2.22,1.26v9.86ZM454.17,87.69v-7.4h-18.26v7.4h18.26ZM450.56,110.77v-7.46h-11.35v7.46h11.35Z"/></g></svg>