<?xml version="1.0" encoding="UTF-8"?><svg id="_圖層_2" xmlns="http://www.w3.org/2000/svg" viewBox="0 0 605.93 123.11"><defs><style>.cls-1{fill:#fff;}.cls-2{fill:#004730;}</style></defs><g id="_圖層_2-2"><path class="cls-2" d="M159.31,5.04c0-1.08-.15-1.95-.45-2.61-.3-.66-.99-.99-2.07-.99h-.72v-.72h3.24c.62,0,1.15.05,1.57.16.42.11.76.32,1.01.65.25.32.43.77.52,1.33.1.56.14,1.29.14,2.18v10.26c0,1.27.11,2.41.32,3.4.22,1,.58,1.84,1.08,2.54.5.7,1.16,1.23,1.96,1.6.8.37,1.81.56,3.01.56,1.37,0,2.52-.18,3.46-.54.94-.36,1.69-.92,2.27-1.67.58-.76.98-1.71,1.22-2.86.24-1.15.36-2.52.36-4.1V.72h1.44v13.5c0,1.75-.13,3.29-.4,4.63-.26,1.33-.74,2.44-1.42,3.33s-1.62,1.55-2.81,2c-1.19.44-2.71.67-4.55.67-1.75,0-3.22-.22-4.39-.67-1.18-.44-2.12-1.11-2.83-2-.71-.89-1.21-2-1.51-3.33-.3-1.33-.45-2.87-.45-4.63V5.04Z"/><path class="cls-2" d="M197.25,13.5h-2.52v10.98h-3.24V5.04c0-1.08-.15-1.95-.45-2.61-.3-.66-.99-.99-2.07-.99h-.72v-.72h9.36c.77,0,1.67.07,2.7.2,1.03.13,2.02.43,2.95.88.94.46,1.73,1.11,2.38,1.96.65.85.97,2,.97,3.44,0,1.03-.18,1.91-.54,2.63-.36.72-.82,1.31-1.39,1.78-.56.47-1.19.83-1.87,1.1-.68.26-1.34.47-1.96.61l3.78,6.3c.46.77.88,1.4,1.28,1.91s.79.92,1.17,1.24.77.56,1.15.7c.38.14.8.24,1.26.29v.72c-.19.1-.49.18-.88.25-.4.07-.82.11-1.28.11-.62,0-1.21-.09-1.75-.25-.54-.17-1.06-.46-1.57-.86-.5-.41-1.01-.95-1.53-1.62-.52-.67-1.06-1.5-1.64-2.48l-3.6-6.12ZM197.43,12.24c.5,0,1.07-.1,1.71-.29.64-.19,1.24-.49,1.82-.88.58-.4,1.06-.91,1.46-1.55.4-.64.59-1.41.59-2.32s-.2-1.74-.59-2.41c-.4-.67-.88-1.21-1.46-1.62-.58-.41-1.18-.71-1.82-.9-.64-.19-1.21-.29-1.71-.29-.46,0-.93.04-1.42.11-.49.07-.92.16-1.28.25v9.54c.36.1.79.18,1.28.25.49.07.97.11,1.42.11Z"/><path class="cls-2" d="M226.23.72c.94,0,1.97.07,3.11.2,1.14.13,2.2.42,3.17.86.97.44,1.79,1.08,2.45,1.91.66.83.99,1.94.99,3.33,0,1.08-.37,2.08-1.12,3.01-.74.92-1.93,1.66-3.56,2.21,1.18.19,2.14.46,2.9.81.76.35,1.36.77,1.82,1.26.46.49.77,1.05.95,1.67.18.62.27,1.3.27,2.02,0,1.34-.31,2.44-.92,3.29-.61.85-1.39,1.51-2.34,1.98-.95.47-2.01.79-3.19.95-1.18.17-2.33.25-3.46.25h-7.2V5.04c0-1.08-.15-1.95-.45-2.61-.3-.66-.99-.99-2.07-.99h-.72v-.72h9.36ZM226.77,11.7c.72,0,1.42-.1,2.11-.31.68-.2,1.3-.51,1.84-.92.54-.41.98-.91,1.31-1.51.34-.6.5-1.31.5-2.12,0-.86-.2-1.6-.61-2.21-.41-.61-.92-1.12-1.55-1.51-.62-.4-1.32-.68-2.09-.86-.77-.18-1.51-.27-2.23-.27-.46,0-.93.04-1.42.11-.49.07-.92.16-1.28.25v9.36h3.42ZM223.35,13.14v9.58c.55.17,1.12.29,1.71.38.59.08,1.16.13,1.71.13,2.18,0,3.87-.43,5.06-1.3,1.19-.86,1.78-2.11,1.78-3.74s-.58-2.88-1.73-3.74c-1.15-.86-2.86-1.3-5.11-1.3h-3.42Z"/><path class="cls-2" d="M269.5,24.48c-.41.12-.89.18-1.44.18-.41,0-.88-.05-1.42-.14-.54-.1-1.09-.31-1.66-.63-.56-.32-1.12-.8-1.66-1.42s-1-1.45-1.39-2.48l-.9-2.34h-10.08l-2.88,6.84h-1.62l10.08-23.76h1.08l7.92,19.26c.29.67.56,1.24.81,1.71.25.47.53.85.85,1.13s.65.5,1.01.65c.36.14.79.24,1.3.29v.72ZM251.5,16.2h8.82l-4.32-10.44-4.5,10.44Z"/><path class="cls-2" d="M279.69,5.04c0-1.08-.23-1.95-.68-2.61-.46-.66-1.31-.99-2.56-.99h-.36v-.72h2.34c1.18,0,2.14.19,2.9.58.76.38,1.41.91,1.96,1.58l12.6,15.66V.72h1.44v24.12h-.72l-15.48-19.26v18.9h-1.44V5.04Z"/><path class="cls-2" d="M325.45,12.6c0-1.75.26-3.4.77-4.93.52-1.54,1.26-2.87,2.23-4.01.97-1.14,2.15-2.03,3.53-2.68,1.38-.65,2.92-.97,4.63-.97s3.25.32,4.63.97c1.38.65,2.56,1.54,3.53,2.68.97,1.14,1.72,2.48,2.23,4.01.52,1.54.77,3.18.77,4.93s-.26,3.43-.77,4.95c-.52,1.52-1.26,2.86-2.23,4-.97,1.14-2.15,2.03-3.53,2.68-1.38.65-2.92.97-4.63.97s-3.25-.32-4.63-.97c-1.38-.65-2.56-1.54-3.53-2.68-.97-1.14-1.72-2.47-2.23-4-.52-1.52-.77-3.17-.77-4.95ZM344.17,12.6c0-1.7-.17-3.25-.52-4.63-.35-1.38-.85-2.56-1.49-3.53-.65-.97-1.44-1.72-2.38-2.23-.94-.52-1.99-.77-3.17-.77s-2.23.26-3.17.77c-.94.52-1.73,1.26-2.38,2.23-.65.97-1.15,2.15-1.49,3.53-.35,1.38-.52,2.92-.52,4.63s.17,3.25.52,4.63c.35,1.38.85,2.56,1.49,3.53.65.97,1.44,1.72,2.38,2.23.94.52,1.99.77,3.17.77s2.23-.26,3.17-.77c.94-.52,1.73-1.26,2.38-2.23.65-.97,1.15-2.15,1.49-3.53.35-1.38.52-2.92.52-4.63Z"/><path class="cls-2" d="M379.66,24.48c-.41.12-.89.18-1.44.18-.41,0-.88-.05-1.42-.14-.54-.1-1.09-.31-1.66-.63-.56-.32-1.12-.8-1.66-1.42-.54-.62-1-1.45-1.39-2.48l-.9-2.34h-10.08l-2.88,6.84h-1.62l10.08-23.76h1.08l7.92,19.26c.29.67.56,1.24.81,1.71.25.47.53.85.85,1.13s.65.5,1.01.65c.36.14.79.24,1.3.29v.72ZM361.66,16.2h8.82l-4.32-10.44-4.5,10.44Z"/><path class="cls-2" d="M403.53,18.43c0,1.01-.17,1.92-.52,2.74-.35.82-.85,1.52-1.49,2.11-.65.59-1.43,1.04-2.36,1.35-.92.31-1.96.47-3.11.47-.98,0-1.96-.1-2.93-.31-.97-.2-1.85-.5-2.63-.88-.78-.38-1.42-.85-1.91-1.39-.49-.54-.74-1.15-.74-1.82v-3.85h.72c.4,2.42,1.2,4.16,2.38,5.22,1.18,1.06,2.78,1.58,4.81,1.58.62,0,1.21-.08,1.77-.23.56-.16,1.06-.39,1.48-.7.43-.31.78-.7,1.04-1.15.26-.46.39-.98.39-1.58,0-1.06-.33-1.96-.99-2.7-.66-.74-1.65-1.5-2.97-2.27l-4.43-2.63c-1.54-.91-2.62-1.84-3.26-2.77-.64-.94-.95-2.08-.95-3.42,0-.94.17-1.78.5-2.52.34-.74.81-1.39,1.42-1.93.61-.54,1.34-.95,2.2-1.24.85-.29,1.81-.43,2.86-.43.89,0,1.79.1,2.72.29.92.19,1.76.47,2.5.85.74.37,1.36.83,1.84,1.37.48.54.72,1.15.72,1.82v3.85h-.72c-.41-2.42-1.18-4.15-2.33-5.18-1.14-1.03-2.73-1.55-4.76-1.55-.52,0-1.04.08-1.54.25-.5.17-.94.41-1.32.72-.38.31-.69.7-.93,1.15-.24.46-.36.96-.36,1.51s.08,1,.25,1.4c.17.41.42.79.76,1.15.34.36.76.71,1.26,1.06.5.35,1.08.71,1.73,1.1l4.43,2.63c.77.46,1.43.89,2,1.31.56.42,1.03.86,1.39,1.33.36.47.63.97.81,1.49.18.53.27,1.13.27,1.8Z"/><path class="cls-2" d="M415.48.72h3.24v19.44c0,1.08.15,1.95.45,2.61.3.66.99.99,2.07.99h.72v.72h-3.24c-.62,0-1.15-.05-1.57-.16-.42-.11-.76-.32-1.01-.65-.25-.32-.43-.76-.52-1.31-.1-.55-.14-1.28-.14-2.2V.72Z"/><path class="cls-2" d="M447.38,18.43c0,1.01-.17,1.92-.52,2.74-.35.82-.85,1.52-1.49,2.11-.65.59-1.43,1.04-2.36,1.35-.92.31-1.96.47-3.11.47-.98,0-1.96-.1-2.93-.31-.97-.2-1.85-.5-2.63-.88-.78-.38-1.42-.85-1.91-1.39-.49-.54-.74-1.15-.74-1.82v-3.85h.72c.4,2.42,1.2,4.16,2.38,5.22,1.18,1.06,2.78,1.58,4.81,1.58.62,0,1.21-.08,1.77-.23.56-.16,1.06-.39,1.48-.7.43-.31.78-.7,1.04-1.15.26-.46.39-.98.39-1.58,0-1.06-.33-1.96-.99-2.7-.66-.74-1.65-1.5-2.97-2.27l-4.43-2.63c-1.54-.91-2.62-1.84-3.26-2.77-.64-.94-.95-2.08-.95-3.42,0-.94.17-1.78.5-2.52.34-.74.81-1.39,1.42-1.93.61-.54,1.34-.95,2.2-1.24.85-.29,1.81-.43,2.86-.43.89,0,1.79.1,2.72.29.92.19,1.76.47,2.5.85.74.37,1.36.83,1.84,1.37.48.54.72,1.15.72,1.82v3.85h-.72c-.41-2.42-1.18-4.15-2.33-5.18-1.14-1.03-2.73-1.55-4.76-1.55-.52,0-1.04.08-1.54.25-.5.17-.94.41-1.32.72-.38.31-.69.7-.93,1.15-.24.46-.36.96-.36,1.51s.08,1,.25,1.4c.17.41.42.79.76,1.15.34.36.76.71,1.26,1.06.5.35,1.08.71,1.73,1.1l4.43,2.63c.77.46,1.43.89,2,1.31.56.42,1.03.86,1.39,1.33.36.47.63.97.81,1.49.18.53.27,1.13.27,1.8Z"/><path class="cls-1" d="M52.32,91.18c-.06.51-2.28,1.71-4.02,1.83,8.05,2.4,6.85,8.6,3.54,8.22.36.32,3,2.91,4.57,4.74-.12.7-.72,1.01-1.56,1.01h-7.63v9.11c0,4.17-.84,6.45-7.21,7.02-.18-1.64-.42-2.97-1.14-3.86-.78-.76-1.98-1.45-4.39-1.83v-.95s5.11.38,6.19.38c.84,0,1.14-.25,1.14-1.01v-8.85h-16.88c.6.51,1.2,1.08,1.68,1.58-.12.7-.72,1.01-1.56,1.01h-9.79v11.63c-.06.38-1.68,1.58-4.33,1.58h-.96v-13.22H.48l-.48-1.83h9.97v-7.59h-3.06v2.34c0,.44-2.04,1.52-3.9,1.52h-.66v-26.05l4.81,2.21h2.82v-5.38H.9l-.48-1.83h9.55v-8.92l7.27.7c-.06.82-.6,1.39-1.98,1.64v6.58h2.58l3-4.11s3.48,2.85,5.59,4.93c-.12.7-.78,1.01-1.62,1.01h-9.55v5.38h2.58l2.28-2.66,5.11,4.11c-.36.44-1.26.95-2.28,1.14v18.84c-.06.57-2.34,1.83-3.9,1.83h-.72v-3.29h-3.06v7.59h2.7l3.06-4.05s1.92,1.52,3.72,3.16l-.42-1.71h17.48v-5.82l7.45.76c-.18.95-.72,1.39-2.04,1.58v3.48h1.92l2.64-3.92c-.42-.06-.78-.19-1.2-.44-.48-1.2-1.32-2.53-2.34-3.79-4.63,1.33-10.93,2.97-19.4,5.06-.36.82-.9,1.2-1.5,1.33l-2.64-6.13c2.46-.06,6.73-.32,11.83-.7v-5.88h-5.11v1.77c0,.44-2.22,1.58-4.27,1.58h-.72v-20.04l5.29,2.34h4.81v-4.3h-11.47l-.48-1.83h11.95v-6.07l7.27.76c-.12.88-.66,1.52-2.22,1.77v3.54h5.59l3.06-4.05s3.48,2.78,5.59,4.87c-.18.7-.72,1.01-1.56,1.01h-12.68v4.3h4.99l2.52-2.78,5.23,4.11c-.3.44-1.02.89-1.98,1.08v12.46ZM6.91,82.01v7.15h3.48v-7.15h-3.48ZM6.91,98.33h3.48v-7.34h-3.48v7.34ZM18.32,82.01h-3.48v7.15h3.48v-7.15ZM18.32,98.33v-7.34h-3.48v7.34h3.48ZM29.08,107.24c12.07,3.23,6.61,12.46,2.16,8.22,0-2.66-1.32-5.88-2.76-7.84l.6-.38ZM31.42,78.09v4.49h5.11v-4.49h-5.11ZM36.52,88.84v-4.43h-5.11v4.43h5.11ZM41.57,78.09v4.49h5.53v-4.49h-5.53ZM47.1,84.41h-5.53v4.43h5.53v-4.43ZM47.1,95.73c-1.02-1.14-2.16-2.21-3.12-2.97l.54-.51c.96.13,1.8.25,2.58.44v-2.02h-5.53v5.5l5.53-.44Z"/><path class="cls-1" d="M86.44,99.91c-3.3,2.91-8.29,6.96-15.26,12.01-.18.82-.66,1.45-1.26,1.77l-3.84-6.83c1.5-.44,3.84-1.33,6.73-2.4v-22.57h-6.19l-.48-1.83h6.67v-15.37l7.69.76c-.18.88-.66,1.52-2.22,1.77v12.84h1.26l2.64-4.3s3,2.97,4.63,5.12c-.12.7-.72,1.01-1.5,1.01h-7.03v20.49c2.52-.95,5.23-2.02,7.93-3.04l.24.57ZM120.32,115.4c1.38.63,1.68,1.26,1.68,2.28,0,2.09-1.8,3.1-8.89,3.1h-4.15c-4.45,0-5.17-1.14-5.17-4.68v-12.01h-3.24c-1.08,7.4-4.21,14.16-21.51,18.59l-.66-.95c13.82-5.18,15.62-11.32,16.1-17.64h-1.68v1.26c0,.57-2.4,1.83-4.69,1.83h-.78v-20.74l5.83,2.59h17.54l2.58-2.97,5.53,4.43c-.36.44-1.2.95-2.28,1.14v13.41c-.06.38-2.64,1.45-4.33,1.45h-.9v-2.4h-2.22v10.88c0,.76.18.95,1.38.95h3.12c1.2,0,2.28,0,2.82-.06.54,0,.72-.13,1.02-.63.48-.89,1.14-3.6,1.98-6.64h.72l.18,6.83ZM83.8,83.15h20.85c1.14-2.97,2.28-6.89,3-9.8l7.27,2.91c-.24.7-1.02,1.14-2.22.95-1.62,1.64-3.84,3.98-6.13,5.94h6.97l3-4.11s3.42,2.84,5.59,4.93c-.18.7-.72,1.01-1.62,1.01h-36.22l-.48-1.83ZM85.42,71.32h15.44c-.24-.13-.54-.32-.84-.57-.12-2.34-1.5-5.25-2.76-6.89l.54-.38c8.83,1.2,8.65,6.39,6.07,7.84h8.17l3.06-4.3s3.54,2.97,5.65,5.06c-.18.7-.78,1.01-1.62,1.01h-33.22l-.48-1.77ZM90.95,73.92c12.8,2.21,7.69,11.89,2.94,7.97-.18-2.66-1.86-5.75-3.48-7.59l.54-.38ZM92.81,90.8v4.81h18.5v-4.81h-18.5ZM92.81,102.25h18.5v-4.81h-18.5v4.81Z"/><path class="cls-1" d="M172.16,100.79c14,3.41,10.93,13.09,6.13,10.05-.42-1.26-1.14-2.59-2.04-3.98-3.42.57-7.69,1.26-12.44,1.96v7.65c0,3.86-.9,5.88-7.21,6.45-.12-1.39-.36-2.59-1.08-3.35-.66-.7-1.8-1.27-4.27-1.64v-.82s4.75.32,5.83.32c.96,0,1.14-.38,1.14-1.01v-6.83c-4.75.7-10.09,1.39-15.62,2.09-.36.63-.78,1.01-1.2,1.2l-2.7-5.82s1.44-.13,2.16-.32c4.15-1.01,8.83-2.72,13.34-4.68-2.64.38-5.65.82-8.65,1.26-.24.51-.6.88-.96,1.08l-2.34-4.81s.96-.19,1.44-.32c2.76-.76,5.89-2.4,8.65-4.17-1.2.44-2.58.44-4.03.44,0-1.01-.18-1.52-.72-2.02-.48-.57-1.68-.88-3-1.14v-1.08c1.44.13,3.54.32,4.57.32.84,0,1.26-.13,1.68-.57.18-.13.36-.38.48-.7h-10.33l-2.04,2.4-4.81-3.67c.6-.44,1.56-.95,2.4-1.33.36-1.33.72-2.91,1.02-4.62h-4.21l-.42-1.83h4.93c.54-2.85,1.08-5.82,1.38-8.09-1.86,1.71-3.84,3.22-5.77,4.36l-.66-.63c2.76-3.16,5.71-8.73,7.21-13.03l7.27,1.77c-.18.63-.6.89-2.16.82-.72,1.01-1.5,2.02-2.4,3.04h12.86l2.76-3.6s3.18,2.53,5.11,4.43c-.18.7-.78,1.01-1.56,1.01h-20.79l-1.02,1.01,4.81,2.09h8.05l2.28-2.53,4.63,3.98c-.42.51-1.2.76-2.34.95-.06,1.64-.18,3.04-.24,4.43h1.08l2.1-3.29s2.34,2.4,3.72,4.11c-.12.7-.66,1.01-1.44,1.01h-5.65c-.18,2.15-.42,3.92-.72,5.37h.78l2.04-2.78s2.28,1.96,3.72,3.6c-.12.7-.72,1.01-1.5,1.01h-5.53c-.48,1.71-1.08,2.85-1.74,3.54,1.44-.95,2.64-1.9,3.48-2.59l4.02,4.74c-.36.38-1.38.57-2.52-.19-2.64,1.26-6.67,2.85-10.63,4.11,3.06-.06,6.97-.19,10.99-.32,4.81-2.34,9.07-4.74,11.65-6.58l5.23,4.49c-.36.51-1.38.89-2.76.25-5.89,2.91-16.82,6.77-26.85,9.42,7.21-.32,17.6-.95,28.66-1.64-1.2-1.64-2.58-3.22-3.78-4.3l.54-.51ZM154.32,114.2c-.36.63-.78.95-2.1.7-3.6,2.78-10.75,5.94-16.76,7.27l-.6-.76c4.87-2.59,10.51-6.96,13.22-10.24l6.25,3.04ZM151.98,88.52c.36-1.33.66-3.04.96-5.37h-10.87c-.36,1.9-.78,3.73-1.14,5.37h11.05ZM143.39,76.26c-.24,1.52-.6,3.22-.96,5.06h10.69c.12-1.52.24-3.16.36-5.06h-10.09ZM143.69,83.72c2.46-.32,4.69,0,6.01,1.26,1.56,1.71-.48,4.68-2.58,2.59-.66-1.08-2.1-2.53-3.66-3.04l.24-.82ZM144.53,77.08c2.34-.38,4.57-.25,5.89.95,1.68,1.58-.12,4.62-2.4,2.72-.72-1.01-2.22-2.34-3.66-2.85l.18-.82ZM182.8,74.23c-1.26,4.62-3.42,8.35-6.37,11.51,3,1.9,6.79,3.16,11.41,4.05l-.12.7c-1.98.76-3.06,2.21-3.42,4.87-4.81-1.58-8.35-3.92-11.05-6.83-3.24,2.47-7.15,4.36-11.89,5.82l-.3-.82c4.21-2.15,7.51-4.62,10.09-7.52-2.04-2.84-3.42-6.13-4.69-9.86-1.08,1.33-2.28,2.4-3.48,3.29l-.84-.51c2.04-3.67,3.9-9.29,4.81-14.86l7.03,2.09c-.24.76-.9,1.33-2.22,1.33-.78,1.71-1.62,3.35-2.58,4.93h9.73l3.06-4.24s3.42,2.91,5.53,5.06c-.18.7-.78,1.01-1.62,1.01h-3.06ZM167.36,75.06c1.32,3.29,3.24,6.01,5.77,8.28,1.8-2.72,3.06-5.69,3.72-9.11h-8.89l-.6.82ZM168.92,112.11c18.98.63,16.7,11.95,11.47,9.8-1.68-2.4-6.07-6.2-11.77-8.91l.3-.89Z"/><path class="cls-1" d="M209.76,73.03h-11.11l-.48-1.83h11.35l-.84-6.96,7.45.63c-.06.76-.48,1.33-1.68,1.71l.54,4.62h3l3-4.11s3.36,2.85,5.29,4.93c-.12.7-.66,1.01-1.5,1.01h-9.55l.6,4.49c-.78,1.08-2.82,1.64-5.35,1.58l-.72-6.07ZM208.98,93.27h-9.07l-.48-1.83h9.55v-7.15l6.25.7c-.12.76-.54,1.33-1.86,1.45v5h2.1l2.64-3.67s3.06,2.59,4.87,4.49c-.12.7-.72,1.01-1.56,1.01h-8.05v5.94c0,.51-1.92,1.39-3.54,1.39h-.84v-7.33ZM247.31,98.39s3.42,2.72,5.53,4.74c-.18.7-.78,1.01-1.62,1.01h-22.41v6.89h12.5l3.36-4.24s3.72,2.91,6.13,5.06c-.18.7-.84,1.01-1.68,1.01h-20.31v8.16c0,.38-1.74,1.64-4.63,1.64h-.96v-9.8h-20.12l-.54-1.83h20.67v-6.89h-22.59l-.48-1.83h23.07v-19.98h-21.09l-.54-1.83h41.03l2.94-3.79s3.48,2.59,5.65,4.62c-.18.7-.78,1.01-1.62,1.01h-20.79v19.98h15.56l2.94-3.92ZM248.93,67.09s3.36,2.85,5.35,4.93c-.18.7-.72,1.01-1.56,1.01h-12.74l-.78,5c-1.02.82-3.24,1.2-5.53.7l.84-5.69h-6.37l-.48-1.83h7.15l1.02-7.02,7.39,1.52c-.18.82-.78,1.45-2.28,1.52l-.66,3.98h5.71l2.94-4.11ZM248.45,87.7s3.12,2.59,4.93,4.55c-.12.7-.72,1.01-1.5,1.01h-10.57v5.5c0,.44-1.92,1.33-3.54,1.33h-.84v-6.83h-5.95l-.48-1.83h6.43v-7.15l6.25.7c-.12.76-.54,1.33-1.86,1.45v5h4.39l2.76-3.73Z"/><path class="cls-1" d="M309.9,73.41c-1.08,1.14-2.22,2.28-3.54,3.41l7.45.63c-.06.82-.48,1.39-1.86,1.64v4.05h2.64l2.94-3.79s2.58,2.09,4.57,3.92c.9-1.01,1.74-1.96,2.46-2.91l6.01,5.06c-.54.51-1.2.7-2.52.19-2.28,2.28-4.99,4.55-8.11,6.83h10.93l3.24-4.17s3.66,2.85,5.89,5c-.18.7-.78,1.01-1.56,1.01h-21.09c-2.82,1.9-5.95,3.79-9.25,5.5h17.48l2.76-3.29,5.95,4.81c-.36.51-1.26,1.08-2.52,1.33v18.21c-.06.38-2.82,1.52-4.69,1.52h-.9v-3.41h-20.85v2.15c0,.51-2.34,1.83-4.69,1.83h-.84v-19.16c-4.39,1.83-8.95,3.41-13.64,4.68l-.42-.95c4.75-1.9,9.55-4.3,14.06-6.89v-3.48l3.24,1.45c2.22-1.39,4.39-2.84,6.43-4.3h-22.17l-.48-1.83h19.46v-7.46h-9.07l-.48-1.83c-3.18,1.64-6.85,3.1-10.87,4.3l-.42-.76c7.57-3.54,13.22-8.28,17.3-13.28h-15.92l-.54-1.83h17.9c1.92-2.59,3.42-5.18,4.57-7.71l7.81,2.97c-.36.82-1.2,1.14-2.46,1.01-.72,1.26-1.62,2.47-2.58,3.73h18.8l3.66-4.68s4.21,3.22,6.73,5.5c-.18.7-.78,1.01-1.62,1.01h-18.56c5.17,4.05,14.18,6.39,21.15,7.08l-.12.82c-2.46,1.14-4.09,2.78-4.45,5.06-7.45-2.21-14.42-7.08-18.86-12.96h-8.35ZM306.3,76.89c-2.64,2.28-5.83,4.36-9.49,6.26h9.49v-6.26ZM305.34,101.61v6.51h20.85v-6.51h-20.85ZM326.18,117.1v-7.14h-20.85v7.14h20.85ZM311.94,84.98v7.46c3.18-2.47,6.07-5,8.53-7.46h-8.53Z"/><path class="cls-1" d="M401.39,100.98s3.96,3.22,6.43,5.5c-.18.7-.84,1.01-1.68,1.01h-23.73v7.53c0,4.43-1.02,6.96-8.65,7.65-.24-1.9-.6-3.29-1.68-4.17-1.08-.95-2.7-1.64-6.13-2.15v-.88s7.75.51,9.13.51c1.02,0,1.38-.32,1.38-1.2v-7.27h-24.33l-.54-1.83h24.87v-5.69l5.71.57c3.36-1.33,7.03-2.91,9.91-4.43h-34.24l-.54-1.83h37.13l3.54-3.23,5.41,5.44c-.48.51-1.2.63-2.58.7-4.21,1.64-10.93,3.29-16.76,4.43-.3.38-.84.57-1.62.7v3.35h15.5l3.48-4.68ZM352.43,72.59h26.79c-.42-.13-.78-.32-1.2-.63-.54-2.85-2.58-6.07-4.45-8.03l.54-.44c10.75,1.2,10.39,7.9,7.21,9.11h15.74l3.54-4.87s3.96,3.29,6.37,5.69c-.18.7-.84,1.01-1.68,1.01h-52.32l-.54-1.83ZM390.94,91.75v-2.4h-22.83v1.39c0,.57-2.64,1.77-4.93,1.77h-.78v-16.31l6.07,2.53h21.87l2.76-3.16,6.19,4.8c-.42.51-1.32,1.01-2.52,1.33v8.54c-.06.44-3,1.52-4.87,1.52h-.96ZM390.94,87.58v-7.02h-22.83v7.02h22.83Z"/><path class="cls-1" d="M445.78,121.34c0,.38-1.74,1.52-4.51,1.52h-.96v-10.24c-4.33,1.45-9.85,3.22-16.94,5.31-.3.76-.9,1.2-1.5,1.39l-2.88-6.77c1.44-.06,3.48-.25,5.95-.44v-21.5h-6.07l-.48-1.83h45.24l3.42-4.74s3.9,3.22,6.19,5.56c-.18.7-.78,1.01-1.62,1.01h-25.83v30.73ZM432.56,85.3c0,.57-2.52,1.83-4.81,1.83h-.84v-21.88l6.01,2.66h25.59l2.82-3.29,6.01,4.81c-.42.51-1.26,1.08-2.52,1.33v14.04c-.06.44-2.88,1.52-4.75,1.52h-.96v-16.57h-26.55v15.56ZM430.4,90.61v5.56h9.91v-5.56h-9.91ZM430.4,103.7h9.91v-5.69h-9.91v5.69ZM430.4,111.6c3.06-.32,6.43-.7,9.91-1.08v-5h-9.91v6.07ZM453.11,78.66s2.52,2.02,4.27,3.6c-.18.7-.72,1.01-1.56,1.01h-20.31l-.48-1.83h15.92l2.16-2.78ZM453.17,71.96s2.52,1.96,4.21,3.54c-.18.7-.72,1.01-1.5,1.01h-20.31l-.48-1.83h15.86l2.22-2.72ZM471.37,97.69c-.36.63-.96.82-2.28.95-1.56,4.74-3.9,9.23-7.21,13.09,3.6,2.34,7.87,3.92,12.68,5.06l-.06.7c-2.4.51-4.15,2.47-4.87,5.31-4.57-1.9-8.35-4.24-11.41-7.4-3.3,2.85-7.21,5.19-11.95,7.02l-.48-.82c4.02-2.4,7.39-5.56,9.97-9.17-2.7-3.73-4.63-8.54-5.95-14.61h-3.06l-.48-1.83h16.1l3.36-3.48,5.65,5.19ZM450.95,97.82c1.62,4.62,4.02,8.28,7.15,11.13,2.04-3.48,3.54-7.21,4.51-11.13h-11.65Z"/><path class="cls-1" d="M500.38,101.74c13.52,2.66,9.25,12.08,4.57,8.6-.6-2.47-2.64-5.5-4.57-7.46v18.08c0,.57-2.34,1.71-4.27,1.71h-1.02v-14.67c-2.94,4.17-6.61,7.71-11.11,10.69l-.66-.95c4.75-4.68,8.17-11.19,10.21-17.83h-8.05l-.48-1.83h10.09v-8.85l7.39.76c-.12.89-.66,1.46-2.1,1.71v6.39h2.76l2.76-3.98s3.24,2.78,5.17,4.81c-.18.7-.78,1.01-1.56,1.01h-9.13v1.83ZM485.66,89.73c7.87-3.92,14.48-9.8,18.62-16.12h-16.4l-.48-1.83h21.15v-7.78l8.05.82c-.18.88-.66,1.52-2.22,1.77v5.18h12.86l3.3-4.49s3.78,3.1,6.07,5.31c-.12.7-.78,1.01-1.62,1.01h-20.61v1.9c21.39,2.72,21.15,14.35,15.02,12.71-3.12-3.6-9.67-8.28-15.02-11.19v13.47c0,.51-2.58,1.52-4.75,1.52h-1.08v-14.86c-5.41,5.94-13.22,10.5-22.41,13.53l-.48-.95ZM527.12,99.91c3,5.94,8.23,10.75,13.4,13.09l-.12.57c-2.04.51-3.54,2.28-4.27,5.19-4.57-3.92-7.93-9.86-10.03-17.64v19.98c0,.57-2.4,1.58-4.39,1.58h-1.08v-16.31c-3.54,5.18-8.41,9.36-14.42,12.71l-.6-.89c5.89-4.74,10.15-11.32,12.68-18.27h-6.73l-.42-1.83h9.49v-8.73l7.51.82c-.12.82-.6,1.45-2.04,1.64v6.26h4.2l3.06-4.43s3.54,3.04,5.59,5.25c-.06.7-.66,1.01-1.5,1.01h-10.33Z"/><path class="cls-1" d="M605.93,78.22c-.48.57-1.14.7-2.34.76-1.74,1.71-4.81,4.11-7.03,5.38l-.72-.44c.6-1.52,1.32-4.05,1.8-6.07h-37.43v12.58c0,9.86-.48,23.52-9.67,32.56l-.66-.57c4.51-9.48,4.75-21.5,4.75-31.93v-17.01l6.49,2.53h12.92v-11.95l7.87.7c-.12.89-.6,1.52-2.16,1.77v3.73h9.85l3.42-4.55s3.9,3.16,6.25,5.38c-.12.7-.72,1.01-1.62,1.01h-17.9v3.92h17.72l3-3.23,5.47,5.44ZM582.26,99.53c-.42.57-1.02.76-2.34.88-1.62,5-3.96,9.29-7.45,12.9,3.9,2.78,8.95,3.41,15.92,3.41,3.96,0,13.1,0,17.42-.13v.82c-1.86.38-2.82,2.28-2.82,4.43h-14.84c-8.29,0-14-1.39-18.08-6.39-3.6,3.04-8.29,5.37-14.18,7.02l-.48-1.01c5.41-2.21,9.67-5.12,12.8-8.79-1.08-2.02-1.98-4.43-2.76-7.34-1.62,2.53-3.48,4.87-5.59,6.7l-.78-.57c3.36-4.87,5.83-13.22,6.79-20.04l6.85,1.58c-.24.7-.66,1.01-2.16.89-.42,1.33-.9,2.66-1.44,3.98h5.47l2.82-2.78,4.87,4.43ZM581.12,79.23c-.06.76-.66,1.33-1.74,1.52v3.16l6.67-.63,2.52-4.05s3.48,2.34,5.65,4.05c-.06.7-.66,1.14-1.44,1.2l-13.4,1.26v2.34c0,.82.18,1.08,2.28,1.08h6.43c2.4,0,4.81-.06,5.71-.06.6-.06,1.2-.13,1.56-.19.48-.06,1.2-.19,1.62-.32h.6l.3.06c1.62.57,2.16,1.01,2.16,2.09,0,2.34-2.16,2.84-12.56,2.84h-6.85c-5.59,0-6.61-1.01-6.61-4.74v-2.59l-11.17,1.14-.66-1.77,11.83-1.14v-5.94l7.09.7ZM568.32,99.72c-.6,1.45-1.32,2.91-2.1,4.3.96,2.78,2.16,5,3.54,6.7,2.34-3.22,3.96-6.89,5.05-11h-6.49ZM595.84,113.37c-3.42,0-3.78-1.14-3.78-4.11v-10.24h-4.45v1.33c0,3.92-1.02,10.24-9.25,13.97l-.54-.82c4.45-4.11,4.93-9.04,4.93-13.15v-5.5l5.71,2.34h3.06l2.52-2.78,4.81,4.24c-.42.44-1.02.76-2.04.95v8.66c0,.63.12.76.72.76h2.04c.3,0,.6-.06.84-.38.3-.44.9-2.15,1.38-3.86h.66l.18,3.92c1.26.57,1.56,1.08,1.56,1.96,0,1.96-1.74,2.72-6.07,2.72h-2.28Z"/></g></svg>