<?xml version="1.0" encoding="UTF-8"?><svg id="_圖層_2" xmlns="http://www.w3.org/2000/svg" viewBox="0 0 563.14 482.39"><defs><style>.cls-1{fill:none;stroke:#fff;stroke-miterlimit:10;}.cls-2{fill:#b89062;}.cls-3{fill:#fff;}</style></defs><g id="_圖層_2-2"><path class="cls-3" d="M90.87,344.45c-.42.57-1.32,1.01-2.52,1.33v49.13c-.06.51-2.76,2.02-4.87,2.02h-.84v-4.36h-37.55v2.59c0,.76-2.16,2.28-4.63,2.28h-.96v-57.42l6.13,2.85h36.4l2.94-3.48,5.89,5.06ZM82.64,390.73v-46.03h-37.55v46.03h10.27l-2.82-4.17c1.74-1.26,2.04-1.77,2.04-2.66v-3.86c-2.64,1.2-5.47,2.28-8.47,3.1l-.54-1.08c5.17-2.21,9.79-5.25,13.1-8.73h-3.12v.7c0,.44-2.22,1.52-4.09,1.52h-.72v-13.97l5.11,2.21h15.74l2.34-2.47,4.87,3.79c-.3.38-.96.82-1.86.95v7.15c0,.06-.06.13-.12.19l3.72,3.54c-.36.38-.9.51-1.98.13-1.32.63-3.36,1.58-5.23,2.4,9.67,5.19,7.03,11,3.42,8.98-1.98-2.91-7.21-7.84-13.7-11.57l.42-.95c3.18.82,5.83,1.71,7.93,2.66,1.38-1.39,2.82-3.04,3.91-4.43-.78.25-1.68.51-2.4.51h-.84v-1.33h-7.51c-1.44,1.58-3.24,2.97-5.29,4.17v6.89c2.52-.7,5.29-1.58,8.17-2.53l.24.89c-2.22,1.39-6.73,4.3-11.35,7.02-.24.44-.54.76-.84.95h27.15ZM76.52,354.56s3.24,2.47,5.23,4.36c-.18.7-.78,1.01-1.62,1.01h-33.28l-.48-1.83h14.84v-4.55h-11.41l-.48-1.83h11.89v-5.56l6.85.7c-.06.76-.48,1.26-1.68,1.45v3.41h5.17l2.7-3.48s3,2.47,4.93,4.3c-.12.7-.72,1.01-1.56,1.01h-11.23v4.55h7.45l2.7-3.54ZM72.07,365.63h-16.52v5.88h16.52v-5.88Z"/><path class="cls-3" d="M156.95,344.45c-.42.57-1.32,1.01-2.52,1.33v49.13c-.06.51-2.76,2.02-4.87,2.02h-.84v-4.36h-37.55v2.59c0,.76-2.16,2.28-4.63,2.28h-.96v-57.42l6.13,2.85h36.4l2.94-3.48,5.89,5.06ZM148.72,390.73v-46.03h-37.55v46.03h10.27l-2.82-4.17c1.74-1.26,2.04-1.77,2.04-2.66v-3.86c-2.64,1.2-5.47,2.28-8.47,3.1l-.54-1.08c5.17-2.21,9.79-5.25,13.1-8.73h-3.12v.7c0,.44-2.22,1.52-4.08,1.52h-.72v-13.97l5.11,2.21h15.74l2.34-2.47,4.87,3.79c-.3.38-.96.82-1.86.95v7.15c0,.06-.06.13-.12.19l3.72,3.54c-.36.38-.9.51-1.98.13-1.32.63-3.36,1.58-5.23,2.4,9.67,5.19,7.03,11,3.42,8.98-1.98-2.91-7.21-7.84-13.7-11.57l.42-.95c3.18.82,5.83,1.71,7.93,2.66,1.38-1.39,2.82-3.04,3.9-4.43-.78.25-1.68.51-2.4.51h-.84v-1.33h-7.51c-1.44,1.58-3.24,2.97-5.29,4.17v6.89c2.52-.7,5.29-1.58,8.17-2.53l.24.89c-2.22,1.39-6.73,4.3-11.35,7.02-.24.44-.54.76-.84.95h27.15ZM142.59,354.56s3.24,2.47,5.23,4.36c-.18.7-.78,1.01-1.62,1.01h-33.28l-.48-1.83h14.84v-4.55h-11.41l-.48-1.83h11.89v-5.56l6.85.7c-.06.76-.48,1.26-1.68,1.45v3.41h5.17l2.7-3.48s3,2.47,4.93,4.3c-.12.7-.72,1.01-1.56,1.01h-11.23v4.55h7.45l2.7-3.54ZM138.15,365.63h-16.52v5.88h16.52v-5.88Z"/><path class="cls-3" d="M187.94,349.7s3.3,3.04,5.17,5.18c-.18.7-.78,1.01-1.62,1.01h-7.99v5.63c13.82,5.18,9.25,14.99,4.63,11-.54-3.1-2.64-6.89-4.63-9.67v32.82c0,.63-2.4,1.83-4.45,1.83h-1.14v-27.95c-2.52,5.06-5.77,9.61-9.67,13.53l-.78-.76c4.57-7.21,7.75-17.01,9.55-26.43h-7.87l-.48-1.83h9.25v-15.18l7.75.89c-.12.95-.6,1.52-2.16,1.77v12.52h1.62l2.82-4.36ZM223.45,345.59c-.42.57-1.32,1.08-2.46,1.33v47.93c-.06.51-2.76,2.02-4.93,2.02h-.84v-5.88h-15.38v3.86c0,.82-2.16,2.28-4.69,2.28h-.96v-55.77l5.95,2.72h14.48l2.94-3.41,5.89,4.93ZM199.84,345.84v12.96h15.38v-12.96h-15.38ZM199.84,360.63v13.09h15.38v-13.09h-15.38ZM215.22,389.15v-13.59h-15.38v13.59h15.38Z"/><path class="cls-3" d="M255.28,370.18c-.42.57-.96.76-2.28.82-1.38,4.55-4.09,9.61-8.05,13.4.12.13.3.25.48.44,5.05,4.68,12.07,5.5,24.75,5.5,7.09,0,12.98-.06,20.24-.44v.82c-2.4.44-3.78,2.47-4.09,4.87h-18.08c-12.8,0-18.26-2.09-23.49-8.73-.9-1.01-1.5-.89-1.98.13-1.02,1.9-2.82,5.31-4.15,8.22.18.51.06.88-.36,1.26l-4.2-5.88c2.94-2.02,7.63-6.26,9.07-6.58,2.16-3.79,3.78-9.04,4.51-13.41h-5.11l-1.98,1.83-4.51-3.79c.6-.38,1.56-.82,2.4-1.08,2.1-3.04,4.69-7.4,6.43-10.56h-8.95l-.54-1.83h9.73l2.58-2.85,5.23,5c-.54.63-1.68.95-3.12,1.07-1.68,2.85-4.45,7.21-6.55,10.37h4.08l2.88-3.04,5.05,4.43ZM237.68,339.51c14.48,2.85,10.03,14.04,4.69,10.12-.54-3.41-3.06-7.27-5.29-9.67l.6-.44ZM251.86,346.28h15.62v-7.65l7.51.82c-.12.89-.6,1.58-2.16,1.83v5h6.31l3.36-4.36s3.84,2.97,6.19,5.19c-.18.7-.78,1.01-1.62,1.01h-14.24v5.56h5.59l2.76-3.16,5.77,4.68c-.36.51-1.26,1.08-2.52,1.33v16.57c-.06.44-2.7,1.77-4.57,1.77h-.84v-2.47h-6.19v6.39h7.03l3.3-4.36s3.9,2.97,6.19,5.19c-.12.7-.72,1.01-1.56,1.01h-14.96v6.45c0,.7-2.34,1.96-4.33,1.96h-1.02v-8.41h-15.26l-.48-1.83h15.74v-6.39h-6.49v1.64c0,.57-2.34,1.77-4.51,1.77h-.78v-24.6l5.65,2.47h6.13v-5.56h-15.14l-.48-1.83ZM260.99,355.51v6.39h6.49v-6.39h-6.49ZM267.48,370.56v-6.83h-6.49v6.83h6.49ZM272.82,355.51v6.39h6.19v-6.39h-6.19ZM279.01,370.56v-6.83h-6.19v6.83h6.19Z"/><path class="cls-3" d="M73.03,452.29l-.06,10.43c-4.02,2.4-8.35,3.54-13.28,3.54-13.22,0-22.71-9.42-22.71-24.41s9.97-24.47,22.83-24.47c4.27,0,8.41,1.01,12.62,3.41v10.56h-3.48l-2.04-9.67c-2.04-1.08-4.08-1.52-6.25-1.52-9.01,0-15.98,7.46-15.98,21.69s6.55,21.5,15.86,21.5c2.34,0,4.63-.38,6.91-1.52l2.04-9.55h3.54Z"/><path class="cls-3" d="M99.88,463.1v2.02h-15.68v-2.02l4.69-.7c.06-3.6.12-8.66.12-11.95v-4.05c0-3.92-.06-6.32-.18-9.36l-5.11-.51v-1.96l10.99-3.6.84.63-.12,9.42v9.42c0,3.35.06,8.41.12,11.95l4.33.7ZM87.63,418.84c0-2.59,1.98-4.36,4.45-4.36s4.39,1.77,4.39,4.36-1.98,4.43-4.39,4.43-4.45-1.83-4.45-4.43Z"/><path class="cls-3" d="M130.04,462.09c-1.68,2.53-4.39,3.98-8.05,3.98-5.05,0-7.87-2.72-7.87-8.54,0-1.9.06-3.54.06-6.13v-16.69h-5.47v-2.28l5.83-.7,2.04-9.67h4.33l-.3,9.8h8.47v2.84h-8.53v22.83c0,3.6,1.5,5.12,3.9,5.12,1.5,0,2.7-.63,4.39-1.96l1.2,1.39Z"/><path class="cls-3" d="M170.52,433.89l-3.72.63-11.65,32.38c-3.96,11.32-8.53,15.49-13.04,15.49-3.12,0-5.95-1.83-6.01-4.49.42-2.09,2.46-3.16,4.39-3.16s3.36,1.08,4.93,2.91l.66.7c2.82-2.34,4.75-5.88,6.43-10.43l.12-.38-12.74-33.13-3.66-.51v-2.02h16.22v2.09l-5.41.57,8.59,24.79,8.11-24.72-5.83-.7v-2.02h12.62v2.02Z"/><path class="cls-3" d="M261.23,420.8l-5.59.82-11.35,43.88h-3.48l-11.11-36.61-10.57,36.61h-3.42l-12.07-44.07-5.11-.63v-2.28h18.32v2.28l-5.95.76,8.41,33.7,9.91-33.64-6.31-.82v-2.28h18.02v2.28l-6.67.82,9.79,33.77,8.53-33.7-6.07-.89v-2.28h14.72v2.28Z"/><path class="cls-3" d="M296.79,462.09c-1.44,2.85-3.36,3.86-6.07,3.86-3.36,0-5.53-2.09-6.13-5.5-3.48,3.73-5.83,5.63-10.03,5.63-4.93,0-8.65-3.04-8.65-8.47,0-4.68,2.52-7.78,11.29-10.94,2.04-.63,4.69-1.45,7.21-2.09v-2.59c0-6.77-1.74-8.6-6.25-8.6-1.08,0-2.22.13-3.54.51l-1.02,4.68c-.48,2.66-1.74,3.92-3.6,3.92s-2.94-.95-3.18-2.78c1.02-5.44,5.89-8.79,13.28-8.79s10.63,3.42,10.63,12.08v15.55c0,3.16.9,4.17,2.28,4.17,1.08,0,1.74-.51,2.76-1.77l1.02,1.14ZM284.41,446.6c-2.16.63-4.2,1.33-5.47,1.83-5.29,2.21-6.67,5-6.67,8.16,0,3.73,2.1,5.37,5.11,5.37,2.16,0,3.66-.88,7.03-3.73v-11.63Z"/><path class="cls-3" d="M321.72,463.1v2.02h-16.64v-2.02l5.05-.7c.06-3.92.12-8.09.12-11.95v-31.62l-5.17-.51v-1.96l10.87-2.72.9.51-.24,9.93v26.37c0,3.86.06,8.03.12,11.95l4.99.7Z"/><path class="cls-3" d="M366.71,463.1v2.02h-9.97l-9.85-17.96-3.96,4.11c0,3.54.06,7.71.12,11.13l4.81.7v2.02h-16.4v-2.02l4.99-.7c.06-3.73.12-8.35.12-11.95v-31.62l-5.17-.51v-1.96l10.87-2.72.9.51-.24,9.93v23.97l12.25-12.96-5.47-1.08v-2.15h15.32v2.15l-6.13.82-7.51,7.71,11.17,19.92,4.15.63Z"/><path class="cls-3" d="M380.28,452.73c1.98,6.32,1.38,11.19-.24,13.53-1.14,1.58-3.84,1.9-4.81.13-.78-1.52-.12-3.29,1.26-4.36,1.5-1.64,3.12-5.82,2.76-9.29h1.02ZM375.18,444.7s1.32-.25,1.8-.7c2.64-2.4,5.83-6.77,8.47-11.19-1.8.7-3.9,1.52-6.07,2.21-.42.63-.9,1.08-1.38,1.33l-2.58-6.58s1.14-.32,1.62-.7c2.94-3.41,6.67-12.46,7.87-17.26l6.91,3.6c-.24.57-.9,1.08-2.1.95-2.4,4.11-6.61,9.86-10.39,13.66,2.16.06,4.93.06,7.69,0,1.26-2.34,2.34-4.55,3-6.32l6.25,4.43c-.3.51-1.14.89-2.22.63-3.12,4.81-9.01,11.51-14.42,16.06,3-.13,7.03-.44,11.35-.76-.48-2.4-1.2-4.74-2.04-6.58l.72-.32c10.87,7.21,5.53,16.06,1.68,11.63.06-.95,0-1.96-.12-2.97-3.3,1.2-7.75,2.78-12.44,4.24-.42.63-.9,1.01-1.44,1.2l-2.16-6.58ZM384.43,451.78c8.11,8.09,2.82,16.19-.42,11.82.66-3.73.3-8.41-.42-11.63l.84-.19ZM408.64,451.91c-1.8,2.15-4.51,5.56-8.41,9.74-.06.82-.42,1.58-1.02,1.83l-3.78-5.69c.66,3.54-1.92,5.69-4.09,3.35.18-3.42-1.08-7.65-2.4-10.37l.72-.32c3.48,2.34,5.17,4.81,5.65,6.96,2.4-.95,7.81-3.54,13.04-6.2l.3.7ZM425.46,430.28s3.42,3.04,5.47,5.25c-.18.7-.78,1.01-1.62,1.01h-14.36v26.56c0,3.86-.78,6.32-6.85,6.89-.06-1.58-.3-2.85-1.02-3.54-.72-.82-1.86-1.39-4.27-1.77v-.95s4.75.38,5.83.38c.96,0,1.2-.32,1.2-1.08v-26.49h-13.4l-.48-1.83h17.78l1.56-5h-10.99l-2.4,2.53-5.23-4.11c.66-.51,1.68-1.01,2.64-1.39,1.92-4.36,4.45-11.38,5.41-14.8l7.21,1.39c-.18.82-.78,1.45-2.46,1.45-.3,1.01-.72,2.15-1.2,3.41h10.09l2.46-2.78,5.11,4.62c-.42.51-1.02.7-2.16.76l-4.39,13.91h3.06l3-4.43ZM399.09,439.39c12.44,3.92,7.75,13.15,3.42,9.36-.3-3.04-2.28-6.77-4.08-8.98l.66-.38ZM415.91,427.88l2.46-7.84h-10.75c-1.02,2.72-2.16,5.56-3.06,7.84h11.35ZM429.48,442.61c-.3.51-.9.7-2.1.38-2.28,1.71-6.91,4.55-9.85,6.32l-.54-.63c2.04-2.91,4.93-7.84,6.49-10.62l6.01,4.55ZM417.59,451.78c16.22,2.4,13.34,15.11,7.99,11.38-1.74-3.29-4.51-7.9-8.41-10.75l.42-.63Z"/><path class="cls-3" d="M465.22,421.11c-1.08,1.14-2.22,2.28-3.54,3.41l7.45.63c-.06.82-.48,1.39-1.86,1.64v4.05h2.64l2.94-3.79s2.58,2.09,4.57,3.92c.9-1.01,1.74-1.96,2.46-2.91l6.01,5.06c-.54.51-1.2.7-2.52.19-2.28,2.28-4.99,4.55-8.11,6.83h10.93l3.24-4.17s3.66,2.85,5.89,5c-.18.7-.78,1.01-1.56,1.01h-21.09c-2.82,1.9-5.95,3.79-9.25,5.5h17.48l2.76-3.29,5.95,4.81c-.36.51-1.26,1.08-2.52,1.33v18.21c-.06.38-2.82,1.52-4.69,1.52h-.9v-3.41h-20.85v2.15c0,.51-2.34,1.83-4.69,1.83h-.84v-19.16c-4.39,1.83-8.95,3.41-13.64,4.68l-.42-.95c4.75-1.9,9.55-4.3,14.06-6.89v-3.48l3.24,1.45c2.22-1.39,4.39-2.84,6.43-4.3h-22.17l-.48-1.83h19.46v-7.46h-9.07l-.48-1.83c-3.18,1.64-6.85,3.1-10.87,4.3l-.42-.76c7.57-3.54,13.22-8.28,17.3-13.28h-15.92l-.54-1.83h17.9c1.92-2.59,3.42-5.18,4.57-7.71l7.81,2.97c-.36.82-1.2,1.14-2.46,1.01-.72,1.26-1.62,2.47-2.58,3.73h18.8l3.66-4.68s4.21,3.22,6.73,5.5c-.18.7-.78,1.01-1.62,1.01h-18.56c5.17,4.05,14.18,6.39,21.15,7.08l-.12.82c-2.46,1.14-4.08,2.78-4.45,5.06-7.45-2.21-14.42-7.08-18.86-12.96h-8.35ZM461.62,424.59c-2.64,2.28-5.83,4.36-9.49,6.26h9.49v-6.26ZM460.66,449.32v6.51h20.85v-6.51h-20.85ZM481.5,464.81v-7.14h-20.85v7.14h20.85ZM467.27,432.69v7.46c3.18-2.47,6.07-5,8.53-7.46h-8.53Z"/><path class="cls-3" d="M556.71,448.68s3.96,3.22,6.43,5.5c-.18.7-.84,1.01-1.68,1.01h-23.73v7.53c0,4.43-1.02,6.96-8.65,7.65-.24-1.9-.6-3.29-1.68-4.17-1.08-.95-2.7-1.64-6.13-2.15v-.88s7.75.51,9.13.51c1.02,0,1.38-.32,1.38-1.2v-7.27h-24.33l-.54-1.83h24.87v-5.69l5.71.57c3.36-1.33,7.03-2.91,9.91-4.43h-34.24l-.54-1.83h37.13l3.54-3.23,5.41,5.44c-.48.51-1.2.63-2.58.7-4.21,1.64-10.93,3.29-16.76,4.43-.3.38-.84.57-1.62.7v3.35h15.5l3.48-4.68ZM507.75,420.29h26.79c-.42-.13-.78-.32-1.2-.63-.54-2.85-2.58-6.07-4.45-8.03l.54-.44c10.75,1.2,10.39,7.9,7.21,9.11h15.74l3.54-4.87s3.96,3.29,6.37,5.69c-.18.7-.84,1.01-1.68,1.01h-52.32l-.54-1.83ZM546.26,439.45v-2.4h-22.83v1.39c0,.57-2.64,1.77-4.93,1.77h-.78v-16.31l6.07,2.53h21.87l2.76-3.16,6.19,4.8c-.42.51-1.32,1.01-2.52,1.33v8.54c-.06.44-3,1.52-4.87,1.52h-.96ZM546.26,435.28v-7.02h-22.83v7.02h22.83Z"/><path class="cls-2" d="M56.31,289.68v.88h-4.94v13.61h-1.98v-13.61h-1.98c-.88,0-1.56.2-2.03.6-.48.4-.71,1.04-.71,1.92h-.44v-1.65c0-.22.03-.44.08-.65.05-.21.15-.4.29-.56.14-.16.33-.29.57-.4.24-.1.55-.15.93-.15h10.21Z"/><path class="cls-2" d="M69.44,301.54c0,.66.09,1.19.27,1.59.18.4.6.6,1.26.6h.44v.44h-1.98c-.38,0-.7-.03-.96-.1-.26-.07-.46-.2-.61-.4-.15-.2-.26-.46-.32-.8-.06-.34-.09-.78-.09-1.34v-4.39h-6.59v7.02h-1.98v-11.85c0-.66-.09-1.19-.27-1.59-.18-.4-.6-.6-1.26-.6h-.44v-.44h1.98c.38,0,.7.03.95.1.26.07.46.2.61.39.15.2.26.47.32.81.06.34.09.79.09,1.33v3.95h6.59v-6.58h1.98v11.85Z"/><path class="cls-2" d="M81.49,289.68c.38,0,.69.05.93.15.24.1.43.23.57.4.14.16.23.35.29.56s.08.43.08.65v1.65h-.44c0-.88-.24-1.52-.71-1.92-.48-.4-1.15-.6-2.03-.6h-4.08v5.71h5.93v.88h-5.93v6.15h3.84c1,0,1.78-.18,2.36-.55.58-.37,1.04-.99,1.37-1.87l.44.11-.77,2.09c-.12.34-.31.6-.58.8-.27.2-.63.3-1.06.3h-7.57v-11.85c0-.66-.09-1.19-.27-1.59-.18-.4-.6-.6-1.26-.6h-.44v-.44h9.35Z"/><path class="cls-2" d="M104.76,304.17c-.25.07-.54.11-.88.11-.25,0-.54-.03-.87-.09-.33-.06-.67-.19-1.01-.38-.34-.2-.68-.49-1.01-.87-.33-.38-.61-.88-.85-1.51l-.55-1.43h-6.15l-1.76,4.17h-.99l6.15-14.49h.66l4.83,11.74c.18.41.34.76.49,1.04.15.29.33.52.52.69.19.18.4.31.61.4.22.09.48.15.79.17v.44ZM93.78,299.12h5.38l-2.63-6.37-2.74,6.37Z"/><path class="cls-2" d="M110.01,297.48h-1.54v6.7h-1.98v-11.85c0-.66-.09-1.19-.27-1.59-.18-.4-.6-.6-1.26-.6h-.44v-.44h5.71c.47,0,1.02.04,1.65.12.63.08,1.23.26,1.8.54s1.05.68,1.45,1.2c.4.52.59,1.22.59,2.1,0,.63-.11,1.16-.33,1.6-.22.44-.5.8-.85,1.09-.34.29-.72.51-1.14.67-.42.16-.82.29-1.2.37l2.31,3.84c.28.47.54.86.78,1.16.24.31.48.56.71.76.23.2.47.34.7.43.23.09.49.15.77.17v.44c-.12.06-.3.11-.54.15-.24.04-.5.07-.78.07-.38,0-.74-.05-1.06-.15-.33-.1-.65-.28-.96-.53-.31-.25-.62-.58-.93-.99-.31-.41-.65-.91-1-1.51l-2.2-3.73ZM110.12,296.71c.31,0,.65-.06,1.04-.18s.76-.3,1.11-.54c.35-.24.65-.56.89-.94.24-.39.36-.86.36-1.42s-.12-1.06-.36-1.47c-.24-.41-.54-.74-.89-.99-.35-.25-.72-.43-1.11-.55-.39-.12-.74-.18-1.04-.18-.28,0-.57.02-.87.07-.3.04-.56.09-.78.15v5.82c.22.06.48.11.78.15.3.04.59.07.87.07Z"/><path class="cls-2" d="M129.76,289.68v.88h-4.94v13.61h-1.98v-13.61h-1.98c-.88,0-1.56.2-2.03.6-.48.4-.71,1.04-.71,1.92h-.44v-1.65c0-.22.03-.44.08-.65s.15-.4.29-.56c.14-.16.33-.29.57-.4.24-.1.55-.15.93-.15h10.21Z"/><path class="cls-2" d="M137.93,292.32c0-.66-.14-1.19-.42-1.59-.28-.4-.8-.6-1.56-.6h-.22v-.44h1.43c.72,0,1.31.12,1.77.35.46.23.86.56,1.2.97l7.68,9.55v-10.87h.88v14.71h-.44l-9.44-11.75v11.53h-.88v-11.85Z"/><path class="cls-2" d="M160.26,289.68c.38,0,.69.05.93.15.24.1.43.23.57.4.14.16.23.35.29.56s.08.43.08.65v1.65h-.44c0-.88-.24-1.52-.71-1.92-.48-.4-1.15-.6-2.03-.6h-4.08v5.71h5.93v.88h-5.93v6.15h3.84c1,0,1.78-.18,2.36-.55.58-.37,1.04-.99,1.37-1.87l.44.11-.77,2.09c-.12.34-.31.6-.58.8-.27.2-.63.3-1.06.3h-7.57v-11.85c0-.66-.09-1.19-.27-1.59-.18-.4-.6-.6-1.26-.6h-.44v-.44h9.35Z"/><path class="cls-2" d="M164.51,296.93c0-1.07.16-2.07.47-3.01.31-.94.77-1.75,1.36-2.45.59-.7,1.31-1.24,2.15-1.64.84-.4,1.78-.59,2.82-.59s1.98.2,2.82.59c.84.4,1.56.94,2.15,1.64.59.7,1.05,1.51,1.36,2.45.31.94.47,1.94.47,3.01s-.16,2.09-.47,3.02c-.31.93-.77,1.74-1.36,2.44-.59.7-1.31,1.24-2.15,1.64-.84.39-1.78.59-2.82.59s-1.98-.2-2.82-.59c-.84-.4-1.56-.94-2.15-1.64-.59-.7-1.05-1.51-1.36-2.44-.31-.93-.47-1.94-.47-3.02ZM175.93,296.93c0-1.04-.11-1.98-.32-2.82-.21-.84-.52-1.56-.91-2.15-.4-.59-.88-1.05-1.45-1.36-.57-.31-1.21-.47-1.93-.47s-1.36.16-1.93.47c-.57.32-1.05.77-1.45,1.36-.4.59-.7,1.31-.91,2.15-.21.84-.32,1.78-.32,2.82s.11,1.98.32,2.82c.21.84.52,1.56.91,2.15.4.59.88,1.05,1.45,1.36.57.32,1.21.47,1.93.47s1.36-.16,1.93-.47c.57-.31,1.05-.77,1.45-1.36.4-.59.7-1.31.91-2.15.21-.84.32-1.78.32-2.82Z"/><path class="cls-2" d="M180.58,297.58h5.6v1.54h-5.6v-1.54Z"/><path class="cls-2" d="M200.56,294.29c-.28-1.43-.79-2.49-1.55-3.16-.75-.67-1.74-1.01-2.95-1.01-.72,0-1.39.12-2.03.36-.64.24-1.2.64-1.68,1.19s-.86,1.27-1.14,2.16c-.28.89-.42,2-.42,3.32,0,.82.1,1.62.3,2.41.2.79.51,1.49.93,2.11.42.62.97,1.11,1.64,1.49s1.47.57,2.4.57c1.1,0,2.04-.26,2.83-.79.79-.53,1.49-1.29,2.11-2.28l.44.33c-.35.69-.74,1.26-1.17,1.72-.43.46-.9.83-1.39,1.12-.5.29-1.04.49-1.61.6-.58.12-1.2.18-1.85.18-1.04,0-1.98-.19-2.82-.58-.84-.39-1.56-.92-2.15-1.59-.59-.67-1.05-1.46-1.36-2.37-.31-.91-.47-1.88-.47-2.92,0-1.1.18-2.13.54-3.08.36-.96.85-1.8,1.46-2.51.61-.72,1.34-1.28,2.16-1.69.83-.41,1.71-.61,2.65-.61,1.21,0,2.26.17,3.14.52.88.34,1.51.76,1.91,1.24.28.34.44.81.48,1.41.04.6.07,1.23.07,1.89h-.44Z"/><path class="cls-2" d="M206.53,303.29h7.79v.88h-9.77v-11.85c0-.66-.09-1.19-.27-1.59-.18-.4-.6-.6-1.26-.6h-.44v-.44h1.98c.38,0,.7.03.95.1.26.07.46.2.61.39.15.2.26.47.32.81.06.34.09.79.09,1.33v10.98Z"/><path class="cls-2" d="M229.01,304.17c-.25.07-.54.11-.88.11-.25,0-.54-.03-.87-.09-.33-.06-.67-.19-1.01-.38-.34-.2-.68-.49-1.01-.87-.33-.38-.61-.88-.85-1.51l-.55-1.43h-6.15l-1.76,4.17h-.99l6.15-14.49h.66l4.83,11.74c.18.41.34.76.49,1.04s.33.52.52.69c.19.18.4.31.61.4.22.09.48.15.79.17v.44ZM218.03,299.12h5.38l-2.63-6.37-2.74,6.37Z"/><path class="cls-2" d="M239.17,300.48c0,.62-.11,1.17-.32,1.67-.21.5-.52.93-.91,1.28s-.87.63-1.44.82c-.56.19-1.2.29-1.9.29-.6,0-1.2-.06-1.79-.19s-1.13-.3-1.6-.54c-.48-.23-.86-.52-1.16-.84s-.45-.7-.45-1.11v-2.35h.44c.25,1.48.73,2.54,1.45,3.18.72.64,1.7.97,2.94.97.38,0,.74-.05,1.08-.14.34-.09.64-.24.91-.43.26-.19.47-.42.63-.7.16-.28.24-.6.24-.97,0-.64-.2-1.19-.6-1.65-.4-.45-1.01-.91-1.81-1.38l-2.7-1.6c-.94-.56-1.6-1.12-1.99-1.69s-.58-1.27-.58-2.09c0-.57.1-1.08.31-1.54.21-.45.49-.85.87-1.17.37-.33.82-.58,1.34-.76.52-.18,1.1-.26,1.75-.26.54,0,1.09.06,1.66.18.56.12,1.07.29,1.53.52.45.23.83.5,1.12.83.29.33.44.7.44,1.11v2.35h-.44c-.25-1.48-.72-2.53-1.42-3.16-.7-.63-1.67-.94-2.9-.94-.32,0-.63.05-.94.15-.31.1-.57.25-.81.44-.23.19-.42.42-.57.7-.15.28-.22.59-.22.92s.05.61.15.86c.1.25.26.48.46.7.2.22.46.44.77.65.31.21.66.44,1.05.67l2.7,1.6c.47.28.87.55,1.22.8.34.26.63.53.85.81.22.29.38.59.49.91.11.32.16.69.16,1.1Z"/><path class="cls-2" d="M250.88,300.48c0,.62-.11,1.17-.32,1.67-.21.5-.52.93-.91,1.28s-.87.63-1.44.82c-.56.19-1.2.29-1.9.29-.6,0-1.2-.06-1.79-.19s-1.13-.3-1.6-.54c-.48-.23-.86-.52-1.16-.84s-.45-.7-.45-1.11v-2.35h.44c.25,1.48.73,2.54,1.45,3.18.72.64,1.7.97,2.94.97.38,0,.74-.05,1.08-.14.34-.09.64-.24.91-.43.26-.19.47-.42.63-.7.16-.28.24-.6.24-.97,0-.64-.2-1.19-.6-1.65-.4-.45-1.01-.91-1.81-1.38l-2.7-1.6c-.94-.56-1.6-1.12-1.99-1.69s-.58-1.27-.58-2.09c0-.57.1-1.08.31-1.54.21-.45.49-.85.87-1.17s.82-.58,1.34-.76c.52-.18,1.1-.26,1.75-.26.54,0,1.09.06,1.66.18.56.12,1.07.29,1.53.52.45.23.83.5,1.12.83.29.33.44.7.44,1.11v2.35h-.44c-.25-1.48-.72-2.53-1.42-3.16-.7-.63-1.66-.94-2.9-.94-.32,0-.63.05-.94.15-.31.1-.57.25-.81.44-.23.19-.42.42-.57.7-.15.28-.22.59-.22.92s.05.61.15.86c.1.25.26.48.46.7.21.22.46.44.77.65.31.21.66.44,1.05.67l2.7,1.6c.47.28.87.55,1.22.8.34.26.63.53.85.81.22.29.38.59.49.91.11.32.16.69.16,1.1Z"/><path class="cls-2" d="M253.77,289.68h1.98v11.85c0,.66.09,1.19.27,1.59.18.4.6.6,1.26.6h.44v.44h-1.98c-.38,0-.7-.03-.96-.1-.26-.07-.46-.2-.61-.4-.15-.2-.26-.46-.32-.8-.06-.34-.09-.78-.09-1.34v-11.85Z"/><path class="cls-2" d="M270.85,294.29c-.28-1.43-.79-2.49-1.55-3.16-.75-.67-1.74-1.01-2.95-1.01-.72,0-1.39.12-2.03.36-.64.24-1.2.64-1.68,1.19s-.86,1.27-1.14,2.16c-.28.89-.42,2-.42,3.32,0,.82.1,1.62.3,2.41.2.79.51,1.49.93,2.11.42.62.97,1.11,1.64,1.49s1.47.57,2.4.57c1.1,0,2.04-.26,2.83-.79.79-.53,1.49-1.29,2.11-2.28l.44.33c-.35.69-.74,1.26-1.17,1.72-.43.46-.9.83-1.39,1.12-.5.29-1.04.49-1.61.6-.58.12-1.2.18-1.85.18-1.04,0-1.98-.19-2.82-.58-.84-.39-1.56-.92-2.15-1.59-.59-.67-1.05-1.46-1.36-2.37-.31-.91-.47-1.88-.47-2.92,0-1.1.18-2.13.54-3.08.36-.96.85-1.8,1.46-2.51.61-.72,1.34-1.28,2.16-1.69.83-.41,1.71-.61,2.65-.61,1.21,0,2.26.17,3.14.52.88.34,1.51.76,1.91,1.24.28.34.44.81.48,1.41.04.6.07,1.23.07,1.89h-.44Z"/><path class="cls-2" d="M287.05,304.17c-.25.07-.54.11-.88.11-.25,0-.54-.03-.87-.09-.33-.06-.67-.19-1.01-.38-.34-.2-.68-.49-1.01-.87-.33-.38-.61-.88-.85-1.51l-.55-1.43h-6.15l-1.76,4.17h-.99l6.15-14.49h.66l4.83,11.74c.18.41.34.76.49,1.04s.33.52.52.69c.19.18.4.31.61.4.22.09.48.15.79.17v.44ZM276.08,299.12h5.38l-2.63-6.37-2.74,6.37Z"/><path class="cls-2" d="M290.76,303.29h7.79v.88h-9.77v-11.85c0-.66-.09-1.19-.27-1.59-.18-.4-.6-.6-1.26-.6h-.44v-.44h1.98c.38,0,.7.03.95.1.26.07.46.2.61.39.15.2.26.47.32.81.06.34.09.79.09,1.33v10.98Z"/><line class="cls-1" x1=".5" x2=".5" y2="482.39"/></g></svg>